<?xml version="1.0" encoding="UTF-8" standalone="no"?>
<!DOCTYPE svg PUBLIC "-//W3C//DTD SVG 1.1//EN" "http://www.w3.org/Graphics/SVG/1.1/DTD/svg11.dtd">
<svg width="100%" height="100%" viewBox="0 0 2248 1498" version="1.1" xmlns="http://www.w3.org/2000/svg" xmlns:xlink="http://www.w3.org/1999/xlink" xml:space="preserve" xmlns:serif="http://www.serif.com/" style="fill-rule:evenodd;clip-rule:evenodd;stroke-linejoin:round;stroke-miterlimit:2;">
    <g id="DE">
        <path d="M1675.69,676.181L1693.7,665.778L1711.72,676.181L1711.72,696.986L1693.7,707.389L1675.69,696.986L1675.69,676.181Z" style="fill-rule:nonzero;"/>
    </g>
    <g id="FL">
        <path d="M1117.12,1144.31L1135.14,1133.9L1153.16,1144.31L1153.16,1165.11L1135.14,1175.51L1117.12,1165.11L1117.12,1144.31Z" style="fill-rule:nonzero;"/>
        <path d="M1153.16,1144.31L1171.18,1133.9L1189.2,1144.31L1189.2,1165.11L1171.18,1175.51L1153.16,1165.11L1153.16,1144.31Z" style="fill-rule:nonzero;"/>
        <path d="M1135.14,1175.51L1153.16,1165.11L1171.18,1175.51L1171.18,1196.32L1153.16,1206.72L1135.14,1196.32L1135.14,1175.51Z" style="fill-rule:nonzero;"/>
        <path d="M1171.18,1175.51L1189.2,1165.11L1207.21,1175.51L1207.21,1196.32L1189.2,1206.72L1171.18,1196.32L1171.18,1175.51Z" style="fill-rule:nonzero;"/>
        <path d="M1225.23,1144.31L1243.25,1133.9L1261.27,1144.31L1261.27,1165.11L1243.25,1175.51L1225.23,1165.11L1225.23,1144.31Z" style="fill-rule:nonzero;"/>
        <path d="M1207.21,1175.51L1225.23,1165.11L1243.25,1175.51L1243.25,1196.32L1225.23,1206.72L1207.21,1196.32L1207.21,1175.51Z" style="fill-rule:nonzero;"/>
        <path d="M1225.23,1206.72L1243.25,1196.32L1261.27,1206.72L1261.27,1227.53L1243.25,1237.93L1225.23,1227.53L1225.23,1206.72Z" style="fill-rule:nonzero;"/>
        <path d="M1063.07,1175.51L1081.09,1165.11L1099.11,1175.51L1099.11,1196.32L1081.09,1206.72L1063.07,1196.32L1063.07,1175.51Z" style="fill-rule:nonzero;"/>
        <path d="M1261.27,1144.31L1279.29,1133.9L1297.31,1144.31L1297.31,1165.11L1279.29,1175.51L1261.27,1165.11L1261.27,1144.31Z" style="fill-rule:nonzero;"/>
        <path d="M1189.2,1144.31L1207.21,1133.9L1225.23,1144.31L1225.23,1165.11L1207.21,1175.51L1189.2,1165.11L1189.2,1144.31Z" style="fill-rule:nonzero;"/>
        <path d="M1243.25,1175.51L1261.27,1165.11L1279.29,1175.51L1279.29,1196.32L1261.27,1206.72L1243.25,1196.32L1243.25,1175.51Z" style="fill-rule:nonzero;"/>
        <path d="M1261.27,1206.72L1279.29,1196.32L1297.31,1206.72L1297.31,1227.53L1279.29,1237.93L1261.27,1227.53L1261.27,1206.72Z" style="fill-rule:nonzero;"/>
        <path d="M1243.25,1237.93L1261.27,1227.53L1279.29,1237.93L1279.29,1258.74L1261.27,1269.14L1243.25,1258.74L1243.25,1237.93Z" style="fill-rule:nonzero;"/>
        <path d="M1261.27,1269.14L1279.29,1258.74L1297.31,1269.14L1297.31,1289.94L1279.29,1300.35L1261.27,1289.94L1261.27,1269.14Z" style="fill-rule:nonzero;"/>
        <path d="M1351.36,1300.35L1369.38,1289.94L1387.4,1300.35L1387.4,1321.15L1369.38,1331.56L1351.36,1321.15L1351.36,1300.35Z" style="fill-rule:nonzero;"/>
        <path d="M1333.34,1331.56L1351.36,1321.15L1369.38,1331.56L1369.38,1352.36L1351.36,1362.76L1333.34,1352.36L1333.34,1331.56Z" style="fill-rule:nonzero;"/>
        <path d="M1279.29,1175.51L1297.31,1165.11L1315.32,1175.51L1315.32,1196.32L1297.31,1206.72L1279.29,1196.32L1279.29,1175.51Z" style="fill-rule:nonzero;"/>
        <path d="M1297.31,1206.72L1315.32,1196.32L1333.34,1206.72L1333.34,1227.53L1315.32,1237.93L1297.31,1227.53L1297.31,1206.72Z" style="fill-rule:nonzero;"/>
        <path d="M1279.29,1237.93L1297.31,1227.53L1315.32,1237.93L1315.32,1258.74L1297.31,1269.14L1279.29,1258.74L1279.29,1237.93Z" style="fill-rule:nonzero;"/>
        <path d="M1297.31,1269.14L1315.32,1258.74L1333.34,1269.14L1333.34,1289.94L1315.32,1300.35L1297.31,1289.94L1297.31,1269.14Z" style="fill-rule:nonzero;"/>
        <path d="M1099.11,1175.51L1117.12,1165.11L1135.14,1175.51L1135.14,1196.32L1117.12,1206.72L1099.11,1196.32L1099.11,1175.51Z" style="fill-rule:nonzero;"/>
        <path d="M1045.05,1144.31L1063.07,1133.9L1081.09,1144.31L1081.09,1165.11L1063.07,1175.51L1045.05,1165.11L1045.05,1144.31Z" style="fill-rule:nonzero;"/>
        <path d="M1315.32,1237.93L1333.34,1227.53L1351.36,1237.93L1351.36,1258.74L1333.34,1269.14L1315.32,1258.74L1315.32,1237.93Z" style="fill-rule:nonzero;"/>
        <path d="M1333.34,1269.14L1351.36,1258.74L1369.38,1269.14L1369.38,1289.94L1351.36,1300.35L1333.34,1289.94L1333.34,1269.14Z" style="fill-rule:nonzero;"/>
        <path d="M1315.32,1300.35L1333.34,1289.94L1351.36,1300.35L1351.36,1321.15L1333.34,1331.56L1315.32,1321.15L1315.32,1300.35Z" style="fill-rule:nonzero;"/>
        <path d="M1279.29,1300.35L1297.31,1289.94L1315.32,1300.35L1315.32,1321.15L1297.31,1331.56L1279.29,1321.15L1279.29,1300.35Z" style="fill-rule:nonzero;"/>
        <path d="M1081.09,1144.31L1099.11,1133.9L1117.12,1144.31L1117.12,1165.11L1099.11,1175.51L1081.09,1165.11L1081.09,1144.31Z" style="fill-rule:nonzero;"/>
        <path d="M1189.2,1206.72L1207.21,1196.32L1225.23,1206.72L1225.23,1227.53L1207.21,1237.93L1189.2,1227.53L1189.2,1206.72Z" style="fill-rule:nonzero;"/>
    </g>
    <g id="GA">
        <path d="M1261.27,957.056L1279.29,946.653L1297.31,957.056L1297.31,977.861L1279.29,988.264L1261.27,977.861L1261.27,957.056Z" style="fill-rule:nonzero;"/>
        <path d="M1207.21,988.264L1225.23,977.861L1243.25,988.264L1243.25,1009.07L1225.23,1019.47L1207.21,1009.07L1207.21,988.264Z" style="fill-rule:nonzero;"/>
        <path d="M1225.23,1019.47L1243.25,1009.07L1261.27,1019.47L1261.27,1040.28L1243.25,1050.68L1225.23,1040.28L1225.23,1019.47Z" style="fill-rule:nonzero;"/>
        <path d="M1297.31,1081.89L1315.32,1071.49L1333.34,1081.89L1333.34,1102.69L1315.32,1113.1L1297.31,1102.69L1297.31,1081.89Z" style="fill-rule:nonzero;"/>
        <path d="M1243.25,988.264L1261.27,977.861L1279.29,988.264L1279.29,1009.07L1261.27,1019.47L1243.25,1009.07L1243.25,988.264Z" style="fill-rule:nonzero;"/>
        <path d="M1261.27,1019.47L1279.29,1009.07L1297.31,1019.47L1297.31,1040.28L1279.29,1050.68L1261.27,1040.28L1261.27,1019.47Z" style="fill-rule:nonzero;"/>
        <path d="M1225.23,1081.89L1243.25,1071.49L1261.27,1081.89L1261.27,1102.69L1243.25,1113.1L1225.23,1102.69L1225.23,1081.89Z" style="fill-rule:nonzero;"/>
        <path d="M1315.32,1050.68L1333.34,1040.28L1351.36,1050.68L1351.36,1071.49L1333.34,1081.89L1315.32,1071.49L1315.32,1050.68Z" style="fill-rule:nonzero;"/>
        <path d="M1279.29,988.264L1297.31,977.861L1315.32,988.264L1315.32,1009.07L1297.31,1019.47L1279.29,1009.07L1279.29,988.264Z" style="fill-rule:nonzero;"/>
        <path d="M1297.31,1019.47L1315.32,1009.07L1333.34,1019.47L1333.34,1040.28L1315.32,1050.68L1297.31,1040.28L1297.31,1019.47Z" style="fill-rule:nonzero;"/>
        <path d="M1261.27,1081.89L1279.29,1071.49L1297.31,1081.89L1297.31,1102.69L1279.29,1113.1L1261.27,1102.69L1261.27,1081.89Z" style="fill-rule:nonzero;"/>
        <path d="M1279.29,1050.68L1297.31,1040.28L1315.32,1050.68L1315.32,1071.49L1297.31,1081.89L1279.29,1071.49L1279.29,1050.68Z" style="fill-rule:nonzero;"/>
        <path d="M1243.25,1050.68L1261.27,1040.28L1279.29,1050.68L1279.29,1071.49L1261.27,1081.89L1243.25,1071.49L1243.25,1050.68Z" style="fill-rule:nonzero;"/>
        <path d="M1225.23,957.056L1243.25,946.653L1261.27,957.056L1261.27,977.861L1243.25,988.264L1225.23,977.861L1225.23,957.056Z" style="fill-rule:nonzero;"/>
    </g>
    <g id="HI">
        <path d="M504.508,1269.14L522.526,1258.74L540.544,1269.14L540.544,1289.94L522.526,1300.35L504.508,1289.94L504.508,1269.14Z" style="fill-rule:nonzero;"/>
        <path d="M522.526,1300.35L540.544,1289.94L558.562,1300.35L558.562,1321.15L540.544,1331.56L522.526,1321.15L522.526,1300.35Z" style="fill-rule:nonzero;"/>
    </g>
    <g id="ID">
        <path d="M342.345,613.764L360.363,603.361L378.381,613.764L378.381,634.569L360.363,644.972L342.345,634.569L342.345,613.764Z" style="fill-rule:nonzero;"/>
        <path d="M360.363,644.972L378.381,634.569L396.399,644.972L396.399,665.778L378.381,676.181L360.363,665.778L360.363,644.972Z" style="fill-rule:nonzero;"/>
    </g>
    <g id="IL">
        <path d="M918.925,676.181L936.943,665.778L954.961,676.181L954.961,696.986L936.943,707.389L918.925,696.986L918.925,676.181Z" style="fill-rule:nonzero;"/>
        <path d="M990.998,676.181L1009.02,665.778L1027.03,676.181L1027.03,696.986L1009.02,707.389L990.998,696.986L990.998,676.181Z" style="fill-rule:nonzero;"/>
        <path d="M918.925,738.597L936.943,728.194L954.961,738.597L954.961,759.403L936.943,769.806L918.925,759.403L918.925,738.597Z" style="fill-rule:nonzero;"/>
        <path d="M954.961,801.014L972.98,790.611L990.998,801.014L990.998,821.819L972.98,832.222L954.961,821.819L954.961,801.014Z" style="fill-rule:nonzero;"/>
        <path d="M954.961,676.181L972.98,665.778L990.998,676.181L990.998,696.986L972.98,707.389L954.961,696.986L954.961,676.181Z" style="fill-rule:nonzero;"/>
        <path d="M936.943,707.389L954.961,696.986L972.98,707.389L972.98,728.194L954.961,738.597L936.943,728.194L936.943,707.389Z" style="fill-rule:nonzero;"/>
        <path d="M954.961,738.597L972.98,728.194L990.998,738.597L990.998,759.403L972.98,769.806L954.961,759.403L954.961,738.597Z" style="fill-rule:nonzero;"/>
        <path d="M936.943,769.806L954.961,759.403L972.98,769.806L972.98,790.611L954.961,801.014L936.943,790.611L936.943,769.806Z" style="fill-rule:nonzero;"/>
        <path d="M918.925,801.014L936.943,790.611L954.961,801.014L954.961,821.819L936.943,832.222L918.925,821.819L918.925,801.014Z" style="fill-rule:nonzero;"/>
        <path d="M972.98,707.389L990.998,696.986L1009.02,707.389L1009.02,728.194L990.998,738.597L972.98,728.194L972.98,707.389Z" style="fill-rule:nonzero;"/>
        <path d="M972.98,769.806L990.998,759.403L1009.02,769.806L1009.02,790.611L990.998,801.014L972.98,790.611L972.98,769.806Z" style="fill-rule:nonzero;"/>
        <path d="M936.943,832.222L954.961,821.819L972.98,832.222L972.98,853.028L954.961,863.431L936.943,853.028L936.943,832.222Z" style="fill-rule:nonzero;"/>
        <path d="M972.98,832.222L990.998,821.819L1009.02,832.222L1009.02,853.028L990.998,863.431L972.98,853.028L972.98,832.222Z" style="fill-rule:nonzero;"/>
        <path d="M1009.02,707.389L1027.03,696.986L1045.05,707.389L1045.05,728.194L1027.03,738.597L1009.02,728.194L1009.02,707.389Z" style="fill-rule:nonzero;"/>
        <path d="M990.998,801.014L1009.02,790.611L1027.03,801.014L1027.03,821.819L1009.02,832.222L990.998,821.819L990.998,801.014Z" style="fill-rule:nonzero;"/>
        <path d="M990.998,738.597L1009.02,728.194L1027.03,738.597L1027.03,759.403L1009.02,769.806L990.998,759.403L990.998,738.597Z" style="fill-rule:nonzero;"/>
        <path d="M1009.02,769.806L1027.03,759.403L1045.05,769.806L1045.05,790.611L1027.03,801.014L1009.02,790.611L1009.02,769.806Z" style="fill-rule:nonzero;"/>
    </g>
    <g id="IN">
        <path d="M1099.11,676.181L1117.12,665.778L1135.14,676.181L1135.14,696.986L1117.12,707.389L1099.11,696.986L1099.11,676.181Z" style="fill-rule:nonzero;"/>
        <path d="M1081.09,644.972L1099.11,634.569L1117.12,644.972L1117.12,665.778L1099.11,676.181L1081.09,665.778L1081.09,644.972Z" style="fill-rule:nonzero;"/>
        <path d="M1135.14,676.181L1153.16,665.778L1171.18,676.181L1171.18,696.986L1153.16,707.389L1135.14,696.986L1135.14,676.181Z" style="fill-rule:nonzero;"/>
        <path d="M1117.12,707.389L1135.14,696.986L1153.16,707.389L1153.16,728.194L1135.14,738.597L1117.12,728.194L1117.12,707.389Z" style="fill-rule:nonzero;"/>
        <path d="M1081.09,707.389L1099.11,696.986L1117.12,707.389L1117.12,728.194L1099.11,738.597L1081.09,728.194L1081.09,707.389Z" style="fill-rule:nonzero;"/>
        <path d="M1117.12,644.972L1135.14,634.569L1153.16,644.972L1153.16,665.778L1135.14,676.181L1117.12,665.778L1117.12,644.972Z" style="fill-rule:nonzero;"/>
        <path d="M1063.07,738.597L1081.09,728.194L1099.11,738.597L1099.11,759.403L1081.09,769.806L1063.07,759.403L1063.07,738.597Z" style="fill-rule:nonzero;"/>
        <path d="M1063.07,676.181L1081.09,665.778L1099.11,676.181L1099.11,696.986L1081.09,707.389L1063.07,696.986L1063.07,676.181Z" style="fill-rule:nonzero;"/>
        <path d="M1099.11,738.597L1117.12,728.194L1135.14,738.597L1135.14,759.403L1117.12,769.806L1099.11,759.403L1099.11,738.597Z" style="fill-rule:nonzero;"/>
    </g>
    <g id="IA">
        <path d="M738.744,676.181L756.762,665.778L774.78,676.181L774.78,696.986L756.762,707.389L738.744,696.986L738.744,676.181Z" style="fill-rule:nonzero;"/>
        <path d="M792.798,707.389L810.816,696.986L828.834,707.389L828.834,728.194L810.816,738.597L792.798,728.194L792.798,707.389Z" style="fill-rule:nonzero;"/>
        <path d="M774.78,676.181L792.798,665.778L810.816,676.181L810.816,696.986L792.798,707.389L774.78,696.986L774.78,676.181Z" style="fill-rule:nonzero;"/>
        <path d="M756.762,707.389L774.78,696.986L792.798,707.389L792.798,728.194L774.78,738.597L756.762,728.194L756.762,707.389Z" style="fill-rule:nonzero;"/>
    </g>
    <g id="KS">
        <path d="M612.617,769.806L630.635,759.403L648.653,769.806L648.653,790.611L630.635,801.014L612.617,790.611L612.617,769.806Z" style="fill-rule:nonzero;"/>
        <path d="M648.653,769.806L666.671,759.403L684.689,769.806L684.689,790.611L666.671,801.014L648.653,790.611L648.653,769.806Z" style="fill-rule:nonzero;"/>
        <path d="M666.671,801.014L684.689,790.611L702.707,801.014L702.707,821.819L684.689,832.222L666.671,821.819L666.671,801.014Z" style="fill-rule:nonzero;"/>
        <path d="M630.635,801.014L648.653,790.611L666.671,801.014L666.671,821.819L648.653,832.222L630.635,821.819L630.635,801.014Z" style="fill-rule:nonzero;"/>
    </g>
    <g id="KY">
        <path d="M1171.18,801.014L1189.2,790.611L1207.21,801.014L1207.21,821.819L1189.2,832.222L1171.18,821.819L1171.18,801.014Z" style="fill-rule:nonzero;"/>
        <path d="M1081.09,832.222L1099.11,821.819L1117.12,832.222L1117.12,853.028L1099.11,863.431L1081.09,853.028L1081.09,832.222Z" style="fill-rule:nonzero;"/>
        <path d="M1117.12,832.222L1135.14,821.819L1153.16,832.222L1153.16,853.028L1135.14,863.431L1117.12,853.028L1117.12,832.222Z" style="fill-rule:nonzero;"/>
        <path d="M1153.16,832.222L1171.18,821.819L1189.2,832.222L1189.2,853.028L1171.18,863.431L1153.16,853.028L1153.16,832.222Z" style="fill-rule:nonzero;"/>
        <path d="M1189.2,832.222L1207.21,821.819L1225.23,832.222L1225.23,853.028L1207.21,863.431L1189.2,853.028L1189.2,832.222Z" style="fill-rule:nonzero;"/>
        <path d="M1135.14,801.014L1153.16,790.611L1171.18,801.014L1171.18,821.819L1153.16,832.222L1135.14,821.819L1135.14,801.014Z" style="fill-rule:nonzero;"/>
    </g>
    <g id="LA">
        <path d="M882.889,1050.68L900.907,1040.28L918.925,1050.68L918.925,1071.49L900.907,1081.89L882.889,1071.49L882.889,1050.68Z" style="fill-rule:nonzero;"/>
        <path d="M936.943,1019.47L954.961,1009.07L972.98,1019.47L972.98,1040.28L954.961,1050.68L936.943,1040.28L936.943,1019.47Z" style="fill-rule:nonzero;"/>
        <path d="M918.925,1050.68L936.943,1040.28L954.961,1050.68L954.961,1071.49L936.943,1081.89L918.925,1071.49L918.925,1050.68Z" style="fill-rule:nonzero;"/>
        <path d="M936.943,1081.89L954.961,1071.49L972.98,1081.89L972.98,1102.69L954.961,1113.1L936.943,1102.69L936.943,1081.89Z" style="fill-rule:nonzero;"/>
        <path d="M900.907,1081.89L918.925,1071.49L936.943,1081.89L936.943,1102.69L918.925,1113.1L900.907,1102.69L900.907,1081.89Z" style="fill-rule:nonzero;"/>
        <path d="M900.907,1019.47L918.925,1009.07L936.943,1019.47L936.943,1040.28L918.925,1050.68L900.907,1040.28L900.907,1019.47Z" style="fill-rule:nonzero;"/>
    </g>
    <g id="ME">
        <path d="M1801.81,332.889L1819.83,322.486L1837.85,332.889L1837.85,353.694L1819.83,364.097L1801.81,353.694L1801.81,332.889Z" style="fill-rule:nonzero;"/>
        <path d="M1765.78,332.889L1783.8,322.486L1801.81,332.889L1801.81,353.694L1783.8,364.097L1765.78,353.694L1765.78,332.889Z" style="fill-rule:nonzero;"/>
    </g>
    <g id="MD">
        <path d="M1441.45,644.972L1459.47,634.569L1477.49,644.972L1477.49,665.778L1459.47,676.181L1441.45,665.778L1441.45,644.972Z" style="fill-rule:nonzero;"/>
        <path d="M1477.49,644.972L1495.51,634.569L1513.52,644.972L1513.52,665.778L1495.51,676.181L1477.49,665.778L1477.49,644.972Z" style="fill-rule:nonzero;"/>
        <path d="M1513.52,644.972L1531.54,634.569L1549.56,644.972L1549.56,665.778L1531.54,676.181L1513.52,665.778L1513.52,644.972Z" style="fill-rule:nonzero;"/>
        <path d="M1549.56,644.972L1567.58,634.569L1585.6,644.972L1585.6,665.778L1567.58,676.181L1549.56,665.778L1549.56,644.972Z" style="fill-rule:nonzero;"/>
        <path d="M1585.6,644.972L1603.61,634.569L1621.63,644.972L1621.63,665.778L1603.61,676.181L1585.6,665.778L1585.6,644.972Z" style="fill-rule:nonzero;"/>
        <path d="M1621.63,707.389L1639.65,696.986L1657.67,707.389L1657.67,728.194L1639.65,738.597L1621.63,728.194L1621.63,707.389Z" style="fill-rule:nonzero;"/>
        <path d="M1603.61,676.181L1621.63,665.778L1639.65,676.181L1639.65,696.986L1621.63,707.389L1603.61,696.986L1603.61,676.181Z" style="fill-rule:nonzero;"/>
        <path d="M1531.54,676.181L1549.56,665.778L1567.58,676.181L1567.58,696.986L1549.56,707.389L1531.54,696.986L1531.54,676.181Z" style="fill-rule:nonzero;"/>
    </g>
    <g id="MA">
        <path d="M1783.8,176.847L1801.81,166.444L1819.83,176.847L1819.83,197.653L1801.81,208.056L1783.8,197.653L1783.8,176.847Z" style="fill-rule:nonzero;"/>
        <path d="M1729.74,270.472L1747.76,260.069L1765.78,270.472L1765.78,291.278L1747.76,301.681L1729.74,291.278L1729.74,270.472Z" style="fill-rule:nonzero;"/>
        <path d="M1801.81,208.056L1819.83,197.653L1837.85,208.056L1837.85,228.861L1819.83,239.264L1801.81,228.861L1801.81,208.056Z" style="fill-rule:nonzero;"/>
        <path d="M1729.74,208.056L1747.76,197.653L1765.78,208.056L1765.78,228.861L1747.76,239.264L1729.74,228.861L1729.74,208.056Z" style="fill-rule:nonzero;"/>
        <path d="M1711.72,239.264L1729.74,228.861L1747.76,239.264L1747.76,260.069L1729.74,270.472L1711.72,260.069L1711.72,239.264Z" style="fill-rule:nonzero;"/>
        <path d="M1747.76,176.847L1765.78,166.444L1783.8,176.847L1783.8,197.653L1765.78,208.056L1747.76,197.653L1747.76,176.847Z" style="fill-rule:nonzero;"/>
        <path d="M1783.8,239.264L1801.81,228.861L1819.83,239.264L1819.83,260.069L1801.81,270.472L1783.8,260.069L1783.8,239.264Z" style="fill-rule:nonzero;"/>
        <path d="M1765.78,208.056L1783.8,197.653L1801.81,208.056L1801.81,228.861L1783.8,239.264L1765.78,228.861L1765.78,208.056Z" style="fill-rule:nonzero;"/>
        <path d="M1747.76,239.264L1765.78,228.861L1783.8,239.264L1783.8,260.069L1765.78,270.472L1747.76,260.069L1747.76,239.264Z" style="fill-rule:nonzero;"/>
    </g>
    <g id="MI">
        <path d="M990.998,426.514L1009.02,416.111L1027.03,426.514L1027.03,447.319L1009.02,457.722L990.998,447.319L990.998,426.514Z" style="fill-rule:nonzero;"/>
        <path d="M1063.07,488.931L1081.09,478.528L1099.11,488.931L1099.11,509.736L1081.09,520.139L1063.07,509.736L1063.07,488.931Z" style="fill-rule:nonzero;"/>
        <path d="M1081.09,457.722L1099.11,447.319L1117.12,457.722L1117.12,478.528L1099.11,488.931L1081.09,478.528L1081.09,457.722Z" style="fill-rule:nonzero;"/>
        <path d="M1117.12,457.722L1135.14,447.319L1153.16,457.722L1153.16,478.528L1135.14,488.931L1117.12,478.528L1117.12,457.722Z" style="fill-rule:nonzero;"/>
        <path d="M1081.09,582.556L1099.11,572.153L1117.12,582.556L1117.12,603.361L1099.11,613.764L1081.09,603.361L1081.09,582.556Z" style="fill-rule:nonzero;"/>
        <path d="M1117.12,582.556L1135.14,572.153L1153.16,582.556L1153.16,603.361L1135.14,613.764L1117.12,603.361L1117.12,582.556Z" style="fill-rule:nonzero;"/>
        <path d="M1099.11,488.931L1117.12,478.528L1135.14,488.931L1135.14,509.736L1117.12,520.139L1099.11,509.736L1099.11,488.931Z" style="fill-rule:nonzero;"/>
        <path d="M1081.09,520.139L1099.11,509.736L1117.12,520.139L1117.12,540.944L1099.11,551.347L1081.09,540.944L1081.09,520.139Z" style="fill-rule:nonzero;"/>
        <path d="M1099.11,551.347L1117.12,540.944L1135.14,551.347L1135.14,572.153L1117.12,582.556L1099.11,572.153L1099.11,551.347Z" style="fill-rule:nonzero;"/>
        <path d="M1153.16,520.139L1171.18,509.736L1189.2,520.139L1189.2,540.944L1171.18,551.347L1153.16,540.944L1153.16,520.139Z" style="fill-rule:nonzero;"/>
        <path d="M1135.14,551.347L1153.16,540.944L1171.18,551.347L1171.18,572.153L1153.16,582.556L1135.14,572.153L1135.14,551.347Z" style="fill-rule:nonzero;"/>
        <path d="M1117.12,520.139L1135.14,509.736L1153.16,520.139L1153.16,540.944L1135.14,551.347L1117.12,540.944L1117.12,520.139Z" style="fill-rule:nonzero;"/>
        <path d="M1027.03,426.514L1045.05,416.111L1063.07,426.514L1063.07,447.319L1045.05,457.722L1027.03,447.319L1027.03,426.514Z" style="fill-rule:nonzero;"/>
    </g>
    <g id="MN">
        <path d="M738.744,488.931L756.762,478.528L774.78,488.931L774.78,509.736L756.762,520.139L738.744,509.736L738.744,488.931Z" style="fill-rule:nonzero;"/>
        <path d="M756.762,520.139L774.78,509.736L792.798,520.139L792.798,540.944L774.78,551.347L756.762,540.944L756.762,520.139Z" style="fill-rule:nonzero;"/>
        <path d="M774.78,488.931L792.798,478.528L810.816,488.931L810.816,509.736L792.798,520.139L774.78,509.736L774.78,488.931Z" style="fill-rule:nonzero;"/>
        <path d="M738.744,551.347L756.762,540.944L774.78,551.347L774.78,572.153L756.762,582.556L738.744,572.153L738.744,551.347Z" style="fill-rule:nonzero;"/>
        <path d="M720.726,520.139L738.744,509.736L756.762,520.139L756.762,540.944L738.744,551.347L720.726,540.944L720.726,520.139Z" style="fill-rule:nonzero;"/>
        <path d="M720.726,582.556L738.744,572.153L756.762,582.556L756.762,603.361L738.744,613.764L720.726,603.361L720.726,582.556Z" style="fill-rule:nonzero;"/>
        <path d="M756.762,582.556L774.78,572.153L792.798,582.556L792.798,603.361L774.78,613.764L756.762,603.361L756.762,582.556Z" style="fill-rule:nonzero;"/>
        <path d="M702.707,488.931L720.726,478.528L738.744,488.931L738.744,509.736L720.726,520.139L702.707,509.736L702.707,488.931Z" style="fill-rule:nonzero;"/>
    </g>
    <g id="MS">
        <path d="M1027.03,1050.68L1045.05,1040.28L1063.07,1050.68L1063.07,1071.49L1045.05,1081.89L1027.03,1071.49L1027.03,1050.68Z" style="fill-rule:nonzero;"/>
        <path d="M1009.02,1019.47L1027.03,1009.07L1045.05,1019.47L1045.05,1040.28L1027.03,1050.68L1009.02,1040.28L1009.02,1019.47Z" style="fill-rule:nonzero;"/>
        <path d="M990.998,1050.68L1009.02,1040.28L1027.03,1050.68L1027.03,1071.49L1009.02,1081.89L990.998,1071.49L990.998,1050.68Z" style="fill-rule:nonzero;"/>
        <path d="M1009.02,1081.89L1027.03,1071.49L1045.05,1081.89L1045.05,1102.69L1027.03,1113.1L1009.02,1102.69L1009.02,1081.89Z" style="fill-rule:nonzero;"/>
    </g>
    <g id="MO">
        <path d="M810.816,801.014L828.834,790.611L846.853,801.014L846.853,821.819L828.834,832.222L810.816,821.819L810.816,801.014Z" style="fill-rule:nonzero;"/>
        <path d="M828.834,769.806L846.853,759.403L864.871,769.806L864.871,790.611L846.853,801.014L828.834,790.611L828.834,769.806Z" style="fill-rule:nonzero;"/>
        <path d="M792.798,832.222L810.816,821.819L828.834,832.222L828.834,853.028L810.816,863.431L792.798,853.028L792.798,832.222Z" style="fill-rule:nonzero;"/>
        <path d="M792.798,769.806L810.816,759.403L828.834,769.806L828.834,790.611L810.816,801.014L792.798,790.611L792.798,769.806Z" style="fill-rule:nonzero;"/>
        <path d="M882.889,863.431L900.907,853.028L918.925,863.431L918.925,884.236L900.907,894.639L882.889,884.236L882.889,863.431Z" style="fill-rule:nonzero;"/>
        <path d="M846.853,801.014L864.871,790.611L882.889,801.014L882.889,821.819L864.871,832.222L846.853,821.819L846.853,801.014Z" style="fill-rule:nonzero;"/>
        <path d="M828.834,832.222L846.853,821.819L864.871,832.222L864.871,853.028L846.853,863.431L828.834,853.028L828.834,832.222Z" style="fill-rule:nonzero;"/>
        <path d="M864.871,832.222L882.889,821.819L900.907,832.222L900.907,853.028L882.889,863.431L864.871,853.028L864.871,832.222Z" style="fill-rule:nonzero;"/>
    </g>
    <g id="MT">
        <path d="M486.49,488.931L504.508,478.528L522.526,488.931L522.526,509.736L504.508,520.139L486.49,509.736L486.49,488.931Z" style="fill-rule:nonzero;"/>
        <path d="M450.453,488.931L468.472,478.528L486.49,488.931L486.49,509.736L468.472,520.139L450.453,509.736L450.453,488.931Z" style="fill-rule:nonzero;"/>
    </g>
    <g id="NE">
        <path d="M576.58,644.972L594.599,634.569L612.617,644.972L612.617,665.778L594.599,676.181L576.58,665.778L576.58,644.972Z" style="fill-rule:nonzero;"/>
        <path d="M594.599,676.181L612.617,665.778L630.635,676.181L630.635,696.986L612.617,707.389L594.599,696.986L594.599,676.181Z" style="fill-rule:nonzero;"/>
        <path d="M540.544,644.972L558.562,634.569L576.58,644.972L576.58,665.778L558.562,676.181L540.544,665.778L540.544,644.972Z" style="fill-rule:nonzero;"/>
    </g>
    <g id="NV">
        <path d="M342.345,801.014L360.363,790.611L378.381,801.014L378.381,821.819L360.363,832.222L342.345,821.819L342.345,801.014Z" style="fill-rule:nonzero;"/>
        <path d="M360.363,832.222L378.381,821.819L396.399,832.222L396.399,853.028L378.381,863.431L360.363,853.028L360.363,832.222Z" style="fill-rule:nonzero;"/>
        <path d="M396.399,832.222L414.417,821.819L432.435,832.222L432.435,853.028L414.417,863.431L396.399,853.028L396.399,832.222Z" style="fill-rule:nonzero;"/>
        <path d="M378.381,801.014L396.399,790.611L414.417,801.014L414.417,821.819L396.399,832.222L378.381,821.819L378.381,801.014Z" style="fill-rule:nonzero;"/>
    </g>
    <g id="NH">
        <path d="M1675.69,301.681L1693.7,291.278L1711.72,301.681L1711.72,322.486L1693.7,332.889L1675.69,322.486L1675.69,301.681Z" style="fill-rule:nonzero;"/>
        <path d="M1693.7,332.889L1711.72,322.486L1729.74,332.889L1729.74,353.694L1711.72,364.097L1693.7,353.694L1693.7,332.889Z" style="fill-rule:nonzero;"/>
    </g>
    <g id="NJ">
        <path d="M1657.67,520.139L1675.69,509.736L1693.7,520.139L1693.7,540.944L1675.69,551.347L1657.67,540.944L1657.67,520.139Z" style="fill-rule:nonzero;"/>
        <path d="M1711.72,613.764L1729.74,603.361L1747.76,613.764L1747.76,634.569L1729.74,644.972L1711.72,634.569L1711.72,613.764Z" style="fill-rule:nonzero;"/>
        <path d="M1675.69,488.931L1693.7,478.528L1711.72,488.931L1711.72,509.736L1693.7,520.139L1675.69,509.736L1675.69,488.931Z" style="fill-rule:nonzero;"/>
        <path d="M1729.74,520.139L1747.76,509.736L1765.78,520.139L1765.78,540.944L1747.76,551.347L1729.74,540.944L1729.74,520.139Z" style="fill-rule:nonzero;"/>
        <path d="M1675.69,551.347L1693.7,540.944L1711.72,551.347L1711.72,572.153L1693.7,582.556L1675.69,572.153L1675.69,551.347Z" style="fill-rule:nonzero;"/>
        <path d="M1693.7,582.556L1711.72,572.153L1729.74,582.556L1729.74,603.361L1711.72,613.764L1693.7,603.361L1693.7,582.556Z" style="fill-rule:nonzero;"/>
        <path d="M1711.72,488.931L1729.74,478.528L1747.76,488.931L1747.76,509.736L1729.74,520.139L1711.72,509.736L1711.72,488.931Z" style="fill-rule:nonzero;"/>
        <path d="M1693.7,520.139L1711.72,509.736L1729.74,520.139L1729.74,540.944L1711.72,551.347L1693.7,540.944L1693.7,520.139Z" style="fill-rule:nonzero;"/>
        <path d="M1639.65,613.764L1657.67,603.361L1675.69,613.764L1675.69,634.569L1657.67,644.972L1639.65,634.569L1639.65,613.764Z" style="fill-rule:nonzero;"/>
        <path d="M1675.69,613.764L1693.7,603.361L1711.72,613.764L1711.72,634.569L1693.7,644.972L1675.69,634.569L1675.69,613.764Z" style="fill-rule:nonzero;"/>
        <path d="M1711.72,551.347L1729.74,540.944L1747.76,551.347L1747.76,572.153L1729.74,582.556L1711.72,572.153L1711.72,551.347Z" style="fill-rule:nonzero;"/>
        <path d="M1657.67,582.556L1675.69,572.153L1693.7,582.556L1693.7,603.361L1675.69,613.764L1657.67,603.361L1657.67,582.556Z" style="fill-rule:nonzero;"/>
    </g>
    <g id="NM">
        <path d="M540.544,894.639L558.562,884.236L576.58,894.639L576.58,915.444L558.562,925.847L540.544,915.444L540.544,894.639Z" style="fill-rule:nonzero;"/>
        <path d="M576.58,894.639L594.599,884.236L612.617,894.639L612.617,915.444L594.599,925.847L576.58,915.444L576.58,894.639Z" style="fill-rule:nonzero;"/>
        <path d="M558.562,925.847L576.58,915.444L594.599,925.847L594.599,946.653L576.58,957.056L558.562,946.653L558.562,925.847Z" style="fill-rule:nonzero;"/>
    </g>
    <g id="NY">
        <path d="M1369.38,395.306L1387.4,384.903L1405.41,395.306L1405.41,416.111L1387.4,426.514L1369.38,416.111L1369.38,395.306Z" style="fill-rule:nonzero;"/>
        <path d="M1387.4,364.097L1405.41,353.694L1423.43,364.097L1423.43,384.903L1405.41,395.306L1387.4,384.903L1387.4,364.097Z" style="fill-rule:nonzero;"/>
        <path d="M1423.43,364.097L1441.45,353.694L1459.47,364.097L1459.47,384.903L1441.45,395.306L1423.43,384.903L1423.43,364.097Z" style="fill-rule:nonzero;"/>
        <path d="M1405.41,395.306L1423.43,384.903L1441.45,395.306L1441.45,416.111L1423.43,426.514L1405.41,416.111L1405.41,395.306Z" style="fill-rule:nonzero;"/>
        <path d="M1549.56,270.472L1567.58,260.069L1585.6,270.472L1585.6,291.278L1567.58,301.681L1549.56,291.278L1549.56,270.472Z" style="fill-rule:nonzero;"/>
        <path d="M1495.51,301.681L1513.52,291.278L1531.54,301.681L1531.54,322.486L1513.52,332.889L1495.51,322.486L1495.51,301.681Z" style="fill-rule:nonzero;"/>
        <path d="M1567.58,301.681L1585.6,291.278L1603.61,301.681L1603.61,322.486L1585.6,332.889L1567.58,322.486L1567.58,301.681Z" style="fill-rule:nonzero;"/>
        <path d="M1459.47,364.097L1477.49,353.694L1495.51,364.097L1495.51,384.903L1477.49,395.306L1459.47,384.903L1459.47,364.097Z" style="fill-rule:nonzero;"/>
        <path d="M1441.45,395.306L1459.47,384.903L1477.49,395.306L1477.49,416.111L1459.47,426.514L1441.45,416.111L1441.45,395.306Z" style="fill-rule:nonzero;"/>
        <path d="M1459.47,301.681L1477.49,291.278L1495.51,301.681L1495.51,322.486L1477.49,332.889L1459.47,322.486L1459.47,301.681Z" style="fill-rule:nonzero;"/>
        <path d="M1531.54,301.681L1549.56,291.278L1567.58,301.681L1567.58,322.486L1549.56,332.889L1531.54,322.486L1531.54,301.681Z" style="fill-rule:nonzero;"/>
        <path d="M1477.49,332.889L1495.51,322.486L1513.52,332.889L1513.52,353.694L1495.51,364.097L1477.49,353.694L1477.49,332.889Z" style="fill-rule:nonzero;"/>
        <path d="M1495.51,364.097L1513.52,353.694L1531.54,364.097L1531.54,384.903L1513.52,395.306L1495.51,384.903L1495.51,364.097Z" style="fill-rule:nonzero;"/>
        <path d="M1477.49,395.306L1495.51,384.903L1513.52,395.306L1513.52,416.111L1495.51,426.514L1477.49,416.111L1477.49,395.306Z" style="fill-rule:nonzero;"/>
        <path d="M1477.49,270.472L1495.51,260.069L1513.52,270.472L1513.52,291.278L1495.51,301.681L1477.49,291.278L1477.49,270.472Z" style="fill-rule:nonzero;"/>
        <path d="M1513.52,332.889L1531.54,322.486L1549.56,332.889L1549.56,353.694L1531.54,364.097L1513.52,353.694L1513.52,332.889Z" style="fill-rule:nonzero;"/>
        <path d="M1531.54,364.097L1549.56,353.694L1567.58,364.097L1567.58,384.903L1549.56,395.306L1531.54,384.903L1531.54,364.097Z" style="fill-rule:nonzero;"/>
        <path d="M1513.52,395.306L1531.54,384.903L1549.56,395.306L1549.56,416.111L1531.54,426.514L1513.52,416.111L1513.52,395.306Z" style="fill-rule:nonzero;"/>
        <path d="M1531.54,426.514L1549.56,416.111L1567.58,426.514L1567.58,447.319L1549.56,457.722L1531.54,447.319L1531.54,426.514Z" style="fill-rule:nonzero;"/>
        <path d="M1513.52,270.472L1531.54,260.069L1549.56,270.472L1549.56,291.278L1531.54,301.681L1513.52,291.278L1513.52,270.472Z" style="fill-rule:nonzero;"/>
        <path d="M1549.56,332.889L1567.58,322.486L1585.6,332.889L1585.6,353.694L1567.58,364.097L1549.56,353.694L1549.56,332.889Z" style="fill-rule:nonzero;"/>
        <path d="M1549.56,395.306L1567.58,384.903L1585.6,395.306L1585.6,416.111L1567.58,426.514L1549.56,416.111L1549.56,395.306Z" style="fill-rule:nonzero;"/>
        <path d="M1621.63,457.722L1639.65,447.319L1657.67,457.722L1657.67,478.528L1639.65,488.931L1621.63,478.528L1621.63,457.722Z" style="fill-rule:nonzero;"/>
        <path d="M1567.58,426.514L1585.6,416.111L1603.61,426.514L1603.61,447.319L1585.6,457.722L1567.58,447.319L1567.58,426.514Z" style="fill-rule:nonzero;"/>
        <path d="M1567.58,364.097L1585.6,353.694L1603.61,364.097L1603.61,384.903L1585.6,395.306L1567.58,384.903L1567.58,364.097Z" style="fill-rule:nonzero;"/>
        <path d="M1585.6,457.722L1603.61,447.319L1621.63,457.722L1621.63,478.528L1603.61,488.931L1585.6,478.528L1585.6,457.722Z" style="fill-rule:nonzero;"/>
    </g>
    <g id="NC">
        <path d="M1405.41,894.639L1423.43,884.236L1441.45,894.639L1441.45,915.444L1423.43,925.847L1405.41,915.444L1405.41,894.639Z" style="fill-rule:nonzero;"/>
        <path d="M1261.27,832.222L1279.29,821.819L1297.31,832.222L1297.31,853.028L1279.29,863.431L1261.27,853.028L1261.27,832.222Z" style="fill-rule:nonzero;"/>
        <path d="M1297.31,832.222L1315.32,821.819L1333.34,832.222L1333.34,853.028L1315.32,863.431L1297.31,853.028L1297.31,832.222Z" style="fill-rule:nonzero;"/>
        <path d="M1369.38,894.639L1387.4,884.236L1405.41,894.639L1405.41,915.444L1387.4,925.847L1369.38,915.444L1369.38,894.639Z" style="fill-rule:nonzero;"/>
        <path d="M1333.34,832.222L1351.36,821.819L1369.38,832.222L1369.38,853.028L1351.36,863.431L1333.34,853.028L1333.34,832.222Z" style="fill-rule:nonzero;"/>
        <path d="M1279.29,863.431L1297.31,853.028L1315.32,863.431L1315.32,884.236L1297.31,894.639L1279.29,884.236L1279.29,863.431Z" style="fill-rule:nonzero;"/>
        <path d="M1369.38,832.222L1387.4,821.819L1405.41,832.222L1405.41,853.028L1387.4,863.431L1369.38,853.028L1369.38,832.222Z" style="fill-rule:nonzero;"/>
        <path d="M1315.32,863.431L1333.34,853.028L1351.36,863.431L1351.36,884.236L1333.34,894.639L1315.32,884.236L1315.32,863.431Z" style="fill-rule:nonzero;"/>
        <path d="M1405.41,832.222L1423.43,821.819L1441.45,832.222L1441.45,853.028L1423.43,863.431L1405.41,853.028L1405.41,832.222Z" style="fill-rule:nonzero;"/>
        <path d="M1351.36,863.431L1369.38,853.028L1387.4,863.431L1387.4,884.236L1369.38,894.639L1351.36,884.236L1351.36,863.431Z" style="fill-rule:nonzero;"/>
        <path d="M1441.45,832.222L1459.47,821.819L1477.49,832.222L1477.49,853.028L1459.47,863.431L1441.45,853.028L1441.45,832.222Z" style="fill-rule:nonzero;"/>
        <path d="M1387.4,863.431L1405.41,853.028L1423.43,863.431L1423.43,884.236L1405.41,894.639L1387.4,884.236L1387.4,863.431Z" style="fill-rule:nonzero;"/>
        <path d="M1423.43,863.431L1441.45,853.028L1459.47,863.431L1459.47,884.236L1441.45,894.639L1423.43,884.236L1423.43,863.431Z" style="fill-rule:nonzero;"/>
        <path d="M1333.34,894.639L1351.36,884.236L1369.38,894.639L1369.38,915.444L1351.36,925.847L1333.34,915.444L1333.34,894.639Z" style="fill-rule:nonzero;"/>
    </g>
    <g id="ND">
        <path d="M558.562,488.931L576.58,478.528L594.599,488.931L594.599,509.736L576.58,520.139L558.562,509.736L558.562,488.931Z" style="fill-rule:nonzero;"/>
    </g>
    <g id="OH">
        <path d="M1171.18,613.764L1189.2,603.361L1207.21,613.764L1207.21,634.569L1189.2,644.972L1171.18,634.569L1171.18,613.764Z" style="fill-rule:nonzero;"/>
        <path d="M1207.21,613.764L1225.23,603.361L1243.25,613.764L1243.25,634.569L1225.23,644.972L1207.21,634.569L1207.21,613.764Z" style="fill-rule:nonzero;"/>
        <path d="M1225.23,644.972L1243.25,634.569L1261.27,644.972L1261.27,665.778L1243.25,676.181L1225.23,665.778L1225.23,644.972Z" style="fill-rule:nonzero;"/>
        <path d="M1315.32,613.764L1333.34,603.361L1351.36,613.764L1351.36,634.569L1333.34,644.972L1315.32,634.569L1315.32,613.764Z" style="fill-rule:nonzero;"/>
        <path d="M1207.21,676.181L1225.23,665.778L1243.25,676.181L1243.25,696.986L1225.23,707.389L1207.21,696.986L1207.21,676.181Z" style="fill-rule:nonzero;"/>
        <path d="M1279.29,676.181L1297.31,665.778L1315.32,676.181L1315.32,696.986L1297.31,707.389L1279.29,696.986L1279.29,676.181Z" style="fill-rule:nonzero;"/>
        <path d="M1243.25,613.764L1261.27,603.361L1279.29,613.764L1279.29,634.569L1261.27,644.972L1243.25,634.569L1243.25,613.764Z" style="fill-rule:nonzero;"/>
        <path d="M1261.27,644.972L1279.29,634.569L1297.31,644.972L1297.31,665.778L1279.29,676.181L1261.27,665.778L1261.27,644.972Z" style="fill-rule:nonzero;"/>
        <path d="M1243.25,676.181L1261.27,665.778L1279.29,676.181L1279.29,696.986L1261.27,707.389L1243.25,696.986L1243.25,676.181Z" style="fill-rule:nonzero;"/>
        <path d="M1189.2,644.972L1207.21,634.569L1225.23,644.972L1225.23,665.778L1207.21,676.181L1189.2,665.778L1189.2,644.972Z" style="fill-rule:nonzero;"/>
        <path d="M1279.29,613.764L1297.31,603.361L1315.32,613.764L1315.32,634.569L1297.31,644.972L1279.29,634.569L1279.29,613.764Z" style="fill-rule:nonzero;"/>
        <path d="M1225.23,707.389L1243.25,696.986L1261.27,707.389L1261.27,728.194L1243.25,738.597L1225.23,728.194L1225.23,707.389Z" style="fill-rule:nonzero;"/>
        <path d="M1261.27,707.389L1279.29,696.986L1297.31,707.389L1297.31,728.194L1279.29,738.597L1261.27,728.194L1261.27,707.389Z" style="fill-rule:nonzero;"/>
        <path d="M1297.31,644.972L1315.32,634.569L1333.34,644.972L1333.34,665.778L1315.32,676.181L1297.31,665.778L1297.31,644.972Z" style="fill-rule:nonzero;"/>
    </g>
    <g id="OK">
        <path d="M666.671,863.431L684.689,853.028L702.707,863.431L702.707,884.236L684.689,894.639L666.671,884.236L666.671,863.431Z" style="fill-rule:nonzero;"/>
        <path d="M720.726,894.639L738.744,884.236L756.762,894.639L756.762,915.444L738.744,925.847L720.726,915.444L720.726,894.639Z" style="fill-rule:nonzero;"/>
        <path d="M702.707,863.431L720.726,853.028L738.744,863.431L738.744,884.236L720.726,894.639L702.707,884.236L702.707,863.431Z" style="fill-rule:nonzero;"/>
        <path d="M738.744,863.431L756.762,853.028L774.78,863.431L774.78,884.236L756.762,894.639L738.744,884.236L738.744,863.431Z" style="fill-rule:nonzero;"/>
        <path d="M756.762,894.639L774.78,884.236L792.798,894.639L792.798,915.444L774.78,925.847L756.762,915.444L756.762,894.639Z" style="fill-rule:nonzero;"/>
    </g>
    <g id="OR">
        <path d="M288.29,644.972L306.308,634.569L324.327,644.972L324.327,665.778L306.308,676.181L288.29,665.778L288.29,644.972Z" style="fill-rule:nonzero;"/>
        <path d="M216.218,644.972L234.236,634.569L252.254,644.972L252.254,665.778L234.236,676.181L216.218,665.778L216.218,644.972Z" style="fill-rule:nonzero;"/>
        <path d="M234.236,613.764L252.254,603.361L270.272,613.764L270.272,634.569L252.254,644.972L234.236,634.569L234.236,613.764Z" style="fill-rule:nonzero;"/>
        <path d="M270.272,613.764L288.29,603.361L306.308,613.764L306.308,634.569L288.29,644.972L270.272,634.569L270.272,613.764Z" style="fill-rule:nonzero;"/>
        <path d="M252.254,644.972L270.272,634.569L288.29,644.972L288.29,665.778L270.272,676.181L252.254,665.778L252.254,644.972Z" style="fill-rule:nonzero;"/>
        <path d="M198.2,613.764L216.218,603.361L234.236,613.764L234.236,634.569L216.218,644.972L198.2,634.569L198.2,613.764Z" style="fill-rule:nonzero;"/>
    </g>
    <g id="PA">
        <path d="M1513.52,520.139L1531.54,509.736L1549.56,520.139L1549.56,540.944L1531.54,551.347L1513.52,540.944L1513.52,520.139Z" style="fill-rule:nonzero;"/>
        <path d="M1423.43,551.347L1441.45,540.944L1459.47,551.347L1459.47,572.153L1441.45,582.556L1423.43,572.153L1423.43,551.347Z" style="fill-rule:nonzero;"/>
        <path d="M1405.41,582.556L1423.43,572.153L1441.45,582.556L1441.45,603.361L1423.43,613.764L1405.41,603.361L1405.41,582.556Z" style="fill-rule:nonzero;"/>
        <path d="M1369.38,582.556L1387.4,572.153L1405.41,582.556L1405.41,603.361L1387.4,613.764L1369.38,603.361L1369.38,582.556Z" style="fill-rule:nonzero;"/>
        <path d="M1405.41,520.139L1423.43,509.736L1441.45,520.139L1441.45,540.944L1423.43,551.347L1405.41,540.944L1405.41,520.139Z" style="fill-rule:nonzero;"/>
        <path d="M1459.47,551.347L1477.49,540.944L1495.51,551.347L1495.51,572.153L1477.49,582.556L1459.47,572.153L1459.47,551.347Z" style="fill-rule:nonzero;"/>
        <path d="M1441.45,582.556L1459.47,572.153L1477.49,582.556L1477.49,603.361L1459.47,613.764L1441.45,603.361L1441.45,582.556Z" style="fill-rule:nonzero;"/>
        <path d="M1441.45,520.139L1459.47,509.736L1477.49,520.139L1477.49,540.944L1459.47,551.347L1441.45,540.944L1441.45,520.139Z" style="fill-rule:nonzero;"/>
        <path d="M1495.51,551.347L1513.52,540.944L1531.54,551.347L1531.54,572.153L1513.52,582.556L1495.51,572.153L1495.51,551.347Z" style="fill-rule:nonzero;"/>
        <path d="M1477.49,582.556L1495.51,572.153L1513.52,582.556L1513.52,603.361L1495.51,613.764L1477.49,603.361L1477.49,582.556Z" style="fill-rule:nonzero;"/>
        <path d="M1477.49,520.139L1495.51,509.736L1513.52,520.139L1513.52,540.944L1495.51,551.347L1477.49,540.944L1477.49,520.139Z" style="fill-rule:nonzero;"/>
        <path d="M1531.54,551.347L1549.56,540.944L1567.58,551.347L1567.58,572.153L1549.56,582.556L1531.54,572.153L1531.54,551.347Z" style="fill-rule:nonzero;"/>
        <path d="M1513.52,582.556L1531.54,572.153L1549.56,582.556L1549.56,603.361L1531.54,613.764L1513.52,603.361L1513.52,582.556Z" style="fill-rule:nonzero;"/>
        <path d="M1387.4,551.347L1405.41,540.944L1423.43,551.347L1423.43,572.153L1405.41,582.556L1387.4,572.153L1387.4,551.347Z" style="fill-rule:nonzero;"/>
        <path d="M1549.56,582.556L1567.58,572.153L1585.6,582.556L1585.6,603.361L1567.58,613.764L1549.56,603.361L1549.56,582.556Z" style="fill-rule:nonzero;"/>
        <path d="M1369.38,520.139L1387.4,509.736L1405.41,520.139L1405.41,540.944L1387.4,551.347L1369.38,540.944L1369.38,520.139Z" style="fill-rule:nonzero;"/>
        <path d="M1549.56,520.139L1567.58,509.736L1585.6,520.139L1585.6,540.944L1567.58,551.347L1549.56,540.944L1549.56,520.139Z" style="fill-rule:nonzero;"/>
    </g>
    <g id="RI">
        <path d="M1801.81,395.306L1819.83,384.903L1837.85,395.306L1837.85,416.111L1819.83,426.514L1801.81,416.111L1801.81,395.306Z" style="fill-rule:nonzero;"/>
        <path d="M1819.83,426.514L1837.85,416.111L1855.87,426.514L1855.87,447.319L1837.85,457.722L1819.83,447.319L1819.83,426.514Z" style="fill-rule:nonzero;"/>
    </g>
    <g id="SC">
        <path d="M1405.41,1019.47L1423.43,1009.07L1441.45,1019.47L1441.45,1040.28L1423.43,1050.68L1405.41,1040.28L1405.41,1019.47Z" style="fill-rule:nonzero;"/>
        <path d="M1387.4,988.264L1405.41,977.861L1423.43,988.264L1423.43,1009.07L1405.41,1019.47L1387.4,1009.07L1387.4,988.264Z" style="fill-rule:nonzero;"/>
        <path d="M1369.38,957.056L1387.4,946.653L1405.41,957.056L1405.41,977.861L1387.4,988.264L1369.38,977.861L1369.38,957.056Z" style="fill-rule:nonzero;"/>
        <path d="M1333.34,957.056L1351.36,946.653L1369.38,957.056L1369.38,977.861L1351.36,988.264L1333.34,977.861L1333.34,957.056Z" style="fill-rule:nonzero;"/>
        <path d="M1423.43,988.264L1441.45,977.861L1459.47,988.264L1459.47,1009.07L1441.45,1019.47L1423.43,1009.07L1423.43,988.264Z" style="fill-rule:nonzero;"/>
        <path d="M1441.45,957.056L1459.47,946.653L1477.49,957.056L1477.49,977.861L1459.47,988.264L1441.45,977.861L1441.45,957.056Z" style="fill-rule:nonzero;"/>
        <path d="M1405.41,957.056L1423.43,946.653L1441.45,957.056L1441.45,977.861L1423.43,988.264L1405.41,977.861L1405.41,957.056Z" style="fill-rule:nonzero;"/>
    </g>
    <g id="SD">
        <path d="M558.562,551.347L576.58,540.944L594.599,551.347L594.599,572.153L576.58,582.556L558.562,572.153L558.562,551.347Z" style="fill-rule:nonzero;"/>
    </g>
    <g id="TN">
        <path d="M1027.03,925.847L1045.05,915.444L1063.07,925.847L1063.07,946.653L1045.05,957.056L1027.03,946.653L1027.03,925.847Z" style="fill-rule:nonzero;"/>
        <path d="M1045.05,894.639L1063.07,884.236L1081.09,894.639L1081.09,915.444L1063.07,925.847L1045.05,915.444L1045.05,894.639Z" style="fill-rule:nonzero;"/>
        <path d="M1081.09,894.639L1099.11,884.236L1117.12,894.639L1117.12,915.444L1099.11,925.847L1081.09,915.444L1081.09,894.639Z" style="fill-rule:nonzero;"/>
        <path d="M1063.07,925.847L1081.09,915.444L1099.11,925.847L1099.11,946.653L1081.09,957.056L1063.07,946.653L1063.07,925.847Z" style="fill-rule:nonzero;"/>
        <path d="M1117.12,894.639L1135.14,884.236L1153.16,894.639L1153.16,915.444L1135.14,925.847L1117.12,915.444L1117.12,894.639Z" style="fill-rule:nonzero;"/>
        <path d="M1099.11,925.847L1117.12,915.444L1135.14,925.847L1135.14,946.653L1117.12,957.056L1099.11,946.653L1099.11,925.847Z" style="fill-rule:nonzero;"/>
        <path d="M1153.16,894.639L1171.18,884.236L1189.2,894.639L1189.2,915.444L1171.18,925.847L1153.16,915.444L1153.16,894.639Z" style="fill-rule:nonzero;"/>
        <path d="M1099.11,925.847L1117.12,915.444L1135.14,925.847L1135.14,946.653L1117.12,957.056L1099.11,946.653L1099.11,925.847Z" style="fill-rule:nonzero;"/>
        <path d="M1189.2,894.639L1207.21,884.236L1225.23,894.639L1225.23,915.444L1207.21,925.847L1189.2,915.444L1189.2,894.639Z" style="fill-rule:nonzero;"/>
    </g>
    <g id="TX">
        <path d="M702.707,1113.1L720.726,1102.69L738.744,1113.1L738.744,1133.9L720.726,1144.31L702.707,1133.9L702.707,1113.1Z" style="fill-rule:nonzero;"/>
        <path d="M612.617,1081.89L630.635,1071.49L648.653,1081.89L648.653,1102.69L630.635,1113.1L612.617,1102.69L612.617,1081.89Z" style="fill-rule:nonzero;"/>
        <path d="M630.635,988.264L648.653,977.861L666.671,988.264L666.671,1009.07L648.653,1019.47L630.635,1009.07L630.635,988.264Z" style="fill-rule:nonzero;"/>
        <path d="M666.671,925.847L684.689,915.444L702.707,925.847L702.707,946.653L684.689,957.056L666.671,946.653L666.671,925.847Z" style="fill-rule:nonzero;"/>
        <path d="M612.617,1019.47L630.635,1009.07L648.653,1019.47L648.653,1040.28L630.635,1050.68L612.617,1040.28L612.617,1019.47Z" style="fill-rule:nonzero;"/>
        <path d="M666.671,988.264L684.689,977.861L702.707,988.264L702.707,1009.07L684.689,1019.47L666.671,1009.07L666.671,988.264Z" style="fill-rule:nonzero;"/>
        <path d="M684.689,1019.47L702.707,1009.07L720.726,1019.47L720.726,1040.28L702.707,1050.68L684.689,1040.28L684.689,1019.47Z" style="fill-rule:nonzero;"/>
        <path d="M666.671,1050.68L684.689,1040.28L702.707,1050.68L702.707,1071.49L684.689,1081.89L666.671,1071.49L666.671,1050.68Z" style="fill-rule:nonzero;"/>
        <path d="M738.744,1175.51L756.762,1165.11L774.78,1175.51L774.78,1196.32L756.762,1206.72L738.744,1196.32L738.744,1175.51Z" style="fill-rule:nonzero;"/>
        <path d="M684.689,957.056L702.707,946.653L720.726,957.056L720.726,977.861L702.707,988.264L684.689,977.861L684.689,957.056Z" style="fill-rule:nonzero;"/>
        <path d="M702.707,988.264L720.726,977.861L738.744,988.264L738.744,1009.07L720.726,1019.47L702.707,1009.07L702.707,988.264Z" style="fill-rule:nonzero;"/>
        <path d="M720.726,1019.47L738.744,1009.07L756.762,1019.47L756.762,1040.28L738.744,1050.68L720.726,1040.28L720.726,1019.47Z" style="fill-rule:nonzero;"/>
        <path d="M702.707,1050.68L720.726,1040.28L738.744,1050.68L738.744,1071.49L720.726,1081.89L702.707,1071.49L702.707,1050.68Z" style="fill-rule:nonzero;"/>
        <path d="M720.726,1081.89L738.744,1071.49L756.762,1081.89L756.762,1102.69L738.744,1113.1L720.726,1102.69L720.726,1081.89Z" style="fill-rule:nonzero;"/>
        <path d="M738.744,988.264L756.762,977.861L774.78,988.264L774.78,1009.07L756.762,1019.47L738.744,1009.07L738.744,988.264Z" style="fill-rule:nonzero;"/>
        <path d="M756.762,1019.47L774.78,1009.07L792.798,1019.47L792.798,1040.28L774.78,1050.68L756.762,1040.28L756.762,1019.47Z" style="fill-rule:nonzero;"/>
        <path d="M738.744,1050.68L756.762,1040.28L774.78,1050.68L774.78,1071.49L756.762,1081.89L738.744,1071.49L738.744,1050.68Z" style="fill-rule:nonzero;"/>
        <path d="M756.762,1081.89L774.78,1071.49L792.798,1081.89L792.798,1102.69L774.78,1113.1L756.762,1102.69L756.762,1081.89Z" style="fill-rule:nonzero;"/>
        <path d="M738.744,1113.1L756.762,1102.69L774.78,1113.1L774.78,1133.9L756.762,1144.31L738.744,1133.9L738.744,1113.1Z" style="fill-rule:nonzero;"/>
        <path d="M756.762,1144.31L774.78,1133.9L792.798,1144.31L792.798,1165.11L774.78,1175.51L756.762,1165.11L756.762,1144.31Z" style="fill-rule:nonzero;"/>
        <path d="M630.635,925.847L648.653,915.444L666.671,925.847L666.671,946.653L648.653,957.056L630.635,946.653L630.635,925.847Z" style="fill-rule:nonzero;"/>
        <path d="M648.653,1081.89L666.671,1071.49L684.689,1081.89L684.689,1102.69L666.671,1113.1L648.653,1102.69L648.653,1081.89Z" style="fill-rule:nonzero;"/>
        <path d="M774.78,1050.68L792.798,1040.28L810.816,1050.68L810.816,1071.49L792.798,1081.89L774.78,1071.49L774.78,1050.68Z" style="fill-rule:nonzero;"/>
        <path d="M810.816,1050.68L828.834,1040.28L846.853,1050.68L846.853,1071.49L828.834,1081.89L810.816,1071.49L810.816,1050.68Z" style="fill-rule:nonzero;"/>
        <path d="M774.78,1113.1L792.798,1102.69L810.816,1113.1L810.816,1133.9L792.798,1144.31L774.78,1133.9L774.78,1113.1Z" style="fill-rule:nonzero;"/>
        <path d="M774.78,988.264L792.798,977.861L810.816,988.264L810.816,1009.07L792.798,1019.47L774.78,1009.07L774.78,988.264Z" style="fill-rule:nonzero;"/>
        <path d="M720.726,1144.31L738.744,1133.9L756.762,1144.31L756.762,1165.11L738.744,1175.51L720.726,1165.11L720.726,1144.31Z" style="fill-rule:nonzero;"/>
        <path d="M792.798,1081.89L810.816,1071.49L828.834,1081.89L828.834,1102.69L810.816,1113.1L792.798,1102.69L792.798,1081.89Z" style="fill-rule:nonzero;"/>
        <path d="M684.689,1081.89L702.707,1071.49L720.726,1081.89L720.726,1102.69L702.707,1113.1L684.689,1102.69L684.689,1081.89Z" style="fill-rule:nonzero;"/>
        <path d="M648.653,957.056L666.671,946.653L684.689,957.056L684.689,977.861L666.671,988.264L648.653,977.861L648.653,957.056Z" style="fill-rule:nonzero;"/>
        <path d="M792.798,1019.47L810.816,1009.07L828.834,1019.47L828.834,1040.28L810.816,1050.68L792.798,1040.28L792.798,1019.47Z" style="fill-rule:nonzero;"/>
        <path d="M594.599,1050.68L612.617,1040.28L630.635,1050.68L630.635,1071.49L612.617,1081.89L594.599,1071.49L594.599,1050.68Z" style="fill-rule:nonzero;"/>
        <path d="M648.653,1019.47L666.671,1009.07L684.689,1019.47L684.689,1040.28L666.671,1050.68L648.653,1040.28L648.653,1019.47Z" style="fill-rule:nonzero;"/>
        <path d="M630.635,1050.68L648.653,1040.28L666.671,1050.68L666.671,1071.49L648.653,1081.89L630.635,1071.49L630.635,1050.68Z" style="fill-rule:nonzero;"/>
        <path d="M810.816,988.264L828.834,977.861L846.853,988.264L846.853,1009.07L828.834,1019.47L810.816,1009.07L810.816,988.264Z" style="fill-rule:nonzero;"/>
        <path d="M828.834,1019.47L846.853,1009.07L864.871,1019.47L864.871,1040.28L846.853,1050.68L828.834,1040.28L828.834,1019.47Z" style="fill-rule:nonzero;"/>
        <path d="M576.58,1019.47L594.599,1009.07L612.617,1019.47L612.617,1040.28L594.599,1050.68L576.58,1040.28L576.58,1019.47Z" style="fill-rule:nonzero;"/>
        <path d="M666.671,1113.1L684.689,1102.69L702.707,1113.1L702.707,1133.9L684.689,1144.31L666.671,1133.9L666.671,1113.1Z" style="fill-rule:nonzero;"/>
    </g>
    <g id="UT">
        <path d="M504.508,832.222L522.526,821.819L540.544,832.222L540.544,853.028L522.526,863.431L504.508,853.028L504.508,832.222Z" style="fill-rule:nonzero;"/>
        <path d="M486.49,863.431L504.508,853.028L522.526,863.431L522.526,884.236L504.508,894.639L486.49,884.236L486.49,863.431Z" style="fill-rule:nonzero;"/>
        <path d="M468.472,832.222L486.49,821.819L504.508,832.222L504.508,853.028L486.49,863.431L468.472,853.028L468.472,832.222Z" style="fill-rule:nonzero;"/>
        <path d="M486.49,801.014L504.508,790.611L522.526,801.014L522.526,821.819L504.508,832.222L486.49,821.819L486.49,801.014Z" style="fill-rule:nonzero;"/>
    </g>
    <g id="VT">
        <path d="M1621.63,332.889L1639.65,322.486L1657.67,332.889L1657.67,353.694L1639.65,364.097L1621.63,353.694L1621.63,332.889Z" style="fill-rule:nonzero;"/>
    </g>
    <g id="VA">
        <path d="M1297.31,769.806L1315.32,759.403L1333.34,769.806L1333.34,790.611L1315.32,801.014L1297.31,790.611L1297.31,769.806Z" style="fill-rule:nonzero;"/>
        <path d="M1441.45,707.389L1459.47,696.986L1477.49,707.389L1477.49,728.194L1459.47,738.597L1441.45,728.194L1441.45,707.389Z" style="fill-rule:nonzero;"/>
        <path d="M1333.34,769.806L1351.36,759.403L1369.38,769.806L1369.38,790.611L1351.36,801.014L1333.34,790.611L1333.34,769.806Z" style="fill-rule:nonzero;"/>
        <path d="M1405.41,707.389L1423.43,696.986L1441.45,707.389L1441.45,728.194L1423.43,738.597L1405.41,728.194L1405.41,707.389Z" style="fill-rule:nonzero;"/>
        <path d="M1387.4,738.597L1405.41,728.194L1423.43,738.597L1423.43,759.403L1405.41,769.806L1387.4,759.403L1387.4,738.597Z" style="fill-rule:nonzero;"/>
        <path d="M1369.38,769.806L1387.4,759.403L1405.41,769.806L1405.41,790.611L1387.4,801.014L1369.38,790.611L1369.38,769.806Z" style="fill-rule:nonzero;"/>
        <path d="M1423.43,738.597L1441.45,728.194L1459.47,738.597L1459.47,759.403L1441.45,769.806L1423.43,759.403L1423.43,738.597Z" style="fill-rule:nonzero;"/>
        <path d="M1405.41,769.806L1423.43,759.403L1441.45,769.806L1441.45,790.611L1423.43,801.014L1405.41,790.611L1405.41,769.806Z" style="fill-rule:nonzero;"/>
        <path d="M1441.45,769.806L1459.47,759.403L1477.49,769.806L1477.49,790.611L1459.47,801.014L1441.45,790.611L1441.45,769.806Z" style="fill-rule:nonzero;"/>
        <path d="M1477.49,769.806L1495.51,759.403L1513.52,769.806L1513.52,790.611L1495.51,801.014L1477.49,790.611L1477.49,769.806Z" style="fill-rule:nonzero;"/>
        <path d="M1459.47,738.597L1477.49,728.194L1495.51,738.597L1495.51,759.403L1477.49,769.806L1459.47,759.403L1459.47,738.597Z" style="fill-rule:nonzero;"/>
    </g>
    <g id="WA">
        <path d="M252.254,520.139L270.272,509.736L288.29,520.139L288.29,540.944L270.272,551.347L252.254,540.944L252.254,520.139Z" style="fill-rule:nonzero;"/>
        <path d="M270.272,488.931L288.29,478.528L306.308,488.931L306.308,509.736L288.29,520.139L270.272,509.736L270.272,488.931Z" style="fill-rule:nonzero;"/>
        <path d="M288.29,520.139L306.308,509.736L324.327,520.139L324.327,540.944L306.308,551.347L288.29,540.944L288.29,520.139Z" style="fill-rule:nonzero;"/>
        <path d="M270.272,551.347L288.29,540.944L306.308,551.347L306.308,572.153L288.29,582.556L270.272,572.153L270.272,551.347Z" style="fill-rule:nonzero;"/>
        <path d="M324.327,520.139L342.345,509.736L360.363,520.139L360.363,540.944L342.345,551.347L324.327,540.944L324.327,520.139Z" style="fill-rule:nonzero;"/>
        <path d="M306.308,551.347L324.327,540.944L342.345,551.347L342.345,572.153L324.327,582.556L306.308,572.153L306.308,551.347Z" style="fill-rule:nonzero;"/>
        <path d="M216.218,520.139L234.236,509.736L252.254,520.139L252.254,540.944L234.236,551.347L216.218,540.944L216.218,520.139Z" style="fill-rule:nonzero;"/>
        <path d="M198.2,488.931L216.218,478.528L234.236,488.931L234.236,509.736L216.218,520.139L198.2,509.736L198.2,488.931Z" style="fill-rule:nonzero;"/>
        <path d="M306.308,488.931L324.327,478.528L342.345,488.931L342.345,509.736L324.327,520.139L306.308,509.736L306.308,488.931Z" style="fill-rule:nonzero;"/>
        <path d="M234.236,551.347L252.254,540.944L270.272,551.347L270.272,572.153L252.254,582.556L234.236,572.153L234.236,551.347Z" style="fill-rule:nonzero;"/>
    </g>
    <g id="WV">
        <path d="M1333.34,707.389L1351.36,696.986L1369.38,707.389L1369.38,728.194L1351.36,738.597L1333.34,728.194L1333.34,707.389Z" style="fill-rule:nonzero;"/>
        <path d="M1351.36,676.181L1369.38,665.778L1387.4,676.181L1387.4,696.986L1369.38,707.389L1351.36,696.986L1351.36,676.181Z" style="fill-rule:nonzero;"/>
    </g>
    <g id="WI">
        <path d="M936.943,520.139L954.961,509.736L972.98,520.139L972.98,540.944L954.961,551.347L936.943,540.944L936.943,520.139Z" style="fill-rule:nonzero;"/>
        <path d="M900.907,520.139L918.925,509.736L936.943,520.139L936.943,540.944L918.925,551.347L900.907,540.944L900.907,520.139Z" style="fill-rule:nonzero;"/>
        <path d="M954.961,551.347L972.98,540.944L990.998,551.347L990.998,572.153L972.98,582.556L954.961,572.153L954.961,551.347Z" style="fill-rule:nonzero;"/>
        <path d="M972.98,582.556L990.998,572.153L1009.02,582.556L1009.02,603.361L990.998,613.764L972.98,603.361L972.98,582.556Z" style="fill-rule:nonzero;"/>
        <path d="M990.998,551.347L1009.02,540.944L1027.03,551.347L1027.03,572.153L1009.02,582.556L990.998,572.153L990.998,551.347Z" style="fill-rule:nonzero;"/>
        <path d="M954.961,613.764L972.98,603.361L990.998,613.764L990.998,634.569L972.98,644.972L954.961,634.569L954.961,613.764Z" style="fill-rule:nonzero;"/>
        <path d="M918.925,551.347L936.943,540.944L954.961,551.347L954.961,572.153L936.943,582.556L918.925,572.153L918.925,551.347Z" style="fill-rule:nonzero;"/>
        <path d="M936.943,582.556L954.961,572.153L972.98,582.556L972.98,603.361L954.961,613.764L936.943,603.361L936.943,582.556Z" style="fill-rule:nonzero;"/>
    </g>
    <g id="WY">
        <path d="M486.49,551.347L504.508,540.944L522.526,551.347L522.526,572.153L504.508,582.556L486.49,572.153L486.49,551.347Z" style="fill-rule:nonzero;"/>
    </g>
    <g id="CA">
        <path d="M198.2,925.847L216.218,915.444L234.236,925.847L234.236,946.653L216.218,957.056L198.2,946.653L198.2,925.847Z" style="fill-rule:nonzero;"/>
        <path d="M306.308,863.431L324.327,853.028L342.345,863.431L342.345,884.236L324.327,894.639L306.308,884.236L306.308,863.431Z" style="fill-rule:nonzero;"/>
        <path d="M270.272,925.847L288.29,915.444L306.308,925.847L306.308,946.653L288.29,957.056L270.272,946.653L270.272,925.847Z" style="fill-rule:nonzero;"/>
        <path d="M216.218,707.389L234.236,696.986L252.254,707.389L252.254,728.194L234.236,738.597L216.218,728.194L216.218,707.389Z" style="fill-rule:nonzero;"/>
        <path d="M252.254,1019.47L270.272,1009.07L288.29,1019.47L288.29,1040.28L270.272,1050.68L252.254,1040.28L252.254,1019.47Z" style="fill-rule:nonzero;"/>
        <path d="M180.181,832.222L198.2,821.819L216.218,832.222L216.218,853.028L198.2,863.431L180.181,853.028L180.181,832.222Z" style="fill-rule:nonzero;"/>
        <path d="M216.218,957.056L234.236,946.653L252.254,957.056L252.254,977.861L234.236,988.264L216.218,977.861L216.218,957.056Z" style="fill-rule:nonzero;"/>
        <path d="M270.272,988.264L288.29,977.861L306.308,988.264L306.308,1009.07L288.29,1019.47L270.272,1009.07L270.272,988.264Z" style="fill-rule:nonzero;"/>
        <path d="M288.29,894.639L306.308,884.236L324.327,894.639L324.327,915.444L306.308,925.847L288.29,915.444L288.29,894.639Z" style="fill-rule:nonzero;"/>
        <path d="M306.308,925.847L324.327,915.444L342.345,925.847L342.345,946.653L324.327,957.056L306.308,946.653L306.308,925.847Z" style="fill-rule:nonzero;"/>
        <path d="M288.29,957.056L306.308,946.653L324.327,957.056L324.327,977.861L306.308,988.264L288.29,977.861L288.29,957.056Z" style="fill-rule:nonzero;"/>
        <path d="M306.308,988.264L324.327,977.861L342.345,988.264L342.345,1009.07L324.327,1019.47L306.308,1009.07L306.308,988.264Z" style="fill-rule:nonzero;"/>
        <path d="M252.254,707.389L270.272,696.986L288.29,707.389L288.29,728.194L270.272,738.597L252.254,728.194L252.254,707.389Z" style="fill-rule:nonzero;"/>
        <path d="M198.2,863.431L216.218,853.028L234.236,863.431L234.236,884.236L216.218,894.639L198.2,884.236L198.2,863.431Z" style="fill-rule:nonzero;"/>
        <path d="M216.218,894.639L234.236,884.236L252.254,894.639L252.254,915.444L234.236,925.847L216.218,915.444L216.218,894.639Z" style="fill-rule:nonzero;"/>
        <path d="M234.236,925.847L252.254,915.444L270.272,925.847L270.272,946.653L252.254,957.056L234.236,946.653L234.236,925.847Z" style="fill-rule:nonzero;"/>
        <path d="M324.327,894.639L342.345,884.236L360.363,894.639L360.363,915.444L342.345,925.847L324.327,915.444L324.327,894.639Z" style="fill-rule:nonzero;"/>
        <path d="M342.345,925.847L360.363,915.444L378.381,925.847L378.381,946.653L360.363,957.056L342.345,946.653L342.345,925.847Z" style="fill-rule:nonzero;"/>
        <path d="M324.327,957.056L342.345,946.653L360.363,957.056L360.363,977.861L342.345,988.264L324.327,977.861L324.327,957.056Z" style="fill-rule:nonzero;"/>
        <path d="M342.345,988.264L360.363,977.861L378.381,988.264L378.381,1009.07L360.363,1019.47L342.345,1009.07L342.345,988.264Z" style="fill-rule:nonzero;"/>
        <path d="M252.254,957.056L270.272,946.653L288.29,957.056L288.29,977.861L270.272,988.264L252.254,977.861L252.254,957.056Z" style="fill-rule:nonzero;"/>
        <path d="M360.363,1081.89L378.381,1071.49L396.399,1081.89L396.399,1102.69L378.381,1113.1L360.363,1102.69L360.363,1081.89Z" style="fill-rule:nonzero;"/>
        <path d="M396.399,1081.89L414.417,1071.49L432.435,1081.89L432.435,1102.69L414.417,1113.1L396.399,1102.69L396.399,1081.89Z" style="fill-rule:nonzero;"/>
        <path d="M234.236,863.431L252.254,853.028L270.272,863.431L270.272,884.236L252.254,894.639L234.236,884.236L234.236,863.431Z" style="fill-rule:nonzero;"/>
        <path d="M288.29,1019.47L306.308,1009.07L324.327,1019.47L324.327,1040.28L306.308,1050.68L288.29,1040.28L288.29,1019.47Z" style="fill-rule:nonzero;"/>
        <path d="M198.2,738.597L216.218,728.194L234.236,738.597L234.236,759.403L216.218,769.806L198.2,759.403L198.2,738.597Z" style="fill-rule:nonzero;"/>
        <path d="M360.363,957.056L378.381,946.653L396.399,957.056L396.399,977.861L378.381,988.264L360.363,977.861L360.363,957.056Z" style="fill-rule:nonzero;"/>
        <path d="M378.381,988.264L396.399,977.861L414.417,988.264L414.417,1009.07L396.399,1019.47L378.381,1009.07L378.381,988.264Z" style="fill-rule:nonzero;"/>
        <path d="M360.363,1019.47L378.381,1009.07L396.399,1019.47L396.399,1040.28L378.381,1050.68L360.363,1040.28L360.363,1019.47Z" style="fill-rule:nonzero;"/>
        <path d="M306.308,1050.68L324.327,1040.28L342.345,1050.68L342.345,1071.49L324.327,1081.89L306.308,1071.49L306.308,1050.68Z" style="fill-rule:nonzero;"/>
        <path d="M198.2,801.014L216.218,790.611L234.236,801.014L234.236,821.819L216.218,832.222L198.2,821.819L198.2,801.014Z" style="fill-rule:nonzero;"/>
        <path d="M252.254,832.222L270.272,821.819L288.29,832.222L288.29,853.028L270.272,863.431L252.254,853.028L252.254,832.222Z" style="fill-rule:nonzero;"/>
        <path d="M288.29,769.806L306.308,759.403L324.327,769.806L324.327,790.611L306.308,801.014L288.29,790.611L288.29,769.806Z" style="fill-rule:nonzero;"/>
        <path d="M414.417,1050.68L432.435,1040.28L450.453,1050.68L450.453,1071.49L432.435,1081.89L414.417,1071.49L414.417,1050.68Z" style="fill-rule:nonzero;"/>
        <path d="M252.254,769.806L270.272,759.403L288.29,769.806L288.29,790.611L270.272,801.014L252.254,790.611L252.254,769.806Z" style="fill-rule:nonzero;"/>
        <path d="M234.236,801.014L252.254,790.611L270.272,801.014L270.272,821.819L252.254,832.222L234.236,821.819L234.236,801.014Z" style="fill-rule:nonzero;"/>
        <path d="M180.181,707.389L198.2,696.986L216.218,707.389L216.218,728.194L198.2,738.597L180.181,728.194L180.181,707.389Z" style="fill-rule:nonzero;"/>
        <path d="M396.399,1019.47L414.417,1009.07L432.435,1019.47L432.435,1040.28L414.417,1050.68L396.399,1040.28L396.399,1019.47Z" style="fill-rule:nonzero;"/>
        <path d="M288.29,832.222L306.308,821.819L324.327,832.222L324.327,853.028L306.308,863.431L288.29,853.028L288.29,832.222Z" style="fill-rule:nonzero;"/>
        <path d="M324.327,1019.47L342.345,1009.07L360.363,1019.47L360.363,1040.28L342.345,1050.68L324.327,1040.28L324.327,1019.47Z" style="fill-rule:nonzero;"/>
        <path d="M216.218,769.806L234.236,759.403L252.254,769.806L252.254,790.611L234.236,801.014L216.218,790.611L216.218,769.806Z" style="fill-rule:nonzero;"/>
        <path d="M216.218,832.222L234.236,821.819L252.254,832.222L252.254,853.028L234.236,863.431L216.218,853.028L216.218,832.222Z" style="fill-rule:nonzero;"/>
        <path d="M288.29,707.389L306.308,696.986L324.327,707.389L324.327,728.194L306.308,738.597L288.29,728.194L288.29,707.389Z" style="fill-rule:nonzero;"/>
        <path d="M342.345,1050.68L360.363,1040.28L378.381,1050.68L378.381,1071.49L360.363,1081.89L342.345,1071.49L342.345,1050.68Z" style="fill-rule:nonzero;"/>
        <path d="M270.272,738.597L288.29,728.194L306.308,738.597L306.308,759.403L288.29,769.806L270.272,759.403L270.272,738.597Z" style="fill-rule:nonzero;"/>
        <path d="M180.181,769.806L198.2,759.403L216.218,769.806L216.218,790.611L198.2,801.014L180.181,790.611L180.181,769.806Z" style="fill-rule:nonzero;"/>
        <path d="M234.236,988.264L252.254,977.861L270.272,988.264L270.272,1009.07L252.254,1019.47L234.236,1009.07L234.236,988.264Z" style="fill-rule:nonzero;"/>
        <path d="M270.272,863.431L288.29,853.028L306.308,863.431L306.308,884.236L288.29,894.639L270.272,884.236L270.272,863.431Z" style="fill-rule:nonzero;"/>
        <path d="M252.254,894.639L270.272,884.236L288.29,894.639L288.29,915.444L270.272,925.847L252.254,915.444L252.254,894.639Z" style="fill-rule:nonzero;"/>
        <path d="M234.236,738.597L252.254,728.194L270.272,738.597L270.272,759.403L252.254,769.806L234.236,759.403L234.236,738.597Z" style="fill-rule:nonzero;"/>
        <path d="M270.272,801.014L288.29,790.611L306.308,801.014L306.308,821.819L288.29,832.222L270.272,821.819L270.272,801.014Z" style="fill-rule:nonzero;"/>
        <path d="M378.381,1050.68L396.399,1040.28L414.417,1050.68L414.417,1071.49L396.399,1081.89L378.381,1071.49L378.381,1050.68Z" style="fill-rule:nonzero;"/>
    </g>
    <g id="AK">
        <path d="M342.345,1300.35L360.363,1289.94L378.381,1300.35L378.381,1321.15L360.363,1331.56L342.345,1321.15L342.345,1300.35Z" style="fill-rule:nonzero;"/>
    </g>
    <g id="AZ">
        <path d="M414.417,925.847L432.435,915.444L450.453,925.847L450.453,946.653L432.435,957.056L414.417,946.653L414.417,925.847Z" style="fill-rule:nonzero;"/>
        <path d="M450.453,925.847L468.472,915.444L486.49,925.847L486.49,946.653L468.472,957.056L450.453,946.653L450.453,925.847Z" style="fill-rule:nonzero;"/>
        <path d="M486.49,925.847L504.508,915.444L522.526,925.847L522.526,946.653L504.508,957.056L486.49,946.653L486.49,925.847Z" style="fill-rule:nonzero;"/>
        <path d="M468.472,957.056L486.49,946.653L504.508,957.056L504.508,977.861L486.49,988.264L468.472,977.861L468.472,957.056Z" style="fill-rule:nonzero;"/>
        <path d="M432.435,957.056L450.453,946.653L468.472,957.056L468.472,977.861L450.453,988.264L432.435,977.861L432.435,957.056Z" style="fill-rule:nonzero;"/>
        <path d="M522.526,988.264L540.544,977.861L558.562,988.264L558.562,1009.07L540.544,1019.47L522.526,1009.07L522.526,988.264Z" style="fill-rule:nonzero;"/>
        <path d="M504.508,957.056L522.526,946.653L540.544,957.056L540.544,977.861L522.526,988.264L504.508,977.861L504.508,957.056Z" style="fill-rule:nonzero;"/>
        <path d="M486.49,988.264L504.508,977.861L522.526,988.264L522.526,1009.07L504.508,1019.47L486.49,1009.07L486.49,988.264Z" style="fill-rule:nonzero;"/>
        <path d="M450.453,988.264L468.472,977.861L486.49,988.264L486.49,1009.07L468.472,1019.47L450.453,1009.07L450.453,988.264Z" style="fill-rule:nonzero;"/>
    </g>
    <g id="CO">
        <path d="M522.526,738.597L540.544,728.194L558.562,738.597L558.562,759.403L540.544,769.806L522.526,759.403L522.526,738.597Z" style="fill-rule:nonzero;"/>
        <path d="M432.435,707.389L450.453,696.986L468.472,707.389L468.472,728.194L450.453,738.597L432.435,728.194L432.435,707.389Z" style="fill-rule:nonzero;"/>
        <path d="M450.453,738.597L468.472,728.194L486.49,738.597L486.49,759.403L468.472,769.806L450.453,759.403L450.453,738.597Z" style="fill-rule:nonzero;"/>
        <path d="M540.544,707.389L558.562,696.986L576.58,707.389L576.58,728.194L558.562,738.597L540.544,728.194L540.544,707.389Z" style="fill-rule:nonzero;"/>
        <path d="M468.472,707.389L486.49,696.986L504.508,707.389L504.508,728.194L486.49,738.597L468.472,728.194L468.472,707.389Z" style="fill-rule:nonzero;"/>
        <path d="M486.49,738.597L504.508,728.194L522.526,738.597L522.526,759.403L504.508,769.806L486.49,759.403L486.49,738.597Z" style="fill-rule:nonzero;"/>
        <path d="M504.508,707.389L522.526,696.986L540.544,707.389L540.544,728.194L522.526,738.597L504.508,728.194L504.508,707.389Z" style="fill-rule:nonzero;"/>
        <path d="M414.417,738.597L432.435,728.194L450.453,738.597L450.453,759.403L432.435,769.806L414.417,759.403L414.417,738.597Z" style="fill-rule:nonzero;"/>
    </g>
    <g id="AR">
        <path d="M882.889,925.847L900.907,915.444L918.925,925.847L918.925,946.653L900.907,957.056L882.889,946.653L882.889,925.847Z" style="fill-rule:nonzero;"/>
        <path d="M918.925,925.847L936.943,915.444L954.961,925.847L954.961,946.653L936.943,957.056L918.925,946.653L918.925,925.847Z" style="fill-rule:nonzero;"/>
        <path d="M864.871,957.056L882.889,946.653L900.907,957.056L900.907,977.861L882.889,988.264L864.871,977.861L864.871,957.056Z" style="fill-rule:nonzero;"/>
        <path d="M900.907,957.056L918.925,946.653L936.943,957.056L936.943,977.861L918.925,988.264L900.907,977.861L900.907,957.056Z" style="fill-rule:nonzero;"/>
    </g>
    <g id="AL">
        <path d="M1099.11,988.264L1117.12,977.861L1135.14,988.264L1135.14,1009.07L1117.12,1019.47L1099.11,1009.07L1099.11,988.264Z" style="fill-rule:nonzero;"/>
        <path d="M1081.09,1081.89L1099.11,1071.49L1117.12,1081.89L1117.12,1102.69L1099.11,1113.1L1081.09,1102.69L1081.09,1081.89Z" style="fill-rule:nonzero;"/>
        <path d="M1153.16,1019.47L1171.18,1009.07L1189.2,1019.47L1189.2,1040.28L1171.18,1050.68L1153.16,1040.28L1153.16,1019.47Z" style="fill-rule:nonzero;"/>
        <path d="M1135.14,1050.68L1153.16,1040.28L1171.18,1050.68L1171.18,1071.49L1153.16,1081.89L1135.14,1071.49L1135.14,1050.68Z" style="fill-rule:nonzero;"/>
        <path d="M1099.11,1050.68L1117.12,1040.28L1135.14,1050.68L1135.14,1071.49L1117.12,1081.89L1099.11,1071.49L1099.11,1050.68Z" style="fill-rule:nonzero;"/>
        <path d="M1117.12,1019.47L1135.14,1009.07L1153.16,1019.47L1153.16,1040.28L1135.14,1050.68L1117.12,1040.28L1117.12,1019.47Z" style="fill-rule:nonzero;"/>
        <path d="M1135.14,988.264L1153.16,977.861L1171.18,988.264L1171.18,1009.07L1153.16,1019.47L1135.14,1009.07L1135.14,988.264Z" style="fill-rule:nonzero;"/>
    </g>
    <g id="CT">
        <path d="M1657.67,395.306L1675.69,384.903L1693.7,395.306L1693.7,416.111L1675.69,426.514L1657.67,416.111L1657.67,395.306Z" style="fill-rule:nonzero;"/>
        <path d="M1693.7,395.306L1711.72,384.903L1729.74,395.306L1729.74,416.111L1711.72,426.514L1693.7,416.111L1693.7,395.306Z" style="fill-rule:nonzero;"/>
        <path d="M1675.69,426.514L1693.7,416.111L1711.72,426.514L1711.72,447.319L1693.7,457.722L1675.69,447.319L1675.69,426.514Z" style="fill-rule:nonzero;"/>
        <path d="M1729.74,395.306L1747.76,384.903L1765.78,395.306L1765.78,416.111L1747.76,426.514L1729.74,416.111L1729.74,395.306Z" style="fill-rule:nonzero;"/>
        <path d="M1711.72,426.514L1729.74,416.111L1747.76,426.514L1747.76,447.319L1729.74,457.722L1711.72,447.319L1711.72,426.514Z" style="fill-rule:nonzero;"/>
    </g>
</svg>
