<?xml version="1.0" encoding="UTF-8" standalone="no"?>
<!DOCTYPE svg PUBLIC "-//W3C//DTD SVG 1.1//EN" "http://www.w3.org/Graphics/SVG/1.1/DTD/svg11.dtd">
<svg width="100%"  viewBox="0 0 2248 1498" version="1.1" xmlns="http://www.w3.org/2000/svg" xmlns:xlink="http://www.w3.org/1999/xlink" xml:space="preserve" xmlns:serif="http://www.serif.com/" style="fill-rule:evenodd;clip-rule:evenodd;stroke-linejoin:round;stroke-miterlimit:2;">
    <g id="DE">
        <path d="M2120.82,643.68l21.299,-12.303l21.312,12.303l0,24.606l-21.312,12.304l-21.299,-12.304l0,-24.606Z" style="fill-rule:nonzero;"/>
    </g>
    <g id="FL">
        <path d="M1434.21,1198.14l21.312,-12.312l21.312,12.312l0,24.599l-21.312,12.3l-21.312,-12.3l0,-24.599Z" style="fill-rule:nonzero;"/>
        <path d="M1479.42,1198.14l21.312,-12.312l21.312,12.312l0,24.599l-21.312,12.3l-21.312,-12.3l0,-24.599Z" style="fill-rule:nonzero;"/>
        <path d="M1456.82,1237.27l21.312,-12.299l21.312,12.299l0,24.612l-21.312,12.299l-21.312,-12.299l0,-24.612Z" style="fill-rule:nonzero;"/>
        <path d="M1502.03,1237.27l21.312,-12.299l21.299,12.299l0,24.612l-21.299,12.299l-21.312,-12.299l0,-24.612Z" style="fill-rule:nonzero;"/>
        <path d="M1569.83,1198.14l21.312,-12.312l21.312,12.312l0,24.599l-21.312,12.3l-21.312,-12.3l0,-24.599Z" style="fill-rule:nonzero;"/>
        <path d="M1547.23,1237.27l21.312,-12.299l21.312,12.299l0,24.612l-21.312,12.299l-21.312,-12.299l0,-24.612Z" style="fill-rule:nonzero;"/>
        <path d="M1569.83,1276.42l21.312,-12.301l21.312,12.3l0,24.611l-21.312,12.3l-21.312,-12.3l0,-24.611Z" style="fill-rule:nonzero;"/>
        <path d="M1366.41,1237.27l21.312,-12.299l21.312,12.299l0,24.612l-21.312,12.299l-21.312,-12.299l0,-24.612Z" style="fill-rule:nonzero;"/>
        <path d="M1615.04,1198.14l21.312,-12.312l21.312,12.312l0,24.599l-21.312,12.3l-21.312,-12.3l0,-24.599Z" style="fill-rule:nonzero;"/>
        <path d="M1524.63,1198.14l21.3,-12.312l21.312,12.312l0,24.599l-21.312,12.3l-21.3,-12.299l0,-24.6Z" style="fill-rule:nonzero;"/>
        <path d="M1592.42,1237.27l21.313,-12.299l21.312,12.299l0,24.612l-21.312,12.299l-21.313,-12.299l0,-24.612Z" style="fill-rule:nonzero;"/>
        <path d="M1615.04,1276.42l21.312,-12.301l21.312,12.3l0,24.611l-21.312,12.3l-21.312,-12.3l0,-24.611Z" style="fill-rule:nonzero;"/>
        <path d="M1592.42,1315.57l21.313,-12.301l21.312,12.301l0,24.611l-21.312,12.3l-21.313,-12.301l0,-24.611Z" style="fill-rule:nonzero;"/>
        <path d="M1615.04,1354.72l21.312,-12.301l21.312,12.301l0,24.598l-21.312,12.312l-21.312,-12.312l0,-24.598Z" style="fill-rule:nonzero;"/>
        <path d="M1728.05,1393.87l21.312,-12.312l21.312,12.312l0,24.599l-21.312,12.312l-21.312,-12.312l0,-24.599Z" style="fill-rule:nonzero;"/>
        <path d="M1705.43,1433.02l21.312,-12.312l21.312,12.312l0,24.6l-21.312,12.299l-21.312,-12.299l0,-24.6Z" style="fill-rule:nonzero;"/>
        <path d="M1637.63,1237.27l21.312,-12.299l21.3,12.299l0,24.612l-21.3,12.299l-21.312,-12.299l0,-24.612Z" style="fill-rule:nonzero;"/>
        <path d="M1660.25,1276.42l21.3,-12.301l21.312,12.3l0,24.611l-21.312,12.3l-21.3,-12.299l0,-24.612Z" style="fill-rule:nonzero;"/>
        <path d="M1637.63,1315.57l21.312,-12.301l21.3,12.301l0,24.612l-21.3,12.299l-21.312,-12.301l0,-24.611Z" style="fill-rule:nonzero;"/>
        <path d="M1660.25,1354.72l21.3,-12.301l21.312,12.301l0,24.598l-21.312,12.312l-21.3,-12.31l0,-24.6Z" style="fill-rule:nonzero;"/>
        <path d="M1411.62,1237.27l21.3,-12.299l21.311,12.301l0,24.611l-21.311,12.3l-21.3,-12.299l0,-24.614Z" style="fill-rule:nonzero;"/>
        <path d="M1343.82,1198.14l21.312,-12.312l21.312,12.312l0,24.599l-21.312,12.3l-21.312,-12.3l0,-24.599Z" style="fill-rule:nonzero;"/>
        <path d="M1682.84,1315.57l21.312,-12.301l21.312,12.301l0,24.611l-21.312,12.3l-21.312,-12.301l0,-24.611Z" style="fill-rule:nonzero;"/>
        <path d="M1705.43,1354.72l21.312,-12.301l21.312,12.301l0,24.598l-21.312,12.312l-21.312,-12.312l0,-24.598Z" style="fill-rule:nonzero;"/>
        <path d="M1682.84,1393.87l21.312,-12.312l21.312,12.312l0,24.599l-21.312,12.312l-21.312,-12.312l0,-24.599Z" style="fill-rule:nonzero;"/>
        <path d="M1637.63,1393.87l21.312,-12.312l21.3,12.311l0,24.601l-21.3,12.311l-21.312,-12.312l0,-24.599Z" style="fill-rule:nonzero;"/>
        <path d="M1389.02,1198.14l21.312,-12.312l21.3,12.312l0,24.6l-21.3,12.299l-21.312,-12.3l0,-24.599Z" style="fill-rule:nonzero;"/>
        <path d="M1524.63,1276.42l21.3,-12.301l21.312,12.3l0,24.611l-21.312,12.3l-21.3,-12.299l0,-24.612Z" style="fill-rule:nonzero;"/>
    </g>
    <g id="GA">
        <path d="M1615.04,963.25l21.312,-12.303l21.312,12.303l0,24.606l-21.312,12.303l-21.312,-12.303l0,-24.606Z" style="fill-rule:nonzero;"/>
        <path d="M1547.23,1002.4l21.312,-12.304l21.312,12.303l0,24.607l-21.312,12.301l-21.312,-12.301l0,-24.606Z" style="fill-rule:nonzero;"/>
        <path d="M1569.83,1041.54l21.312,-12.299l21.312,12.299l0,24.612l-21.312,12.301l-21.312,-12.301l0,-24.612Z" style="fill-rule:nonzero;"/>
        <path d="M1660.25,1119.84l21.3,-12.301l21.312,12.301l0,24.6l-21.312,12.31l-21.3,-12.31l0,-24.6Z" style="fill-rule:nonzero;"/>
        <path d="M1592.42,1002.4l21.313,-12.304l21.312,12.303l0,24.607l-21.312,12.301l-21.313,-12.301l0,-24.606Z" style="fill-rule:nonzero;"/>
        <path d="M1615.04,1041.54l21.312,-12.299l21.312,12.299l0,24.612l-21.312,12.301l-21.312,-12.301l0,-24.612Z" style="fill-rule:nonzero;"/>
        <path d="M1569.83,1119.84l21.312,-12.301l21.312,12.301l0,24.6l-21.312,12.31l-21.312,-12.31l0,-24.6Z" style="fill-rule:nonzero;"/>
        <path d="M1682.84,1080.69l21.312,-12.3l21.312,12.299l0,24.612l-21.312,12.301l-21.312,-12.301l0,-24.612Z" style="fill-rule:nonzero;"/>
        <path d="M1637.63,1002.4l21.312,-12.304l21.3,12.303l0,24.607l-21.3,12.299l-21.312,-12.299l0,-24.606Z" style="fill-rule:nonzero;"/>
        <path d="M1660.25,1041.54l21.3,-12.299l21.312,12.299l0,24.612l-21.312,12.301c0,-0.002 -21.3,-12.301 -21.3,-12.301l0,-24.612Z" style="fill-rule:nonzero;"/>
        <path d="M1615.04,1119.84l21.312,-12.301l21.312,12.301l0,24.6l-21.312,12.31l-21.312,-12.31l0,-24.6Z" style="fill-rule:nonzero;"/>
        <path d="M1637.63,1080.69l21.312,-12.3l21.3,12.299l0,24.612l-21.3,12.301l-21.312,-12.301l0,-24.612Z" style="fill-rule:nonzero;"/>
        <path d="M1592.42,1080.69l21.313,-12.3l21.312,12.299l0,24.612l-21.312,12.301l-21.313,-12.301l0,-24.612Z" style="fill-rule:nonzero;"/>
        <path d="M1569.83,963.25l21.312,-12.303l21.312,12.303l0,24.606l-21.312,12.303l-21.312,-12.303l0,-24.606Z" style="fill-rule:nonzero;"/>
    </g>
    <g id="HI">
        <path d="M753.421,1238.04l21.31,-12.299l21.309,12.299l0,24.6l-21.309,12.312l-21.31,-12.312l0,-24.6Z" style="fill-rule:nonzero;"/>
        <path d="M776.023,1277.19l21.309,-12.313l21.31,12.313l0,24.599l-21.31,12.312l-21.309,-12.312l0,-24.6Z" style="fill-rule:nonzero;"/>
    </g>
    <g id="ID">
        <path d="M519.523,439.798l21.309,-12.303l21.31,12.303l0,24.606l-21.31,12.303l-21.309,-12.303l0,-24.606Z" style="fill-rule:nonzero;"/>
        <path d="M542.124,478.945l21.309,-12.304l21.31,12.304l0,24.607l-21.31,12.303l-21.309,-12.303l0,-24.607Z" style="fill-rule:nonzero;"/>
    </g>
    <g id="IL">
        <path d="M1185.61,610.928l21.31,-12.304l21.309,12.303l0,24.606l-21.309,12.303l-21.31,-12.303l0,-24.606Z" style="fill-rule:nonzero;"/>
        <path d="M1276.02,610.928l21.314,-12.304l21.3,12.303l0,24.606l-21.3,12.303l-21.314,-12.303l0,-24.606Z" style="fill-rule:nonzero;"/>
        <path d="M1185.61,689.22l21.31,-12.304l21.309,12.304l0,24.607l-21.309,12.303l-21.31,-12.303l0,-24.607Z" style="fill-rule:nonzero;"/>
        <path d="M1230.81,767.515l21.311,-12.303l21.309,12.303l0,24.606l-21.309,12.303l-21.311,-12.303l0,-24.606Z" style="fill-rule:nonzero;"/>
        <path d="M1230.81,610.928l21.311,-12.304l21.309,12.303l0,24.606l-21.309,12.303l-21.311,-12.303l0,-24.606Z" style="fill-rule:nonzero;"/>
        <path d="M1208.2,650.074l21.309,-12.304l21.311,12.303l0,24.606l-21.311,12.303l-21.309,-12.303l0,-24.606Z" style="fill-rule:nonzero;"/>
        <path d="M1230.81,689.22l21.311,-12.304l21.309,12.304l0,24.607l-21.309,12.303l-21.311,-12.303l0,-24.607Z" style="fill-rule:nonzero;"/>
        <path d="M1208.2,728.367l21.309,-12.303l21.311,12.304l0,24.606l-21.311,12.303l-21.309,-12.303l0,-24.606Z" style="fill-rule:nonzero;"/>
        <path d="M1185.61,767.515l21.31,-12.303l21.309,12.303l0,24.606l-21.309,12.303l-21.31,-12.303l0,-24.606Z" style="fill-rule:nonzero;"/>
        <path d="M1253.4,650.074l21.31,-12.304l21.315,12.303l0,24.606l-21.315,12.303l-21.31,-12.303l0,-24.606Z" style="fill-rule:nonzero;"/>
        <path d="M1253.4,728.367l21.31,-12.303l21.315,12.304l0,24.606l-21.315,12.303l-21.31,-12.303l0,-24.606Z" style="fill-rule:nonzero;"/>
        <path d="M1208.2,806.661l21.309,-12.304l21.311,12.304l0,24.606l-21.311,12.304l-21.309,-12.303l0,-24.607Z" style="fill-rule:nonzero;"/>
        <path d="M1253.4,806.661l21.31,-12.304l21.315,12.304l0,24.606l-21.315,12.304l-21.31,-12.303l0,-24.607Z" style="fill-rule:nonzero;"/>
        <path d="M1298.62,650.074l21.3,-12.304l21.312,12.303l0,24.606l-21.312,12.303l-21.3,-12.303l0,-24.606Z" style="fill-rule:nonzero;"/>
        <path d="M1276.02,767.515l21.314,-12.303l21.3,12.303l0,24.606l-21.3,12.303l-21.314,-12.303l0,-24.606Z" style="fill-rule:nonzero;"/>
        <path d="M1276.02,689.22l21.314,-12.304l21.3,12.304l0,24.607l-21.3,12.303l-21.314,-12.303l0,-24.607Z" style="fill-rule:nonzero;"/>
        <path d="M1298.62,728.367l21.3,-12.303l21.312,12.304l0,24.606l-21.312,12.303l-21.3,-12.303l0,-24.606Z" style="fill-rule:nonzero;"/>
    </g>
    <g id="IN">
        <path d="M1411.62,610.926l21.3,-12.303l21.311,12.304l0,24.605l-21.311,12.304l-21.3,-12.304l0,-24.606Z" style="fill-rule:nonzero;"/>
        <path d="M1389.02,571.78l21.312,-12.304l21.3,12.303l0,24.607l-21.3,12.303l-21.312,-12.303l0,-24.606Z" style="fill-rule:nonzero;"/>
        <path d="M1456.82,610.928l21.312,-12.304l21.312,12.303l0,24.606l-21.312,12.303l-21.312,-12.303l0,-24.606Z" style="fill-rule:nonzero;"/>
        <path d="M1434.21,650.074l21.312,-12.304l21.312,12.303l0,24.606l-21.312,12.303l-21.312,-12.303l0,-24.606Z" style="fill-rule:nonzero;"/>
        <path d="M1389.02,650.074l21.312,-12.304l21.3,12.303l0,24.606l-21.3,12.303l-21.312,-12.303l0,-24.606Z" style="fill-rule:nonzero;"/>
        <path d="M1434.21,571.78l21.312,-12.304l21.312,12.303l0,24.607l-21.312,12.303l-21.312,-12.303l0,-24.606Z" style="fill-rule:nonzero;"/>
        <path d="M1366.41,689.22l21.312,-12.304l21.312,12.304l0,24.607l-21.312,12.303l-21.312,-12.303l0,-24.607Z" style="fill-rule:nonzero;"/>
        <path d="M1366.41,610.928l21.312,-12.304l21.312,12.303l0,24.606l-21.312,12.303l-21.312,-12.303l0,-24.606Z" style="fill-rule:nonzero;"/>
        <path d="M1411.62,689.22l21.3,-12.304l21.311,12.304l0,24.607l-21.311,12.303l-21.3,-12.303l0,-24.607Z" style="fill-rule:nonzero;"/>
    </g>
    <g id="IA">
        <path d="M959.59,610.928l21.309,-12.304l21.31,12.303l0,24.606l-21.31,12.303l-21.309,-12.303l0,-24.606Z" style="fill-rule:nonzero;"/>
        <path d="M1027.39,650.074l21.309,-12.304l21.31,12.303l0,24.606l-21.31,12.303l-21.309,-12.303l0,-24.606Z" style="fill-rule:nonzero;"/>
        <path d="M1004.79,610.928l21.31,-12.304l21.309,12.303l0,24.606l-21.309,12.303l-21.31,-12.303l0,-24.606Z" style="fill-rule:nonzero;"/>
        <path d="M982.191,650.074l21.31,-12.304l21.309,12.303l0,24.606l-21.309,12.303l-21.31,-12.303l0,-24.606Z" style="fill-rule:nonzero;"/>
    </g>
    <g id="KS">
        <path d="M758.55,723.335l21.31,-12.303l21.309,12.303l-0,24.606l-21.309,12.304l-21.31,-12.304l-0,-24.606Z" style="fill-rule:nonzero;"/>
        <path d="M803.753,723.335l21.309,-12.303l21.31,12.303l-0,24.606l-21.31,12.304l-21.309,-12.304l-0,-24.606Z" style="fill-rule:nonzero;"/>
        <path d="M826.354,762.482l21.31,-12.303l21.309,12.303l-0,24.606l-21.309,12.303l-21.31,-12.303l-0,-24.606Z" style="fill-rule:nonzero;"/>
        <path d="M781.151,762.482l21.31,-12.303l21.309,12.303l-0,24.606l-21.309,12.303l-21.31,-12.303l-0,-24.606Z" style="fill-rule:nonzero;"/>
    </g>
    <g id="KY">
        <path d="M1502.03,767.515l21.312,-12.303l21.299,12.303l0,24.606l-21.299,12.303l-21.312,-12.303l0,-24.606Z" style="fill-rule:nonzero;"/>
        <path d="M1389.02,806.661l21.312,-12.304l21.3,12.303l0,24.608l-21.3,12.303l-21.312,-12.304l0,-24.606Z" style="fill-rule:nonzero;"/>
        <path d="M1434.21,806.661l21.312,-12.304l21.312,12.304l0,24.606l-21.312,12.304l-21.312,-12.304l0,-24.606Z" style="fill-rule:nonzero;"/>
        <path d="M1479.42,806.661l21.312,-12.304l21.312,12.304l0,24.606l-21.312,12.304l-21.312,-12.304l0,-24.606Z" style="fill-rule:nonzero;"/>
        <path d="M1524.63,806.66l21.3,-12.303l21.312,12.304l0,24.606l-21.312,12.304l-21.3,-12.303l0,-24.607Z" style="fill-rule:nonzero;"/>
        <path d="M1456.82,767.515l21.312,-12.303l21.312,12.303l0,24.606l-21.312,12.303l-21.312,-12.303l0,-24.606Z" style="fill-rule:nonzero;"/>
    </g>
    <g id="LA">
        <path d="M1140.4,1080.69l21.309,-12.3l21.31,12.299l0,24.612l-21.31,12.301l-21.309,-12.301l0,-24.612Z" style="fill-rule:nonzero;"/>
        <path d="M1208.2,1041.54l21.309,-12.299l21.311,12.299l0,24.612l-21.311,12.301l-21.309,-12.301l0,-24.612Z" style="fill-rule:nonzero;"/>
        <path d="M1185.61,1080.69l21.31,-12.3l21.309,12.299l0,24.612l-21.309,12.301l-21.31,-12.301l0,-24.612Z" style="fill-rule:nonzero;"/>
        <path d="M1208.2,1119.84l21.309,-12.301l21.311,12.301l0,24.6l-21.311,12.31l-21.309,-12.31l0,-24.6Z" style="fill-rule:nonzero;"/>
        <path d="M1163.01,1119.84l21.309,-12.301l21.31,12.301l0,24.6l-21.31,12.31l-21.309,-12.31l0,-24.6Z" style="fill-rule:nonzero;"/>
        <path d="M1163.01,1041.54l21.309,-12.299l21.31,12.299l0,24.612l-21.31,12.301l-21.309,-12.301l0,-24.612Z" style="fill-rule:nonzero;"/>
    </g>
    <g id="ME">
        <path d="M2127.41,79.531l21.312,-12.304l21.312,12.304l0,24.605l-21.312,12.304l-21.312,-12.304l0,-24.605Z" style="fill-rule:nonzero;"/>
        <path d="M2082.22,79.531l21.312,-12.304l21.299,12.303l0,24.606l-21.299,12.304l-21.312,-12.304l0,-24.605Z" style="fill-rule:nonzero;"/>
    </g>
    <g id="MD">
        <path d="M1819.26,594.468l21.312,-12.304l21.313,12.303l0,24.607l-21.313,12.303l-21.312,-12.303l0,-24.606Z" style="fill-rule:nonzero;"/>
        <path d="M1864.47,594.468l21.312,-12.304l21.3,12.303l0,24.607l-21.3,12.303l-21.312,-12.303l0,-24.606Z" style="fill-rule:nonzero;"/>
        <path d="M1909.65,594.468l21.312,-12.304l21.312,12.303l0,24.607l-21.312,12.303l-21.312,-12.303l0,-24.606Z" style="fill-rule:nonzero;"/>
        <path d="M1954.87,594.468l21.312,-12.304l21.312,12.303l0,24.607l-21.312,12.303l-21.312,-12.303l0,-24.606Z" style="fill-rule:nonzero;"/>
        <path d="M2000.08,594.468l21.299,-12.304l21.312,12.303l0,24.607l-21.312,12.303l-21.299,-12.303l0,-24.606Z" style="fill-rule:nonzero;"/>
        <path d="M2045.27,672.761l21.312,-12.303l21.312,12.303l0,24.606l-21.312,12.303l-21.312,-12.303l0,-24.606Z" style="fill-rule:nonzero;"/>
        <path d="M2022.66,633.616l21.312,-12.304l21.312,12.303l0,24.606l-21.312,12.303l-21.312,-12.303l0,-24.606Z" style="fill-rule:nonzero;"/>
        <path d="M1932.27,633.616l21.312,-12.304l21.312,12.303l0,24.606l-21.312,12.303l-21.312,-12.303l0,-24.606Z" style="fill-rule:nonzero;"/>
    </g>
    <g id="MA">
        <path d="M1947.18,159.35l21.3,-12.303l21.312,12.304l0,24.607l-21.312,12.303l-21.3,-12.303l0,-24.608Z" style="fill-rule:nonzero;"/>
        <path d="M1970.08,197.496l21.312,-12.304l21.312,12.304l0,24.606l-21.312,12.304l-21.312,-12.304l0,-24.606Z" style="fill-rule:nonzero;"/>
        <path d="M2127.41,158.35l21.312,-12.303l21.312,12.303l0,24.606l-21.312,12.304l-21.312,-12.304l0,-24.606Z" style="fill-rule:nonzero;"/>
        <path d="M2037.01,158.35l21.312,-12.303l21.312,12.303l0,24.606l-21.312,12.304l-21.312,-12.304l0,-24.606Z" style="fill-rule:nonzero;"/>
        <path d="M2014.4,197.497l21.312,-12.303l21.312,12.303l0,24.606l-21.312,12.303l-21.312,-12.303l0,-24.606Z" style="fill-rule:nonzero;"/>
        <path d="M1992.38,158.351l21.312,-12.304l21.312,12.304l0,24.607l-21.312,12.303l-21.312,-12.303l0,-24.607Z" style="fill-rule:nonzero;"/>
        <path d="M2104.82,197.497l21.3,-12.303l21.312,12.303l0,24.606l-21.312,12.303l-21.3,-12.303l0,-24.606Z" style="fill-rule:nonzero;"/>
        <path d="M2082.22,158.35l21.312,-12.303l21.299,12.303l0,24.606l-21.299,12.304c0,-0.001 -21.312,-12.304 -21.312,-12.304l0,-24.606Z" style="fill-rule:nonzero;"/>
        <path d="M2059.62,197.497l21.312,-12.303l21.312,12.303l0,24.606l-21.312,12.303l-21.312,-12.303l0,-24.606Z" style="fill-rule:nonzero;"/>
    </g>
    <g id="MI">
        <path d="M1296.03,414.591l21.314,-12.304l21.3,12.303l0,24.606l-21.3,12.304l-21.314,-12.304l0,-24.605Z" style="fill-rule:nonzero;"/>
        <path d="M1319.22,375.445l21.312,-12.304l21.312,12.304l0,24.605l-21.312,12.304l-21.312,-12.304l0,-24.605Z" style="fill-rule:nonzero;"/>
        <path d="M1341.82,336.297l21.312,-12.303l21.3,12.303l0,24.607l-21.3,12.303l-21.312,-12.303l0,-24.606Z" style="fill-rule:nonzero;"/>
        <path d="M1387.02,336.297l21.312,-12.303l21.312,12.303l0,24.607l-21.312,12.303l-21.312,-12.303l0,-24.606Z" style="fill-rule:nonzero;"/>
        <path d="M1341.82,492.886l21.312,-12.304l21.3,12.304l0,24.606l-21.3,12.303l-21.312,-12.304l0,-24.605Z" style="fill-rule:nonzero;"/>
        <path d="M1387.02,492.886l21.312,-12.304l21.312,12.304l0,24.605l-21.312,12.304l-21.312,-12.303l0,-24.606Z" style="fill-rule:nonzero;"/>
        <path d="M1364.43,375.445l21.3,-12.304l21.311,12.304l0,24.605l-21.311,12.304l-21.3,-12.303l0,-24.606Z" style="fill-rule:nonzero;"/>
        <path d="M1341.82,414.591l21.312,-12.303l21.3,12.303l0,24.606l-21.3,12.303l-21.312,-12.303l0,-24.606Z" style="fill-rule:nonzero;"/>
        <path d="M1364.43,453.738l21.3,-12.303l21.311,12.303l0,24.607l-21.311,12.303l-21.3,-12.303l0,-24.607Z" style="fill-rule:nonzero;"/>
        <path d="M1432.23,414.591l21.312,-12.303l21.312,12.303l0,24.606l-21.312,12.304l-21.312,-12.304l0,-24.606Z" style="fill-rule:nonzero;"/>
        <path d="M1409.62,453.738l21.312,-12.304l21.312,12.304l0,24.607l-21.312,12.303l-21.312,-12.303l0,-24.607Z" style="fill-rule:nonzero;"/>
        <path d="M1387.02,414.591l21.312,-12.303l21.312,12.303l0,24.606l-21.312,12.304l-21.312,-12.304l0,-24.606Z" style="fill-rule:nonzero;"/>
        <path d="M1318.5,453.739l21.313,-12.304l21.312,12.304l0,24.605l-21.312,12.304l-21.313,-12.304l0,-24.605Z" style="fill-rule:nonzero;"/>
    </g>
    <g id="MN">
        <path d="M959.59,376.045l21.309,-12.304l21.31,12.304l0,24.606l-21.31,12.303l-21.309,-12.303l0,-24.606Z" style="fill-rule:nonzero;"/>
        <path d="M982.191,415.191l21.31,-12.303l21.309,12.303l0,24.606l-21.309,12.303l-21.31,-12.303l0,-24.606Z" style="fill-rule:nonzero;"/>
        <path d="M1004.79,376.045l21.31,-12.304l21.309,12.304l0,24.606l-21.309,12.303l-21.31,-12.303l0,-24.606Z" style="fill-rule:nonzero;"/>
        <path d="M959.59,454.338l21.309,-12.304l21.31,12.304l0,24.607l-21.31,12.303l-21.309,-12.303l0,-24.607Z" style="fill-rule:nonzero;"/>
        <path d="M936.988,415.191l21.31,-12.303l21.309,12.303l0,24.606l-21.309,12.303l-21.31,-12.303l0,-24.606Z" style="fill-rule:nonzero;"/>
        <path d="M936.988,493.486l21.31,-12.303l21.309,12.303l0,24.606l-21.309,12.303l-21.31,-12.303l0,-24.606Z" style="fill-rule:nonzero;"/>
        <path d="M982.191,493.486l21.31,-12.303l21.309,12.303l0,24.606l-21.309,12.303l-21.31,-12.303l0,-24.606Z" style="fill-rule:nonzero;"/>
        <path d="M914.386,376.045l21.311,-12.304l21.309,12.304l0,24.606l-21.309,12.303l-21.311,-12.304l0,-24.605Z" style="fill-rule:nonzero;"/>
    </g>
    <g id="MS">
        <path d="M1321.2,1080.69l21.313,-12.3l21.312,12.299l0,24.612l-21.312,12.301l-21.313,-12.301l0,-24.612Z" style="fill-rule:nonzero;"/>
        <path d="M1298.62,1041.54l21.3,-12.299l21.312,12.299l0,24.612l-21.312,12.301c0,-0.002 -21.3,-12.301 -21.3,-12.301l0,-24.612Z" style="fill-rule:nonzero;"/>
        <path d="M1276.02,1080.69l21.314,-12.3l21.3,12.299l0,24.612l-21.3,12.301l-21.314,-12.301l0,-24.612Z" style="fill-rule:nonzero;"/>
        <path d="M1298.62,1119.84l21.3,-12.301l21.312,12.301l0,24.6l-21.312,12.31l-21.3,-12.31l0,-24.6Z" style="fill-rule:nonzero;"/>
    </g>
    <g id="MO">
        <path d="M1003.5,762.482l21.31,-12.303l21.31,12.303l-0,24.606l-21.31,12.303l-21.31,-12.303l-0,-24.606Z" style="fill-rule:nonzero;"/>
        <path d="M1026.1,723.336l21.311,-12.304l21.31,12.303l-0,24.606l-21.31,12.304l-21.311,-12.304l-0,-24.605Z" style="fill-rule:nonzero;"/>
        <path d="M980.9,801.629l21.309,-12.304l21.31,12.304l-0,24.607l-21.31,12.303l-21.309,-12.303l-0,-24.607Z" style="fill-rule:nonzero;"/>
        <path d="M980.9,723.335l21.309,-12.303l21.31,12.303l-0,24.606l-21.31,12.304l-21.309,-12.304l-0,-24.606Z" style="fill-rule:nonzero;"/>
        <path d="M1093.91,840.776l21.309,-12.303l21.31,12.303l-0,24.606l-21.31,12.303l-21.309,-12.303l-0,-24.606Z" style="fill-rule:nonzero;"/>
        <path d="M1048.7,762.482l21.309,-12.303l21.31,12.303l-0,24.606l-21.31,12.303l-21.309,-12.303l-0,-24.606Z" style="fill-rule:nonzero;"/>
        <path d="M1026.1,801.629l21.311,-12.304l21.31,12.304l-0,24.607l-21.31,12.303l-21.311,-12.304l-0,-24.606Z" style="fill-rule:nonzero;"/>
        <path d="M1071.31,801.629l21.31,-12.304l21.309,12.304l-0,24.607l-21.309,12.303l-21.31,-12.303l-0,-24.607Z" style="fill-rule:nonzero;"/>
    </g>
    <g id="MT">
        <path d="M643.168,376.045l21.31,-12.304l21.31,12.304l0,24.606l-21.31,12.303l-21.31,-12.303l0,-24.606Z" style="fill-rule:nonzero;"/>
        <path d="M597.965,376.045l21.31,-12.304l21.31,12.304l0,24.606l-21.31,12.303l-21.31,-12.304l0,-24.605Z" style="fill-rule:nonzero;"/>
    </g>
    <g id="NE">
        <path d="M808.633,604.382l21.311,-12.305l21.309,12.304l-0,24.607l-21.309,12.303l-21.311,-12.303l-0,-24.607Z" style="fill-rule:nonzero;"/>
        <path d="M831.236,643.53l21.309,-12.304l21.31,12.303l-0,24.606l-21.31,12.303l-21.309,-12.303l-0,-24.606Z" style="fill-rule:nonzero;"/>
        <path d="M763.43,604.382l21.31,-12.305l21.31,12.304l-0,24.607l-21.31,12.303l-21.31,-12.303l-0,-24.607Z" style="fill-rule:nonzero;"/>
    </g>
    <g id="NV">
        <path d="M462.357,767.515l21.309,-12.303l21.31,12.303l0,24.606l-21.31,12.303l-21.309,-12.303l0,-24.606Z" style="fill-rule:nonzero;"/>
        <path d="M484.958,806.661l21.309,-12.304l21.31,12.304l0,24.607l-21.31,12.303l-21.309,-12.303l0,-24.607Z" style="fill-rule:nonzero;"/>
        <path d="M530.161,806.661l21.309,-12.304l21.31,12.304l0,24.607l-21.31,12.303l-21.309,-12.303l0,-24.607Z" style="fill-rule:nonzero;"/>
        <path d="M507.559,767.515l21.31,-12.303l21.309,12.303l0,24.606l-21.309,12.303l-21.31,-12.303l0,-24.606Z" style="fill-rule:nonzero;"/>
    </g>
    <g id="NH">
        <path d="M1964.41,40.384l21.3,-12.303l21.312,12.303l0,24.606l-21.312,12.303l-21.3,-12.303l0,-24.606Z" style="fill-rule:nonzero;"/>
        <path d="M1987.01,79.531l21.312,-12.304l21.312,12.304l0,24.606l-21.312,12.303l-21.312,-12.303l0,-24.606Z" style="fill-rule:nonzero;"/>
    </g>
    <g id="NJ">
        <path d="M1944.86,414.591l21.312,-12.303l21.299,12.303l0,24.606l-21.299,12.303l-21.312,-12.303l0,-24.606Z" style="fill-rule:nonzero;"/>
        <path d="M2012.65,532.034l21.312,-12.304l21.312,12.303l0,24.606l-21.312,12.303l-21.312,-12.303l0,-24.606l0,0Z" style="fill-rule:nonzero;"/>
        <path d="M1967.46,375.446l21.299,-12.305l21.312,12.304l0,24.606l-21.312,12.303l-21.299,-12.303l0,-24.606Z" style="fill-rule:nonzero;"/>
        <path d="M2035.26,414.591l21.312,-12.303l21.312,12.303l0,24.606l-21.312,12.303l-21.312,-12.303l0,-24.606Z" style="fill-rule:nonzero;"/>
        <path d="M1967.46,453.738l21.299,-12.304l21.312,12.304l0,24.607l-21.312,12.303l-21.299,-12.303l0,-24.607Z" style="fill-rule:nonzero;"/>
        <path d="M1990.05,492.886l21.312,-12.304l21.312,12.304l0,24.605l-21.312,12.304l-21.312,-12.303l0,-24.606Z" style="fill-rule:nonzero;"/>
        <path d="M2012.65,375.446l21.312,-12.305l21.312,12.304l0,24.606l-21.312,12.303l-21.312,-12.303l0,-24.606Z" style="fill-rule:nonzero;"/>
        <path d="M1990.05,414.591l21.312,-12.303l21.312,12.303l0,24.606l-21.312,12.303l-21.312,-12.303l0,-24.606Z" style="fill-rule:nonzero;"/>
        <path d="M1922.26,532.034l21.312,-12.304l21.312,12.303l0,24.606l-21.312,12.303l-21.312,-12.303l0,-24.606l0,0Z" style="fill-rule:nonzero;"/>
        <path d="M1967.46,532.034l21.299,-12.304l21.312,12.303l0,24.606l-21.312,12.303l-21.299,-12.303l0,-24.606l0,0Z" style="fill-rule:nonzero;"/>
        <path d="M2012.65,453.738l21.312,-12.304l21.312,12.304l0,24.607l-21.312,12.303l-21.312,-12.303l0,-24.607Z" style="fill-rule:nonzero;"/>
        <path d="M1944.86,492.886l21.312,-12.304l21.299,12.303l0,24.606l-21.299,12.304l-21.312,-12.304l0,-24.605Z" style="fill-rule:nonzero;"/>
    </g>
    <g id="NM">
        <path d="M710.972,884.955l21.31,-12.304l21.31,12.304l0,24.606l-21.31,12.303l-21.31,-12.303l0,-24.606Z" style="fill-rule:nonzero;"/>
        <path d="M756.175,884.955l21.311,-12.304l21.309,12.304l0,24.606l-21.309,12.303l-21.311,-12.303l0,-24.606Z" style="fill-rule:nonzero;"/>
        <path d="M733.574,924.102l21.309,-12.303l21.311,12.303l0,24.606l-21.311,12.304l-21.309,-12.303l0,-24.607Z" style="fill-rule:nonzero;"/>
    </g>
    <g id="NY">
        <path d="M1571.92,270.791l21.311,-12.303l21.3,12.303l0,24.606l-21.3,12.303l-21.311,-12.303l0,-24.606Z" style="fill-rule:nonzero;"/>
        <path d="M1594.52,231.643l21.3,-12.303l21.312,12.303l0,24.607l-21.312,12.304l-21.3,-12.303l0,-24.608Z" style="fill-rule:nonzero;"/>
        <path d="M1639.72,231.643l21.312,-12.303l21.312,12.303l0,24.607l-21.312,12.304l-21.312,-12.304l0,-24.607Z" style="fill-rule:nonzero;"/>
        <path d="M1617.12,270.791l21.312,-12.303l21.312,12.303l0,24.606l-21.312,12.303l-21.312,-12.303l0,-24.606Z" style="fill-rule:nonzero;"/>
        <path d="M1797.93,114.203l21.312,-12.304l21.312,12.304l0,24.606l-21.312,12.304l-21.312,-12.304l0,-24.606Z" style="fill-rule:nonzero;"/>
        <path d="M1730.13,153.35l21.3,-12.303l21.311,12.303l0,24.606l-21.311,12.303l-21.3,-12.303l0,-24.606Z" style="fill-rule:nonzero;"/>
        <path d="M1820.54,153.35l21.312,-12.303l21.299,12.303l0,24.606l-21.299,12.303l-21.312,-12.303l0,-24.606Z" style="fill-rule:nonzero;"/>
        <path d="M1684.93,231.643l21.312,-12.303l21.312,12.303l0,24.607l-21.312,12.304l-21.312,-12.304l0,-24.607Z" style="fill-rule:nonzero;"/>
        <path d="M1662.32,270.791l21.312,-12.303l21.312,12.303l0,24.606l-21.312,12.303l-21.312,-12.303l0,-24.606Z" style="fill-rule:nonzero;"/>
        <path d="M1684.93,153.35l21.312,-12.303l21.312,12.303l0,24.606l-21.312,12.303l-21.312,-12.303l0,-24.606Z" style="fill-rule:nonzero;"/>
        <path d="M1775.33,153.35l21.312,-12.303l21.312,12.303l0,24.606l-21.312,12.303l-21.312,-12.303l0,-24.606Z" style="fill-rule:nonzero;"/>
        <path d="M1707.53,192.497l21.312,-12.304l21.3,12.304l0,24.606l-21.3,12.303l-21.312,-12.303l0,-24.606Z" style="fill-rule:nonzero;"/>
        <path d="M1730.13,231.643l21.3,-12.303l21.311,12.303l0,24.607l-21.311,12.304l-21.3,-12.303l0,-24.608Z" style="fill-rule:nonzero;"/>
        <path d="M1707.53,270.791l21.312,-12.303l21.3,12.303l0,24.606l-21.3,12.303l-21.312,-12.303l0,-24.606Z" style="fill-rule:nonzero;"/>
        <path d="M1707.53,114.203l21.312,-12.304l21.3,12.303l0,24.608l-21.3,12.303l-21.312,-12.304l0,-24.606Z" style="fill-rule:nonzero;"/>
        <path d="M1752.73,192.497l21.312,-12.304l21.312,12.304l0,24.606l-21.312,12.303l-21.312,-12.303l0,-24.606Z" style="fill-rule:nonzero;"/>
        <path d="M1775.33,231.643l21.312,-12.303l21.312,12.303l0,24.607l-21.312,12.304l-21.312,-12.304l0,-24.607Z" style="fill-rule:nonzero;"/>
        <path d="M1752.73,270.791l21.312,-12.303l21.312,12.303l0,24.606l-21.312,12.303l-21.312,-12.303l0,-24.606Z" style="fill-rule:nonzero;"/>
        <path d="M1775.33,309.938l21.312,-12.304l21.312,12.304l0,24.605l-21.312,12.304l-21.312,-12.304l0,-24.605Z" style="fill-rule:nonzero;"/>
        <path d="M1752.73,114.203l21.312,-12.304l21.312,12.304l0,24.606l-21.312,12.304l-21.312,-12.304l0,-24.606Z" style="fill-rule:nonzero;"/>
        <path d="M1797.93,192.497l21.312,-12.304l21.312,12.304l0,24.606l-21.312,12.303l-21.312,-12.303l0,-24.606Z" style="fill-rule:nonzero;"/>
        <path d="M1797.93,270.791l21.312,-12.303l21.312,12.303l0,24.606l-21.312,12.303l-21.312,-12.303l0,-24.606Z" style="fill-rule:nonzero;"/>
        <path d="M1888.34,349.084l21.312,-12.303l21.312,12.303l0,24.607l-21.312,12.304l-21.312,-12.304l0,-24.607Z" style="fill-rule:nonzero;"/>
        <path d="M1820.54,309.938l21.312,-12.304l21.299,12.304l0,24.606l-21.299,12.303l-21.312,-12.304l0,-24.605Z" style="fill-rule:nonzero;"/>
        <path d="M1820.54,231.643l21.312,-12.303l21.299,12.303l0,24.607c0,0.001 -21.299,12.304 -21.299,12.304l-21.312,-12.304l0,-24.607Z" style="fill-rule:nonzero;"/>
        <path d="M1843.14,349.084l21.299,-12.303l21.312,12.303l0,24.607l-21.312,12.304l-21.299,-12.304l0,-24.607Z" style="fill-rule:nonzero;"/>
    </g>
    <g id="NC">
        <path d="M1795.84,884.955l21.312,-12.304l21.312,12.304l0,24.606l-21.312,12.303l-21.312,-12.303l0,-24.606Z" style="fill-rule:nonzero;"/>
        <path d="M1615.04,806.661l21.312,-12.304l21.312,12.304l0,24.606l-21.312,12.304l-21.312,-12.304l0,-24.606Z" style="fill-rule:nonzero;"/>
        <path d="M1660.25,806.66l21.3,-12.303l21.312,12.304l0,24.606l-21.312,12.304l-21.3,-12.303l0,-24.607Z" style="fill-rule:nonzero;"/>
        <path d="M1750.64,884.955l21.312,-12.303l21.299,12.303l0,24.606l-21.299,12.303l-21.312,-12.303l0,-24.606Z" style="fill-rule:nonzero;"/>
        <path d="M1705.43,806.661l21.312,-12.304l21.312,12.304l0,24.606l-21.312,12.304l-21.312,-12.304l0,-24.606Z" style="fill-rule:nonzero;"/>
        <path d="M1637.63,845.809l21.312,-12.303l21.3,12.303l0,24.606l-21.3,12.303l-21.312,-12.303l0,-24.606Z" style="fill-rule:nonzero;"/>
        <path d="M1750.64,806.661l21.312,-12.304l21.299,12.303l0,24.608l-21.299,12.303l-21.312,-12.304l0,-24.606Z" style="fill-rule:nonzero;"/>
        <path d="M1682.84,845.809l21.312,-12.303l21.312,12.303l0,24.606l-21.312,12.303l-21.312,-12.303l0,-24.606Z" style="fill-rule:nonzero;"/>
        <path d="M1795.84,806.661l21.312,-12.304l21.312,12.304l0,24.606l-21.312,12.304l-21.312,-12.304l0,-24.606Z" style="fill-rule:nonzero;"/>
        <path d="M1728.05,845.809l21.312,-12.303l21.312,12.303l0,24.606l-21.312,12.303l-21.312,-12.303l0,-24.606Z" style="fill-rule:nonzero;"/>
        <path d="M1841.05,806.661l21.312,-12.304l21.312,12.304l0,24.606l-21.312,12.304l-21.312,-12.304l0,-24.606Z" style="fill-rule:nonzero;"/>
        <path d="M1773.25,845.809l21.299,-12.303l21.312,12.303l0,24.606l-21.312,12.303l-21.299,-12.303l0,-24.606Z" style="fill-rule:nonzero;"/>
        <path d="M1818.44,845.809l21.312,-12.303l21.312,12.303l0,24.606l-21.312,12.303l-21.312,-12.303l0,-24.606Z" style="fill-rule:nonzero;"/>
        <path d="M1705.43,884.955l21.312,-12.304l21.312,12.304l0,24.606l-21.312,12.303l-21.312,-12.303l0,-24.606Z" style="fill-rule:nonzero;"/>
    </g>
    <g id="ND">
        <path d="M733.574,376.045l21.309,-12.304l21.311,12.304l0,24.605l-21.311,12.304l-21.309,-12.303l0,-24.606Z" style="fill-rule:nonzero;"/>
    </g>
    <g id="OH">
        <path d="M1502.03,532.632l21.312,-12.303l21.299,12.303l0,24.606l-21.299,12.303l-21.312,-12.303l0,-24.606Z" style="fill-rule:nonzero;"/>
        <path d="M1547.23,532.632l21.312,-12.303l21.312,12.303l0,24.606l-21.312,12.303l-21.312,-12.303l0,-24.606Z" style="fill-rule:nonzero;"/>
        <path d="M1569.83,571.78l21.312,-12.304l21.312,12.303l0,24.607l-21.312,12.303l-21.312,-12.303l0,-24.606Z" style="fill-rule:nonzero;"/>
        <path d="M1682.84,532.632l21.312,-12.303l21.312,12.303l0,24.606l-21.312,12.303l-21.312,-12.303l0,-24.606Z" style="fill-rule:nonzero;"/>
        <path d="M1547.23,610.928l21.312,-12.304l21.312,12.303l0,24.606l-21.312,12.303l-21.312,-12.303l0,-24.606Z" style="fill-rule:nonzero;"/>
        <path d="M1637.63,610.928l21.312,-12.304l21.3,12.303l0,24.606l-21.3,12.303l-21.312,-12.303l0,-24.606Z" style="fill-rule:nonzero;"/>
        <path d="M1592.42,532.632l21.313,-12.303l21.312,12.303l0,24.606l-21.312,12.303l-21.313,-12.303l0,-24.606Z" style="fill-rule:nonzero;"/>
        <path d="M1615.04,571.78l21.312,-12.304l21.312,12.303l0,24.607l-21.312,12.303l-21.312,-12.303l0,-24.606Z" style="fill-rule:nonzero;"/>
        <path d="M1592.42,610.928l21.313,-12.304l21.312,12.303l0,24.606l-21.312,12.303l-21.313,-12.303l0,-24.606Z" style="fill-rule:nonzero;"/>
        <path d="M1524.63,571.78l21.3,-12.304l21.312,12.303l0,24.607l-21.312,12.303l-21.3,-12.303l0,-24.606Z" style="fill-rule:nonzero;"/>
        <path d="M1637.63,532.632l21.312,-12.303l21.3,12.303l0,24.606l-21.3,12.303l-21.312,-12.303l0,-24.606Z" style="fill-rule:nonzero;"/>
        <path d="M1569.83,650.074l21.312,-12.304l21.312,12.303l0,24.606l-21.312,12.303l-21.312,-12.303l0,-24.606Z" style="fill-rule:nonzero;"/>
        <path d="M1615.04,650.074l21.312,-12.304l21.312,12.303l0,24.606l-21.312,12.303l-21.312,-12.303l0,-24.606Z" style="fill-rule:nonzero;"/>
        <path d="M1660.25,571.78l21.3,-12.304l21.312,12.303l0,24.607l-21.312,12.303l-21.3,-12.303l0,-24.606Z" style="fill-rule:nonzero;"/>
    </g>
    <g id="OK">
        <path d="M926.979,879.922l21.31,-12.303l21.309,12.303l-0,24.606l-21.309,12.303l-21.31,-12.303l-0,-24.606Z" style="fill-rule:nonzero;"/>
        <path d="M994.784,919.069l21.31,-12.304l21.309,12.304l-0,24.606l-21.309,12.303l-21.31,-12.303l-0,-24.606Z" style="fill-rule:nonzero;"/>
        <path d="M972.182,879.922l21.311,-12.303l21.309,12.303l-0,24.606l-21.309,12.303l-21.311,-12.303l-0,-24.606Z" style="fill-rule:nonzero;"/>
        <path d="M1017.39,879.922l21.309,-12.303l21.31,12.303l-0,24.606l-21.31,12.303l-21.309,-12.303l-0,-24.606Z" style="fill-rule:nonzero;"/>
        <path d="M1039.99,919.069l21.31,-12.304l21.309,12.304l-0,24.606l-21.309,12.303l-21.31,-12.303l-0,-24.606Z" style="fill-rule:nonzero;"/>
    </g>
    <g id="OR">
        <path d="M394.551,571.78l21.31,-12.304l21.311,12.303l0,24.607l-21.311,12.303l-21.31,-12.303l0,-24.606Z" style="fill-rule:nonzero;"/>
        <path d="M304.146,571.78l21.31,-12.304l21.309,12.303l0,24.607l-21.309,12.303l-21.31,-12.303l0,-24.606Z" style="fill-rule:nonzero;"/>
        <path d="M326.747,532.632l21.31,-12.303l21.309,12.303l0,24.606l-21.309,12.303l-21.31,-12.303l0,-24.606Z" style="fill-rule:nonzero;"/>
        <path d="M371.95,532.632l21.309,-12.303l21.31,12.303l0,24.606l-21.309,12.303l-21.31,-12.303l0,-24.606Z" style="fill-rule:nonzero;"/>
        <path d="M349.349,571.78l21.309,-12.304l21.31,12.303l0,24.607l-21.31,12.303l-21.309,-12.303l0,-24.606Z" style="fill-rule:nonzero;"/>
        <path d="M281.545,532.632l21.309,-12.303l21.31,12.303l0,24.606l-21.31,12.303l-21.309,-12.303l0,-24.606Z" style="fill-rule:nonzero;"/>
    </g>
    <g id="PA">
        <path d="M1741.44,381.013l21.312,-12.303l21.312,12.303l0,24.606l-21.312,12.303l-21.312,-12.303l0,-24.606Z" style="fill-rule:nonzero;"/>
        <path d="M1628.43,420.16l21.312,-12.304l21.312,12.304l0,24.607l-21.312,12.303l-21.312,-12.303l0,-24.607Z" style="fill-rule:nonzero;"/>
        <path d="M1605.83,459.308l21.312,-12.304l21.312,12.304l0,24.605l-21.312,12.304l-21.312,-12.304l0,-24.605Z" style="fill-rule:nonzero;"/>
        <path d="M1560.63,459.308l21.312,-12.304l21.299,12.303l0,24.606l-21.3,12.304l-21.311,-12.304l0,-24.605Z" style="fill-rule:nonzero;"/>
        <path d="M1605.83,381.013l21.312,-12.303l21.312,12.303l0,24.606l-21.312,12.303l-21.312,-12.303l0,-24.606Z" style="fill-rule:nonzero;"/>
        <path d="M1673.64,420.16l21.312,-12.304l21.312,12.304l0,24.607l-21.312,12.303l-21.312,-12.303l0,-24.607Z" style="fill-rule:nonzero;"/>
        <path d="M1651.03,459.308l21.312,-12.304l21.313,12.304l0,24.605l-21.312,12.304l-21.313,-12.304l0,-24.605Z" style="fill-rule:nonzero;"/>
        <path d="M1651.03,381.013l21.312,-12.303l21.313,12.303l0,24.606l-21.312,12.303l-21.313,-12.303l0,-24.606Z" style="fill-rule:nonzero;"/>
        <path d="M1718.85,420.16l21.3,-12.304l21.312,12.304l0,24.607l-21.312,12.303l-21.3,-12.303l0,-24.607Z" style="fill-rule:nonzero;"/>
        <path d="M1696.24,459.308l21.312,-12.304l21.3,12.303l0,24.606l-21.3,12.304l-21.312,-12.304l0,-24.605Z" style="fill-rule:nonzero;"/>
        <path d="M1696.24,381.013l21.312,-12.303l21.3,12.303l0,24.606l-21.3,12.303l-21.312,-12.303l0,-24.606Z" style="fill-rule:nonzero;"/>
        <path d="M1764.04,420.16l21.312,-12.304l21.312,12.304l0,24.607l-21.312,12.303l-21.312,-12.303l0,-24.607Z" style="fill-rule:nonzero;"/>
        <path d="M1741.44,459.308l21.312,-12.304l21.312,12.304l0,24.605l-21.312,12.304l-21.312,-12.304l0,-24.605Z" style="fill-rule:nonzero;"/>
        <path d="M1583.24,420.16l21.3,-12.304l21.312,12.304l0,24.607l-21.312,12.303l-21.3,-12.303l0,-24.607Z" style="fill-rule:nonzero;"/>
        <path d="M1786.65,459.308l21.312,-12.304l21.312,12.304l0,24.605l-21.312,12.304l-21.312,-12.304l0,-24.605Z" style="fill-rule:nonzero;"/>
        <path d="M1560.63,381.013l21.312,-12.303l21.299,12.303l0,24.606l-21.3,12.303l-21.311,-12.303l0,-24.606Z" style="fill-rule:nonzero;"/>
        <path d="M1786.65,381.013l21.312,-12.303l21.312,12.303l0,24.606l-21.312,12.303l-21.312,-12.303l0,-24.606Z" style="fill-rule:nonzero;"/>
    </g>
    <g id="RI">
        <path d="M2148.72,271.494l21.312,-12.304l21.312,12.304l0,24.605l-21.312,12.304l-21.312,-12.304l0,-24.605Z" style="fill-rule:nonzero;"/>
        <path d="M2127.41,310.506l21.312,-12.304l21.312,12.303l0,24.606l-21.312,12.303l-21.312,-12.303l0,-24.606Z" style="fill-rule:nonzero;"/>
    </g>
    <g id="SC">
        <path d="M1795.84,1041.54l21.312,-12.299l21.312,12.299l0,24.612l-21.312,12.301l-21.312,-12.301l0,-24.612Z" style="fill-rule:nonzero;"/>
        <path d="M1773.25,1002.4l21.299,-12.304l21.312,12.303l0,24.607l-21.312,12.299l-21.299,-12.299l0,-24.606Z" style="fill-rule:nonzero;"/>
        <path d="M1750.64,963.25l21.312,-12.303l21.299,12.303l0,24.606l-21.299,12.303l-21.312,-12.303l0,-24.606Z" style="fill-rule:nonzero;"/>
        <path d="M1705.43,963.25l21.312,-12.303l21.312,12.303l0,24.606l-21.312,12.303l-21.312,-12.303l0,-24.606Z" style="fill-rule:nonzero;"/>
        <path d="M1818.44,1002.4l21.312,-12.304l21.312,12.303l0,24.607l-21.312,12.301l-21.312,-12.301l0,-24.606Z" style="fill-rule:nonzero;"/>
        <path d="M1841.05,963.25l21.312,-12.303l21.312,12.303l0,24.606l-21.312,12.303l-21.312,-12.303l0,-24.606Z" style="fill-rule:nonzero;"/>
        <path d="M1795.84,963.25l21.312,-12.303l21.312,12.303l0,24.606l-21.312,12.303l-21.312,-12.303l0,-24.606Z" style="fill-rule:nonzero;"/>
    </g>
    <g id="SD">
        <path d="M733.574,454.338l21.309,-12.304l21.311,12.304l0,24.607l-21.311,12.303l-21.309,-12.303l0,-24.607Z" style="fill-rule:nonzero;"/>
    </g>
    <g id="TN">
        <path d="M1321.2,924.102l21.313,-12.303l21.312,12.303l0,24.606l-21.312,12.304l-21.313,-12.303l0,-24.607Z" style="fill-rule:nonzero;"/>
        <path d="M1343.82,884.955l21.312,-12.304l21.312,12.304l0,24.606l-21.312,12.303l-21.312,-12.303l0,-24.606Z" style="fill-rule:nonzero;"/>
        <path d="M1389.02,884.955l21.312,-12.303l21.3,12.303l0,24.606l-21.3,12.303l-21.312,-12.303l0,-24.606Z" style="fill-rule:nonzero;"/>
        <path d="M1366.41,924.102l21.312,-12.303l21.312,12.303l0,24.606l-21.312,12.304l-21.312,-12.303l0,-24.607Z" style="fill-rule:nonzero;"/>
        <path d="M1434.21,884.955l21.312,-12.304l21.312,12.304l0,24.606l-21.312,12.303l-21.312,-12.303l0,-24.606Z" style="fill-rule:nonzero;"/>
        <path d="M1411.62,924.102l21.3,-12.303l21.311,12.303l0,24.606l-21.311,12.304l-21.3,-12.303l0,-24.607Z" style="fill-rule:nonzero;"/>
        <path d="M1479.42,884.955l21.312,-12.304l21.312,12.304l0,24.606l-21.312,12.303l-21.312,-12.303l0,-24.606Z" style="fill-rule:nonzero;"/>
        <path d="M1411.62,924.102l21.3,-12.303l21.311,12.303l0,24.606l-21.311,12.304l-21.3,-12.303l0,-24.607Z" style="fill-rule:nonzero;"/>
        <path d="M1524.63,884.955l21.3,-12.303l21.312,12.303l0,24.606l-21.312,12.303l-21.3,-12.303l0,-24.606Z" style="fill-rule:nonzero;"/>
    </g>
    <g id="TX">
        <path d="M914.386,1158.99l21.311,-12.312l21.309,12.312l0,24.6l-21.31,12.31l-21.31,-12.31l0,-24.6Z" style="fill-rule:nonzero;"/>
        <path d="M801.379,1119.84l21.31,-12.301l21.309,12.301l0,24.6l-21.309,12.31l-21.31,-12.31l0,-24.6Z" style="fill-rule:nonzero;"/>
        <path d="M823.98,1002.4l21.31,-12.304l21.309,12.303l0,24.607l-21.309,12.299c0,0.002 -21.31,-12.299 -21.31,-12.299l0,-24.606Z" style="fill-rule:nonzero;"/>
        <path d="M869.183,924.102l21.31,-12.303l21.309,12.303l0,24.606l-21.309,12.304l-21.31,-12.303l0,-24.607Z" style="fill-rule:nonzero;"/>
        <path d="M801.379,1041.54l21.31,-12.299l21.309,12.299l0,24.612l-21.309,12.301l-21.31,-12.301l0,-24.612Z" style="fill-rule:nonzero;"/>
        <path d="M869.183,1002.4l21.31,-12.304l21.309,12.303l0,24.607l-21.309,12.299c0,0.002 -21.31,-12.299 -21.31,-12.299l0,-24.606Z" style="fill-rule:nonzero;"/>
        <path d="M891.784,1041.54l21.31,-12.299l21.311,12.299l0,24.612l-21.311,12.301l-21.31,-12.301l0,-24.612Z" style="fill-rule:nonzero;"/>
        <path d="M869.183,1080.69l21.31,-12.3l21.309,12.299l0,24.612l-21.309,12.301l-21.31,-12.301l0,-24.612Z" style="fill-rule:nonzero;"/>
        <path d="M959.59,1237.27l21.309,-12.299l21.31,12.299l0,24.612l-21.31,12.299l-21.309,-12.299l0,-24.612Z" style="fill-rule:nonzero;"/>
        <path d="M891.784,963.25l21.31,-12.303l21.311,12.303l0,24.606l-21.311,12.303l-21.31,-12.303l0,-24.606Z" style="fill-rule:nonzero;"/>
        <path d="M914.386,1002.4l21.311,-12.304l21.309,12.303l0,24.607l-21.31,12.301l-21.31,-12.301l0,-24.606Z" style="fill-rule:nonzero;"/>
        <path d="M936.988,1041.54l21.31,-12.299l21.309,12.299l0,24.612l-21.309,12.301l-21.31,-12.301l0,-24.612Z" style="fill-rule:nonzero;"/>
        <path d="M914.386,1080.69l21.311,-12.3l21.309,12.299l0,24.612l-21.31,12.301l-21.31,-12.301l0,-24.612Z" style="fill-rule:nonzero;"/>
        <path d="M936.988,1119.84l21.31,-12.301l21.309,12.301l0,24.6l-21.309,12.31l-21.31,-12.31l0,-24.6Z" style="fill-rule:nonzero;"/>
        <path d="M959.59,1002.4l21.309,-12.304l21.31,12.303l0,24.607l-21.31,12.299c0,0.002 -21.309,-12.299 -21.309,-12.299l0,-24.606Z" style="fill-rule:nonzero;"/>
        <path d="M982.191,1041.54l21.31,-12.299l21.309,12.299l0,24.612l-21.309,12.301l-21.31,-12.301l0,-24.612Z" style="fill-rule:nonzero;"/>
        <path d="M959.59,1080.69l21.309,-12.3l21.31,12.299l0,24.612l-21.31,12.301l-21.309,-12.301l0,-24.612Z" style="fill-rule:nonzero;"/>
        <path d="M982.191,1119.84l21.31,-12.301l21.309,12.301l0,24.6l-21.309,12.31l-21.31,-12.31l0,-24.6Z" style="fill-rule:nonzero;"/>
        <path d="M959.59,1158.99l21.309,-12.312l21.31,12.312l0,24.6l-21.31,12.31l-21.309,-12.31l0,-24.6Z" style="fill-rule:nonzero;"/>
        <path d="M982.191,1198.14l21.31,-12.312l21.309,12.312l0,24.599l-21.309,12.3l-21.31,-12.3l0,-24.599Z" style="fill-rule:nonzero;"/>
        <path d="M823.98,924.102l21.31,-12.303l21.309,12.303l0,24.606l-21.309,12.304l-21.31,-12.303l0,-24.607Z" style="fill-rule:nonzero;"/>
        <path d="M846.582,1119.84l21.309,-12.301l21.31,12.301l0,24.6l-21.31,12.31l-21.309,-12.31l0,-24.6Z" style="fill-rule:nonzero;"/>
        <path d="M1004.79,1080.69l21.31,-12.3l21.309,12.299l0,24.612l-21.309,12.301l-21.31,-12.301l0,-24.612Z" style="fill-rule:nonzero;"/>
        <path d="M1050,1080.69l21.31,-12.3l21.31,12.299l0,24.612l-21.31,12.301l-21.31,-12.301l0,-24.612Z" style="fill-rule:nonzero;"/>
        <path d="M1004.79,1158.99l21.31,-12.312l21.309,12.312l0,24.6l-21.309,12.31l-21.31,-12.31l0,-24.6Z" style="fill-rule:nonzero;"/>
        <path d="M1004.79,1002.4l21.31,-12.304l21.309,12.303l0,24.607l-21.309,12.299c0,0.002 -21.31,-12.299 -21.31,-12.299l0,-24.606Z" style="fill-rule:nonzero;"/>
        <path d="M936.988,1198.14l21.31,-12.312l21.309,12.312l0,24.599l-21.309,12.3l-21.31,-12.3l0,-24.599Z" style="fill-rule:nonzero;"/>
        <path d="M1027.39,1119.84l21.309,-12.301l21.31,12.301l0,24.6l-21.31,12.31l-21.309,-12.31l0,-24.6Z" style="fill-rule:nonzero;"/>
        <path d="M891.784,1119.84l21.31,-12.301l21.311,12.301l0,24.6l-21.311,12.31l-21.31,-12.31l0,-24.6Z" style="fill-rule:nonzero;"/>
        <path d="M846.582,963.25l21.309,-12.303l21.31,12.303l0,24.606l-21.31,12.303l-21.309,-12.303l0,-24.606Z" style="fill-rule:nonzero;"/>
        <path d="M1027.39,1041.54l21.309,-12.299l21.31,12.299l0,24.612l-21.31,12.301l-21.309,-12.301l0,-24.612Z" style="fill-rule:nonzero;"/>
        <path d="M778.778,1080.69l21.309,-12.3l21.31,12.299l0,24.612l-21.31,12.301l-21.309,-12.301l0,-24.612Z" style="fill-rule:nonzero;"/>
        <path d="M846.582,1041.54l21.309,-12.299l21.31,12.299l0,24.612l-21.31,12.301l-21.309,-12.301l0,-24.612Z" style="fill-rule:nonzero;"/>
        <path d="M823.98,1080.69l21.31,-12.3l21.309,12.299l0,24.612l-21.309,12.301l-21.31,-12.301l0,-24.612Z" style="fill-rule:nonzero;"/>
        <path d="M1050,1002.4l21.31,-12.304l21.31,12.303l0,24.607l-21.31,12.301l-21.31,-12.301l0,-24.606Z" style="fill-rule:nonzero;"/>
        <path d="M1072.6,1041.54l21.311,-12.299l21.31,12.299l0,24.612l-21.31,12.301l-21.311,-12.301l0,-24.612Z" style="fill-rule:nonzero;"/>
        <path d="M756.175,1041.54l21.311,-12.299l21.309,12.299l0,24.612l-21.309,12.301l-21.311,-12.301l0,-24.612Z" style="fill-rule:nonzero;"/>
        <path d="M869.183,1158.99l21.31,-12.312l21.309,12.312l0,24.6l-21.309,12.31l-21.31,-12.31l0,-24.6Z" style="fill-rule:nonzero;"/>
    </g>
    <g id="UT">
        <path d="M665.77,806.661l21.309,-12.304l21.31,12.304l0,24.607l-21.31,12.303l-21.309,-12.303l0,-24.607Z" style="fill-rule:nonzero;"/>
        <path d="M643.168,845.809l21.31,-12.303l21.31,12.303l0,24.606l-21.31,12.303l-21.31,-12.303l0,-24.606Z" style="fill-rule:nonzero;"/>
        <path d="M620.567,806.661l21.31,-12.304l21.309,12.304l0,24.607l-21.309,12.303l-21.31,-12.303l0,-24.607Z" style="fill-rule:nonzero;"/>
        <path d="M643.168,767.515l21.31,-12.303l21.31,12.303l0,24.606l-21.31,12.303l-21.31,-12.303l0,-24.606Z" style="fill-rule:nonzero;"/>
    </g>
    <g id="VT">
        <path d="M1925.12,89.595l21.312,-12.303l21.312,12.303l0,24.606l-21.312,12.304l-21.312,-12.304l0,-24.606Z" style="fill-rule:nonzero;"/>
    </g>
    <g id="VA">
        <path d="M1660.25,728.367l21.3,-12.303l21.312,12.304l0,24.606l-21.312,12.303l-21.3,-12.303l0,-24.606Z" style="fill-rule:nonzero;"/>
        <path d="M1841.05,650.074l21.312,-12.304l21.312,12.303l0,24.606l-21.312,12.303l-21.312,-12.303l0,-24.606Z" style="fill-rule:nonzero;"/>
        <path d="M1705.43,728.368l21.312,-12.304l21.312,12.304l0,24.605l-21.312,12.304l-21.312,-12.304l0,-24.605Z" style="fill-rule:nonzero;"/>
        <path d="M1795.84,650.074l21.312,-12.304l21.312,12.303l0,24.606l-21.312,12.303l-21.312,-12.303l0,-24.606Z" style="fill-rule:nonzero;"/>
        <path d="M1773.25,689.22l21.299,-12.304l21.312,12.304l0,24.607l-21.312,12.303l-21.299,-12.303l0,-24.607Z" style="fill-rule:nonzero;"/>
        <path d="M1750.64,728.368l21.312,-12.304l21.299,12.303l0,24.606l-21.299,12.304l-21.312,-12.304l0,-24.605Z" style="fill-rule:nonzero;"/>
        <path d="M1818.44,689.22l21.312,-12.304l21.312,12.304l0,24.607l-21.312,12.303l-21.312,-12.303l0,-24.607Z" style="fill-rule:nonzero;"/>
        <path d="M1795.84,728.368l21.312,-12.304l21.312,12.304l0,24.605l-21.312,12.304l-21.312,-12.304l0,-24.605Z" style="fill-rule:nonzero;"/>
        <path d="M1841.05,728.368l21.312,-12.304l21.312,12.304l0,24.605l-21.312,12.304l-21.312,-12.304l0,-24.605Z" style="fill-rule:nonzero;"/>
        <path d="M1886.26,728.368l21.312,-12.304l21.3,12.303l0,24.606l-21.3,12.304l-21.312,-12.304l0,-24.605Z" style="fill-rule:nonzero;"/>
        <path d="M1863.65,689.22l21.313,-12.304l21.312,12.304l0,24.607l-21.312,12.303l-21.313,-12.303l0,-24.607Z" style="fill-rule:nonzero;"/>
    </g>
    <g id="WA">
        <path d="M349.349,415.191l21.309,-12.303l21.31,12.303l0,24.606l-21.31,12.303l-21.309,-12.303l0,-24.606Z" style="fill-rule:nonzero;"/>
        <path d="M371.95,376.045l21.309,-12.304l21.31,12.304l0,24.606l-21.309,12.303l-21.31,-12.303l0,-24.606Z" style="fill-rule:nonzero;"/>
        <path d="M394.551,415.191l21.31,-12.303l21.311,12.303l0,24.606l-21.311,12.304l-21.31,-12.304l0,-24.606Z" style="fill-rule:nonzero;"/>
        <path d="M371.95,454.338l21.309,-12.304l21.31,12.304l0,24.607l-21.309,12.303l-21.31,-12.303l0,-24.607Z" style="fill-rule:nonzero;"/>
        <path d="M439.755,415.191l21.31,-12.303l21.309,12.303l0,24.606l-21.309,12.303l-21.31,-12.303l0,-24.606Z" style="fill-rule:nonzero;"/>
        <path d="M417.153,454.338l21.31,-12.304l21.31,12.304l0,24.607l-21.31,12.303l-21.31,-12.303l0,-24.607Z" style="fill-rule:nonzero;"/>
        <path d="M304.146,415.191l21.31,-12.303l21.309,12.303l0,24.606l-21.309,12.303l-21.31,-12.303l0,-24.606Z" style="fill-rule:nonzero;"/>
        <path d="M281.545,376.045l21.309,-12.304l21.31,12.304l0,24.606l-21.31,12.303l-21.309,-12.303l0,-24.606Z" style="fill-rule:nonzero;"/>
        <path d="M417.153,376.045l21.31,-12.304l21.31,12.304l0,24.606l-21.31,12.303l-21.31,-12.304l0,-24.605Z" style="fill-rule:nonzero;"/>
        <path d="M326.747,454.338l21.31,-12.304l21.309,12.304l0,24.607l-21.309,12.303l-21.31,-12.303l0,-24.607Z" style="fill-rule:nonzero;"/>
    </g>
    <g id="WV">
        <path d="M1705.43,650.074l21.312,-12.304l21.312,12.303l0,24.606l-21.312,12.303l-21.312,-12.303l0,-24.606Z" style="fill-rule:nonzero;"/>
        <path d="M1728.05,610.928l21.312,-12.304l21.312,12.303l0,24.606l-21.312,12.303l-21.312,-12.303l0,-24.606Z" style="fill-rule:nonzero;"/>
    </g>
    <g id="WI">
        <path d="M1150.41,373.691l21.309,-12.303l21.311,12.303l0,24.606l-21.311,12.304l-21.309,-12.304l0,-24.606Z" style="fill-rule:nonzero;"/>
        <path d="M1105.21,373.691l21.309,-12.303l21.31,12.303l0,24.606l-21.31,12.303l-21.309,-12.303l0,-24.606Z" style="fill-rule:nonzero;"/>
        <path d="M1173.01,412.838l21.311,-12.304l21.309,12.304l0,24.607l-21.309,12.303l-21.311,-12.303l0,-24.607Z" style="fill-rule:nonzero;"/>
        <path d="M1195.61,451.986l21.31,-12.304l21.315,12.304l0,24.605l-21.315,12.304l-21.31,-12.304l0,-24.605Z" style="fill-rule:nonzero;"/>
        <path d="M1218.22,412.838l21.314,-12.303l21.3,12.303l0,24.607l-21.3,12.303l-21.314,-12.303l0,-24.607Z" style="fill-rule:nonzero;"/>
        <path d="M1173.01,491.132l21.311,-12.303l21.309,12.303l0,24.606l-21.309,12.303l-21.311,-12.303l0,-24.606Z" style="fill-rule:nonzero;"/>
        <path d="M1127.81,412.838l21.31,-12.304l21.309,12.304l0,24.607l-21.309,12.303l-21.31,-12.303l0,-24.607Z" style="fill-rule:nonzero;"/>
        <path d="M1150.41,451.986l21.309,-12.304l21.311,12.304l0,24.605l-21.311,12.304l-21.309,-12.304l0,-24.605Z" style="fill-rule:nonzero;"/>
    </g>
    <g id="WY">
        <path d="M643.168,454.338l21.31,-12.304l21.31,12.304l0,24.607l-21.31,12.303l-21.31,-12.303l0,-24.607Z" style="fill-rule:nonzero;"/>
    </g>
    <g id="CA">
        <path d="M281.545,924.102l21.309,-12.303l21.31,12.303l0,24.606l-21.31,12.304l-21.309,-12.303l0,-24.607Z" style="fill-rule:nonzero;"/>
        <path d="M417.153,845.809l21.31,-12.303l21.31,12.303l0,24.606l-21.31,12.303l-21.31,-12.303l0,-24.606Z" style="fill-rule:nonzero;"/>
        <path d="M371.95,924.102l21.309,-12.303l21.31,12.303l0,24.606l-21.309,12.304l-21.31,-12.303l0,-24.607Z" style="fill-rule:nonzero;"/>
        <path d="M304.146,650.074l21.31,-12.304l21.309,12.303l0,24.606l-21.309,12.303l-21.31,-12.303l0,-24.606Z" style="fill-rule:nonzero;"/>
        <path d="M349.349,1041.54l21.309,-12.299l21.31,12.299l0,24.612l-21.31,12.301l-21.309,-12.301l0,-24.612Z" style="fill-rule:nonzero;"/>
        <path d="M258.942,806.661l21.311,-12.304l21.309,12.304l0,24.607l-21.309,12.303l-21.311,-12.304l0,-24.606Z" style="fill-rule:nonzero;"/>
        <path d="M304.146,963.25l21.31,-12.303l21.309,12.303l0,24.606l-21.309,12.303l-21.31,-12.303l0,-24.606Z" style="fill-rule:nonzero;"/>
        <path d="M371.95,1002.4l21.309,-12.304l21.31,12.303l0,24.607l-21.309,12.299c0,0.002 -21.31,-12.299 -21.31,-12.299l0,-24.606Z" style="fill-rule:nonzero;"/>
        <path d="M394.551,884.955l21.31,-12.304l21.311,12.304l0,24.606l-21.311,12.303l-21.31,-12.303l0,-24.606Z" style="fill-rule:nonzero;"/>
        <path d="M417.153,924.102l21.31,-12.303l21.31,12.303l0,24.606l-21.31,12.304l-21.31,-12.303l0,-24.607Z" style="fill-rule:nonzero;"/>
        <path d="M394.551,963.25l21.31,-12.303l21.311,12.303l0,24.606l-21.311,12.303l-21.31,-12.303l0,-24.606Z" style="fill-rule:nonzero;"/>
        <path d="M417.153,1002.4l21.31,-12.304l21.31,12.303l0,24.607l-21.31,12.301l-21.31,-12.301l0,-24.606Z" style="fill-rule:nonzero;"/>
        <path d="M349.349,650.074l21.309,-12.304l21.31,12.303l0,24.606l-21.31,12.303l-21.309,-12.303l0,-24.606Z" style="fill-rule:nonzero;"/>
        <path d="M281.545,845.809l21.309,-12.303l21.31,12.303l0,24.606l-21.31,12.303l-21.309,-12.303l0,-24.606Z" style="fill-rule:nonzero;"/>
        <path d="M304.146,884.955l21.31,-12.304l21.309,12.304l0,24.606l-21.309,12.303l-21.31,-12.303l0,-24.606Z" style="fill-rule:nonzero;"/>
        <path d="M326.747,924.102l21.31,-12.303l21.309,12.303l0,24.606l-21.309,12.304l-21.31,-12.303l0,-24.607Z" style="fill-rule:nonzero;"/>
        <path d="M439.755,884.955l21.31,-12.304l21.309,12.304l0,24.606l-21.309,12.303l-21.31,-12.303l0,-24.606Z" style="fill-rule:nonzero;"/>
        <path d="M462.357,924.102l21.309,-12.303l21.31,12.303l0,24.606l-21.31,12.304l-21.309,-12.303l0,-24.607Z" style="fill-rule:nonzero;"/>
        <path d="M439.755,963.25l21.31,-12.303l21.309,12.303l0,24.606l-21.309,12.303l-21.31,-12.303l0,-24.606Z" style="fill-rule:nonzero;"/>
        <path d="M462.357,1002.4l21.309,-12.304l21.31,12.303l0,24.607l-21.31,12.299c0,0.002 -21.309,-12.299 -21.309,-12.299l0,-24.606Z" style="fill-rule:nonzero;"/>
        <path d="M349.349,963.25l21.309,-12.303l21.31,12.303l0,24.606l-21.31,12.303l-21.309,-12.303l0,-24.606Z" style="fill-rule:nonzero;"/>
        <path d="M484.958,1119.84l21.309,-12.301l21.31,12.301l0,24.6l-21.31,12.31l-21.309,-12.31l0,-24.6Z" style="fill-rule:nonzero;"/>
        <path d="M530.161,1119.84l21.309,-12.301l21.31,12.301l0,24.6l-21.31,12.31l-21.309,-12.31l0,-24.6Z" style="fill-rule:nonzero;"/>
        <path d="M326.747,845.809l21.31,-12.303l21.309,12.303l0,24.606l-21.309,12.303l-21.31,-12.303l0,-24.606Z" style="fill-rule:nonzero;"/>
        <path d="M394.551,1041.54l21.31,-12.299l21.311,12.299l0,24.612l-21.311,12.301l-21.31,-12.301l0,-24.612Z" style="fill-rule:nonzero;"/>
        <path d="M281.545,689.22l21.309,-12.304l21.31,12.304l0,24.607l-21.31,12.303l-21.309,-12.303l0,-24.607Z" style="fill-rule:nonzero;"/>
        <path d="M484.958,963.25l21.309,-12.303l21.31,12.303l0,24.606l-21.31,12.303l-21.309,-12.303l0,-24.606Z" style="fill-rule:nonzero;"/>
        <path d="M507.559,1002.4l21.31,-12.304l21.309,12.303l0,24.607l-21.309,12.299c0,0.002 -21.31,-12.299 -21.31,-12.299l0,-24.606Z" style="fill-rule:nonzero;"/>
        <path d="M484.958,1041.54l21.309,-12.299l21.31,12.299l0,24.612l-21.31,12.301l-21.309,-12.301l0,-24.612Z" style="fill-rule:nonzero;"/>
        <path d="M417.153,1080.69l21.31,-12.3l21.31,12.299l0,24.612l-21.31,12.301l-21.31,-12.301l0,-24.612Z" style="fill-rule:nonzero;"/>
        <path d="M281.545,767.515l21.309,-12.303l21.31,12.303l0,24.606l-21.31,12.303l-21.309,-12.303l0,-24.606Z" style="fill-rule:nonzero;"/>
        <path d="M349.349,806.661l21.309,-12.304l21.31,12.304l0,24.607l-21.31,12.303l-21.309,-12.303l0,-24.607Z" style="fill-rule:nonzero;"/>
        <path d="M394.551,728.367l21.31,-12.303l21.311,12.304l0,24.606l-21.311,12.303l-21.31,-12.303l0,-24.606Z" style="fill-rule:nonzero;"/>
        <path d="M552.762,1080.69l21.309,-12.3l21.31,12.299l0,24.612l-21.31,12.301l-21.309,-12.301l0,-24.612Z" style="fill-rule:nonzero;"/>
        <path d="M349.349,728.367l21.309,-12.303l21.31,12.303l0,24.606l-21.31,12.304l-21.309,-12.303l0,-24.606Z" style="fill-rule:nonzero;"/>
        <path d="M326.747,767.515l21.31,-12.303l21.309,12.303l0,24.606l-21.309,12.303l-21.31,-12.303l0,-24.606Z" style="fill-rule:nonzero;"/>
        <path d="M258.942,650.074l21.311,-12.304l21.309,12.303l0,24.606l-21.309,12.303l-21.311,-12.303l0,-24.606Z" style="fill-rule:nonzero;"/>
        <path d="M530.161,1041.54l21.309,-12.299l21.31,12.299l0,24.612l-21.31,12.301l-21.309,-12.301l0,-24.612Z" style="fill-rule:nonzero;"/>
        <path d="M394.551,806.661l21.31,-12.304l21.311,12.304l0,24.606l-21.311,12.304l-21.31,-12.303l0,-24.607Z" style="fill-rule:nonzero;"/>
        <path d="M439.755,1041.54l21.31,-12.299l21.309,12.299l0,24.612l-21.309,12.301l-21.31,-12.301l0,-24.612Z" style="fill-rule:nonzero;"/>
        <path d="M304.146,728.367l21.31,-12.303l21.309,12.303l0,24.606l-21.309,12.304l-21.31,-12.303l0,-24.606Z" style="fill-rule:nonzero;"/>
        <path d="M304.146,806.661l21.31,-12.304l21.309,12.304l0,24.607l-21.309,12.303l-21.31,-12.303l0,-24.607Z" style="fill-rule:nonzero;"/>
        <path d="M394.551,650.074l21.31,-12.304l21.311,12.303l0,24.606l-21.311,12.303l-21.31,-12.303l0,-24.606Z" style="fill-rule:nonzero;"/>
        <path d="M462.357,1080.69l21.309,-12.3l21.31,12.299l0,24.612l-21.31,12.301l-21.309,-12.301l0,-24.612Z" style="fill-rule:nonzero;"/>
        <path d="M371.95,689.22l21.309,-12.304l21.31,12.304l0,24.607l-21.309,12.303l-21.31,-12.303l0,-24.607Z" style="fill-rule:nonzero;"/>
        <path d="M258.942,728.368l21.311,-12.304l21.309,12.303l0,24.606l-21.309,12.304l-21.311,-12.304l0,-24.605Z" style="fill-rule:nonzero;"/>
        <path d="M326.747,1002.4l21.31,-12.304l21.309,12.303l0,24.607l-21.309,12.299c0,0.002 -21.31,-12.299 -21.31,-12.299l0,-24.606Z" style="fill-rule:nonzero;"/>
        <path d="M371.95,845.809l21.309,-12.303l21.31,12.303l0,24.606l-21.309,12.303l-21.31,-12.303l0,-24.606Z" style="fill-rule:nonzero;"/>
        <path d="M349.349,884.955l21.309,-12.304l21.31,12.304l0,24.606l-21.31,12.303l-21.309,-12.303l0,-24.606Z" style="fill-rule:nonzero;"/>
        <path d="M326.747,689.22l21.31,-12.304l21.309,12.304l0,24.607l-21.309,12.303l-21.31,-12.303l0,-24.607Z" style="fill-rule:nonzero;"/>
        <path d="M371.95,767.515l21.309,-12.303l21.31,12.303l0,24.606l-21.309,12.303l-21.31,-12.303l0,-24.606Z" style="fill-rule:nonzero;"/>
        <path d="M507.559,1080.69l21.31,-12.3l21.309,12.299l0,24.612l-21.309,12.301l-21.31,-12.301l0,-24.612Z" style="fill-rule:nonzero;"/>
    </g>
    <g id="AK">
        <path id="AK-1" d="M550.008,1277.19l21.309,-12.313l21.31,12.313l0,24.599l-21.31,12.312l-21.309,-12.312l0,-24.6Z" style="fill-rule:nonzero;"/>
    </g>
    <g id="AZ">
        <path id="AZ-9" d="M552.762,924.102l21.309,-12.303l21.31,12.303l0,24.606l-21.31,12.304l-21.309,-12.303l0,-24.607Z" style="fill-rule:nonzero;"/>
        <path id="AZ-2" d="M597.965,924.102l21.31,-12.303l21.31,12.303l0,24.606l-21.31,12.304l-21.31,-12.303l0,-24.607Z" style="fill-rule:nonzero;"/>
        <path id="AZ-1" d="M643.168,924.102l21.31,-12.303l21.31,12.303l0,24.606l-21.31,12.304l-21.31,-12.303l0,-24.607Z" style="fill-rule:nonzero;"/>
        <path id="AZ-4" d="M620.567,963.25l21.31,-12.303l21.309,12.303l0,24.606l-21.309,12.303l-21.31,-12.303l0,-24.606Z" style="fill-rule:nonzero;"/>
        <path id="AZ-3" d="M575.363,963.25l21.31,-12.303l21.311,12.303l0,24.606l-21.311,12.303l-21.31,-12.303l0,-24.606Z" style="fill-rule:nonzero;"/>
        <path id="AZ-6" d="M688.371,1002.4l21.31,-12.304l21.309,12.303l0,24.607l-21.309,12.299c0,0.002 -21.31,-12.299 -21.31,-12.299l0,-24.606Z" style="fill-rule:nonzero;"/>
        <path id="AZ-5" d="M665.77,963.25l21.309,-12.303l21.31,12.303l0,24.606l-21.31,12.303l-21.309,-12.303l0,-24.606Z" style="fill-rule:nonzero;"/>
        <path id="AZ-7" d="M643.168,1002.4l21.31,-12.304l21.31,12.303l0,24.607l-21.31,12.299c0,0.002 -21.31,-12.299 -21.31,-12.299l0,-24.606Z" style="fill-rule:nonzero;"/>
        <path d="M597.965,1002.4l21.31,-12.304l21.31,12.303l0,24.607l-21.31,12.301l-21.31,-12.301l0,-24.606Z" style="fill-rule:nonzero;"/>
    </g>
    <g id="CO">
        <path d="M653.178,666.728l21.31,-12.304l21.309,12.304l0,24.607l-21.309,12.303l-21.31,-12.303l0,-24.607Z" style="fill-rule:nonzero;"/>
        <path d="M540.17,627.581l21.31,-12.303l21.311,12.303l0,24.606l-21.311,12.303l-21.31,-12.303l0,-24.606Z" style="fill-rule:nonzero;"/>
        <path d="M562.772,666.728l21.31,-12.304l21.31,12.304l0,24.607l-21.31,12.303l-21.31,-12.303l0,-24.607Z" style="fill-rule:nonzero;"/>
        <path d="M675.779,627.581l21.31,-12.303l21.31,12.303l0,24.606l-21.31,12.303l-21.31,-12.303l0,-24.606Z" style="fill-rule:nonzero;"/>
        <path d="M585.374,627.581l21.31,-12.303l21.309,12.303l0,24.606l-21.309,12.303l-21.31,-12.303l0,-24.606Z" style="fill-rule:nonzero;"/>
        <path d="M607.975,666.728l21.31,-12.304l21.31,12.304l0,24.607l-21.31,12.303l-21.31,-12.303l0,-24.607Z" style="fill-rule:nonzero;"/>
        <path d="M630.577,627.581l21.309,-12.303l21.31,12.303l0,24.606l-21.31,12.303l-21.309,-12.303l0,-24.606Z" style="fill-rule:nonzero;"/>
        <path d="M517.569,666.728l21.309,-12.304l21.31,12.304l0,24.607l-21.31,12.303l-21.309,-12.303l0,-24.607Z" style="fill-rule:nonzero;"/>
    </g>
    <g id="AR">
        <path d="M1140.4,924.102l21.309,-12.303l21.31,12.303l0,24.606l-21.31,12.304l-21.309,-12.303l0,-24.607Z" style="fill-rule:nonzero;"/>
        <path d="M1185.61,924.102l21.31,-12.303l21.309,12.303l0,24.606l-21.309,12.304l-21.31,-12.303l0,-24.607Z" style="fill-rule:nonzero;"/>
        <path d="M1117.8,963.25l21.31,-12.303l21.309,12.303l0,24.606l-21.309,12.303l-21.31,-12.303l0,-24.606Z" style="fill-rule:nonzero;"/>
        <path d="M1163.01,963.25l21.309,-12.303l21.31,12.303l0,24.606l-21.31,12.303l-21.309,-12.303l0,-24.606Z" style="fill-rule:nonzero;"/>
    </g>
    <g id="AL">
        <path d="M1411.62,1002.4l21.3,-12.304l21.311,12.303l0,24.607l-21.311,12.299l-21.3,-12.299l0,-24.606Z" style="fill-rule:nonzero;"/>
        <path d="M1389.02,1119.84l21.312,-12.301l21.3,12.301l0,24.6l-21.3,12.31l-21.312,-12.31l0,-24.6Z" style="fill-rule:nonzero;"/>
        <path d="M1479.42,1041.54l21.312,-12.299l21.312,12.299l0,24.612l-21.312,12.301l-21.312,-12.301l0,-24.612Z" style="fill-rule:nonzero;"/>
        <path d="M1456.82,1080.69l21.312,-12.3l21.312,12.299l0,24.612l-21.312,12.301l-21.312,-12.301l0,-24.612Z" style="fill-rule:nonzero;"/>
        <path d="M1411.62,1080.69l21.3,-12.3l21.311,12.299l0,24.612l-21.311,12.301l-21.3,-12.301l0,-24.612Z" style="fill-rule:nonzero;"/>
        <path d="M1434.21,1041.54l21.312,-12.299l21.312,12.299l0,24.612l-21.312,12.301l-21.312,-12.301l0,-24.612Z" style="fill-rule:nonzero;"/>
        <path d="M1456.82,1002.4l21.312,-12.304l21.312,12.303l0,24.607l-21.312,12.301l-21.312,-12.301l0,-24.606Z" style="fill-rule:nonzero;"/>
    </g>
    <g id="CT">
        <path d="M1982.46,259.878l21.312,-12.304l21.3,12.304l0,24.606l-21.3,12.303l-21.312,-12.303l0,-24.606Z" style="fill-rule:nonzero;"/>
        <path d="M2027.65,259.878l21.312,-12.304l21.312,12.304l0,24.606l-21.312,12.303l-21.312,-12.303l0,-24.606Z" style="fill-rule:nonzero;"/>
        <path d="M2005.07,299.024l21.3,-12.303l21.312,12.303l0,24.606l-21.312,12.303l-21.3,-12.303l0,-24.606Z" style="fill-rule:nonzero;"/>
        <path d="M2072.87,259.878l21.312,-12.304l21.312,12.304l0,24.606l-21.312,12.303l-21.312,-12.303l0,-24.606Z" style="fill-rule:nonzero;"/>
        <path d="M2050.26,299.024l21.312,-12.303l21.312,12.303l0,24.606l-21.312,12.303l-21.312,-12.303l0,-24.606Z" style="fill-rule:nonzero;"/>
    </g>
    <g>
        <text x="200.384px" y="826.766px" style="font-family:'Inconsolata-Regular_Bold', 'Inconsolata', monospace;font-size:34.35px;">CA</text>
        <text x="551.707px" y="1365.26px" style="font-family:'Inconsolata-Regular_Bold', 'Inconsolata', monospace;font-size:34.35px;">AK</text>
        <text x="783.561px" y="1365.26px" style="font-family:'Inconsolata-Regular_Bold', 'Inconsolata', monospace;font-size:34.35px;">HI</text>
        <text x="646.984px" y="1074.88px" style="font-family:'Inconsolata-Regular_Bold', 'Inconsolata', monospace;font-size:34.35px;">AZ</text>
        <text x="510.004px" y="876.266px" style="font-family:'Inconsolata-Regular_Bold', 'Inconsolata', monospace;font-size:34.35px;">NV</text>
        <text x="700.041px" y="791.301px" style="font-family:'Inconsolata-Regular_Bold', 'Inconsolata', monospace;font-size:34.35px;">UT</text>
        <text x="732.31px" y="865.146px" style="font-family:'Inconsolata-Regular_Bold', 'Inconsolata', monospace;font-size:34.35px;">NM</text>
        <text x="604.128px" y="605.336px" style="font-family:'Inconsolata-Regular_Bold', 'Inconsolata', monospace;font-size:34.35px;">CO</text>
        <text x="963.308px" y="1312.43px" style="font-family:'Inconsolata-Regular_Bold', 'Inconsolata', monospace;font-size:34.35px;">TX</text>
        <text x="1372.25px" y="1312.43px" style="font-family:'Inconsolata-Regular_Bold', 'Inconsolata', monospace;font-size:34.35px;">FL</text>
        <text x="1194.63px" y="1187.37px" style="font-family:'Inconsolata-Regular_Bold', 'Inconsolata', monospace;font-size:34.35px;">LA</text>
        <text x="1723.38px" y="1139.15px" style="font-family:'Inconsolata-Regular_Bold', 'Inconsolata', monospace;font-size:34.35px;">GA</text>
        <text x="1866.06px" y="1068px" style="font-family:'Inconsolata-Regular_Bold', 'Inconsolata', monospace;font-size:34.35px;">SC</text>
        <text x="1882.3px" y="896.521px" style="font-family:'Inconsolata-Regular_Bold', 'Inconsolata', monospace;font-size:34.35px;">NC</text>
        <text x="1951.04px" y="759.726px" style="font-family:'Inconsolata-Regular_Bold', 'Inconsolata', monospace;font-size:34.35px;">VA</text>
        <text x="2070.12px" y="605.208px" style="font-family:'Inconsolata-Regular_Bold', 'Inconsolata', monospace;font-size:34.35px;">MD</text>
        <text x="629.839px" y="346.095px" style="font-family:'Inconsolata-Regular_Bold', 'Inconsolata', monospace;font-size:34.35px;">MT</text>
        <g transform="matrix(34.35,0,0,34.35,557.877,399.3)">
        </g>
        <text x="523.527px" y="399.3px" style="font-family:'Inconsolata-Regular_Bold', 'Inconsolata', monospace;font-size:34.35px;">ID</text>
        <text x="1051.71px" y="592.078px" style="font-family:'Inconsolata-Regular_Bold', 'Inconsolata', monospace;font-size:34.35px;">IA</text>
        <text x="200.384px" y="557.791px" style="font-family:'Inconsolata-Regular_Bold', 'Inconsolata', monospace;font-size:34.35px;">OR</text>
        <text x="201.085px" y="432.463px" style="font-family:'Inconsolata-Regular_Bold', 'Inconsolata', monospace;font-size:34.35px;">WA</text>
        <g transform="matrix(34.35,0,0,34.35,997.5,344.36)">
        </g>
        <text x="963.15px" y="344.36px" style="font-family:'Inconsolata-Regular_Bold', 'Inconsolata', monospace;font-size:34.35px;">MN</text>
    </g>
</svg>
