<?xml version="1.0" encoding="UTF-8" standalone="no"?>
<!DOCTYPE svg PUBLIC "-//W3C//DTD SVG 1.1//EN" "http://www.w3.org/Graphics/SVG/1.1/DTD/svg11.dtd">
<svg width="100%" viewBox="0 0 2248 1498" version="1.1" xmlns="http://www.w3.org/2000/svg" xmlns:xlink="http://www.w3.org/1999/xlink" xml:space="preserve" xmlns:serif="http://www.serif.com/" style="fill-rule:evenodd;clip-rule:evenodd;stroke-linejoin:round;stroke-miterlimit:2;">
    <g id="DE">
        <path d="M1923.29,630.114l21.299,-12.303c0,0 21.312,12.303 21.312,12.303l0,24.606l-21.312,12.304l-21.299,-12.304l-0,-24.606Z" style="fill-rule:nonzero;"/>
    </g>
    <g id="FL">
        <path d="M1291.9,1198.08l21.312,-12.312l21.312,12.312l0,24.599l-21.312,12.3l-21.312,-12.3l0,-24.599Z" style="fill-rule:nonzero;"/>
        <path d="M1337.11,1198.08l21.312,-12.312l21.312,12.312l-0,24.599l-21.312,12.3l-21.312,-12.3l-0,-24.599Z" style="fill-rule:nonzero;"/>
        <path d="M1314.5,1237.21l21.312,-12.3l21.312,12.3l0,24.611l-21.312,12.3l-21.312,-12.3l-0,-24.611Z" style="fill-rule:nonzero;"/>
        <path d="M1359.71,1237.21l21.312,-12.3c-0,-0 21.299,12.299 21.299,12.299l0,24.613l-21.299,12.299l-21.312,-12.3l-0,-24.611Z" style="fill-rule:nonzero;"/>
        <path d="M1427.51,1198.08l21.312,-12.312l21.312,12.312l-0,24.599l-21.312,12.3l-21.312,-12.3l-0,-24.599Z" style="fill-rule:nonzero;"/>
        <path d="M1404.91,1237.21l21.312,-12.3l21.312,12.3l-0,24.611l-21.312,12.3l-21.312,-12.3l-0,-24.611Z" style="fill-rule:nonzero;"/>
        <path d="M1427.51,1276.36l21.312,-12.3l21.312,12.3l-0,24.611l-21.312,12.3l-21.312,-12.3l-0,-24.611Z" style="fill-rule:nonzero;"/>
        <path d="M1224.1,1237.21l21.312,-12.3l21.312,12.3l0,24.611l-21.312,12.3l-21.312,-12.3l0,-24.611Z" style="fill-rule:nonzero;"/>
        <path d="M1472.72,1198.08l21.312,-12.312l21.312,12.312l0,24.599l-21.312,12.3l-21.312,-12.3l0,-24.599Z" style="fill-rule:nonzero;"/>
        <path d="M1382.32,1198.08l21.3,-12.312l21.312,12.312l0,24.599l-21.312,12.3c0,0 -21.3,-12.299 -21.3,-12.299l0,-24.6Z" style="fill-rule:nonzero;"/>
        <path d="M1450.11,1237.21l21.313,-12.3l21.312,12.3l-0,24.611l-21.312,12.3l-21.313,-12.3l0,-24.611Z" style="fill-rule:nonzero;"/>
        <path d="M1472.72,1276.36l21.312,-12.3l21.312,12.3l0,24.611l-21.312,12.3l-21.312,-12.3l0,-24.611Z" style="fill-rule:nonzero;"/>
        <path d="M1450.11,1315.51l21.313,-12.3l21.312,12.3l-0,24.611l-21.312,12.3l-21.313,-12.3l0,-24.611Z" style="fill-rule:nonzero;"/>
        <path d="M1472.72,1354.66l21.312,-12.3l21.312,12.3l0,24.599l-21.312,12.312l-21.312,-12.312l0,-24.599Z" style="fill-rule:nonzero;"/>
        <path d="M1585.73,1393.81l21.312,-12.312l21.312,12.312l0,24.599l-21.312,12.312l-21.312,-12.312l-0,-24.599Z" style="fill-rule:nonzero;"/>
        <path d="M1563.12,1432.96l21.312,-12.312l21.312,12.312l0,24.599l-21.312,12.3l-21.312,-12.3l0,-24.599Z" style="fill-rule:nonzero;"/>
        <path d="M1495.32,1237.21l21.312,-12.3c0,-0 21.3,12.299 21.3,12.299l-0,24.613l-21.3,12.299l-21.312,-12.3l0,-24.611Z" style="fill-rule:nonzero;"/>
        <path d="M1517.93,1276.36l21.3,-12.3l21.312,12.3l-0,24.611l-21.312,12.3c-0,0 -21.3,-12.299 -21.3,-12.299l0,-24.612Z" style="fill-rule:nonzero;"/>
        <path d="M1495.32,1315.51l21.312,-12.3c0,-0 21.3,12.3 21.3,12.3l-0,24.612l-21.3,12.299l-21.312,-12.3l0,-24.611Z" style="fill-rule:nonzero;"/>
        <path d="M1517.93,1354.66l21.3,-12.3l21.312,12.3l-0,24.599l-21.312,12.312c-0,0 -21.3,-12.311 -21.3,-12.311l0,-24.6Z" style="fill-rule:nonzero;"/>
        <path d="M1269.31,1237.21l21.3,-12.299l21.311,12.3l0,24.611l-21.311,12.3c-0,0 -21.3,-12.299 -21.3,-12.299l-0,-24.613Z" style="fill-rule:nonzero;"/>
        <path d="M1201.5,1198.08l21.312,-12.312l21.312,12.312l0,24.599l-21.312,12.3l-21.312,-12.3l0,-24.599Z" style="fill-rule:nonzero;"/>
        <path d="M1540.52,1315.51l21.312,-12.3l21.312,12.3l0,24.611l-21.312,12.3l-21.312,-12.3l0,-24.611Z" style="fill-rule:nonzero;"/>
        <path d="M1563.12,1354.66l21.312,-12.3l21.312,12.3l0,24.599l-21.312,12.312l-21.312,-12.312l0,-24.599Z" style="fill-rule:nonzero;"/>
        <path d="M1540.52,1393.81l21.312,-12.312l21.312,12.312l0,24.599l-21.312,12.312l-21.312,-12.312l0,-24.599Z" style="fill-rule:nonzero;"/>
        <path d="M1495.32,1393.81l21.312,-12.312c0,-0 21.3,12.311 21.3,12.311l-0,24.601l-21.3,12.311l-21.312,-12.312l0,-24.599Z" style="fill-rule:nonzero;"/>
        <path d="M1246.7,1198.08l21.312,-12.312c-0,0 21.3,12.312 21.3,12.312l-0,24.6l-21.3,12.299l-21.312,-12.3l-0,-24.599Z" style="fill-rule:nonzero;"/>
        <path d="M1382.32,1276.36l21.3,-12.3l21.312,12.3l0,24.611l-21.312,12.3c0,0 -21.3,-12.299 -21.3,-12.299l0,-24.612Z" style="fill-rule:nonzero;"/>
    </g>
    <g id="GA">
        <path d="M1472.72,963.19l21.312,-12.303l21.312,12.303l0,24.606l-21.312,12.303l-21.312,-12.303l0,-24.606Z" style="fill-rule:nonzero;"/>
        <path d="M1404.91,1002.34l21.312,-12.304l21.312,12.304l-0,24.607l-21.312,12.3l-21.312,-12.3l-0,-24.607Z" style="fill-rule:nonzero;"/>
        <path d="M1427.51,1041.48l21.312,-12.3l21.312,12.3l-0,24.612l-21.312,12.3l-21.312,-12.3l-0,-24.612Z" style="fill-rule:nonzero;"/>
        <path d="M1517.93,1119.78l21.3,-12.3l21.312,12.3l-0,24.6l-21.312,12.311c-0,0 -21.3,-12.311 -21.3,-12.311l0,-24.6Z" style="fill-rule:nonzero;"/>
        <path d="M1450.11,1002.34l21.313,-12.304l21.312,12.304l-0,24.607l-21.312,12.3l-21.313,-12.3l0,-24.607Z" style="fill-rule:nonzero;"/>
        <path d="M1472.72,1041.48l21.312,-12.3l21.312,12.3l0,24.612l-21.312,12.3l-21.312,-12.3l0,-24.612Z" style="fill-rule:nonzero;"/>
        <path d="M1427.51,1119.78l21.312,-12.3l21.312,12.3l-0,24.6l-21.312,12.311l-21.312,-12.311l-0,-24.6Z" style="fill-rule:nonzero;"/>
        <path d="M1540.52,1080.63l21.312,-12.3l21.312,12.3l0,24.612l-21.312,12.3l-21.312,-12.3l0,-24.612Z" style="fill-rule:nonzero;"/>
        <path d="M1495.32,1002.34l21.312,-12.304l21.3,12.304l-0,24.607l-21.3,12.299l-21.312,-12.299l0,-24.607Z" style="fill-rule:nonzero;"/>
        <path d="M1517.93,1041.48l21.3,-12.3l21.312,12.3l-0,24.612l-21.312,12.3c-0,-0.001 -21.3,-12.3 -21.3,-12.3l0,-24.612Z" style="fill-rule:nonzero;"/>
        <path d="M1472.72,1119.78l21.312,-12.3l21.312,12.3l0,24.6l-21.312,12.311l-21.312,-12.311l0,-24.6Z" style="fill-rule:nonzero;"/>
        <path d="M1495.32,1080.63l21.312,-12.3c0,0 21.3,12.3 21.3,12.3l-0,24.612l-21.3,12.3l-21.312,-12.3l0,-24.612Z" style="fill-rule:nonzero;"/>
        <path d="M1450.11,1080.63l21.313,-12.3l21.312,12.3l-0,24.612l-21.312,12.3l-21.313,-12.3l0,-24.612Z" style="fill-rule:nonzero;"/>
        <path d="M1427.51,963.19l21.312,-12.303l21.312,12.303l-0,24.606l-21.312,12.303l-21.312,-12.303l-0,-24.606Z" style="fill-rule:nonzero;"/>
    </g>
    <g id="HI">
        <path d="M611.106,1237.98l21.31,-12.3c-0,0 21.309,12.3 21.309,12.3l0,24.6l-21.309,12.311l-21.31,-12.311c0,-0 0,-24.6 0,-24.6Z" style="fill-rule:nonzero;"/>
        <path d="M633.708,1277.13l21.309,-12.312l21.31,12.312c-0,-0 -0,24.6 -0,24.6l-21.31,12.312l-21.309,-12.312c-0,-0 -0,-24.6 -0,-24.6Z" style="fill-rule:nonzero;"/>
    </g>
    <g id="ID">
        <path d="M320.042,532.573l21.309,-12.303l21.31,12.303l-0,24.606l-21.31,12.303l-21.309,-12.303l-0,-24.606Z" style="fill-rule:nonzero;"/>
        <path d="M342.643,571.72l21.309,-12.304l21.31,12.304l-0,24.607l-21.31,12.303l-21.309,-12.303l-0,-24.607Z" style="fill-rule:nonzero;"/>
    </g>
    <g id="IL">
        <path d="M1043.29,610.868l21.31,-12.304l21.309,12.304l0,24.605l-21.309,12.304l-21.31,-12.304l0,-24.605Z" style="fill-rule:nonzero;"/>
        <path d="M1133.7,610.868l21.314,-12.304l21.3,12.303l-0,24.606l-21.3,12.304l-21.314,-12.304l-0,-24.605Z" style="fill-rule:nonzero;"/>
        <path d="M1043.29,689.161l21.31,-12.304l21.309,12.304l0,24.607l-21.309,12.303l-21.31,-12.303l0,-24.607Z" style="fill-rule:nonzero;"/>
        <path d="M1088.49,767.455l21.311,-12.303l21.309,12.303l0,24.606l-21.309,12.303l-21.311,-12.303l-0,-24.606Z" style="fill-rule:nonzero;"/>
        <path d="M1088.49,610.868l21.311,-12.304l21.309,12.304l0,24.605l-21.309,12.304l-21.311,-12.304l-0,-24.605Z" style="fill-rule:nonzero;"/>
        <path d="M1065.89,650.014l21.309,-12.303l21.311,12.303l-0,24.606l-21.311,12.303l-21.309,-12.303l-0,-24.606Z" style="fill-rule:nonzero;"/>
        <path d="M1088.49,689.161l21.311,-12.304l21.309,12.304l0,24.607l-21.309,12.303l-21.311,-12.303l-0,-24.607Z" style="fill-rule:nonzero;"/>
        <path d="M1065.89,728.308l21.309,-12.303l21.311,12.304l-0,24.605l-21.311,12.304l-21.309,-12.304l-0,-24.606Z" style="fill-rule:nonzero;"/>
        <path d="M1043.29,767.455l21.31,-12.303l21.309,12.303l0,24.606l-21.309,12.303l-21.31,-12.303l0,-24.606Z" style="fill-rule:nonzero;"/>
        <path d="M1111.09,650.014l21.31,-12.303l21.315,12.303l-0,24.606c-0,-0 -21.315,12.303 -21.315,12.303l-21.31,-12.303c0,-0 0,-24.606 0,-24.606Z" style="fill-rule:nonzero;"/>
        <path d="M1111.09,728.308l21.31,-12.303l21.315,12.304l-0,24.605c-0,0 -21.315,12.304 -21.315,12.304l-21.31,-12.304c0,0 0,-24.606 0,-24.606Z" style="fill-rule:nonzero;"/>
        <path d="M1065.89,806.602l21.309,-12.304l21.311,12.304l-0,24.606l-21.311,12.304l-21.309,-12.303l-0,-24.607Z" style="fill-rule:nonzero;"/>
        <path d="M1111.09,806.602l21.31,-12.304l21.315,12.304l-0,24.606c-0,0 -21.315,12.304 -21.315,12.304l-21.31,-12.303c0,-0 0,-24.607 0,-24.607Z" style="fill-rule:nonzero;"/>
        <path d="M1156.3,650.014l21.3,-12.303c-0,-0 21.312,12.303 21.312,12.303l-0,24.606l-21.312,12.303l-21.3,-12.303l0,-24.606Z" style="fill-rule:nonzero;"/>
        <path d="M1133.7,767.455l21.314,-12.303l21.3,12.303l-0,24.606l-21.3,12.303l-21.314,-12.303l-0,-24.606Z" style="fill-rule:nonzero;"/>
        <path d="M1133.7,689.161l21.314,-12.304l21.3,12.304l-0,24.607c-0,-0 -21.3,12.303 -21.3,12.303l-21.314,-12.303l-0,-24.607Z" style="fill-rule:nonzero;"/>
        <path d="M1156.3,728.308l21.3,-12.303c-0,0 21.312,12.304 21.312,12.304l-0,24.605l-21.312,12.304l-21.3,-12.304l0,-24.606Z" style="fill-rule:nonzero;"/>
    </g>
    <g id="IN">
        <path d="M1269.31,610.867l21.3,-12.303c-0,0 21.311,12.304 21.311,12.304l0,24.605l-21.311,12.304l-21.3,-12.304l-0,-24.606Z" style="fill-rule:nonzero;"/>
        <path d="M1246.7,571.72l21.312,-12.304l21.3,12.304l-0,24.607c-0,-0 -21.3,12.303 -21.3,12.303c-0,0 -21.312,-12.303 -21.312,-12.303l-0,-24.607Z" style="fill-rule:nonzero;"/>
        <path d="M1314.5,610.868l21.312,-12.304l21.312,12.304l0,24.605l-21.312,12.304l-21.312,-12.304l-0,-24.605Z" style="fill-rule:nonzero;"/>
        <path d="M1291.9,650.014l21.312,-12.303l21.312,12.303l0,24.606l-21.312,12.303l-21.312,-12.303l0,-24.606Z" style="fill-rule:nonzero;"/>
        <path d="M1246.7,650.014l21.312,-12.303l21.3,12.303l-0,24.606l-21.3,12.303c-0,0 -21.312,-12.303 -21.312,-12.303l-0,-24.606Z" style="fill-rule:nonzero;"/>
        <path d="M1291.9,571.72l21.312,-12.304l21.312,12.304l0,24.607c0,-0 -21.312,12.303 -21.312,12.303l-21.312,-12.303l0,-24.607Z" style="fill-rule:nonzero;"/>
        <path d="M1224.1,689.161l21.312,-12.304l21.312,12.304l0,24.607c0,-0 -21.312,12.303 -21.312,12.303l-21.312,-12.303l0,-24.607Z" style="fill-rule:nonzero;"/>
        <path d="M1224.1,610.868l21.312,-12.304l21.312,12.304l0,24.605l-21.312,12.304l-21.312,-12.304l0,-24.605Z" style="fill-rule:nonzero;"/>
        <path d="M1269.31,689.161l21.3,-12.304c-0,0 21.311,12.304 21.311,12.304l0,24.607c0,-0 -21.311,12.303 -21.311,12.303l-21.3,-12.303l-0,-24.607Z" style="fill-rule:nonzero;"/>
    </g>
    <g id="IA">
        <path d="M817.275,610.868l21.309,-12.304l21.31,12.304l-0,24.605l-21.31,12.304l-21.309,-12.304l-0,-24.605Z" style="fill-rule:nonzero;"/>
        <path d="M885.079,650.014l21.309,-12.303l21.31,12.303l-0,24.606l-21.31,12.303l-21.309,-12.303l-0,-24.606Z" style="fill-rule:nonzero;"/>
        <path d="M862.477,610.868l21.31,-12.304l21.309,12.304l0,24.605l-21.309,12.304l-21.31,-12.304l0,-24.605Z" style="fill-rule:nonzero;"/>
        <path d="M839.876,650.014l21.31,-12.303l21.309,12.303l0,24.606l-21.309,12.303l-21.31,-12.303l-0,-24.606Z" style="fill-rule:nonzero;"/>
    </g>
    <g id="KS">
        <path d="M659.064,728.308l21.31,-12.303l21.309,12.303l0,24.606l-21.309,12.304l-21.31,-12.304l0,-24.606Z" style="fill-rule:nonzero;"/>
        <path d="M704.267,728.308l21.309,-12.303l21.31,12.303l-0,24.606l-21.31,12.304l-21.309,-12.304l-0,-24.606Z" style="fill-rule:nonzero;"/>
        <path d="M726.868,767.455l21.31,-12.303l21.309,12.303l0,24.606l-21.309,12.303l-21.31,-12.303l0,-24.606Z" style="fill-rule:nonzero;"/>
        <path d="M681.665,767.455l21.31,-12.303l21.309,12.303l0,24.606l-21.309,12.303l-21.31,-12.303l0,-24.606Z" style="fill-rule:nonzero;"/>
    </g>
    <g id="KY">
        <path d="M1359.71,767.455l21.312,-12.303l21.299,12.303l0,24.606l-21.299,12.303c-0,0 -21.312,-12.303 -21.312,-12.303l-0,-24.606Z" style="fill-rule:nonzero;"/>
        <path d="M1246.7,806.602l21.312,-12.304l21.3,12.303l-0,24.608c-0,-0 -21.3,12.303 -21.3,12.303c-0,-0 -21.312,-12.304 -21.312,-12.304l-0,-24.606Z" style="fill-rule:nonzero;"/>
        <path d="M1291.9,806.602l21.312,-12.304l21.312,12.304l0,24.606c0,0 -21.312,12.304 -21.312,12.304l-21.312,-12.304l0,-24.606Z" style="fill-rule:nonzero;"/>
        <path d="M1337.11,806.602l21.312,-12.304l21.312,12.304l-0,24.606c-0,0 -21.312,12.304 -21.312,12.304l-21.312,-12.304l-0,-24.606Z" style="fill-rule:nonzero;"/>
        <path d="M1382.32,806.601l21.3,-12.303c0,0 21.312,12.304 21.312,12.304l0,24.606c0,0 -21.312,12.304 -21.312,12.304l-21.3,-12.303l0,-24.608Z" style="fill-rule:nonzero;"/>
        <path d="M1314.5,767.455l21.312,-12.303l21.312,12.303l0,24.606l-21.312,12.303l-21.312,-12.303l-0,-24.606Z" style="fill-rule:nonzero;"/>
    </g>
    <g id="LA">
        <path d="M998.087,1080.63l21.309,-12.3c0,0 21.31,12.3 21.31,12.3l-0,24.612l-21.31,12.3c0,-0 -21.309,-12.3 -21.309,-12.3l-0,-24.612Z" style="fill-rule:nonzero;"/>
        <path d="M1065.89,1041.48l21.309,-12.3l21.311,12.3l-0,24.612l-21.311,12.3l-21.309,-12.3l-0,-24.612Z" style="fill-rule:nonzero;"/>
        <path d="M1043.29,1080.63l21.31,-12.3c-0,0 21.309,12.3 21.309,12.3l0,24.612l-21.309,12.3c-0,-0 -21.31,-12.3 -21.31,-12.3l0,-24.612Z" style="fill-rule:nonzero;"/>
        <path d="M1065.89,1119.78l21.309,-12.3l21.311,12.3l-0,24.6l-21.311,12.311l-21.309,-12.311c-0,-0 -0,-24.6 -0,-24.6Z" style="fill-rule:nonzero;"/>
        <path d="M1020.69,1119.78l21.309,-12.3c0,0 21.31,12.3 21.31,12.3l0,24.6l-21.31,12.311l-21.309,-12.311c-0,-0 -0,-24.6 -0,-24.6Z" style="fill-rule:nonzero;"/>
        <path d="M1020.69,1041.48l21.309,-12.3c0,0 21.31,12.3 21.31,12.3l0,24.612l-21.31,12.3c0,-0 -21.309,-12.3 -21.309,-12.3l-0,-24.612Z" style="fill-rule:nonzero;"/>
    </g>
    <g id="ME">
        <path d="M2088.75,40.446l21.312,-12.304l21.312,12.304l-0,24.605l-21.312,12.304l-21.312,-12.304l-0,-24.605Z" style="fill-rule:nonzero;"/>
        <path d="M2043.55,40.446l21.312,-12.304l21.299,12.303l0,24.606l-21.299,12.304c-0,-0 -21.312,-12.304 -21.312,-12.304l-0,-24.605Z" style="fill-rule:nonzero;"/>
    </g>
    <g id="MD">
        <path d="M1601.35,547.137l21.312,-12.304l21.313,12.304l-0,24.607c-0,-0 -21.313,12.303 -21.313,12.303l-21.312,-12.303l0,-24.607Z" style="fill-rule:nonzero;"/>
        <path d="M1646.56,547.137l21.312,-12.304l21.3,12.304l-0,24.607c-0,-0 -21.3,12.303 -21.3,12.303c-0,0 -21.312,-12.303 -21.312,-12.303l0,-24.607Z" style="fill-rule:nonzero;"/>
        <path d="M1691.75,547.137l21.312,-12.304l21.312,12.304l0,24.607c0,-0 -21.312,12.303 -21.312,12.303l-21.312,-12.303l0,-24.607Z" style="fill-rule:nonzero;"/>
        <path d="M1736.96,547.137l21.312,-12.304l21.312,12.304l0,24.607c0,-0 -21.312,12.303 -21.312,12.303l-21.312,-12.303l-0,-24.607Z" style="fill-rule:nonzero;"/>
        <path d="M1782.17,547.137l21.299,-12.304c0,0 21.312,12.304 21.312,12.304l0,24.607c0,-0 -21.312,12.303 -21.312,12.303l-21.299,-12.303l-0,-24.607Z" style="fill-rule:nonzero;"/>
        <path d="M1827.36,625.431l21.312,-12.303l21.312,12.303l-0,24.606l-21.312,12.303l-21.312,-12.303l-0,-24.606Z" style="fill-rule:nonzero;"/>
        <path d="M1804.76,586.285l21.312,-12.304l21.312,12.304l0,24.605l-21.312,12.304l-21.312,-12.304l-0,-24.605Z" style="fill-rule:nonzero;"/>
        <path d="M1714.36,586.285l21.312,-12.304l21.312,12.304l0,24.605l-21.312,12.304l-21.312,-12.304l0,-24.605Z" style="fill-rule:nonzero;"/>
    </g>
    <g id="MA">
        <path d="M1978.44,89.536l21.3,-12.303c0,0 21.312,12.304 21.312,12.304l0,24.607c0,-0 -21.312,12.303 -21.312,12.303l-21.3,-12.303l0,-24.608Z" style="fill-rule:nonzero;"/>
        <path d="M1910.63,206.978l21.312,-12.304l21.312,12.304l0,24.606c0,0 -21.312,12.304 -21.312,12.304l-21.312,-12.304l-0,-24.606Z" style="fill-rule:nonzero;"/>
        <path d="M2001.04,128.684l21.312,-12.303l21.312,12.303l-0,24.606l-21.312,12.304l-21.312,-12.304l-0,-24.606Z" style="fill-rule:nonzero;"/>
        <path d="M1910.63,128.684l21.312,-12.303l21.312,12.303l0,24.606l-21.312,12.304l-21.312,-12.304l-0,-24.606Z" style="fill-rule:nonzero;"/>
        <path d="M1888.03,167.831l21.312,-12.303l21.312,12.303l0,24.606l-21.312,12.303l-21.312,-12.303l0,-24.606Z" style="fill-rule:nonzero;"/>
        <path d="M1933.24,89.537l21.312,-12.304l21.312,12.304l-0,24.607c-0,-0 -21.312,12.303 -21.312,12.303l-21.312,-12.303l-0,-24.607Z" style="fill-rule:nonzero;"/>
        <path d="M1978.44,167.831l21.3,-12.303c0,-0 21.312,12.303 21.312,12.303l0,24.606l-21.312,12.303l-21.3,-12.303l0,-24.606Z" style="fill-rule:nonzero;"/>
        <path d="M1955.84,128.684l21.312,-12.303l21.299,12.303l0,24.606l-21.299,12.304c-0,-0.001 -21.312,-12.304 -21.312,-12.304l-0,-24.606Z" style="fill-rule:nonzero;"/>
        <path d="M1933.24,167.831l21.312,-12.303l21.312,12.303l-0,24.606l-21.312,12.303l-21.312,-12.303l-0,-24.606Z" style="fill-rule:nonzero;"/>
    </g>
    <g id="MI">
        <path d="M1133.7,297.692l21.314,-12.304l21.3,12.303l-0,24.606l-21.3,12.304l-21.314,-12.304l-0,-24.605Z" style="fill-rule:nonzero;"/>
        <path d="M1224.1,375.986l21.312,-12.304l21.312,12.304l0,24.605l-21.312,12.304l-21.312,-12.304l0,-24.605Z" style="fill-rule:nonzero;"/>
        <path d="M1246.7,336.838l21.312,-12.303l21.3,12.303l-0,24.607c-0,0 -21.3,12.303 -21.3,12.303c-0,0 -21.312,-12.303 -21.312,-12.303l-0,-24.607Z" style="fill-rule:nonzero;"/>
        <path d="M1291.9,336.838l21.312,-12.303l21.312,12.303l0,24.607c0,-0 -21.312,12.303 -21.312,12.303l-21.312,-12.303l0,-24.607Z" style="fill-rule:nonzero;"/>
        <path d="M1246.7,493.427l21.312,-12.304l21.3,12.304l-0,24.606l-21.3,12.303c-0,-0 -21.312,-12.304 -21.312,-12.304l-0,-24.605Z" style="fill-rule:nonzero;"/>
        <path d="M1291.9,493.427l21.312,-12.304l21.312,12.304l0,24.605l-21.312,12.304l-21.312,-12.304l0,-24.605Z" style="fill-rule:nonzero;"/>
        <path d="M1269.31,375.986l21.3,-12.304c-0,0 21.311,12.304 21.311,12.304l0,24.605l-21.311,12.304l-21.3,-12.303l-0,-24.606Z" style="fill-rule:nonzero;"/>
        <path d="M1246.7,415.132l21.312,-12.303l21.3,12.303l-0,24.606l-21.3,12.303c-0,0 -21.312,-12.303 -21.312,-12.303l-0,-24.606Z" style="fill-rule:nonzero;"/>
        <path d="M1269.31,454.279l21.3,-12.303c-0,-0 21.311,12.303 21.311,12.303l0,24.607c0,-0 -21.311,12.303 -21.311,12.303l-21.3,-12.303l-0,-24.607Z" style="fill-rule:nonzero;"/>
        <path d="M1337.11,415.132l21.312,-12.303l21.312,12.303l-0,24.606l-21.312,12.304l-21.312,-12.304l-0,-24.606Z" style="fill-rule:nonzero;"/>
        <path d="M1314.5,454.279l21.312,-12.304l21.312,12.304l0,24.607c0,-0 -21.312,12.303 -21.312,12.303l-21.312,-12.303l-0,-24.607Z" style="fill-rule:nonzero;"/>
        <path d="M1291.9,415.132l21.312,-12.303l21.312,12.303l0,24.606l-21.312,12.304l-21.312,-12.304l0,-24.606Z" style="fill-rule:nonzero;"/>
        <path d="M1178.89,297.692l21.313,-12.304l21.312,12.304l-0,24.605l-21.312,12.304l-21.313,-12.304l0,-24.605Z" style="fill-rule:nonzero;"/>
    </g>
    <g id="MN">
        <path d="M817.275,375.986l21.309,-12.304l21.31,12.304l-0,24.606l-21.31,12.303l-21.309,-12.303l-0,-24.606Z" style="fill-rule:nonzero;"/>
        <path d="M839.876,415.132l21.31,-12.303l21.309,12.303l0,24.606l-21.309,12.303l-21.31,-12.303l-0,-24.606Z" style="fill-rule:nonzero;"/>
        <path d="M862.477,375.986l21.31,-12.304l21.309,12.304l0,24.606l-21.309,12.303l-21.31,-12.303l0,-24.606Z" style="fill-rule:nonzero;"/>
        <path d="M817.275,454.279l21.309,-12.304l21.31,12.304l-0,24.607l-21.31,12.303l-21.309,-12.303l-0,-24.607Z" style="fill-rule:nonzero;"/>
        <path d="M794.673,415.132l21.31,-12.303l21.309,12.303l0,24.606l-21.309,12.303l-21.31,-12.303l0,-24.606Z" style="fill-rule:nonzero;"/>
        <path d="M794.673,493.427l21.31,-12.304l21.309,12.304l0,24.605l-21.309,12.304l-21.31,-12.304l0,-24.605Z" style="fill-rule:nonzero;"/>
        <path d="M839.876,493.427l21.31,-12.304l21.309,12.304l0,24.605l-21.309,12.304l-21.31,-12.304l-0,-24.605Z" style="fill-rule:nonzero;"/>
        <path d="M772.071,375.986l21.311,-12.304l21.309,12.304l0,24.606l-21.309,12.303l-21.311,-12.304l-0,-24.605Z" style="fill-rule:nonzero;"/>
    </g>
    <g id="MS">
        <path d="M1178.89,1080.63l21.313,-12.3l21.312,12.3l-0,24.612l-21.312,12.3l-21.313,-12.3l0,-24.612Z" style="fill-rule:nonzero;"/>
        <path d="M1156.3,1041.48l21.3,-12.3l21.312,12.3l-0,24.612l-21.312,12.3c-0,-0.001 -21.3,-12.3 -21.3,-12.3l0,-24.612Z" style="fill-rule:nonzero;"/>
        <path d="M1133.7,1080.63l21.314,-12.3l21.3,12.3c-0,-0 -0,24.612 -0,24.612l-21.3,12.3l-21.314,-12.3c-0,-0 -0,-24.612 -0,-24.612Z" style="fill-rule:nonzero;"/>
        <path d="M1156.3,1119.78l21.3,-12.3l21.312,12.3l-0,24.6l-21.312,12.311c-0,0 -21.3,-12.311 -21.3,-12.311l0,-24.6Z" style="fill-rule:nonzero;"/>
    </g>
    <g id="MO">
        <path d="M907.68,767.455l21.31,-12.303l21.31,12.303l0,24.606l-21.31,12.303l-21.31,-12.303l-0,-24.606Z" style="fill-rule:nonzero;"/>
        <path d="M930.281,728.309l21.311,-12.304l21.31,12.303l-0,24.606l-21.31,12.304l-21.311,-12.304l0,-24.605Z" style="fill-rule:nonzero;"/>
        <path d="M885.079,806.602l21.309,-12.304l21.31,12.304l-0,24.607l-21.31,12.303l-21.309,-12.303l-0,-24.607Z" style="fill-rule:nonzero;"/>
        <path d="M885.079,728.308l21.309,-12.303l21.31,12.303l-0,24.606l-21.31,12.304l-21.309,-12.304l-0,-24.606Z" style="fill-rule:nonzero;"/>
        <path d="M998.087,845.749l21.309,-12.303l21.31,12.303l-0,24.606l-21.31,12.303l-21.309,-12.303l-0,-24.606Z" style="fill-rule:nonzero;"/>
        <path d="M952.884,767.455l21.309,-12.303l21.31,12.303l0,24.606l-21.31,12.303l-21.309,-12.303l-0,-24.606Z" style="fill-rule:nonzero;"/>
        <path d="M930.281,806.602l21.311,-12.304l21.31,12.304l-0,24.607l-21.31,12.303l-21.311,-12.304l0,-24.606Z" style="fill-rule:nonzero;"/>
        <path d="M975.485,806.602l21.31,-12.304l21.309,12.304l0,24.607l-21.309,12.303l-21.31,-12.303l0,-24.607Z" style="fill-rule:nonzero;"/>
    </g>
    <g id="MT">
        <path d="M500.853,375.986l21.31,-12.304l21.31,12.304l-0,24.606l-21.31,12.303l-21.31,-12.303l0,-24.606Z" style="fill-rule:nonzero;"/>
        <path d="M455.65,375.986l21.31,-12.304l21.31,12.304l-0,24.606l-21.31,12.303l-21.31,-12.304l-0,-24.605Z" style="fill-rule:nonzero;"/>
    </g>
    <g id="NE">
        <path d="M613.86,571.72l21.311,-12.304l21.309,12.304l0,24.607l-21.309,12.303l-21.311,-12.303l0,-24.607Z" style="fill-rule:nonzero;"/>
        <path d="M636.463,610.868l21.309,-12.304l21.31,12.304l-0,24.605l-21.31,12.304l-21.309,-12.304l-0,-24.605Z" style="fill-rule:nonzero;"/>
        <path d="M568.657,571.72l21.31,-12.304l21.31,12.304l-0,24.607l-21.31,12.303l-21.31,-12.303l0,-24.607Z" style="fill-rule:nonzero;"/>
    </g>
    <g id="NV">
        <path d="M320.042,767.455l21.309,-12.303l21.31,12.303l-0,24.606l-21.31,12.303l-21.309,-12.303l-0,-24.606Z" style="fill-rule:nonzero;"/>
        <path d="M342.643,806.602l21.309,-12.304l21.31,12.304l-0,24.607l-21.31,12.303l-21.309,-12.303l-0,-24.607Z" style="fill-rule:nonzero;"/>
        <path d="M387.846,806.602l21.309,-12.304l21.31,12.304l-0,24.607l-21.31,12.303l-21.309,-12.303l-0,-24.607Z" style="fill-rule:nonzero;"/>
        <path d="M365.244,767.455l21.31,-12.303l21.309,12.303l0,24.606l-21.309,12.303l-21.31,-12.303l0,-24.606Z" style="fill-rule:nonzero;"/>
    </g>
    <g id="NH">
        <path d="M1844.18,40.445l21.3,-12.303c0,-0 21.312,12.303 21.312,12.303l-0,24.606l-21.312,12.303l-21.3,-12.303l0,-24.606Z" style="fill-rule:nonzero;"/>
        <path d="M1866.77,79.592l21.312,-12.304l21.312,12.304l-0,24.606l-21.312,12.303l-21.312,-12.303l-0,-24.606Z" style="fill-rule:nonzero;"/>
    </g>
    <g id="NJ">
        <path d="M1889.38,419.898l21.312,-12.303l21.299,12.303l0,24.606l-21.299,12.303c-0,0 -21.312,-12.303 -21.312,-12.303l-0,-24.606Z" style="fill-rule:nonzero;"/>
        <path d="M1957.18,537.339l21.312,-12.303l21.312,12.303l-0,24.606l-21.312,12.303l-21.312,-12.303l-0,-24.606Z" style="fill-rule:nonzero;"/>
        <path d="M1911.98,380.752l21.299,-12.304c0,0 21.312,12.304 21.312,12.304l0,24.605l-21.312,12.304l-21.299,-12.303l-0,-24.606Z" style="fill-rule:nonzero;"/>
        <path d="M1979.78,419.898l21.312,-12.303l21.312,12.303l-0,24.606l-21.312,12.303l-21.312,-12.303l-0,-24.606Z" style="fill-rule:nonzero;"/>
        <path d="M1911.98,459.045l21.299,-12.304c0,0 21.312,12.304 21.312,12.304l0,24.607c0,-0 -21.312,12.303 -21.312,12.303l-21.299,-12.303l-0,-24.607Z" style="fill-rule:nonzero;"/>
        <path d="M1934.57,498.193l21.312,-12.304l21.312,12.304l0,24.605l-21.312,12.304l-21.312,-12.304l-0,-24.605Z" style="fill-rule:nonzero;"/>
        <path d="M1957.18,380.752l21.312,-12.304l21.312,12.304l-0,24.605l-21.312,12.304l-21.312,-12.304l-0,-24.605Z" style="fill-rule:nonzero;"/>
        <path d="M1934.57,419.898l21.312,-12.303l21.312,12.303l0,24.606l-21.312,12.303l-21.312,-12.303l-0,-24.606Z" style="fill-rule:nonzero;"/>
        <path d="M1866.78,537.339l21.312,-12.303l21.312,12.303l0,24.606l-21.312,12.303l-21.312,-12.303l-0,-24.606Z" style="fill-rule:nonzero;"/>
        <path d="M1911.98,537.339l21.299,-12.303c0,-0 21.312,12.303 21.312,12.303l0,24.606l-21.312,12.303l-21.299,-12.303l-0,-24.606Z" style="fill-rule:nonzero;"/>
        <path d="M1957.18,459.045l21.312,-12.304l21.312,12.304l-0,24.607c-0,-0 -21.312,12.303 -21.312,12.303l-21.312,-12.303l-0,-24.607Z" style="fill-rule:nonzero;"/>
        <path d="M1889.38,498.193l21.312,-12.304l21.299,12.303l0,24.606l-21.299,12.304c-0,-0 -21.312,-12.304 -21.312,-12.304l-0,-24.605Z" style="fill-rule:nonzero;"/>
    </g>
    <g id="NM">
        <path d="M568.657,884.896l21.31,-12.304l21.31,12.304l-0,24.606l-21.31,12.303l-21.31,-12.303l0,-24.606Z" style="fill-rule:nonzero;"/>
        <path d="M613.86,884.896l21.311,-12.304l21.309,12.304l0,24.606l-21.309,12.303l-21.311,-12.303l0,-24.606Z" style="fill-rule:nonzero;"/>
        <path d="M591.259,924.042l21.309,-12.303l21.311,12.303l0,24.607l-21.311,12.304l-21.309,-12.304l-0,-24.607Z" style="fill-rule:nonzero;"/>
    </g>
    <g id="NY">
        <path d="M1514.27,287.146l21.311,-12.303l21.3,12.303l0,24.606l-21.3,12.303c0,0 -21.311,-12.303 -21.311,-12.303l-0,-24.606Z" style="fill-rule:nonzero;"/>
        <path d="M1536.87,247.998l21.3,-12.303c0,0 21.312,12.303 21.312,12.303l-0,24.607c-0,0 -21.312,12.304 -21.312,12.304l-21.3,-12.303l0,-24.608Z" style="fill-rule:nonzero;"/>
        <path d="M1582.07,247.998l21.312,-12.303l21.312,12.303l-0,24.607c-0,0 -21.312,12.304 -21.312,12.304l-21.312,-12.304l-0,-24.607Z" style="fill-rule:nonzero;"/>
        <path d="M1559.47,287.146l21.312,-12.303l21.312,12.303l-0,24.606l-21.312,12.303l-21.312,-12.303l-0,-24.606Z" style="fill-rule:nonzero;"/>
        <path d="M1740.28,130.558l21.312,-12.304l21.312,12.304l-0,24.606c-0,0 -21.312,12.304 -21.312,12.304l-21.312,-12.304l-0,-24.606Z" style="fill-rule:nonzero;"/>
        <path d="M1672.48,169.705l21.3,-12.303c-0,-0 21.311,12.303 21.311,12.303l0,24.606l-21.311,12.303l-21.3,-12.303l-0,-24.606Z" style="fill-rule:nonzero;"/>
        <path d="M1762.89,169.705l21.312,-12.303l21.299,12.303l0,24.606l-21.299,12.303c-0,0 -21.312,-12.303 -21.312,-12.303l-0,-24.606Z" style="fill-rule:nonzero;"/>
        <path d="M1627.28,247.998l21.312,-12.303l21.312,12.303l0,24.607c0,0 -21.312,12.304 -21.312,12.304l-21.312,-12.304l0,-24.607Z" style="fill-rule:nonzero;"/>
        <path d="M1604.67,287.146l21.312,-12.303l21.312,12.303l0,24.606l-21.312,12.303l-21.312,-12.303l0,-24.606Z" style="fill-rule:nonzero;"/>
        <path d="M1627.28,169.705l21.312,-12.303l21.312,12.303l0,24.606l-21.312,12.303l-21.312,-12.303l0,-24.606Z" style="fill-rule:nonzero;"/>
        <path d="M1717.68,169.705l21.312,-12.303l21.312,12.303l0,24.606l-21.312,12.303l-21.312,-12.303l0,-24.606Z" style="fill-rule:nonzero;"/>
        <path d="M1649.88,208.852l21.312,-12.304l21.3,12.304l-0,24.606l-21.3,12.303c-0,-0 -21.312,-12.303 -21.312,-12.303l0,-24.606Z" style="fill-rule:nonzero;"/>
        <path d="M1672.48,247.998l21.3,-12.303c-0,0 21.311,12.303 21.311,12.303l0,24.607c0,0 -21.311,12.304 -21.311,12.304l-21.3,-12.303l-0,-24.608Z" style="fill-rule:nonzero;"/>
        <path d="M1649.88,287.146l21.312,-12.303l21.3,12.303l-0,24.606l-21.3,12.303c-0,0 -21.312,-12.303 -21.312,-12.303l0,-24.606Z" style="fill-rule:nonzero;"/>
        <path d="M1649.88,130.558l21.312,-12.304l21.3,12.303l-0,24.608c-0,-0 -21.3,12.303 -21.3,12.303c-0,-0 -21.312,-12.304 -21.312,-12.304l0,-24.606Z" style="fill-rule:nonzero;"/>
        <path d="M1695.08,208.852l21.312,-12.304l21.312,12.304l0,24.606l-21.312,12.303l-21.312,-12.303l0,-24.606Z" style="fill-rule:nonzero;"/>
        <path d="M1717.68,247.998l21.312,-12.303l21.312,12.303l0,24.607c0,0 -21.312,12.304 -21.312,12.304l-21.312,-12.304l0,-24.607Z" style="fill-rule:nonzero;"/>
        <path d="M1695.08,287.146l21.312,-12.303l21.312,12.303l0,24.606l-21.312,12.303l-21.312,-12.303l0,-24.606Z" style="fill-rule:nonzero;"/>
        <path d="M1717.68,326.293l21.312,-12.304l21.312,12.304l0,24.605l-21.312,12.304l-21.312,-12.304l0,-24.605Z" style="fill-rule:nonzero;"/>
        <path d="M1695.08,130.558l21.312,-12.304l21.312,12.304l0,24.606c0,0 -21.312,12.304 -21.312,12.304l-21.312,-12.304l0,-24.606Z" style="fill-rule:nonzero;"/>
        <path d="M1740.28,208.852l21.312,-12.304l21.312,12.304l-0,24.606l-21.312,12.303l-21.312,-12.303l-0,-24.606Z" style="fill-rule:nonzero;"/>
        <path d="M1740.28,287.146l21.312,-12.303l21.312,12.303l-0,24.606l-21.312,12.303l-21.312,-12.303l-0,-24.606Z" style="fill-rule:nonzero;"/>
        <path d="M1830.69,365.439l21.312,-12.303l21.312,12.303l-0,24.607c-0,0 -21.312,12.304 -21.312,12.304l-21.312,-12.304l-0,-24.607Z" style="fill-rule:nonzero;"/>
        <path d="M1762.89,326.293l21.312,-12.304l21.299,12.304l0,24.606l-21.299,12.303c-0,-0 -21.312,-12.304 -21.312,-12.304l-0,-24.605Z" style="fill-rule:nonzero;"/>
        <path d="M1762.89,247.998l21.312,-12.303l21.299,12.303l0,24.607c0,0.001 -21.299,12.304 -21.299,12.304c-0,-0 -21.312,-12.304 -21.312,-12.304l-0,-24.607Z" style="fill-rule:nonzero;"/>
        <path d="M1785.49,365.439l21.299,-12.303c0,-0 21.312,12.303 21.312,12.303l0,24.607c0,0 -21.312,12.304 -21.312,12.304l-21.299,-12.304l-0,-24.607Z" style="fill-rule:nonzero;"/>
    </g>
    <g id="NC">
        <path d="M1653.52,884.896l21.312,-12.304l21.312,12.304l0,24.606l-21.312,12.303l-21.312,-12.303l-0,-24.606Z" style="fill-rule:nonzero;"/>
        <path d="M1472.72,806.602l21.312,-12.304l21.312,12.304l0,24.606c0,0 -21.312,12.304 -21.312,12.304l-21.312,-12.304l0,-24.606Z" style="fill-rule:nonzero;"/>
        <path d="M1517.93,806.601l21.3,-12.303c-0,0 21.312,12.304 21.312,12.304l-0,24.606c-0,0 -21.312,12.304 -21.312,12.304l-21.3,-12.303l-0,-24.608Z" style="fill-rule:nonzero;"/>
        <path d="M1608.33,884.896l21.312,-12.303l21.299,12.303l0,24.606l-21.299,12.303c-0,-0 -21.312,-12.303 -21.312,-12.303l-0,-24.606Z" style="fill-rule:nonzero;"/>
        <path d="M1563.12,806.602l21.312,-12.304l21.312,12.304l0,24.606c0,0 -21.312,12.304 -21.312,12.304l-21.312,-12.304l0,-24.606Z" style="fill-rule:nonzero;"/>
        <path d="M1495.32,845.749l21.312,-12.303l21.3,12.303l-0,24.606l-21.3,12.303c0,0 -21.312,-12.303 -21.312,-12.303l0,-24.606Z" style="fill-rule:nonzero;"/>
        <path d="M1608.33,806.602l21.312,-12.304l21.299,12.303l0,24.608c0,-0 -21.299,12.303 -21.299,12.303c-0,-0 -21.312,-12.304 -21.312,-12.304l-0,-24.606Z" style="fill-rule:nonzero;"/>
        <path d="M1540.52,845.749l21.312,-12.303l21.312,12.303l0,24.606l-21.312,12.304l-21.312,-12.304l0,-24.606Z" style="fill-rule:nonzero;"/>
        <path d="M1653.52,806.602l21.312,-12.304l21.312,12.304l0,24.606c0,0 -21.312,12.304 -21.312,12.304l-21.312,-12.304l-0,-24.606Z" style="fill-rule:nonzero;"/>
        <path d="M1585.73,845.749l21.312,-12.303l21.312,12.303l0,24.606l-21.312,12.304l-21.312,-12.304l-0,-24.606Z" style="fill-rule:nonzero;"/>
        <path d="M1698.73,806.602l21.312,-12.304l21.312,12.304l-0,24.606c-0,0 -21.312,12.304 -21.312,12.304l-21.312,-12.304l-0,-24.606Z" style="fill-rule:nonzero;"/>
        <path d="M1630.93,845.749l21.299,-12.303c0,-0 21.312,12.303 21.312,12.303l0,24.606l-21.312,12.303l-21.299,-12.303l-0,-24.606Z" style="fill-rule:nonzero;"/>
        <path d="M1676.13,845.749l21.312,-12.303l21.312,12.303l-0,24.606l-21.312,12.304l-21.312,-12.304l-0,-24.606Z" style="fill-rule:nonzero;"/>
        <path d="M1563.12,884.896l21.312,-12.304l21.312,12.304l0,24.606l-21.312,12.303l-21.312,-12.303l0,-24.606Z" style="fill-rule:nonzero;"/>
    </g>
    <g id="ND">
        <path d="M591.259,375.986l21.309,-12.304l21.311,12.304l0,24.605l-21.311,12.304l-21.309,-12.303l-0,-24.606Z" style="fill-rule:nonzero;"/>
    </g>
    <g id="OH">
        <path d="M1359.71,532.573l21.312,-12.303l21.299,12.303l0,24.606l-21.299,12.303c-0,0 -21.312,-12.303 -21.312,-12.303l-0,-24.606Z" style="fill-rule:nonzero;"/>
        <path d="M1404.91,532.573l21.312,-12.303l21.312,12.303l-0,24.606l-21.312,12.303l-21.312,-12.303l-0,-24.606Z" style="fill-rule:nonzero;"/>
        <path d="M1427.51,571.72l21.312,-12.304l21.312,12.304l-0,24.607c-0,-0 -21.312,12.303 -21.312,12.303l-21.312,-12.303l-0,-24.607Z" style="fill-rule:nonzero;"/>
        <path d="M1540.52,532.573l21.312,-12.303l21.312,12.303l0,24.606l-21.312,12.303l-21.312,-12.303l0,-24.606Z" style="fill-rule:nonzero;"/>
        <path d="M1404.91,610.868l21.312,-12.304l21.312,12.304l-0,24.605l-21.312,12.304l-21.312,-12.304l-0,-24.605Z" style="fill-rule:nonzero;"/>
        <path d="M1495.32,610.868l21.312,-12.304l21.3,12.303l-0,24.606l-21.3,12.304c0,-0 -21.312,-12.304 -21.312,-12.304l0,-24.605Z" style="fill-rule:nonzero;"/>
        <path d="M1450.11,532.573l21.313,-12.303l21.312,12.303l-0,24.606l-21.312,12.303l-21.313,-12.303l0,-24.606Z" style="fill-rule:nonzero;"/>
        <path d="M1472.72,571.72l21.312,-12.304l21.312,12.304l0,24.607c0,-0 -21.312,12.303 -21.312,12.303l-21.312,-12.303l0,-24.607Z" style="fill-rule:nonzero;"/>
        <path d="M1450.11,610.868l21.313,-12.304l21.312,12.304l-0,24.605l-21.312,12.304l-21.313,-12.304l0,-24.605Z" style="fill-rule:nonzero;"/>
        <path d="M1382.32,571.72l21.3,-12.304c0,0 21.312,12.304 21.312,12.304l0,24.607c0,-0 -21.312,12.303 -21.312,12.303l-21.3,-12.303l0,-24.607Z" style="fill-rule:nonzero;"/>
        <path d="M1495.32,532.573l21.312,-12.303l21.3,12.303l-0,24.606l-21.3,12.303c0,0 -21.312,-12.303 -21.312,-12.303l0,-24.606Z" style="fill-rule:nonzero;"/>
        <path d="M1427.51,650.014l21.312,-12.303l21.312,12.303l-0,24.606l-21.312,12.303l-21.312,-12.303l-0,-24.606Z" style="fill-rule:nonzero;"/>
        <path d="M1472.72,650.014l21.312,-12.303l21.312,12.303l0,24.606l-21.312,12.303l-21.312,-12.303l0,-24.606Z" style="fill-rule:nonzero;"/>
        <path d="M1517.93,571.72l21.3,-12.304c-0,0 21.312,12.304 21.312,12.304l-0,24.607c-0,-0 -21.312,12.303 -21.312,12.303l-21.3,-12.303l-0,-24.607Z" style="fill-rule:nonzero;"/>
    </g>
    <g id="OK">
        <path d="M726.868,845.749l21.31,-12.303l21.309,12.303l0,24.606l-21.309,12.303l-21.31,-12.303l0,-24.606Z" style="fill-rule:nonzero;"/>
        <path d="M794.673,884.896l21.31,-12.304l21.309,12.304l0,24.606l-21.309,12.303l-21.31,-12.303l0,-24.606Z" style="fill-rule:nonzero;"/>
        <path d="M772.071,845.749l21.311,-12.303l21.309,12.303l0,24.606l-21.309,12.303l-21.311,-12.303l-0,-24.606Z" style="fill-rule:nonzero;"/>
        <path d="M817.275,845.749l21.309,-12.303l21.31,12.303l-0,24.606l-21.31,12.303l-21.309,-12.303l-0,-24.606Z" style="fill-rule:nonzero;"/>
        <path d="M839.876,884.896l21.31,-12.304l21.309,12.304l0,24.606l-21.309,12.303l-21.31,-12.303l-0,-24.606Z" style="fill-rule:nonzero;"/>
    </g>
    <g id="OR">
        <path d="M252.236,571.72l21.31,-12.304l21.311,12.304l-0,24.607l-21.311,12.303l-21.31,-12.303l0,-24.607Z" style="fill-rule:nonzero;"/>
        <path d="M161.831,571.72l21.31,-12.304l21.309,12.304l0,24.607l-21.309,12.303l-21.31,-12.303l-0,-24.607Z" style="fill-rule:nonzero;"/>
        <path d="M184.432,532.573l21.31,-12.303l21.309,12.303l0,24.606l-21.309,12.303l-21.31,-12.303l0,-24.606Z" style="fill-rule:nonzero;"/>
        <path d="M229.635,532.573l21.309,-12.303l21.31,12.303l0,24.606l-21.309,12.303l-21.31,-12.303l-0,-24.606Z" style="fill-rule:nonzero;"/>
        <path d="M207.034,571.72l21.309,-12.304l21.31,12.304l-0,24.607l-21.31,12.303l-21.309,-12.303l-0,-24.607Z" style="fill-rule:nonzero;"/>
        <path d="M139.23,532.573l21.309,-12.303l21.31,12.303l-0,24.606l-21.31,12.303l-21.309,-12.303l-0,-24.606Z" style="fill-rule:nonzero;"/>
    </g>
    <g id="PA">
        <path d="M1584.76,375.385l21.312,-12.303l21.312,12.303l0,24.606l-21.312,12.303l-21.312,-12.303l0,-24.606Z" style="fill-rule:nonzero;"/>
        <path d="M1471.75,414.532l21.312,-12.304l21.312,12.304l-0,24.607c-0,-0 -21.312,12.303 -21.312,12.303l-21.312,-12.303l-0,-24.607Z" style="fill-rule:nonzero;"/>
        <path d="M1449.15,453.68l21.312,-12.304l21.312,12.304l-0,24.605l-21.312,12.304l-21.312,-12.304l-0,-24.605Z" style="fill-rule:nonzero;"/>
        <path d="M1403.95,453.68l21.312,-12.304l21.299,12.303l0,24.606l-21.3,12.304c0,-0 -21.311,-12.304 -21.311,-12.304l-0,-24.605Z" style="fill-rule:nonzero;"/>
        <path d="M1449.15,375.385l21.312,-12.303l21.312,12.303l-0,24.606l-21.312,12.303l-21.312,-12.303l-0,-24.606Z" style="fill-rule:nonzero;"/>
        <path d="M1516.96,414.532l21.312,-12.304l21.312,12.304l0,24.607c0,-0 -21.312,12.303 -21.312,12.303l-21.312,-12.303l0,-24.607Z" style="fill-rule:nonzero;"/>
        <path d="M1494.35,453.68l21.312,-12.304l21.313,12.304l-0,24.605l-21.312,12.304l-21.313,-12.304l0,-24.605Z" style="fill-rule:nonzero;"/>
        <path d="M1494.35,375.385l21.312,-12.303l21.313,12.303l-0,24.606l-21.312,12.303l-21.313,-12.303l0,-24.606Z" style="fill-rule:nonzero;"/>
        <path d="M1562.17,414.532l21.3,-12.304c-0,0 21.312,12.304 21.312,12.304l-0,24.607c-0,-0 -21.312,12.303 -21.312,12.303l-21.3,-12.303l-0,-24.607Z" style="fill-rule:nonzero;"/>
        <path d="M1539.56,453.68l21.312,-12.304l21.3,12.303l-0,24.606l-21.3,12.304c-0,-0 -21.312,-12.304 -21.312,-12.304l0,-24.605Z" style="fill-rule:nonzero;"/>
        <path d="M1539.56,375.385l21.312,-12.303l21.3,12.303l-0,24.606l-21.3,12.303c-0,0 -21.312,-12.303 -21.312,-12.303l0,-24.606Z" style="fill-rule:nonzero;"/>
        <path d="M1607.36,414.532l21.312,-12.304l21.312,12.304l0,24.607c0,-0 -21.312,12.303 -21.312,12.303l-21.312,-12.303l0,-24.607Z" style="fill-rule:nonzero;"/>
        <path d="M1584.76,453.68l21.312,-12.304l21.312,12.304l0,24.605l-21.312,12.304l-21.312,-12.304l0,-24.605Z" style="fill-rule:nonzero;"/>
        <path d="M1426.56,414.532l21.3,-12.304c0,0 21.312,12.304 21.312,12.304l0,24.607c0,-0 -21.312,12.303 -21.312,12.303l-21.3,-12.303l0,-24.607Z" style="fill-rule:nonzero;"/>
        <path d="M1629.97,453.68l21.312,-12.304l21.312,12.304l0,24.605l-21.312,12.304l-21.312,-12.304l-0,-24.605Z" style="fill-rule:nonzero;"/>
        <path d="M1403.95,375.385l21.312,-12.303l21.299,12.303l0,24.606l-21.3,12.303c0,0 -21.311,-12.303 -21.311,-12.303l-0,-24.606Z" style="fill-rule:nonzero;"/>
        <path d="M1629.97,375.385l21.312,-12.303l21.312,12.303l0,24.606l-21.312,12.303l-21.312,-12.303l-0,-24.606Z" style="fill-rule:nonzero;"/>
    </g>
    <g id="RI">
        <path d="M2020.95,259.819l21.312,-12.304l21.312,12.304l-0,24.605l-21.312,12.304l-21.312,-12.304l-0,-24.605Z" style="fill-rule:nonzero;"/>
        <path d="M2043.55,298.965l21.312,-12.303l21.312,12.303l-0,24.606l-21.312,12.303l-21.312,-12.303l-0,-24.606Z" style="fill-rule:nonzero;"/>
    </g>
    <g id="SC">
        <path d="M1653.52,1041.48l21.312,-12.3l21.312,12.3l0,24.612l-21.312,12.3l-21.312,-12.3l-0,-24.612Z" style="fill-rule:nonzero;"/>
        <path d="M1630.93,1002.34l21.299,-12.304c0,0 21.312,12.304 21.312,12.304l0,24.607l-21.312,12.299c0,0 -21.299,-12.299 -21.299,-12.299l-0,-24.607Z" style="fill-rule:nonzero;"/>
        <path d="M1608.33,963.19l21.312,-12.303l21.299,12.303l0,24.606l-21.299,12.303c-0,0 -21.312,-12.303 -21.312,-12.303l-0,-24.606Z" style="fill-rule:nonzero;"/>
        <path d="M1563.12,963.19l21.312,-12.303l21.312,12.303l0,24.606l-21.312,12.303l-21.312,-12.303l0,-24.606Z" style="fill-rule:nonzero;"/>
        <path d="M1676.13,1002.34l21.312,-12.304l21.312,12.304l-0,24.607l-21.312,12.3l-21.312,-12.3l-0,-24.607Z" style="fill-rule:nonzero;"/>
        <path d="M1698.73,963.19l21.312,-12.303l21.312,12.303l-0,24.606l-21.312,12.303l-21.312,-12.303l-0,-24.606Z" style="fill-rule:nonzero;"/>
        <path d="M1653.52,963.19l21.312,-12.303l21.312,12.303l0,24.606l-21.312,12.303l-21.312,-12.303l-0,-24.606Z" style="fill-rule:nonzero;"/>
    </g>
    <g id="SD">
        <path d="M591.259,454.279l21.309,-12.304l21.311,12.304l0,24.607l-21.311,12.303l-21.309,-12.303l-0,-24.607Z" style="fill-rule:nonzero;"/>
    </g>
    <g id="TN">
        <path d="M1178.89,924.042l21.313,-12.303l21.312,12.303l-0,24.607c-0,0 -21.312,12.304 -21.312,12.304l-21.313,-12.304l0,-24.607Z" style="fill-rule:nonzero;"/>
        <path d="M1201.5,884.896l21.312,-12.304l21.312,12.304l0,24.606l-21.312,12.303l-21.312,-12.303l0,-24.606Z" style="fill-rule:nonzero;"/>
        <path d="M1246.7,884.896l21.312,-12.303l21.3,12.303l-0,24.606l-21.3,12.303c-0,-0 -21.312,-12.303 -21.312,-12.303l-0,-24.606Z" style="fill-rule:nonzero;"/>
        <path d="M1224.1,924.042l21.312,-12.303l21.312,12.303l0,24.607c0,0 -21.312,12.304 -21.312,12.304l-21.312,-12.304l0,-24.607Z" style="fill-rule:nonzero;"/>
        <path d="M1291.9,884.896l21.312,-12.304l21.312,12.304l0,24.606l-21.312,12.303l-21.312,-12.303l0,-24.606Z" style="fill-rule:nonzero;"/>
        <path d="M1269.31,924.042l21.3,-12.303c-0,0 21.311,12.303 21.311,12.303l0,24.607c0,0 -21.311,12.304 -21.311,12.304l-21.3,-12.303l-0,-24.608Z" style="fill-rule:nonzero;"/>
        <path d="M1337.11,884.896l21.312,-12.304l21.312,12.304l-0,24.606l-21.312,12.303l-21.312,-12.303l-0,-24.606Z" style="fill-rule:nonzero;"/>
        <path d="M1269.31,924.042l21.3,-12.303c-0,0 21.311,12.303 21.311,12.303l0,24.607c0,0 -21.311,12.304 -21.311,12.304l-21.3,-12.303l-0,-24.608Z" style="fill-rule:nonzero;"/>
        <path d="M1382.32,884.896l21.3,-12.303c0,-0 21.312,12.303 21.312,12.303l0,24.606l-21.312,12.303l-21.3,-12.303l0,-24.606Z" style="fill-rule:nonzero;"/>
    </g>
    <g id="TX">
        <path d="M772.071,1158.93l21.311,-12.312l21.309,12.312c0,-0 0,24.6 0,24.6l-21.31,12.311l-21.31,-12.311c-0,-0 -0,-24.6 -0,-24.6Z" style="fill-rule:nonzero;"/>
        <path d="M659.064,1119.78l21.31,-12.3c-0,0 21.309,12.3 21.309,12.3l0,24.6l-21.309,12.311l-21.31,-12.311c0,-0 0,-24.6 0,-24.6Z" style="fill-rule:nonzero;"/>
        <path d="M681.665,1002.34l21.31,-12.304l21.309,12.304l0,24.607l-21.309,12.299c-0,0.001 -21.31,-12.299 -21.31,-12.299l0,-24.607Z" style="fill-rule:nonzero;"/>
        <path d="M726.868,924.042l21.31,-12.303l21.309,12.303l0,24.607l-21.309,12.304l-21.31,-12.304l0,-24.607Z" style="fill-rule:nonzero;"/>
        <path d="M659.064,1041.48l21.31,-12.3c-0,0 21.309,12.3 21.309,12.3l0,24.612l-21.309,12.3c-0,-0 -21.31,-12.3 -21.31,-12.3l0,-24.612Z" style="fill-rule:nonzero;"/>
        <path d="M726.868,1002.34l21.31,-12.304l21.309,12.304l0,24.607l-21.309,12.299c-0,0.001 -21.31,-12.299 -21.31,-12.299l0,-24.607Z" style="fill-rule:nonzero;"/>
        <path d="M749.469,1041.48l21.31,-12.3l21.311,12.3l-0,24.612l-21.311,12.3l-21.31,-12.3l0,-24.612Z" style="fill-rule:nonzero;"/>
        <path d="M726.868,1080.63l21.31,-12.3c-0,0 21.309,12.3 21.309,12.3l0,24.612l-21.309,12.3c-0,-0 -21.31,-12.3 -21.31,-12.3l0,-24.612Z" style="fill-rule:nonzero;"/>
        <path d="M817.275,1237.21l21.309,-12.3c0,-0 21.31,12.3 21.31,12.3l-0,24.611l-21.31,12.3c0,0 -21.309,-12.3 -21.309,-12.3l-0,-24.611Z" style="fill-rule:nonzero;"/>
        <path d="M749.469,963.19l21.31,-12.303l21.311,12.303l-0,24.606l-21.311,12.303l-21.31,-12.303l0,-24.606Z" style="fill-rule:nonzero;"/>
        <path d="M772.071,1002.34l21.311,-12.304l21.309,12.304l0,24.607l-21.31,12.3l-21.31,-12.3l-0,-24.607Z" style="fill-rule:nonzero;"/>
        <path d="M794.673,1041.48l21.31,-12.3c-0,0 21.309,12.3 21.309,12.3l0,24.612l-21.309,12.3c-0,-0 -21.31,-12.3 -21.31,-12.3l0,-24.612Z" style="fill-rule:nonzero;"/>
        <path d="M772.071,1080.63l21.311,-12.3l21.309,12.3l0,24.612l-21.31,12.3l-21.31,-12.3l-0,-24.612Z" style="fill-rule:nonzero;"/>
        <path d="M794.673,1119.78l21.31,-12.3c-0,0 21.309,12.3 21.309,12.3l0,24.6l-21.309,12.311l-21.31,-12.311c0,-0 0,-24.6 0,-24.6Z" style="fill-rule:nonzero;"/>
        <path d="M817.275,1002.34l21.309,-12.304l21.31,12.304l-0,24.607l-21.31,12.299c0,0.001 -21.309,-12.299 -21.309,-12.299l-0,-24.607Z" style="fill-rule:nonzero;"/>
        <path d="M839.876,1041.48l21.31,-12.3c-0,0 21.309,12.3 21.309,12.3l0,24.612l-21.309,12.3c-0,-0 -21.31,-12.3 -21.31,-12.3l-0,-24.612Z" style="fill-rule:nonzero;"/>
        <path d="M817.275,1080.63l21.309,-12.3c0,0 21.31,12.3 21.31,12.3l-0,24.612l-21.31,12.3c0,-0 -21.309,-12.3 -21.309,-12.3l-0,-24.612Z" style="fill-rule:nonzero;"/>
        <path d="M839.876,1119.78l21.31,-12.3c-0,0 21.309,12.3 21.309,12.3l0,24.6l-21.309,12.311l-21.31,-12.311c-0,-0 -0,-24.6 -0,-24.6Z" style="fill-rule:nonzero;"/>
        <path d="M817.275,1158.93l21.309,-12.312l21.31,12.312c-0,-0 -0,24.6 -0,24.6l-21.31,12.311l-21.309,-12.311c-0,-0 -0,-24.6 -0,-24.6Z" style="fill-rule:nonzero;"/>
        <path d="M839.876,1198.08l21.31,-12.312l21.309,12.312c0,-0 0,24.599 0,24.599l-21.309,12.3c-0,0 -21.31,-12.3 -21.31,-12.3l-0,-24.599Z" style="fill-rule:nonzero;"/>
        <path d="M681.665,924.042l21.31,-12.303l21.309,12.303l0,24.607l-21.309,12.304l-21.31,-12.304l0,-24.607Z" style="fill-rule:nonzero;"/>
        <path d="M704.267,1119.78l21.309,-12.3c0,0 21.31,12.3 21.31,12.3l-0,24.6l-21.31,12.311l-21.309,-12.311c-0,-0 -0,-24.6 -0,-24.6Z" style="fill-rule:nonzero;"/>
        <path d="M862.477,1080.63l21.31,-12.3c-0,0 21.309,12.3 21.309,12.3l0,24.612l-21.309,12.3c-0,-0 -21.31,-12.3 -21.31,-12.3l0,-24.612Z" style="fill-rule:nonzero;"/>
        <path d="M907.68,1080.63l21.31,-12.3l21.31,12.3l0,24.612l-21.31,12.3l-21.31,-12.3l-0,-24.612Z" style="fill-rule:nonzero;"/>
        <path d="M862.477,1158.93l21.31,-12.312l21.309,12.312c0,-0 0,24.6 0,24.6l-21.309,12.311l-21.31,-12.311c0,-0 0,-24.6 0,-24.6Z" style="fill-rule:nonzero;"/>
        <path d="M862.477,1002.34l21.31,-12.304l21.309,12.304l0,24.607l-21.309,12.299c-0,0.001 -21.31,-12.299 -21.31,-12.299l0,-24.607Z" style="fill-rule:nonzero;"/>
        <path d="M794.673,1198.08l21.31,-12.312l21.309,12.312c0,-0 0,24.599 0,24.599l-21.309,12.3c-0,0 -21.31,-12.3 -21.31,-12.3l0,-24.599Z" style="fill-rule:nonzero;"/>
        <path d="M885.079,1119.78l21.309,-12.3c0,0 21.31,12.3 21.31,12.3l-0,24.6l-21.31,12.311l-21.309,-12.311c-0,-0 -0,-24.6 -0,-24.6Z" style="fill-rule:nonzero;"/>
        <path d="M749.469,1119.78l21.31,-12.3l21.311,12.3l-0,24.6l-21.311,12.311l-21.31,-12.311c0,-0 0,-24.6 0,-24.6Z" style="fill-rule:nonzero;"/>
        <path d="M704.267,963.19l21.309,-12.303l21.31,12.303l-0,24.606l-21.31,12.303l-21.309,-12.303l-0,-24.606Z" style="fill-rule:nonzero;"/>
        <path d="M885.079,1041.48l21.309,-12.3c0,0 21.31,12.3 21.31,12.3l-0,24.612l-21.31,12.3c0,-0 -21.309,-12.3 -21.309,-12.3l-0,-24.612Z" style="fill-rule:nonzero;"/>
        <path d="M636.463,1080.63l21.309,-12.3c0,0 21.31,12.3 21.31,12.3l-0,24.612l-21.31,12.3c0,-0 -21.309,-12.3 -21.309,-12.3l-0,-24.612Z" style="fill-rule:nonzero;"/>
        <path d="M704.267,1041.48l21.309,-12.3c0,0 21.31,12.3 21.31,12.3l-0,24.612l-21.31,12.3c0,-0 -21.309,-12.3 -21.309,-12.3l-0,-24.612Z" style="fill-rule:nonzero;"/>
        <path d="M681.665,1080.63l21.31,-12.3c-0,0 21.309,12.3 21.309,12.3l0,24.612l-21.309,12.3c-0,-0 -21.31,-12.3 -21.31,-12.3l0,-24.612Z" style="fill-rule:nonzero;"/>
        <path d="M907.68,1002.34l21.31,-12.304l21.31,12.304l0,24.607c0,-0 -21.31,12.3 -21.31,12.3l-21.31,-12.3l-0,-24.607Z" style="fill-rule:nonzero;"/>
        <path d="M930.281,1041.48l21.311,-12.3l21.31,12.3l-0,24.612l-21.31,12.3l-21.311,-12.3l0,-24.612Z" style="fill-rule:nonzero;"/>
        <path d="M613.86,1041.48l21.311,-12.3l21.309,12.3l0,24.612l-21.309,12.3l-21.311,-12.3l0,-24.612Z" style="fill-rule:nonzero;"/>
        <path d="M726.868,1158.93l21.31,-12.312l21.309,12.312c0,-0 0,24.6 0,24.6l-21.309,12.311l-21.31,-12.311c0,-0 0,-24.6 0,-24.6Z" style="fill-rule:nonzero;"/>
    </g>
    <g id="UT">
        <path d="M523.455,806.602l21.309,-12.304l21.31,12.304l-0,24.607l-21.31,12.303l-21.309,-12.303l-0,-24.607Z" style="fill-rule:nonzero;"/>
        <path d="M500.853,845.749l21.31,-12.303l21.31,12.303l-0,24.606l-21.31,12.303l-21.31,-12.303l0,-24.606Z" style="fill-rule:nonzero;"/>
        <path d="M478.252,806.602l21.31,-12.304l21.309,12.304l0,24.607l-21.309,12.303l-21.31,-12.303l0,-24.607Z" style="fill-rule:nonzero;"/>
        <path d="M500.853,767.455l21.31,-12.303l21.31,12.303l-0,24.606l-21.31,12.303l-21.31,-12.303l0,-24.606Z" style="fill-rule:nonzero;"/>
    </g>
    <g id="VT">
        <path d="M1782.8,89.536l21.312,-12.303l21.312,12.303l-0,24.606l-21.312,12.304l-21.312,-12.304l-0,-24.606Z" style="fill-rule:nonzero;"/>
    </g>
    <g id="VA">
        <path d="M1517.93,728.308l21.3,-12.303c-0,0 21.312,12.304 21.312,12.304l-0,24.605l-21.312,12.304l-21.3,-12.304l-0,-24.606Z" style="fill-rule:nonzero;"/>
        <path d="M1698.73,650.014l21.312,-12.303l21.312,12.303l-0,24.606l-21.312,12.303l-21.312,-12.303l-0,-24.606Z" style="fill-rule:nonzero;"/>
        <path d="M1563.12,728.309l21.312,-12.304l21.312,12.304l0,24.605l-21.312,12.304l-21.312,-12.304l0,-24.605Z" style="fill-rule:nonzero;"/>
        <path d="M1653.52,650.014l21.312,-12.303l21.312,12.303l0,24.606l-21.312,12.303l-21.312,-12.303l-0,-24.606Z" style="fill-rule:nonzero;"/>
        <path d="M1630.93,689.161l21.299,-12.304c0,0 21.312,12.304 21.312,12.304l0,24.607c0,-0 -21.312,12.303 -21.312,12.303l-21.299,-12.303l-0,-24.607Z" style="fill-rule:nonzero;"/>
        <path d="M1608.33,728.309l21.312,-12.304l21.299,12.303l0,24.606l-21.299,12.304c-0,-0 -21.312,-12.304 -21.312,-12.304l-0,-24.605Z" style="fill-rule:nonzero;"/>
        <path d="M1676.13,689.161l21.312,-12.304l21.312,12.304l-0,24.607c-0,-0 -21.312,12.303 -21.312,12.303l-21.312,-12.303l-0,-24.607Z" style="fill-rule:nonzero;"/>
        <path d="M1653.52,728.309l21.312,-12.304l21.312,12.304l0,24.605l-21.312,12.304l-21.312,-12.304l-0,-24.605Z" style="fill-rule:nonzero;"/>
        <path d="M1698.73,728.309l21.312,-12.304l21.312,12.304l-0,24.605l-21.312,12.304l-21.312,-12.304l-0,-24.605Z" style="fill-rule:nonzero;"/>
        <path d="M1743.94,728.309l21.312,-12.304l21.3,12.303l-0,24.606l-21.3,12.304c0,-0 -21.312,-12.304 -21.312,-12.304l0,-24.605Z" style="fill-rule:nonzero;"/>
        <path d="M1721.34,689.161l21.313,-12.304l21.312,12.304l-0,24.607c-0,-0 -21.312,12.303 -21.312,12.303l-21.313,-12.303l0,-24.607Z" style="fill-rule:nonzero;"/>
    </g>
    <g id="WA">
        <path d="M207.034,415.132l21.309,-12.303l21.31,12.303l-0,24.606l-21.31,12.303l-21.309,-12.303l-0,-24.606Z" style="fill-rule:nonzero;"/>
        <path d="M229.635,375.986l21.309,-12.304l21.31,12.304l0,24.606l-21.309,12.303l-21.31,-12.303l-0,-24.606Z" style="fill-rule:nonzero;"/>
        <path d="M252.236,415.132l21.31,-12.303l21.311,12.303l-0,24.606l-21.311,12.304l-21.31,-12.304l0,-24.606Z" style="fill-rule:nonzero;"/>
        <path d="M229.635,454.279l21.309,-12.304l21.31,12.304l0,24.607l-21.309,12.303l-21.31,-12.303l-0,-24.607Z" style="fill-rule:nonzero;"/>
        <path d="M297.44,415.132l21.31,-12.303l21.309,12.303l0,24.606l-21.309,12.303l-21.31,-12.303l0,-24.606Z" style="fill-rule:nonzero;"/>
        <path d="M274.838,454.279l21.31,-12.304l21.31,12.304l-0,24.607l-21.31,12.303l-21.31,-12.303l-0,-24.607Z" style="fill-rule:nonzero;"/>
        <path d="M161.831,415.132l21.31,-12.303l21.309,12.303l0,24.606l-21.309,12.303l-21.31,-12.303l-0,-24.606Z" style="fill-rule:nonzero;"/>
        <path d="M139.23,375.986l21.309,-12.304l21.31,12.304l-0,24.606l-21.31,12.303l-21.309,-12.303l-0,-24.606Z" style="fill-rule:nonzero;"/>
        <path d="M274.838,375.986l21.31,-12.304l21.31,12.304l-0,24.606l-21.31,12.303l-21.31,-12.304l-0,-24.605Z" style="fill-rule:nonzero;"/>
        <path d="M184.432,454.279l21.31,-12.304l21.309,12.304l0,24.607l-21.309,12.303l-21.31,-12.303l0,-24.607Z" style="fill-rule:nonzero;"/>
    </g>
    <g id="WV">
        <path d="M1563.12,650.014l21.312,-12.303l21.312,12.303l0,24.606l-21.312,12.303l-21.312,-12.303l0,-24.606Z" style="fill-rule:nonzero;"/>
        <path d="M1585.73,610.868l21.312,-12.304l21.312,12.304l0,24.605l-21.312,12.304l-21.312,-12.304l-0,-24.605Z" style="fill-rule:nonzero;"/>
    </g>
    <g id="WI">
        <path d="M1065.89,415.132l21.309,-12.303l21.311,12.303l-0,24.606l-21.311,12.304l-21.309,-12.304l-0,-24.606Z" style="fill-rule:nonzero;"/>
        <path d="M1020.69,415.132l21.309,-12.303l21.31,12.303l0,24.606l-21.31,12.303l-21.309,-12.303l-0,-24.606Z" style="fill-rule:nonzero;"/>
        <path d="M1088.49,454.279l21.311,-12.304l21.309,12.304l0,24.607l-21.309,12.303l-21.311,-12.303l-0,-24.607Z" style="fill-rule:nonzero;"/>
        <path d="M1111.09,493.427l21.31,-12.304l21.315,12.304l-0,24.605c-0,0 -21.315,12.304 -21.315,12.304l-21.31,-12.304c0,0 0,-24.605 0,-24.605Z" style="fill-rule:nonzero;"/>
        <path d="M1133.7,454.279l21.314,-12.303l21.3,12.303l-0,24.607c-0,0 -21.3,12.303 -21.3,12.303l-21.314,-12.303l-0,-24.607Z" style="fill-rule:nonzero;"/>
        <path d="M1088.49,532.573l21.311,-12.303l21.309,12.303l0,24.606l-21.309,12.303l-21.311,-12.303l-0,-24.606Z" style="fill-rule:nonzero;"/>
        <path d="M1043.29,454.279l21.31,-12.304l21.309,12.304l0,24.607l-21.309,12.303l-21.31,-12.303l0,-24.607Z" style="fill-rule:nonzero;"/>
        <path d="M1065.89,493.427l21.309,-12.304l21.311,12.304l-0,24.605l-21.311,12.304l-21.309,-12.304l-0,-24.605Z" style="fill-rule:nonzero;"/>
    </g>
    <g id="WY">
        <path d="M500.853,454.279l21.31,-12.304l21.31,12.304l-0,24.607l-21.31,12.303l-21.31,-12.303l0,-24.607Z" style="fill-rule:nonzero;"/>
    </g>
    <g id="CA">
        <path d="M139.23,924.042l21.309,-12.303l21.31,12.303l-0,24.607l-21.31,12.304l-21.309,-12.304l-0,-24.607Z" style="fill-rule:nonzero;"/>
        <path d="M274.838,845.749l21.31,-12.303l21.31,12.303l-0,24.606l-21.31,12.303l-21.31,-12.303l-0,-24.606Z" style="fill-rule:nonzero;"/>
        <path d="M229.635,924.042l21.309,-12.303l21.31,12.303l0,24.607l-21.309,12.304l-21.31,-12.304l-0,-24.607Z" style="fill-rule:nonzero;"/>
        <path d="M161.831,650.014l21.31,-12.303l21.309,12.303l0,24.606l-21.309,12.303l-21.31,-12.303l-0,-24.606Z" style="fill-rule:nonzero;"/>
        <path d="M207.034,1041.48l21.309,-12.3c0,0 21.31,12.3 21.31,12.3l-0,24.612l-21.31,12.3c0,-0 -21.309,-12.3 -21.309,-12.3l-0,-24.612Z" style="fill-rule:nonzero;"/>
        <path d="M116.627,806.602l21.311,-12.304l21.309,12.304l0,24.607l-21.309,12.303l-21.311,-12.304l0,-24.606Z" style="fill-rule:nonzero;"/>
        <path d="M161.831,963.19l21.31,-12.303l21.309,12.303l0,24.606l-21.309,12.303l-21.31,-12.303l-0,-24.606Z" style="fill-rule:nonzero;"/>
        <path d="M229.635,1002.34l21.309,-12.304l21.31,12.304l0,24.607l-21.309,12.299c-0,0.001 -21.31,-12.299 -21.31,-12.299l-0,-24.607Z" style="fill-rule:nonzero;"/>
        <path d="M252.236,884.896l21.31,-12.304l21.311,12.304l-0,24.606l-21.311,12.303l-21.31,-12.303l0,-24.606Z" style="fill-rule:nonzero;"/>
        <path d="M274.838,924.042l21.31,-12.303l21.31,12.303l-0,24.607l-21.31,12.304l-21.31,-12.304l-0,-24.607Z" style="fill-rule:nonzero;"/>
        <path d="M252.236,963.19l21.31,-12.303l21.311,12.303l-0,24.606l-21.311,12.303l-21.31,-12.303l0,-24.606Z" style="fill-rule:nonzero;"/>
        <path d="M274.838,1002.34l21.31,-12.304l21.31,12.304l-0,24.607l-21.31,12.3l-21.31,-12.3l-0,-24.607Z" style="fill-rule:nonzero;"/>
        <path d="M207.034,650.014l21.309,-12.303l21.31,12.303l-0,24.606l-21.31,12.303l-21.309,-12.303l-0,-24.606Z" style="fill-rule:nonzero;"/>
        <path d="M139.23,845.749l21.309,-12.303l21.31,12.303l-0,24.606l-21.31,12.303l-21.309,-12.303l-0,-24.606Z" style="fill-rule:nonzero;"/>
        <path d="M161.831,884.896l21.31,-12.304l21.309,12.304l0,24.606l-21.309,12.303l-21.31,-12.303l-0,-24.606Z" style="fill-rule:nonzero;"/>
        <path d="M184.432,924.042l21.31,-12.303l21.309,12.303l0,24.607l-21.309,12.304l-21.31,-12.304l0,-24.607Z" style="fill-rule:nonzero;"/>
        <path d="M297.44,884.896l21.31,-12.304l21.309,12.304l0,24.606l-21.309,12.303l-21.31,-12.303l0,-24.606Z" style="fill-rule:nonzero;"/>
        <path d="M320.042,924.042l21.309,-12.303l21.31,12.303l-0,24.607l-21.31,12.304l-21.309,-12.304l-0,-24.607Z" style="fill-rule:nonzero;"/>
        <path d="M297.44,963.19l21.31,-12.303l21.309,12.303l0,24.606l-21.309,12.303l-21.31,-12.303l0,-24.606Z" style="fill-rule:nonzero;"/>
        <path d="M320.042,1002.34l21.309,-12.304l21.31,12.304l-0,24.607l-21.31,12.299c0,0.001 -21.309,-12.299 -21.309,-12.299l-0,-24.607Z" style="fill-rule:nonzero;"/>
        <path d="M207.034,963.19l21.309,-12.303l21.31,12.303l-0,24.606l-21.31,12.303l-21.309,-12.303l-0,-24.606Z" style="fill-rule:nonzero;"/>
        <path d="M342.643,1119.78l21.309,-12.3c0,0 21.31,12.3 21.31,12.3l-0,24.6l-21.31,12.311l-21.309,-12.311c-0,-0 -0,-24.6 -0,-24.6Z" style="fill-rule:nonzero;"/>
        <path d="M387.846,1119.78l21.309,-12.3c0,0 21.31,12.3 21.31,12.3l-0,24.6l-21.31,12.311l-21.309,-12.311c-0,-0 -0,-24.6 -0,-24.6Z" style="fill-rule:nonzero;"/>
        <path d="M184.432,845.749l21.31,-12.303l21.309,12.303l0,24.606l-21.309,12.303l-21.31,-12.303l0,-24.606Z" style="fill-rule:nonzero;"/>
        <path d="M252.236,1041.48l21.31,-12.3l21.311,12.3l-0,24.612l-21.311,12.3l-21.31,-12.3l0,-24.612Z" style="fill-rule:nonzero;"/>
        <path d="M139.23,689.161l21.309,-12.304l21.31,12.304l-0,24.607l-21.31,12.303l-21.309,-12.303l-0,-24.607Z" style="fill-rule:nonzero;"/>
        <path d="M342.643,963.19l21.309,-12.303l21.31,12.303l-0,24.606l-21.31,12.303l-21.309,-12.303l-0,-24.606Z" style="fill-rule:nonzero;"/>
        <path d="M365.244,1002.34l21.31,-12.304l21.309,12.304l0,24.607l-21.309,12.299c-0,0.001 -21.31,-12.299 -21.31,-12.299l0,-24.607Z" style="fill-rule:nonzero;"/>
        <path d="M342.643,1041.48l21.309,-12.3c0,0 21.31,12.3 21.31,12.3l-0,24.612l-21.31,12.3c0,-0 -21.309,-12.3 -21.309,-12.3l-0,-24.612Z" style="fill-rule:nonzero;"/>
        <path d="M274.838,1080.63l21.31,-12.3l21.31,12.3l-0,24.612l-21.31,12.3l-21.31,-12.3l-0,-24.612Z" style="fill-rule:nonzero;"/>
        <path d="M139.23,767.455l21.309,-12.303l21.31,12.303l-0,24.606l-21.31,12.303l-21.309,-12.303l-0,-24.606Z" style="fill-rule:nonzero;"/>
        <path d="M207.034,806.602l21.309,-12.304l21.31,12.304l-0,24.607l-21.31,12.303l-21.309,-12.303l-0,-24.607Z" style="fill-rule:nonzero;"/>
        <path d="M252.236,728.308l21.31,-12.303l21.311,12.304l-0,24.605l-21.311,12.304l-21.31,-12.304l0,-24.606Z" style="fill-rule:nonzero;"/>
        <path d="M410.447,1080.63l21.309,-12.3c0,0 21.31,12.3 21.31,12.3l-0,24.612l-21.31,12.3c0,-0 -21.309,-12.3 -21.309,-12.3l-0,-24.612Z" style="fill-rule:nonzero;"/>
        <path d="M207.034,728.308l21.309,-12.303l21.31,12.303l-0,24.606l-21.31,12.304l-21.309,-12.304l-0,-24.606Z" style="fill-rule:nonzero;"/>
        <path d="M184.432,767.455l21.31,-12.303l21.309,12.303l0,24.606l-21.309,12.303l-21.31,-12.303l0,-24.606Z" style="fill-rule:nonzero;"/>
        <path d="M116.627,650.014l21.311,-12.303l21.309,12.303l0,24.606l-21.309,12.303l-21.311,-12.303l0,-24.606Z" style="fill-rule:nonzero;"/>
        <path d="M387.846,1041.48l21.309,-12.3c0,0 21.31,12.3 21.31,12.3l-0,24.612l-21.31,12.3c0,-0 -21.309,-12.3 -21.309,-12.3l-0,-24.612Z" style="fill-rule:nonzero;"/>
        <path d="M252.236,806.602l21.31,-12.304l21.311,12.304l-0,24.606l-21.311,12.304l-21.31,-12.303l0,-24.607Z" style="fill-rule:nonzero;"/>
        <path d="M297.44,1041.48l21.31,-12.3c-0,0 21.309,12.3 21.309,12.3l0,24.612l-21.309,12.3c-0,-0 -21.31,-12.3 -21.31,-12.3l0,-24.612Z" style="fill-rule:nonzero;"/>
        <path d="M161.831,728.308l21.31,-12.303l21.309,12.303l0,24.606l-21.309,12.304l-21.31,-12.304l-0,-24.606Z" style="fill-rule:nonzero;"/>
        <path d="M161.831,806.602l21.31,-12.304l21.309,12.304l0,24.607l-21.309,12.303l-21.31,-12.303l-0,-24.607Z" style="fill-rule:nonzero;"/>
        <path d="M252.236,650.014l21.31,-12.303l21.311,12.303l-0,24.606l-21.311,12.303l-21.31,-12.303l0,-24.606Z" style="fill-rule:nonzero;"/>
        <path d="M320.042,1080.63l21.309,-12.3c0,0 21.31,12.3 21.31,12.3l-0,24.612l-21.31,12.3c0,-0 -21.309,-12.3 -21.309,-12.3l-0,-24.612Z" style="fill-rule:nonzero;"/>
        <path d="M229.635,689.161l21.309,-12.304l21.31,12.304l0,24.607l-21.309,12.303l-21.31,-12.303l-0,-24.607Z" style="fill-rule:nonzero;"/>
        <path d="M116.627,728.309l21.311,-12.304l21.309,12.303l0,24.606l-21.309,12.304l-21.311,-12.304l0,-24.605Z" style="fill-rule:nonzero;"/>
        <path d="M184.432,1002.34l21.31,-12.304l21.309,12.304l0,24.607l-21.309,12.299c-0,0.001 -21.31,-12.299 -21.31,-12.299l0,-24.607Z" style="fill-rule:nonzero;"/>
        <path d="M229.635,845.749l21.309,-12.303l21.31,12.303l0,24.606l-21.309,12.303l-21.31,-12.303l-0,-24.606Z" style="fill-rule:nonzero;"/>
        <path d="M207.034,884.896l21.309,-12.304l21.31,12.304l-0,24.606l-21.31,12.303l-21.309,-12.303l-0,-24.606Z" style="fill-rule:nonzero;"/>
        <path d="M184.432,689.161l21.31,-12.304l21.309,12.304l0,24.607l-21.309,12.303l-21.31,-12.303l0,-24.607Z" style="fill-rule:nonzero;"/>
        <path d="M229.635,767.455l21.309,-12.303l21.31,12.303l0,24.606l-21.309,12.303l-21.31,-12.303l-0,-24.606Z" style="fill-rule:nonzero;"/>
        <path d="M365.244,1080.63l21.31,-12.3c-0,0 21.309,12.3 21.309,12.3l0,24.612l-21.309,12.3c-0,-0 -21.31,-12.3 -21.31,-12.3l0,-24.612Z" style="fill-rule:nonzero;"/>
    </g>
    <g id="AK">
        <path d="M407.693,1277.13l21.309,-12.312l21.31,12.312c0,-0 0,24.6 0,24.6l-21.31,12.312l-21.309,-12.312c-0,-0 -0,-24.6 -0,-24.6Z" style="fill-rule:nonzero;"/>
    </g>
    <g id="AZ">
        <path d="M410.447,924.042l21.309,-12.303l21.31,12.303l-0,24.607l-21.31,12.304l-21.309,-12.304l-0,-24.607Z" style="fill-rule:nonzero;"/>
        <path d="M455.65,924.042l21.31,-12.303l21.31,12.303l-0,24.607l-21.31,12.304l-21.31,-12.304l-0,-24.607Z" style="fill-rule:nonzero;"/>
        <path d="M500.853,924.042l21.31,-12.303l21.31,12.303l-0,24.607l-21.31,12.304l-21.31,-12.304l0,-24.607Z" style="fill-rule:nonzero;"/>
        <path d="M478.252,963.19l21.31,-12.303l21.309,12.303l0,24.606l-21.309,12.303l-21.31,-12.303l0,-24.606Z" style="fill-rule:nonzero;"/>
        <path d="M433.048,963.19l21.31,-12.303l21.311,12.303l-0,24.606l-21.311,12.303l-21.31,-12.303l0,-24.606Z" style="fill-rule:nonzero;"/>
        <path d="M546.056,1002.34l21.31,-12.304l21.309,12.304l0,24.607l-21.309,12.299c-0,0.001 -21.31,-12.299 -21.31,-12.299l0,-24.607Z" style="fill-rule:nonzero;"/>
        <path d="M523.455,963.19l21.309,-12.303l21.31,12.303l-0,24.606l-21.31,12.303l-21.309,-12.303l-0,-24.606Z" style="fill-rule:nonzero;"/>
        <path d="M500.853,1002.34l21.31,-12.304l21.31,12.304l-0,24.607l-21.31,12.299c0,0.001 -21.31,-12.299 -21.31,-12.299l0,-24.607Z" style="fill-rule:nonzero;"/>
        <path d="M455.65,1002.34l21.31,-12.304l21.31,12.304l-0,24.607l-21.31,12.3l-21.31,-12.3l-0,-24.607Z" style="fill-rule:nonzero;"/>
    </g>
    <g id="CO">
        <path d="M546.056,689.161l21.31,-12.304l21.309,12.304l0,24.607l-21.309,12.303l-21.31,-12.303l0,-24.607Z" style="fill-rule:nonzero;"/>
        <path d="M433.048,650.014l21.31,-12.303l21.311,12.303l-0,24.606l-21.311,12.303l-21.31,-12.303l0,-24.606Z" style="fill-rule:nonzero;"/>
        <path d="M455.65,689.161l21.31,-12.304l21.31,12.304l-0,24.607l-21.31,12.303l-21.31,-12.303l-0,-24.607Z" style="fill-rule:nonzero;"/>
        <path d="M568.657,650.014l21.31,-12.303l21.31,12.303l-0,24.606l-21.31,12.303l-21.31,-12.303l0,-24.606Z" style="fill-rule:nonzero;"/>
        <path d="M478.252,650.014l21.31,-12.303l21.309,12.303l0,24.606l-21.309,12.303l-21.31,-12.303l0,-24.606Z" style="fill-rule:nonzero;"/>
        <path d="M500.853,689.161l21.31,-12.304l21.31,12.304l-0,24.607l-21.31,12.303l-21.31,-12.303l0,-24.607Z" style="fill-rule:nonzero;"/>
        <path d="M523.455,650.014l21.309,-12.303l21.31,12.303l-0,24.606l-21.31,12.303l-21.309,-12.303l-0,-24.606Z" style="fill-rule:nonzero;"/>
        <path d="M410.447,689.161l21.309,-12.304l21.31,12.304l-0,24.607l-21.31,12.303l-21.309,-12.303l-0,-24.607Z" style="fill-rule:nonzero;"/>
    </g>
    <g id="AR">
        <path d="M998.087,924.042l21.309,-12.303l21.31,12.303l-0,24.607l-21.31,12.304l-21.309,-12.304l-0,-24.607Z" style="fill-rule:nonzero;"/>
        <path d="M1043.29,924.042l21.31,-12.303l21.309,12.303l0,24.607l-21.309,12.304l-21.31,-12.304l0,-24.607Z" style="fill-rule:nonzero;"/>
        <path d="M975.485,963.19l21.31,-12.303l21.309,12.303l0,24.606l-21.309,12.303l-21.31,-12.303l0,-24.606Z" style="fill-rule:nonzero;"/>
        <path d="M1020.69,963.19l21.309,-12.303l21.31,12.303l0,24.606l-21.31,12.303l-21.309,-12.303l-0,-24.606Z" style="fill-rule:nonzero;"/>
    </g>
    <g id="AL">
        <path d="M1269.31,1002.34l21.3,-12.304c-0,0 21.311,12.304 21.311,12.304l0,24.607l-21.311,12.299c-0,0 -21.3,-12.299 -21.3,-12.299l-0,-24.607Z" style="fill-rule:nonzero;"/>
        <path d="M1246.7,1119.78l21.312,-12.3c-0,0 21.3,12.3 21.3,12.3l-0,24.6l-21.3,12.311l-21.312,-12.311l-0,-24.6Z" style="fill-rule:nonzero;"/>
        <path d="M1337.11,1041.48l21.312,-12.3l21.312,12.3l-0,24.612l-21.312,12.3l-21.312,-12.3l-0,-24.612Z" style="fill-rule:nonzero;"/>
        <path d="M1314.5,1080.63l21.312,-12.3l21.312,12.3l0,24.612l-21.312,12.3l-21.312,-12.3l-0,-24.612Z" style="fill-rule:nonzero;"/>
        <path d="M1269.31,1080.63l21.3,-12.3l21.311,12.3l0,24.612l-21.311,12.3c-0,-0 -21.3,-12.3 -21.3,-12.3l-0,-24.612Z" style="fill-rule:nonzero;"/>
        <path d="M1291.9,1041.48l21.312,-12.3l21.312,12.3l0,24.612l-21.312,12.3l-21.312,-12.3l0,-24.612Z" style="fill-rule:nonzero;"/>
        <path d="M1314.5,1002.34l21.312,-12.304l21.312,12.304l0,24.607l-21.312,12.3l-21.312,-12.3l-0,-24.607Z" style="fill-rule:nonzero;"/>
    </g>
    <g id="CT">
        <path d="M1840.14,259.819l21.312,-12.304l21.3,12.303l-0,24.606l-21.3,12.304c0,-0 -21.312,-12.304 -21.312,-12.304l0,-24.605Z" style="fill-rule:nonzero;"/>
        <path d="M1885.34,259.819l21.312,-12.304l21.312,12.304l0,24.605l-21.312,12.304l-21.312,-12.304l0,-24.605Z" style="fill-rule:nonzero;"/>
        <path d="M1862.75,298.965l21.3,-12.303c-0,-0 21.312,12.303 21.312,12.303l-0,24.606l-21.312,12.303l-21.3,-12.303l0,-24.606Z" style="fill-rule:nonzero;"/>
        <path d="M1930.55,259.819l21.312,-12.304l21.312,12.304l0,24.605l-21.312,12.304l-21.312,-12.304l0,-24.605Z" style="fill-rule:nonzero;"/>
        <path d="M1907.94,298.965l21.312,-12.303l21.312,12.303l0,24.606l-21.312,12.303l-21.312,-12.303l0,-24.606Z" style="fill-rule:nonzero;"/>
    </g>
</svg>
