<?xml version="1.0" encoding="UTF-8" standalone="no"?><!DOCTYPE svg PUBLIC "-//W3C//DTD SVG 1.1//EN" "http://www.w3.org/Graphics/SVG/1.1/DTD/svg11.dtd"><svg width="734px" height="463px" version="1.1" xmlns="http://www.w3.org/2000/svg" xmlns:xlink="http://www.w3.org/1999/xlink" xml:space="preserve" xmlns:serif="http://www.serif.com/" style="fill-rule:evenodd;clip-rule:evenodd;stroke-linejoin:round;"><g transform="matrix(1,0,0,1,-304.138,-5.04903)"><path id="HI" d="M484.403,412.15L485.942,409.328L487.739,409.071L487.995,409.713L486.327,412.15L484.403,412.15ZM492.486,409.199L497.361,411.252L499.029,410.996L500.312,407.916L499.799,405.222L496.463,404.837L493.256,406.248L492.486,409.199ZM516.863,417.154L519.814,421.516L521.739,421.26L522.637,420.875L523.792,421.901L526.743,421.773L527.512,420.618L525.203,419.207L523.663,416.256L521.995,413.433L517.377,415.743L516.863,417.154ZM532.901,424.211L533.928,422.671L537.648,423.441L538.162,423.056L543.037,423.569L542.78,424.596L540.728,425.75L537.263,425.494L532.901,424.211ZM537.135,428.317L538.675,431.396L541.113,430.498L541.369,429.215L540.086,427.547L537.135,427.29L537.135,428.317ZM542.652,427.418L544.448,425.109L548.169,427.033L551.633,427.932L555.097,430.113L555.097,431.652L552.275,433.064L548.426,433.834L546.501,432.679L542.652,427.418ZM555.867,439.735L557.15,438.709L559.845,439.992L565.875,442.815L568.569,444.483L569.852,446.407L571.392,449.871L574.599,451.924L574.343,452.951L571.264,455.517L567.928,456.671L566.773,456.158L564.335,457.569L562.411,460.136L560.614,462.445L559.203,462.317L556.381,460.264L556.124,456.671L556.637,454.747L555.354,450.256L553.686,448.845L553.558,446.792L555.354,446.022L557.022,443.585L557.407,442.815L556.124,441.403L555.867,439.735Z" style="fill-rule:nonzero;"/><path id="AK" d="M424.87,360.06L424.614,427.803L425.897,428.573L428.335,428.701L429.489,427.803L431.542,427.803L431.67,430.113L437.187,435.501L437.572,437.554L440.267,436.015L440.78,435.886L441.037,433.449L442.191,432.166L443.089,432.037L444.629,430.883L447.067,432.55L447.58,434.86L449.12,435.758L450.018,437.683L453.097,439.094L455.791,443.841L457.972,446.92L459.769,449.102L460.923,452.052L464.901,453.464L469.006,455.132L469.776,458.596L470.161,461.034L469.391,463.728L467.98,465.524L466.697,464.883L465.542,462.445L463.361,461.29L461.95,460.392L461.308,461.034L462.463,463.215L462.591,466.166L461.693,466.551L460.154,465.011L458.486,463.985L458.871,465.268L459.897,466.679L459.255,467.32C459.255,467.32 458.614,467.064 458.229,466.551C457.844,466.037 456.561,463.856 456.561,463.856L455.791,462.06C455.791,462.06 455.535,463.086 455.021,462.83C454.508,462.573 453.995,461.675 453.995,461.675L455.406,460.136L454.252,458.981L454.252,455.003L453.61,455.003L452.969,457.698L452.071,458.083L451.301,455.132L450.788,452.181L450.146,451.796L450.403,456.286L450.403,457.185L449.248,456.158L446.425,451.411L444.757,451.026L444.244,448.075L442.961,445.766L441.678,444.868L441.678,443.071L443.346,442.045L442.961,441.788L440.908,442.301L438.214,440.377L436.161,438.067L432.312,436.015L429.104,433.962L430.131,431.396L430.131,430.113L428.719,431.396L426.41,432.294L423.459,431.396L418.968,429.471L414.606,429.471L414.093,429.856L408.961,426.777L407.293,426.52L405.112,421.901L402.289,422.158L399.466,423.313L399.851,426.905L400.75,424.596L401.519,424.852L400.365,428.317L402.931,426.135L403.444,427.418L400.365,430.883L399.338,430.626L398.953,429.086L397.927,428.445L396.9,429.343L394.719,427.932L392.282,429.6L390.87,431.267L388.176,432.935L384.455,432.807L384.07,431.139L387.021,430.626L387.021,429.6L385.225,429.086L385.995,427.162L387.791,424.083L387.791,422.671L387.919,422.03L391.383,420.233L392.153,421.26L394.334,421.26L393.308,419.207L390.357,418.95L386.38,421.132L384.455,423.826L383.044,425.879L382.146,427.675L378.81,428.83L376.372,430.883L376.115,432.166L377.912,432.935L378.553,434.603L376.372,437.169L371.24,440.505L365.081,443.841L363.413,444.739L359.179,445.637L354.946,447.434L356.357,448.46L355.202,449.615L354.817,450.513L352.636,449.743L350.07,449.871L349.428,451.668L348.659,451.668L348.915,449.743L346.093,450.769L343.783,451.539L341.089,450.513L338.779,452.052L336.213,452.052L334.545,453.079L333.262,453.72L331.594,453.464L329.542,452.566L327.745,453.079L326.976,453.849L325.693,452.951L325.693,451.411L328.13,450.385L333.134,450.898L336.598,449.615L338.266,447.947L340.576,447.434L341.987,446.792L344.168,446.92L345.451,447.947L346.221,447.69L348.017,445.509L350.455,444.739L353.149,444.226L354.176,443.969L354.689,444.354L355.33,444.354L356.357,441.403L359.564,440.249L361.104,437.298L362.9,433.705L364.183,432.55L364.44,430.498L363.157,431.524L360.463,432.037L359.949,430.113L358.923,429.856L358.153,430.626L358.025,432.935L356.87,432.807L355.715,428.188L354.689,429.215L353.791,428.83L353.534,427.29L350.327,427.418L348.659,428.317L346.606,428.06L347.761,426.905L348.145,424.852L347.632,423.313L348.787,422.543L349.813,422.415L349.3,421.003L349.3,417.539L348.53,416.769L347.889,417.924L343.013,417.924L341.859,416.898L341.345,413.818L339.678,410.996L339.678,410.226L341.345,409.584L341.474,407.916L342.372,407.018L341.73,406.633L340.704,407.018L339.806,404.837L340.576,400.86L344.168,398.294L346.221,397.011L347.761,394.06L349.942,393.033L351.995,393.931L352.251,395.856L354.176,395.599L356.742,393.675L358.025,394.188L358.795,394.701L360.078,394.701L361.874,393.675L362.515,390.211C362.515,390.211 362.772,387.901 363.285,387.516C363.798,387.131 364.055,386.746 364.055,386.746L363.157,385.207L361.104,385.848L358.538,386.49L356.998,386.105L354.176,384.694L350.198,384.565L347.376,381.614L347.761,378.535L348.274,376.611L346.606,375.199L345.066,372.248L345.451,371.607L350.84,371.222L352.508,371.222L353.278,371.992L353.791,371.992L353.662,370.709L356.742,370.195L358.795,370.452L359.949,371.35L358.795,373.018L358.41,374.173L360.591,375.456L364.568,376.867L365.98,376.097L364.183,372.633L363.413,370.067L364.183,369.426L361.489,367.886L361.104,366.988L361.489,365.705L360.847,362.626L358.538,358.905L356.613,355.569L358.923,354.029L361.489,354.029L362.9,354.543L366.236,354.414L369.187,351.592L370.085,349.154L373.036,347.229L374.319,347.999L376.5,347.486L379.451,345.818L380.349,345.69L381.119,346.331L384.712,346.203L386.893,343.765L387.791,343.765L390.614,345.69L392.153,347.358L391.768,348.256L392.282,349.154L393.565,347.871L396.644,348.127L396.9,351.078L398.44,352.233L404.085,352.746L409.089,356.082L410.244,355.312L414.35,357.365L416.018,356.852L417.557,356.21L421.406,357.75L424.87,360.06ZM333.519,383.026L335.187,387.26L335.059,388.03L332.749,387.773L331.338,384.565L329.927,383.411L328.002,383.411L327.874,381.358L329.285,379.433L330.183,381.358L331.338,382.512L333.519,383.026ZM331.466,409.584L334.417,410.226L337.368,410.996L338.01,411.765L336.727,414.716L334.289,414.588L331.594,411.765L331.466,409.584ZM315.043,398.422L315.942,400.475L316.84,401.758L315.942,402.399L314.274,399.962L314.274,398.422L315.043,398.422ZM304.138,456.415L306.832,454.619L309.526,453.849L311.579,454.105L311.964,455.388L313.504,455.773L315.043,454.234L314.787,452.951L316.968,452.437L319.277,454.49L318.379,455.902L314.915,456.8L312.734,456.415L309.783,455.517L306.319,456.671L305.036,456.928L304.138,456.415ZM343.013,452.822L344.296,454.362L345.964,453.079L344.81,452.052L343.013,452.822ZM345.323,455.26L346.221,453.464L347.889,453.72L347.247,455.26L345.323,455.26ZM364.055,453.72L365.21,455.132L365.98,454.234L365.338,452.694L364.055,453.72ZM370.983,443.841L371.881,448.46L374.191,449.102L378.168,446.792L381.632,444.739L380.349,442.815L380.734,440.89L379.066,441.917L376.757,441.275L378.04,440.377L379.58,441.018L382.659,439.607L383.044,438.452L381.119,437.811L381.761,436.271L379.58,437.811L375.859,440.634L372.01,442.943L370.983,443.841ZM404.599,428.06L406.523,426.905L405.753,425.494L404.342,426.264L404.599,428.06Z" style="fill-rule:nonzero;"/><path id="FL" d="M898.934,353.577L900.732,359.385L903.693,367.117L907.927,374.559L910.877,379.562L914.727,383.925L917.934,386.876L919.217,389.185L918.319,390.212L917.677,391.238L919.987,397.14L922.296,399.449L924.349,403.683L927.172,408.302L930.764,414.845L931.791,420.876L932.176,430.37L932.689,431.781L932.432,434.476L930.508,435.502L930.764,437.042L930.251,438.581L930.508,440.506L930.893,442.046L928.711,444.612L926.274,445.766L923.194,445.895L922.04,447.178L920.115,447.947L919.089,447.562L918.191,446.793L917.934,444.483L917.293,441.789L914.598,437.683L911.776,435.887L908.696,435.63L908.055,436.657L905.617,433.193L905.104,430.37L903.051,427.162L901.64,426.264L900.357,427.932L898.945,427.676L897.277,423.698L894.968,420.619L892.659,416.385L890.606,413.947L887.783,410.996L889.451,409.072L892.017,404.71L891.889,403.427L888.296,402.657L887.013,403.17L887.27,403.683L889.323,404.453L888.168,408.045L887.527,408.43L886.115,405.223L885.089,401.374L884.832,399.193L885.987,395.472L885.987,387.902L883.549,384.951L882.523,382.513L878.417,381.487L876.877,380.974L875.594,378.921L872.9,377.638L872.002,374.944L869.821,374.174L867.896,371.223L864.56,370.068L862.251,368.913L860.198,368.913L856.991,369.555L856.862,371.095L857.504,371.864L857.119,372.762L854.681,372.634L851.73,375.457L848.908,376.996L845.828,376.996L843.262,378.023L843.006,375.842L841.723,374.302L839.413,373.404L838.13,372.249L831.715,369.17L825.685,367.759L822.221,368.272L817.474,368.657L812.726,370.325L809.965,370.811L809.776,364.422L807.724,362.883L806.312,361.472L806.569,359.034L814.652,358.007L834.924,355.698L840.312,355.185L844.627,355.407L846.679,358.486L847.834,359.641L854.261,360.05L862.848,359.537L879.922,358.51L884.244,357.975L887.876,357.997L888.005,360.307L891.04,360.948L891.296,357.133L890.013,353.541L890.771,352.959L894.829,353.32L898.934,353.577ZM908.891,458.66L910.816,458.147L911.842,457.955L912.997,456.094L914.857,454.811L915.884,455.196L917.231,455.453L917.551,456.287L914.793,457.249L911.457,458.404L909.597,459.366L908.891,458.66ZM919.604,454.683L920.567,455.517L922.748,453.849L926.982,450.513L929.933,447.434L931.921,442.173L932.691,440.826L932.819,438.132L932.242,438.517L931.472,440.762L930.318,444.419L927.751,448.588L924.287,451.924L921.593,453.464L919.604,454.683Z" style="fill-rule:nonzero;"/><path id="SC" d="M903.564,327.728L902.154,328.498L900.101,327.471L899.588,325.804L898.561,322.981L896.765,321.313L894.712,320.8L893.429,316.951L891.248,312.204L887.912,310.664L886.244,309.124L885.218,307.071L883.55,305.532L881.754,304.505L879.958,302.196L877.52,300.4L873.927,298.988L873.543,297.834L871.618,295.524L871.233,294.37L868.539,290.264L865.844,290.392L862.637,288.468L861.61,287.441L861.354,286.03L861.995,284.49L863.792,283.72L863.535,282.053L868.41,280L875.595,276.407L881.369,275.766L894.456,275.381L896.252,276.92L897.535,279.486L900.999,279.102L911.007,277.947L913.316,278.588L923.324,284.619L931.346,291.064L927.044,295.396L924.991,300.272L924.606,305.276L923.323,305.917L922.425,308.098L920.5,308.611L918.832,311.434L916.651,313.615L914.855,316.31L913.572,316.951L910.749,319.645L908.44,319.774L909.21,322.34L905.232,326.702L903.564,327.728Z" style="fill-rule:nonzero;"/><path id="GA" d="M846.727,284.105L842.878,284.747L836.207,285.645L829.407,286.351L829.407,288.083L829.535,289.751L830.048,292.445L832.742,298.732L834.667,306.558L835.822,311.434L837.105,315.283L838.259,320.8L839.927,325.804L841.98,328.498L842.365,331.192L843.905,331.834L844.033,333.502L842.622,337.351L842.237,339.917L842.108,341.456L843.392,344.921L843.648,349.155L843.007,351.079L843.52,351.721L844.675,352.362L845.188,355.056L847.241,358.136L848.395,359.29L854.682,359.419L863.269,358.905L880.343,357.879L884.665,357.344L888.297,357.366L888.426,359.675L890.478,360.317L890.735,356.853L889.452,353.26L890.35,351.977L894.969,352.619L898.919,352.871L898.304,347.872L900.1,339.917L901.255,336.581L900.87,334.528L903.516,329.573L903.111,328.5L901.593,329.059L899.54,328.033L899.027,326.365L898,323.542L896.204,321.874L894.151,321.361L892.868,317.512L890.547,312.484L887.211,310.944L885.543,309.405L884.517,307.352L882.849,305.812L881.052,304.786L879.256,302.477L876.818,300.68L873.226,299.269L872.841,298.114L870.916,295.805L870.532,294.65L867.837,290.755L865.143,290.883L861.865,288.468L860.839,287.441L860.582,286.03L861.224,284.49L863.09,283.51L862.19,282.54L862.252,282.309L857.633,283.079L852.116,283.72L846.727,284.105Z" style="fill-rule:nonzero;"/><path id="AL" d="M795.919,370.453L794.637,358.392L792.456,343.509L792.584,332.347L793.225,307.713L793.097,294.498L793.228,289.403L799.384,289.109L821.452,287.056L828.533,286.531L828.416,288.263L828.544,289.931L829.057,292.625L831.752,298.912L833.676,306.738L834.831,311.614L836.114,315.463L837.269,320.98L838.937,325.984L840.99,328.678L841.374,331.372L842.914,332.014L843.042,333.682L841.631,337.531L841.246,340.097L841.118,341.637L842.401,345.101L842.657,349.335L842.016,351.259L842.529,351.901L843.684,352.542L844.506,354.554L839.502,354.554L834.113,355.068L813.841,357.377L805.578,358.493L805.502,361.472L806.913,362.883L808.966,364.422L809.427,370.72L805.028,372.762L802.847,372.506L805.028,370.966L805.028,370.196L802.591,365.449L800.794,364.936L799.64,368.4L798.613,370.581L798.1,370.453L795.919,370.453Z" style="fill-rule:nonzero;"/><path id="NC" d="M959.815,236.882L961.172,240.611L963.994,245.744L965.919,247.668L966.432,249.464L964.508,249.593L965.149,250.106L964.893,253.442L962.84,254.468L962.327,256.136L961.3,258.445L958.349,259.728L956.425,259.472L955.27,259.344L953.987,258.317L954.244,259.344L954.244,260.113L955.783,260.113L956.425,261.14L954.885,266.144L958.221,266.144L958.734,267.427L960.53,265.63L961.557,265.245L960.017,268.068L957.579,271.917L956.553,271.917L955.655,271.532L953.474,272.045L949.368,273.97L944.236,278.204L941.542,281.925L940.002,287.057L939.617,288.981L935.896,289.366L931.568,290.427L923.674,283.917L913.667,277.887L911.357,277.245L901.35,278.4L897.956,278.995L896.673,276.429L894.315,274.749L881.229,275.134L875.455,275.776L868.27,279.368L863.395,281.421L862.112,281.678L857.493,282.448L851.976,283.089L846.587,283.474L846.984,280.256L848.395,279.102L850.576,278.588L851.09,275.637L854.426,273.456L857.505,272.302L860.841,269.479L864.305,267.811L864.818,265.373L867.897,262.294L868.41,262.166C868.41,262.166 868.41,263.064 869.052,263.064C869.693,263.064 870.592,263.32 870.592,263.32L872.388,260.498L874.056,259.985L875.852,260.241L877.135,257.419L879.444,255.366L879.829,253.698L879.829,250.554L883.422,251.132L889.085,250.105L901.641,248.566L915.241,246.513L931.052,243.338L946.713,240.032L955.732,237.813L959.815,236.882ZM962.906,263.063L964.959,261.074L967.461,259.022L968.68,258.508L968.808,256.905L968.295,252.029L967.14,250.169L966.627,248.693L967.204,248.501L969.386,252.863L969.706,256.391L969.578,259.086L966.884,260.305L964.638,262.229L963.74,263.191L962.906,263.063Z" style="fill-rule:nonzero;"/><path id="TN" d="M852.629,254.468L811.444,258.445L798.937,259.856L795.269,260.263L792.199,260.241L792.199,263.32L785.527,263.705L780.01,264.219L771.204,264.261L770.994,268.892L769.297,273.872L768.507,276.266L767.437,279.743L767.18,281.796L763.972,283.592L765.127,286.415L764.357,289.879L763.589,290.506L769.348,290.351L788.465,288.812L792.699,288.684L799.114,288.299L821.182,286.246L829.254,285.604L835.936,284.834L842.608,283.936L846.457,283.295L846.354,279.716L847.765,278.561L849.946,278.048L850.459,275.097L853.795,272.916L856.874,271.761L860.21,268.939L863.674,267.271L864.368,264.473L867.807,261.393L868.32,261.265C868.32,261.265 868.32,262.163 868.962,262.163C869.603,262.163 870.502,262.42 870.502,262.42L872.298,259.597L873.966,259.084L875.762,259.341L877.045,256.518L878.724,254.735L879.199,253.968L879.339,250.847L878.161,250.618L876.237,252.158L869.95,252.286L860.43,253.795L852.629,254.468Z" style="fill-rule:nonzero;"/><path id="RI" d="M993.119,142.717L992.736,139.38L992.094,135.916L990.747,131.233L995.302,130.014L996.585,130.912L999.279,134.376L1001.59,137.905L999.278,139.125L998.251,138.996L997.353,140.408L995.428,141.947L993.119,142.717Z" style="fill-rule:nonzero;"/><path id="CT" d="M992.423,142.897L991.925,139.56L991.284,136.096L990.001,131.349L986.706,132.067L969.385,135.852L969.898,138.482L971.053,144.256L971.053,150.671L970.155,152.467L971.609,154.141L975.542,151.442L978.364,148.876L979.904,147.208L980.545,147.721L982.727,146.566L986.832,145.668L992.423,142.897Z" style="fill-rule:nonzero;"/><path id="MA" d="M1013.68,137.977L1015.4,137.433L1015.77,136.072L1016.58,136.163L1017.4,137.977L1016.4,138.34L1013.32,138.431L1013.68,137.977ZM1006.24,138.612L1008.06,136.526L1009.33,136.526L1010.78,137.705L1008.87,138.521L1007.15,139.338L1006.24,138.612ZM978.623,121.161L992.479,117.825L994.275,117.312L995.943,114.746L998.909,113.426L1001.2,116.928L999.278,121.034L999.021,122.189L1000.56,124.242L1001.46,123.6L1002.87,123.6L1004.67,125.653L1007.75,130.4L1010.57,130.785L1012.36,130.015L1013.78,128.604L1013.13,126.423L1011.47,125.14L1010.31,125.781L1009.54,124.755L1009.93,124.37L1011.6,124.242L1013.01,124.883L1014.55,126.808L1015.32,129.117L1015.57,131.042L1012.24,132.196L1009.16,133.736L1006.08,137.328L1004.54,138.483L1004.54,137.713L1006.46,136.559L1006.85,135.147L1006.21,132.709L1003.9,133.864L1003.25,135.019L1003.64,136.815L1002,137.609L999.82,134.016L997.125,130.552L995.482,129.114L990.297,130.603L986.255,131.437L968.934,135.221L968.615,131.297L969.128,122.893L973.234,122.188L978.623,121.161Z" style="fill-rule:nonzero;"/><path id="ME" d="M1032.12,61.374L1033.66,63.042L1035.46,65.992L1035.46,67.532L1033.79,71.253L1032.25,71.766L1029.56,74.204L1025.71,78.566L1024.68,78.566C1024.17,78.566 1023.91,76.898 1023.91,76.898L1022.5,77.026L1021.73,78.181L1019.81,79.336L1019.04,80.491L1020.32,81.645L1019.93,82.159L1019.55,84.34L1018.01,84.211L1018.01,82.928L1017.75,81.902L1016.6,82.159L1015.19,79.592L1013.52,80.619L1014.55,81.774L1014.8,82.672L1014.16,83.698L1014.42,86.136L1014.55,87.419L1013.26,89.472L1010.95,89.857L1010.7,92.166L1006.46,94.604L1005.44,94.989L1004.15,93.834L1001.72,96.657L1002.49,99.223L1001.33,100.249L1001.2,103.713L1000.31,108.681L998.356,107.764L997.971,105.326L994.892,104.428L994.636,102.247L988.862,83.643L985.53,72.818L986.657,72.724L987.859,73.049L987.859,70.996L988.5,66.634L990.553,62.913L991.708,59.706L990.168,57.781L990.168,53.034L990.81,52.264L991.451,50.083L991.323,48.928L991.195,45.079L992.606,41.23L994.915,34.174L996.583,30.838L997.61,30.838L998.636,30.966L998.636,31.864L999.662,33.66L1001.84,34.174L1002.49,33.532L1002.49,32.762L1005.69,30.453L1007.1,29.041L1008.26,29.17L1013.01,31.094L1014.55,31.864L1021.73,55.6L1026.48,55.6L1027.12,57.14L1027.25,60.989L1029.56,62.785L1030.2,62.785L1030.33,62.4L1029.94,61.502L1032.12,61.374ZM1015.51,85.3L1016.73,84.081L1017.82,84.915L1018.27,86.84L1016.92,87.545L1015.51,85.3ZM1020.84,80.617L1022.25,82.093C1022.25,82.093 1023.27,82.157 1023.27,81.9C1023.27,81.644 1023.47,80.296 1023.47,80.296L1024.17,79.655L1023.53,78.244L1021.93,78.821L1020.84,80.617Z" style="fill-rule:nonzero;"/><path id="NH" d="M998.46,113.036L999.149,112.181L1000.01,109.569L997.996,108.844L997.611,106.407L994.532,105.508L994.275,103.327L988.502,84.723L984.85,73.181L984.138,73.177L983.625,74.46L983.111,74.075L982.342,73.306L981.187,74.845L981.148,78.839L981.396,83.337L982.935,85.518L982.935,88.725L979.984,92.744L977.932,93.642L977.932,94.54L978.83,95.951L978.83,102.751L978.188,110.064L978.06,113.913L978.83,114.94L978.701,118.532L978.317,119.944L979.471,120.647L992.479,116.925L994.275,116.412L995.493,114.386L998.46,113.036Z" style="fill-rule:nonzero;"/><path id="VT" d="M969.527,122.005L968.885,117.515L966.988,109.601L966.475,109.344L964.165,108.317L964.807,106.008L964.165,104.34L962.022,100.658L962.792,97.578L962.15,93.473L960.226,88.341L959.587,84.434L980.418,79.079L980.675,83.697L982.215,85.878L982.215,89.086L979.264,92.293L977.211,93.191L977.211,94.089L978.109,95.501L978.109,102.301L977.468,109.614L977.339,113.463L978.109,114.49L977.981,118.082L977.596,119.493L978.12,120.737L972.603,121.827L969.527,122.005Z" style="fill-rule:nonzero;"/><path id="NY" d="M957.043,150.335L956.145,149.565L954.092,149.437L952.296,147.897L951.002,143.033L948.257,143.105L946.317,140.956L930.932,144.433L896.804,151.362L890.828,152.336L890.242,147.203L891.376,146.309L892.402,145.411L893.172,144.128L894.583,143.23L896.123,141.819L896.508,140.536L898.176,138.355L899.074,137.585L898.945,136.815L897.919,134.377L896.508,134.249L894.968,129.374L897.277,127.962L900.742,126.808L903.949,125.781L906.515,125.396L911.519,125.268L913.059,126.294L914.342,126.423L916.01,125.396L918.062,124.498L922.168,124.113L923.836,122.702L925.247,120.136L926.53,118.596L928.198,118.596L929.738,117.698L929.866,115.902L928.711,114.234L928.455,113.079L929.353,111.411L929.353,110.257L927.942,110.257L926.53,109.615L925.889,108.717L925.761,106.664L930.379,102.302L930.893,101.66L932.047,99.351L934.357,95.759L936.538,92.808L938.206,90.883L940.123,89.434L942.568,88.445L946.93,87.419L949.496,87.547L953.089,86.392L959.093,84.749L959.505,88.701L961.43,93.833L962.072,97.939L961.302,101.018L963.355,104.61L963.996,106.278L963.355,108.588L965.664,109.614L966.177,109.871L968.615,118.595L968.189,122.611L967.804,131.207L968.446,135.569L969.087,138.392L970.242,144.166L970.242,150.581L969.344,152.377L970.804,153.959L971.436,155.291L969.896,156.702L970.153,157.728L971.179,157.472L972.334,156.445L974.13,154.393L975.028,153.879L976.311,154.393L978.108,154.521L984.394,151.442L986.704,149.26L987.73,148.106L991.066,149.389L988.372,152.211L985.293,154.521L979.647,158.755L977.594,159.525L972.976,161.064L969.768,161.962L968.836,161.539L968.642,158.612L969.027,156.431L968.899,154.763L966.666,153.414L963.073,152.645L959.994,151.747L957.043,150.335Z" style="fill-rule:nonzero;"/><path id="NJ" d="M956.683,151.056L955.015,152.98L955.015,155.418L953.475,157.856L953.347,159.139L954.373,160.165L954.245,162.09L952.449,162.988L953.09,165.169L953.219,166.067L955.4,166.324L956.17,168.377L958.992,170.301L960.917,171.584L960.917,172.226L958.351,174.663L957.068,176.46L955.913,178.641L954.117,179.667L953.155,180.244L952.962,181.207L952.479,183.276L953.345,185.057L955.911,187.366L959.761,189.162L962.968,189.676L963.096,190.83L962.455,191.6L962.711,193.781L963.353,193.781L965.021,191.857L965.662,188.008L967.844,184.8L970.281,179.668L971.179,175.306L970.666,174.408L970.538,166.966L969.255,164.272L968.357,164.913L966.176,165.17L965.791,164.785L966.689,164.015L968.357,162.476L968.407,161.607L968.102,158.882L968.487,156.701L968.358,155.033L966.305,154.135L962.713,153.365L959.634,152.467L956.683,151.056Z" style="fill-rule:nonzero;"/><path id="PA" d="M951.958,179.73L952.856,179.217L954.652,178.731L955.807,176.55L957.09,174.753L959.656,172.316L959.656,171.674L957.731,170.391L954.909,168.467L954.139,166.414L951.958,166.157L951.83,165.259L951.188,163.078L952.984,162.18L953.113,160.255L952.086,159.229L952.214,157.946L953.754,155.508L953.754,153.07L955.614,151.146L955.785,150.286L953.732,150.158L951.936,148.618L950.011,144.384L947.627,143.645L945.777,141.946L931.022,145.154L896.894,152.082L889.837,153.237L889.444,147.615L885.089,152.083L884.062,152.468L880.727,154.856L883.037,170.044L885.007,177.766L887.842,193.053L890.436,192.547L899.915,191.355L930.016,185.271L941.822,183.03L948.41,181.743L948.622,181.553L950.29,180.27L951.958,179.73Z" style="fill-rule:nonzero;"/><path id="DE" d="M952.073,182.876L952.541,181.207L952.558,180.25L951.551,180.18L949.883,181.463L948.728,182.618L949.883,185.954L951.679,190.444L953.347,198.143L954.63,203.146L958.607,203.018L963.482,202.056L961.685,196.219L960.915,196.604L958.093,194.679L956.681,190.959L955.142,188.136L953.345,187.366L951.678,184.543L952.073,182.876Z" style="fill-rule:nonzero;"/><path id="MD" d="M963.661,202.623L958.787,203.649L954.18,203.777L952.717,198.143L951.049,190.444L949.252,185.954L948.23,182.463L942.273,183.751L930.466,185.991L900.743,191.984L901.641,195.962L902.41,200.452L902.667,200.196L904.335,198.271L906.131,196.194L908.056,195.705L909.211,194.55L910.622,192.498L911.648,193.011L913.958,192.754L916.011,191.086L917.603,189.933L919.068,189.548L920.373,190.445L922.682,191.599L924.222,193.011L925.184,194.23L928.456,195.577L928.456,197.886L932.818,198.913L933.726,199.343L934.847,197.733L937.134,199.297L936.12,201.266L935.512,204.43L934.101,206.483L934.101,208.15L934.614,209.562L938.633,210.638L942.055,210.589L944.493,211.359L946.161,211.615L946.93,209.947L945.776,208.279L945.776,206.868L943.851,205.2L942.183,200.838L943.21,196.604L943.081,194.936L942.055,193.91C942.055,193.91 943.21,192.626 943.21,192.113C943.21,191.6 943.594,190.445 943.594,190.445L945.134,189.419L946.674,188.136L947.059,188.906L945.904,190.189L944.878,193.14L945.134,194.038L946.545,194.294L946.93,198.657L945.262,199.426L945.519,202.249L945.904,202.121L946.802,200.581L948.085,201.993L946.802,203.019L946.545,205.713L948.598,208.408L951.678,208.793L952.961,208.151L955.529,211.471L956.607,211.896L961.888,209.677L963.481,206.483L963.661,202.623ZM950.461,209.754L951.359,211.742L951.487,213.154L952.386,214.629C952.386,214.629 953.091,213.923 953.091,213.667C953.091,213.41 952.514,211.229 952.514,211.229L951.936,209.369L950.461,209.754Z" style="fill-rule:nonzero;"/><path id="WV" d="M899.858,192.038L900.74,195.962L901.6,201.443L904.425,199.262L906.221,196.824L908.236,196.336L909.391,195.181L910.802,193.128L911.738,193.641L914.048,193.385L916.101,191.717L917.693,190.563L919.158,190.178L920.193,190.985L921.962,191.87L923.501,193.281L924.592,194.307L924.478,198.015L919.988,195.577L916.395,194.166L916.267,198.4L915.882,200.067L914.599,202.249L914.086,203.532L911.648,205.456L911.263,207.252L908.569,207.509L908.312,209.947L907.414,214.309L905.361,214.309L904.335,213.667L903.052,211.486L901.641,211.615L901.384,215.079L899.716,220.339L895.739,228.935L896.38,229.962L896.252,232.143L894.584,233.683L893.429,233.426L890.863,235.351L888.81,234.581L887.399,238.301C887.399,238.301 884.448,238.943 883.935,239.071C883.422,239.2 882.01,238.045 882.01,238.045L880.086,239.841L878.033,240.354L875.724,239.713L874.697,238.686L872.957,236.287L870.463,234.709L868.41,232.528L866.101,229.577L865.588,227.781L863.535,226.626L862.893,225.343L862.701,221.173L864.433,221.109L865.973,220.467L866.101,218.286L867.384,217.132L867.512,213.154L868.282,210.075L869.309,209.562L870.335,210.46L870.72,211.871L872.131,211.101L872.516,209.818L871.618,208.407L871.618,206.483L872.388,205.456L874.184,202.762L875.21,201.607L876.878,201.992L878.675,200.709L881.112,198.015L882.909,194.935L883.165,190.445L883.55,186.467L883.55,182.747L882.652,180.309L883.422,179.154L884.44,178.128L887.211,193.864L890.887,193.267L899.858,192.038Z" style="fill-rule:nonzero;"/><path id="KY" d="M872.256,236.363L870.411,238.493L867.076,241.315L863.663,246L862.252,247.411L862.252,249.079L859.173,250.747L854.682,253.441L851.889,253.746L810.724,257.634L798.216,259.046L794.549,259.453L791.478,259.431L791.298,262.78L784.807,262.895L779.29,263.408L771.012,263.571L772.53,263.395L774.26,261.997L775.893,261.09L776.074,258.549L776.8,257.098L775.525,255.083L776.161,253.569L777.957,252.158L779.625,251.645L781.806,252.671L784.629,253.698L785.527,253.441L785.656,251.645L784.629,249.72L784.886,247.924L786.425,246.769L788.478,246.256L789.761,245.743L789.12,244.332L788.606,242.792L789.505,242.151L790.339,239.52L792.712,238.173L797.331,237.403L800.154,237.018L801.308,238.558L802.72,239.2L804.131,236.634L806.44,235.479L807.98,236.762L808.622,237.66L810.29,237.275L810.161,234.581L812.471,233.298L813.369,232.656L814.267,233.939L817.988,233.939L818.629,232.271L818.373,230.475L820.682,227.652L824.403,224.573L824.788,220.981L826.969,220.724L830.048,219.313L832.229,217.773L831.973,216.234L830.818,215.079L831.267,213.347L834.539,213.154L836.463,212.513L838.773,213.796L840.056,217.26L844.675,217.517L846.086,218.928L847.754,219.056L849.678,217.901L852.116,218.286L853.142,219.441L855.324,217.388L856.735,216.362L858.018,216.362L858.531,218.543L859.942,219.313L861.865,221.071L861.993,225.433L862.634,226.716L864.687,227.871L865.2,229.667L867.51,232.618L869.563,234.799L872.256,236.363Z" style="fill-rule:nonzero;"/><path id="OH" d="M879.917,154.768L875.081,157.985L872.002,159.781L869.308,162.732L866.1,165.811L863.534,166.453L861.225,166.838L856.862,168.891L855.194,169.019L852.5,166.581L848.394,167.094L846.342,165.94L844.452,164.868L840.569,165.426L832.486,166.709L826.327,167.671L827.354,179.282L828.765,190.188L830.818,208.792L831.267,212.626L834.539,212.524L836.463,211.882L839.133,213.075L840.776,216.539L844.855,216.526L846.356,218.207L847.754,218.156L849.768,217.091L851.756,217.386L853.323,218.54L854.693,216.848L856.555,215.821L858.198,215.281L858.711,217.462L860.123,218.232L862.881,220.092L864.613,220.028L865.522,219.117L865.471,218.016L866.754,216.861L866.882,212.884L867.652,209.805L868.858,208.661L870.065,209.379L870.72,210.34L871.681,210.201L871.345,208.287L870.898,207.777L870.898,205.852L871.667,204.826L873.464,202.131L874.49,200.977L876.158,201.362L877.954,200.079L880.392,197.384L882.188,194.305L882.355,189.994L882.74,186.017L882.74,182.296L881.841,179.859L882.611,178.704L883.342,177.946L882.227,170.135L879.917,154.768Z" style="fill-rule:nonzero;"/><path id="MI" d="M761.015,65.126L762.467,63.493L764.191,62.858L768.455,59.774L770.269,59.32L770.632,59.683L766.549,63.765L763.918,65.308L762.285,66.033L761.015,65.126ZM829.408,90.625L829.921,92.613L832.487,92.742L833.513,91.779C833.513,91.779 833.449,90.625 833.193,90.496C832.936,90.368 831.91,89.021 831.91,89.021L830.178,89.213L828.894,89.342L828.638,90.24L829.408,90.625ZM853.27,140.664L850.704,134.121L848.908,126.936L846.983,124.37L844.93,122.959L843.647,123.857L840.568,125.268L839.028,129.245L836.847,132.196L835.949,132.709L834.794,132.196C834.794,132.196 832.742,131.042 832.87,130.528C832.998,130.015 833.255,126.551 833.255,126.551L835.949,125.525L836.591,122.83L837.104,120.777L839.028,119.494L838.772,111.54L837.489,109.743L836.462,109.102L835.821,107.434L836.462,106.792L837.745,107.049L837.874,105.766L835.949,103.97L834.923,101.917L832.87,101.917L829.277,100.762L824.915,98.068L822.734,98.068L822.221,98.581L821.451,98.196L819.013,96.4L816.704,97.811L814.394,99.608L814.651,102.43L815.421,102.687L817.089,103.072L817.474,103.713L815.421,104.355L813.368,104.611L812.213,106.023L811.957,107.691L812.213,108.974L812.47,113.336L809.647,115.004L809.134,114.876L809.134,111.54L810.16,109.615L810.674,107.691L810.032,107.049L808.493,107.691L807.723,111.026L805.542,111.925L804.13,113.464L804.002,114.234L804.515,114.876L804.002,116.928L802.206,117.313L802.206,118.211L802.847,120.136L801.949,125.011L800.666,128.219L801.179,131.94L801.564,132.838L800.923,134.762L800.666,135.404L800.409,137.585L803.232,142.332L805.542,147.464L806.696,151.313L806.055,155.034L805.285,159.781L803.36,163.887L803.104,166.068L800.517,168.517L804.016,168.388L821.015,166.592L826.791,165.808L826.868,167.131L832.306,166.169L840.479,164.976L843.538,164.61L843.647,164.143L843.776,162.989L845.443,160.038L847.031,158.659L846.855,154.649L848.122,153.382L848.988,153.109L849.164,150.287L850.383,147.881L851.217,148.362L851.345,148.876L851.987,149.004L853.526,148.234L853.27,140.664ZM749.803,88.264L750.372,87.804L752.553,87.162L755.376,85.366L755.376,84.596L755.889,84.083L760.636,83.313L762.56,81.774L766.025,80.106L766.153,79.079L767.692,76.77L769.104,76.128L770.13,74.717L771.926,72.921L775.391,70.996L779.111,70.611L780.009,71.509L779.753,72.279L776.802,73.049L775.647,75.487L773.851,76.128L773.466,78.053L771.542,80.619L771.285,82.672L771.926,83.057L772.696,82.159L775.519,79.849L776.545,80.875L778.342,80.875L780.908,81.645L782.062,82.543L783.217,84.981L785.398,87.162L788.477,87.034L789.632,86.264L790.915,87.291L792.198,87.675L793.225,87.034L794.123,87.034L795.406,86.264L798.613,83.442L801.308,82.543L806.568,82.287L810.16,80.747L812.213,79.721L813.368,79.849L813.368,84.34L813.753,84.596L816.062,85.238L817.602,84.853L822.477,83.57L823.376,82.672L824.53,83.057L824.53,88.574L827.096,91.011L828.123,91.525L829.149,92.294L828.123,92.551L827.481,92.294L824.53,91.909L822.862,92.423L821.066,92.294L818.5,93.449L817.089,93.449L812.47,92.423L808.364,92.551L806.825,94.604L801.308,95.117L799.383,95.759L798.485,98.196L797.459,99.094L797.074,98.966L795.919,97.683L792.326,99.608L791.813,99.608L790.915,98.325L790.274,98.453L788.734,101.917L787.964,105.125L785.439,110.681L784.506,109.86L783.417,109.041L781.877,100.876L779.064,99.789L777.434,97.974L767.815,95.797L765.549,94.98L759.017,93.256L752.755,92.348L749.803,88.264Z" style="fill-rule:nonzero;"/><path id="WY" d="M580.565,114.108L572.192,113.467L546.726,110.852L533.843,109.219L511.344,105.953L495.558,103.594L494.432,112.464L491.385,131.718L487.211,155.851L485.996,164.197L484.671,173.632L489.849,174.369L510.388,176.353L526.713,178.184L555.906,181.45L574.812,183.72L578.387,148.647L579.529,128.506L580.565,114.108Z" style="fill-rule:nonzero;"/><path id="WA" d="M373.677,5.049L377.141,6.204L384.839,8.385L391.639,9.925L407.549,14.415L425.768,18.906L437.8,21.6L437.003,24.682L433.754,35.642L430.216,52.154L427.695,64.964L427.416,72.407L416.955,69.316L404.597,66.631L393.751,67.104L392.496,65.888L388.269,67.394L385.113,67.195L382.953,65.797L381.7,66.214L378.363,66.033L376.874,64.944L373.083,63.566L371.939,63.402L367.982,62.35L366.567,63.547L362.05,63.275L358.224,60.263L358.386,59.628L358.44,53.332L356.753,50.247L353.487,49.666L353.197,47.798L351.202,47.3L348.915,46.875L347.504,47.645L345.707,45.336L345.964,43.026L348.145,42.77L349.428,39.562L347.375,38.664L347.504,35.713L350.968,35.2L348.787,33.019L347.632,27.374L348.145,25.064L348.145,18.777L346.734,16.211L348.53,8.77L350.198,9.155L352.122,11.464L354.304,13.517L356.87,15.057L360.462,16.725L362.9,17.238L365.209,18.392L367.904,19.162L369.7,19.034L369.7,17.109L370.726,16.211L372.394,15.185L372.651,16.083L372.907,17.494L371.111,17.879L370.855,19.547L372.266,20.702L373.164,22.626L373.677,24.166L374.832,24.038L374.96,23.011L374.19,21.985L373.805,19.419L374.447,18.008L373.934,16.853L373.934,15.057L375.345,12.234L374.447,10.181L372.522,6.332L372.779,5.691L373.677,5.049ZM366.172,9.794L367.776,9.666L368.161,10.757L369.379,9.473L371.24,9.473L371.881,10.692L370.662,12.04L371.176,12.681L370.598,14.285L369.508,14.606C369.508,14.606 368.802,14.67 368.802,14.413C368.802,14.157 369.957,12.36 369.957,12.36L368.61,11.911L368.353,13.066L367.776,13.579L366.557,11.783L366.172,9.794Z" style="fill-rule:nonzero;"/><path id="TX" d="M582.788,264.582L600.797,265.444L625.474,266.352L623.621,284.967L623.385,299.375L623.439,301.027L626.887,304.058L628.265,304.71L629.701,304.911L630.245,303.914L630.952,304.602L632.33,304.984L633.604,304.405L634.508,304.729L634.272,307.432L637.665,308.25L639.789,308.903L642.927,309.319L644.669,310.771L647.247,309.52L649.459,309.81L651.073,312.022L651.926,312.277L651.799,313.836L654.25,314.763L656.447,313.331L657.644,313.62L659.512,313.747L659.856,315.234L663.539,316.813L665.647,316.651L667.226,313.385L667.496,313.385L668.403,314.89L671.924,315.689L674.572,316.651L677.186,317.249L678.892,316.651L679.564,314.655L682.502,314.655L684.008,315.253L686.44,314.002L686.965,314.002L687.254,314.89L690.648,314.89L692.555,313.894L693.879,314.13L695.003,315.616L697.288,316.94L700.083,317.793L702.26,318.919L704.202,320.206L706.816,319.5L708.356,320.28L708.762,328.327L709.028,336.027L709.572,343.594L709.989,346.806L712.113,350.454L712.966,353.681L716.031,358.673L716.467,360.958L716.884,361.758L716.34,367.707L714.236,371.189L714.997,373.459L714.707,375.455L714.035,381.261L712.947,383.419L713.426,386.901L708.93,388.159L701.104,391.751L700.334,393.291L698.281,394.83L696.613,395.985L695.587,396.627L691.096,400.861L688.915,402.528L684.681,405.095L680.191,407.019L675.187,409.713L673.775,410.868L669.157,413.691L666.462,414.204L663.383,418.566L660.175,418.823L659.406,420.362L661.202,421.902L660.047,426.264L659.021,429.857L658.123,432.936L657.481,436.529L658.123,438.453L659.534,443.97L660.304,448.846L661.715,451.027L660.945,452.181L658.508,453.721L654.017,450.642L649.655,449.744L648.628,450.129L646.062,449.615L642.726,447.178L638.621,446.279L632.591,443.585L630.923,440.506L629.896,435.374L627.33,433.834L626.817,432.038L627.33,431.525L627.587,428.83L626.56,428.317L626.047,427.547L627.074,424.083L625.791,422.287L623.224,421.261L620.53,417.796L617.708,412.536L614.372,410.483L614.5,408.944L610.266,399.193L609.624,395.857L608.213,394.317L608.085,393.162L603.338,388.928L601.285,386.491L601.285,385.593L599.232,383.925L593.843,383.027L587.941,382.513L585.504,380.717L581.911,382.128L579.089,383.283L577.292,385.849L576.523,388.8L573.058,393.676L571.134,395.6L569.081,394.83L567.67,393.932L566.13,393.419L563.051,391.623L563.051,391.11L561.64,389.57L557.534,387.902L551.632,381.744L549.836,378.023L549.836,371.608L547.27,366.476L546.885,364.295L545.602,363.525L544.704,361.857L540.726,360.189L539.7,358.906L534.055,352.619L533.028,350.053L529.307,348.257L528.153,344.793L526.1,342.483L524.56,342.098L524.045,338.386L530.396,338.93L553.439,341.108L576.483,342.378L578.298,323.507L581.382,279.416L582.652,264.537L583.741,264.56M662.294,450.256L661.845,444.611L659.664,438.902L659.215,433.32L660.433,426.777L663.064,421.324L665.822,417.026L668.324,414.203L668.837,414.396L665.052,419.656L661.588,424.853L659.984,430.113L659.728,434.219L660.433,439.094L662.486,444.804L662.871,448.909L662.999,450.064L662.294,450.256Z" style="fill-rule:nonzero;"/><path id="AZ" d="M408.736,307.54L406.651,309.253L406.394,310.408L406.779,311.177L421.79,319.645L431.413,325.676L443.089,332.476L456.432,340.43L466.183,342.355L486.126,344.502L488.134,334.575L491.113,312.954L496.64,270.985L500.019,246.409L480.498,243.489L458.906,239.86L432.375,234.846L430.056,249.205L429.693,249.568L428.332,251.655L426.336,251.564L425.338,249.386L423.161,249.114L422.435,248.207L421.709,248.207L420.983,248.661L419.441,249.477L419.35,255.011L419.169,256.372L418.715,266.352L417.536,268.075L417.082,270.706L419.26,274.607L420.258,279.234L420.893,280.051L421.709,280.504L421.618,282.319L420.348,283.408L417.627,284.768L416.084,286.311L414.905,289.214L414.451,293.115L412.183,295.292L410.55,295.837L410.459,300.464L410.097,301.824L410.459,302.46L413.363,302.913L412.909,305.09L411.73,306.814L408.736,307.54Z" style="fill-rule:nonzero;"/><path id="UT" d="M500.183,245.482L480.625,242.725L459.543,238.842L432.696,234.064L433.957,226.796L436.497,214.73L439.128,201.575L440.852,190.779L442.394,183.703L445.388,167.463L448.2,153.583L449.085,149.16L459.178,150.952L468.704,152.585L476.869,154.036L483.492,155.125L486.411,155.505L485.232,163.942L483.397,174.397L489.594,175.133L502.615,176.566L509.132,177.245L507.441,194.68L504.901,212.589L501.922,234.674L500.6,243.489L500.183,245.482Z" style="fill-rule:nonzero;"/><path id="CO" d="M599.905,203.807L601.048,186.916L575.576,184.484L556.161,182.342L526.585,179.076L510.164,177.08L508.078,194.68L505.537,212.462L502.559,234.674L501.364,243.489L501.165,245.682L528.091,248.694L558.044,252.08L583.409,254.592L596.591,255.264L601,187.302" style="fill-rule:nonzero;"/><path id="NM" d="M523.797,342.099L523.281,337.24L530.141,337.657L553.567,340.089L576.101,341.231L577.661,323.507L580.618,279.161L581.506,263.773L583.104,264.05L583.093,255.261L557.534,253.353L528.218,249.84L500.865,246.574L497.532,270.985L492.004,313.209L489.026,334.575L487.399,345.138L499.67,346.717L500.696,338.762L513.911,340.815L523.797,342.099Z" style="fill-rule:nonzero;"/><path id="OR" d="M410.767,140.227L414.177,126.02L417.88,111.831L418.713,108.474L420.582,104.011L420.094,103.088L418.098,103.052L417.08,101.726L417.443,100.564L417.843,97.987L421.381,93.632L422.833,92.76L423.74,91.852L424.919,89.023L428.131,84.523L430.961,81.458L431.143,78.719L428.548,76.759L427.589,73.18L417.082,70.208L405.107,67.396L392.859,67.486L392.496,66.398L388.142,68.031L384.603,67.577L382.698,66.307L381.7,66.851L377.981,66.67L376.62,65.581L372.446,63.948L371.811,64.039L368.364,62.859L366.822,64.311L361.923,64.039L357.205,60.773L357.749,60.138L357.931,53.969L356.116,50.884L352.85,50.43L352.306,48.434L350.438,48.064L345.836,49.698L344.039,54.83L341.473,62.785L338.907,67.917L334.93,79.079L329.798,89.857L323.383,99.864L321.843,102.174L321.202,108.974L320.175,113.721L322.325,116.52L327.666,118.307L336.865,120.921L343.108,122.936L352.96,125.82L363.538,128.669L373.989,131.498L410.767,140.227Z" style="fill-rule:nonzero;"/><path id="ND" d="M673.465,101.324L673.175,95.375L671.596,89.569L670.144,78.736L669.781,70.934L668.203,68.467L666.932,64.22L666.932,56.055L667.477,52.97L665.798,48.606L643.24,48.158L628.485,47.645L607.443,46.619L587.645,45.124L586.644,56.418L585.555,68.393L583.763,88.193L583.377,96.939L628.469,99.927L673.465,101.324Z" style="fill-rule:nonzero;"/><path id="SD" d="M674.648,161.255L673.892,160.397L672.685,157.519L674.136,154.58L674.97,150.172L672.92,148.539L672.685,146.361L673.156,143.983L674.862,143.346L675.098,138.795L675.043,114.917L674.553,112.558L671.287,109.709L670.507,108.13L670.507,106.605L672.013,105.59L673.229,104.119L673.374,101.961L627.832,100.691L583.25,97.606L582.641,101.796L581.361,114.39L580.293,128.634L579.023,148.155L591.744,148.971L607.329,149.879L621.609,150.913L640.48,151.948L649.008,151.33L651.277,153.145L654.706,155.503L655.486,156.102L658.296,155.395L661.508,155.16L663.686,155.106L666.156,156.067L669.766,157.21L672.252,158.607L672.742,160.132L673.468,161.638L674.028,161.256L674.648,161.255Z" style="fill-rule:nonzero;"/><path id="NE" d="M683.734,196.024L684.822,198.147L684.896,199.834L686.764,202.791L688.922,205.293L684.915,205.293L650.405,204.548L618.034,203.841L601.216,203.079L602.067,186.152L575.576,183.975L579.023,149.046L591.362,149.863L607.329,150.77L621.482,151.677L640.352,152.585L648.88,152.222L650.513,154.036L654.324,156.395L655.231,157.121L658.678,156.032L661.763,155.669L663.94,155.488L665.392,156.576L669.384,157.847L671.743,159.117L672.105,160.387L672.831,162.02L674.283,162.02L674.916,162.056L675.696,166.193L677.873,172.563L678.854,176.246L680.541,179.276L680.958,183.195L682.101,186.588L682.537,191.723" style="fill-rule:nonzero;"/><path id="IA" d="M749.09,160.023L749.226,161.564L751.04,162.469L751.946,163.466L752.219,164.467L755.303,167.009L755.848,168.733L755.213,171.005L754.032,173.818L753.397,175.994L751.673,177.265L750.312,177.72L745.958,178.898L745.414,180.71L744.779,182.523L745.234,183.612L746.595,184.972L746.594,187.878L744.872,189.148L744.508,190.328L744.508,192.325L743.327,192.688L741.966,193.776L741.605,194.954L741.966,196.317L740.876,197.273L739.055,195.137L737.878,193.052L731.258,193.687L723.186,194.14L703.316,194.685L692.97,194.867L685.531,195.048L684.487,195.145L683.174,191.596L682.992,186.334L681.722,183.068L681.178,178.894L679.363,175.991L678.637,172.181L676.46,166.193L675.553,161.929L674.464,160.205L673.194,158.028L674.646,154.58L675.734,150.044L673.557,148.411L673.194,146.234L673.92,144.238L684.444,144.238L723.818,143.694L739.593,143.149L741.062,145.329L742.516,147.41L742.878,148.048L741.425,150.23L741.786,153.581L743.782,156.665L746.138,158.113L748.047,158.295L749.09,160.023Z" style="fill-rule:nonzero;"/><path id="MS" d="M795.094,370.611L794.893,371.608L790.787,371.608L789.632,370.966L787.964,370.71L782.576,372.249L781.164,371.608L779.111,374.944L778.236,375.561L777.344,373.586L776.437,370.502L773.715,367.962L774.623,361.974L774.078,361.248L772.627,361.43L766.095,361.974L746.861,362.518L746.498,361.248L747.043,354.897L749.765,349.998L753.938,342.741L753.212,341.108L754.119,341.108L754.664,338.567L752.849,337.116L753.031,335.664L751.398,332.035L751.171,327.794L752.259,325.685L751.942,322.237L750.853,319.878L751.942,318.79L750.853,317.157L751.216,315.705L751.942,310.806L754.301,308.629L753.756,306.996L756.66,302.822L758.837,302.097L758.837,300.101L758.293,299.012L760.47,294.839L762.647,293.931L762.733,291.223L769.618,291.162L788.735,289.622L792.37,289.441L792.377,294.498L792.505,307.713L791.863,332.347L791.735,343.509L793.916,358.392L795.094,370.611Z" style="fill-rule:nonzero;"/><path id="IN" d="M790.223,238.774L790.274,236.505L790.659,232.913L792.456,230.603L793.867,227.524L795.92,224.188L795.535,219.569L794.123,217.388L793.867,214.822L794.508,210.46L794.123,204.943L793.097,192.241L792.071,180.052L791.3,170.751L793.738,171.457L794.893,172.226L795.791,171.97L797.459,170.43L799.704,169.147L803.746,169.018L821.195,167.222L825.62,166.799L826.813,179.463L830.187,208.702L830.662,213.283L830.368,215.079L831.342,216.504L831.419,217.593L829.418,218.862L826.609,220.094L824.067,220.53L823.592,224.393L819.962,227.022L817.742,230.205L817.999,232.091L817.537,233.309L814.897,233.309L813.639,232.026L811.66,233.028L809.531,234.22L809.659,236.645L808.712,236.849L808.34,236.041L806.621,234.848L804.041,235.913L802.81,238.299L801.669,237.657L800.514,236.388L796.971,236.773L792.532,237.543L790.223,238.774Z" style="fill-rule:nonzero;"/><path id="IL" d="M789.734,239.366L789.734,236.505L789.939,232.643L791.825,230.153L793.236,227.164L795.289,224.098L794.994,219.93L793.403,217.118L793.327,214.462L793.878,210.28L793.223,204.583L792.377,192.061L791.35,180.142L790.618,170.905L790.402,170.174L789.76,168.121L788.734,165.17L787.451,163.759L786.296,161.706L786.111,157.349L778.252,158.391L756.66,159.752L749.765,159.412L749.946,161.294L751.76,161.838L752.486,162.746L752.849,164.197L755.934,166.919L756.478,168.733L755.934,171.455L754.482,174.358L753.938,176.354L752.123,177.806L750.672,178.35L746.498,179.439L745.954,180.89L745.41,182.523L745.954,183.612L747.406,184.882L747.224,188.148L745.773,189.418L745.228,190.688L745.228,192.866L743.777,193.229L742.507,194.136L742.325,195.225L742.507,196.858L741.146,197.901L740.329,200.124L740.692,203.027L742.507,208.833L748.313,214.821L752.668,217.724L752.486,221.171L753.212,222.26L758.293,222.623L760.47,223.712L759.926,226.615L758.111,231.332L757.567,233.873L759.381,236.957L764.462,241.13L768.091,241.675L769.724,245.667L771.357,248.207L770.631,250.566L771.901,253.832L773.353,255.465L774.896,254.836L775.441,253.119L777.057,251.978L779.625,251.105L782.077,252.041L784.359,252.887L784.987,252.721L784.935,251.735L784.089,249.54L784.435,247.654L786.245,246.409L788.118,245.626L789.041,245.293L788.579,244.242L787.976,242.522L788.964,241.52L789.734,239.366Z" style="fill-rule:nonzero;"/><path id="MN" d="M673.92,101.961L673.557,95.247L672.105,89.441L670.654,78.736L670.291,70.934L668.839,68.212L667.569,64.22L667.569,56.055L668.114,52.97L666.668,48.644L690.583,48.672L690.84,42.128L691.353,42L693.149,42.385L694.689,43.026L695.33,47.389L696.485,52.264L697.768,53.547L701.617,53.547L701.874,54.702L706.877,54.958L706.877,56.626L710.726,56.626L710.983,55.6L711.881,54.702L713.677,54.189L714.704,54.958L717.013,54.958L720.092,57.011L724.326,58.936L726.251,59.321L726.636,58.551L727.791,58.166L728.175,60.475L730.228,61.502L730.613,61.117L731.64,61.245L731.64,62.913L733.692,63.683L736.13,63.683L737.413,63.042L739.979,60.475L742.032,60.091L742.674,61.502L743.059,62.528L743.828,62.528L744.598,61.887L751.655,61.63L753.066,64.068L753.579,64.068L754.146,63.207L757.669,62.913L757.184,64.722L754.058,66.18L746.72,69.403L742.93,70.996L740.492,73.049L738.568,75.872L736.772,78.951L735.36,79.592L731.768,83.57L730.742,83.698L727.693,86.027L725.457,88.535L725.276,90.893L725.456,97.066L724.189,98.336L720.015,101.601L718.561,106.138L720.56,109.033L720.924,111.033L720.013,113.393L719.832,116.298L720.195,121.92L722.914,125.18L725.276,125.18L727.268,126.999L729.809,128.083L732.714,132.078L738.339,136.065L739.792,137.702L739.977,142.069L723.638,142.613L675.821,142.977L675.553,114.662L675.19,112.303L671.924,109.582L671.017,108.13L671.017,106.86L672.65,105.59L673.738,104.501L673.92,101.961Z" style="fill-rule:nonzero;"/><path id="WI" d="M785.874,156.493L786.168,154.136L784.885,150.543L784.372,145.668L783.474,143.743L784.243,141.306L784.885,138.996L786.04,136.943L785.526,134.249L785.013,131.426L785.398,130.015L786.938,128.091L787.066,125.909L786.425,124.883L786.938,122.83L787.323,120.264L789.504,115.774L791.813,110.385L791.942,108.589L791.685,107.819L791.043,108.204L787.708,113.208L785.526,116.415L783.987,117.826L783.345,119.623L782.191,120.264L781.292,121.804L780.138,121.547L780.009,120.136L781.036,118.211L782.704,114.491L784.115,113.208L784.989,111.389L783.695,110.67L782.606,109.582L781.336,101.417L778.433,100.509L777.344,98.695L767.365,96.518L765.369,95.61L758.837,93.796L752.305,92.889L748.996,88.599L748.575,89.6L747.677,89.472L747.164,88.574L744.983,87.932L744.085,88.06L742.674,88.83L741.904,88.317L742.417,86.777L743.957,84.34L744.855,83.442L743.315,82.287L741.647,82.928L739.338,84.468L733.436,87.034L731.126,87.547L728.817,87.162L728.038,86.465L726.358,88.715L726.176,90.893L726.176,97.606L725.269,98.876L721.096,101.961L719.282,106.679L719.644,106.86L721.64,108.493L722.185,111.033L720.733,113.574L720.733,116.658L721.096,121.92L723.455,124.279L726.176,124.279L727.628,126.819L730.35,127.182L733.434,131.718L739.059,134.984L740.692,137.162L741.418,143.059L741.962,145.69L743.777,146.96L743.958,148.048L742.325,150.77L742.507,153.31L744.503,156.395L746.498,157.302L748.857,157.665L749.923,158.76L757.203,158.76L777.891,157.58L785.874,156.493Z" style="fill-rule:nonzero;"/><path id="MO" d="M740.515,198.038L738.515,195.587L737.608,193.773L731.438,194.317L723.636,194.68L703.496,195.406L692.79,195.587L686.53,195.678L684.716,195.769L685.714,197.765L685.532,199.579L687.528,202.664L689.978,205.93L692.427,208.107L694.242,208.289L695.331,209.014L695.331,211.373L693.879,212.643L693.516,214.458L695.149,217.18L697.145,219.538L699.141,220.99L700.23,230.244L699.685,258.277L699.867,261.997L700.23,266.269L718.827,266.177L737.245,265.632L753.756,264.997L763.006,264.814L764.728,267.533L764.185,270.158L761.735,272.065L761.28,273.523L765.549,273.886L768.64,273.342L770.003,268.982L770.52,264.334L772.361,262.727L773.719,261.547L775.352,260.729L775.444,258.459L775.899,257.098L775.081,255.71L772.902,255.825L771.181,253.742L770.091,250.386L770.726,248.387L769.183,245.667L767.73,242.035L763.921,241.401L758.391,236.957L757.026,233.693L757.661,231.152L759.295,226.345L759.659,224.072L758.112,223.253L752.672,222.62L751.856,221.261L751.767,217.904L747.412,215.181L741.876,209.013L740.062,203.207L739.879,199.853L740.515,198.038Z" style="fill-rule:nonzero;"/><path id="AR" d="M768.422,273.772L765.369,274.517L760.47,274.154L761.014,271.795L763.554,269.618L763.917,267.803L762.466,265.444L753.756,265.807L737.245,266.533L718.737,267.077L700.23,267.44L701.5,272.884L701.5,279.416L702.588,288.125L702.77,318.155L704.584,319.697L706.943,318.608L709.121,319.515L709.462,327.708L727.625,327.596L742.597,326.96L750.63,326.803L751.539,325.144L751.311,322.327L749.863,319.968L751.131,318.79L749.863,316.796L750.406,314.804L751.492,310.356L753.49,308.719L752.946,306.906L755.849,302.642L758.026,301.556L757.936,300.371L757.662,298.922L759.93,294.478L761.837,293.481L762.142,290.761L763.547,289.775L764.227,286.415L763.162,283.232L766.37,281.346L766.806,279.743L767.787,276.356L768.422,273.772Z" style="fill-rule:nonzero;"/><path id="OK" d="M597.304,256.009L588.821,255.646L583.718,255.261L583.922,255.419L583.364,263.691L600.797,264.808L626.238,265.842L624.385,285.222L624.022,299.375L624.204,300.645L627.651,303.548L629.284,304.455L629.828,304.274L630.373,302.641L631.461,304.092L633.094,304.092L633.094,303.004L635.272,304.092L634.909,307.177L638.175,307.358L640.171,308.266L643.437,308.81L645.433,310.262L647.247,308.629L649.969,309.173L651.965,311.895L652.691,311.895L652.691,313.709L654.505,314.253L656.32,312.439L657.771,312.983L659.767,312.983L660.493,314.979L664.303,316.431L665.392,315.886L666.843,312.62L667.751,312.62L668.658,314.253L671.924,314.798L674.827,315.886L677.186,316.612L678.637,315.886L679.182,313.891L682.629,313.891L684.262,314.616L686.44,312.983L687.347,312.983L687.891,314.253L691.157,314.253L692.427,312.62L693.879,312.983L695.512,314.979L698.052,316.431L700.593,317.157L702.133,318.045L701.824,288.507L700.736,279.798L700.608,272.756L699.465,267.568L698.848,261.869L698.794,258.841L689.161,259.094L652.328,258.731L616.583,257.098L597.304,256.009Z" style="fill-rule:nonzero;"/><path id="KS" d="M698.921,258.04L688.907,258.202L652.328,257.839L616.965,256.206L597.417,255.208L600.706,203.843L618.034,204.478L650.15,205.567L685.17,205.93L689.214,205.93L691.791,208.489L693.987,208.671L694.694,209.524L694.694,211.119L693.242,212.389L692.879,214.458L694.64,217.307L696.636,219.793L698.632,221.372L699.465,230.244L698.921,258.04Z" style="fill-rule:nonzero;"/><path id="LA" d="M777.351,375.393L776.534,373.316L775.627,370.862L772.995,368.052L773.722,362.694L773.628,361.788L772.627,362.06L766.095,362.784L746.231,363.149L745.688,361.248L746.412,354.537L749.044,349.818L753.037,342.921L752.582,341.017L753.579,340.477L753.943,338.928L752.129,337.296L752.04,335.754L750.587,332.305L750.225,327.59L742.507,327.68L727.265,328.406L709.642,328.429L709.665,336.027L710.209,343.466L710.754,346.551L712.749,349.817L713.475,353.809L716.923,358.163L717.104,360.704L717.648,361.248L717.104,367.962L714.745,371.953L716.015,373.586L715.471,375.582L714.927,381.389L713.838,383.929L713.935,386.799L717.655,385.593L724.07,385.336L732.281,388.159L737.413,389.057L740.364,387.902L742.93,388.8L745.496,389.57L746.138,387.902L743.572,387.004L741.519,387.389L739.338,386.106C739.338,386.106 739.466,385.079 739.979,384.951C740.492,384.823 742.417,384.181 742.417,384.181L743.828,385.336L745.24,384.566L747.806,385.079L748.96,387.004L749.217,388.8L752.809,389.057L754.221,390.468L753.579,391.751L752.553,392.393L753.836,393.676L760.508,396.498L763.33,395.472L764.1,393.547L766.153,393.034L767.564,391.879L768.591,392.649L769.232,394.959L767.436,395.6L767.949,396.113L770.643,395.087L772.44,392.393L773.081,392.008L771.413,391.751L772.055,390.468L771.926,389.313L773.594,388.928L774.492,387.902L775.006,388.544C775.006,388.544 774.877,390.981 775.519,390.981C776.16,390.981 778.855,391.495 778.855,391.495L782.062,393.034L782.832,394.189L785.142,394.189L786.04,394.959L787.836,392.521L787.836,391.366L786.809,391.366L784.115,389.185L779.496,388.544L776.93,386.747L777.828,384.566L779.625,384.823L779.753,384.31L778.342,383.54L778.342,383.155L780.908,383.155L782.319,380.717L781.292,379.178L781.036,376.996L779.881,377.125L778.342,378.793L777.828,380.845L775.391,380.332L774.621,378.921L776.032,377.381L777.636,375.97L777.351,375.393Z" style="fill-rule:nonzero;"/><path id="VA" d="M957.275,213.687L957.161,212.142L962.283,210.118L961.671,212.672L959.354,215.671L959.022,219.311L959.388,222.002L957.938,225.953L956.22,227.473L955.053,223.79L955.407,219.465L956.666,216.145L957.275,213.687ZM959.084,236.148L912.914,246.129L883.21,250.319L877.91,250.021L875.858,251.55L870.034,251.725L863.381,252.501L856.297,253.256L863.027,249.329L863.017,247.682L864.223,245.979L872.599,236.851L875.732,240.404L878.734,241.169L880.753,240.264L882.528,239.224L884.542,240.29L887.648,239.157L889.138,235.541L891.202,235.969L893.468,234.278L894.896,234.67L897.14,231.752L897.416,230.099L896.651,229.086L897.447,227.605L901.633,217.861L902.122,213.309L903.098,212.894L904.827,214.833L907.95,214.594L909.482,208.583L911.699,208.138L912.532,205.962L914.58,204.1L915.586,202.241L916.78,199.58L916.847,195.558L924.642,198.592C925.182,198.862 925.162,194.795 925.162,194.795L928.377,195.888L928.01,197.974L934.483,200.307L935.51,201.732L934.821,204.654L933.818,205.706L933.417,207.092L933.809,208.999L935.363,210.013L938.473,211.16L940.813,211.929L944.668,212.676L946.376,214.334L948.908,214.653L949.597,215.606L949.248,219.328L950.339,220.203L949.959,221.735L950.935,222.362L950.759,223.461L948.621,223.385L948.691,224.668L950.501,225.892L950.598,227.013L952.005,228.43L952.395,230.433L950.369,231.529L951.617,232.715L956.221,231.377L959.084,236.148Z" style="fill-rule:nonzero;"/><path id="DC" d="M935.728,201.463L934.873,200.164L934.068,199.496L934.941,198.213L936.713,199.412L935.728,201.463Z" style="fill-rule:nonzero;"/><path id="MT" d="M582.485,97.043L582.999,88.193L584.791,68.521C585.154,64.529 585.651,61.797 585.88,56.291L586.626,44.742L562.281,42.513L539.058,39.691L515.836,36.483L490.175,32.249L475.549,29.555L449.578,24.053L446.023,40.995L448.745,46.983L447.656,50.612L449.108,54.241L451.648,55.329L455.315,63.876L457.454,66.398L457.817,67.305L460.539,68.212L460.902,69.845L455.277,83.816L455.277,85.812L457.273,88.353L457.998,88.353L461.809,85.994L462.353,85.087L463.623,85.631L463.442,89.804L465.619,99.784L467.978,101.78L468.704,102.324L470.155,104.138L469.792,106.86L470.337,109.582L471.244,110.308L473.059,108.493L475.236,108.493L477.776,109.763L479.772,109.037L483.038,109.037L485.941,110.308L488.119,109.945L488.481,107.586L490.84,107.042L491.929,108.13L492.292,110.67L493.704,111.754L494.921,102.575L511.344,104.934L533.716,108.073L546.853,109.578L571.81,112.321L580.533,113.531L581.368,101.287L582.485,97.043Z" style="fill-rule:nonzero;"/><path id="ID" d="M428.079,143.619C410.134,140.172 416.851,141.359 411.301,140.166L414.814,126.275L418.262,112.213L419.35,108.856L421.346,104.139L420.348,102.324L418.352,102.415L417.717,101.598L418.08,100.691L418.352,98.241L421.891,93.887L423.342,93.524L424.249,92.617L424.703,90.076L425.429,89.532L428.513,84.905L431.598,81.458L431.779,78.464L429.058,76.377L428.014,72.884L428.332,65.218L431.235,52.154L434.773,35.642L437.767,24.937L438.372,21.919L448.686,23.925L445.386,40.995L447.726,47.11L446.892,50.739L448.471,54.368L451.011,55.711L454.551,63.494L456.69,66.525L457.18,67.432L459.902,68.339L460.265,70.354L454.767,83.689L455.022,86.322L457.145,88.607L458.635,88.989L462.446,86.121L462.735,85.723L462.859,86.395L463.06,89.677L465.11,99.911L467.851,102.034L468.194,102.706L469.901,104.648L469.283,106.86L469.827,109.837L471.371,110.562L473.059,109.257L475.109,108.875L477.776,110.145L479.772,109.674L482.783,109.547L485.941,110.817L488.119,110.582L488.864,108.732L490.84,107.424L491.42,108.767L491.91,110.543L493.742,112.558L490.748,131.591L486.665,154.614L483.364,154.361L476.869,153.145L469.086,151.693L459.433,149.805L449.49,147.818L442.757,146.358L435.408,145.034L428.079,143.619Z" style="fill-rule:nonzero;"/><path id="NV" d="M411.046,140.93L427.697,144.51L435.408,146.053L442.757,147.504L448.007,148.801L447.563,153.455L444.751,167.209L441.502,183.066L439.96,190.779L438.236,201.321L435.733,214.348L432.938,226.796L431.376,234.876L429.419,248.186L429.056,249.058L428.205,251.018L426.718,250.927L425.848,248.75L423.67,248.35L422.562,247.57L420.945,247.825L420.219,248.406L419.186,249.477L418.841,255.011L418.405,256.372L418.078,265.97L417.029,267.33L415.54,265.535L404.018,247.481L388.595,224.438L370.541,197.583L360.715,182.836L362.013,177.624L367.547,157.03L373.807,132.151L400.48,138.613L411.367,140.972" style="fill-rule:nonzero;"/><path id="CA" d="M407.938,306.947L410.965,306.56L412.145,304.963L412.726,303.423L410.205,303.351L409.332,301.952L409.95,300.591L409.913,295.709L411.674,294.656L413.814,292.606L414.141,288.704L415.447,285.929L416.99,284.259L419.584,282.898L420.599,282.319L421.2,281.141L420.511,280.433L419.748,279.234L419.005,274.99L416.7,270.834L416.777,268.622L415.03,266.045L403.127,247.609L387.704,224.82L369.904,198.602L359.823,183.091L361.249,177.37L366.656,156.775L373.097,131.827L363.283,129.178L352.578,126.456L342.598,123.19L336.611,121.557L327.538,119.199L321.943,117.285L320.688,121.034L320.56,126.936L316.454,136.302L314.017,138.355L313.76,139.253L312.349,139.894L311.194,143.23L310.553,145.796L312.734,149.132L314.017,152.468L314.915,155.291L314.658,160.423L313.247,162.86L312.734,167.479L311.964,170.43L313.375,173.51L315.556,177.102L317.353,180.951L318.379,184.159L318.122,186.725L317.866,187.11L317.866,188.777L322.356,193.781L321.971,195.706L321.458,197.502L320.945,199.042L321.073,205.585L322.741,208.536L324.281,210.589L326.462,210.974L327.232,213.155L326.334,215.977L324.666,217.26L323.768,217.26L323.126,220.34L323.511,222.649L326.077,226.113L327.36,230.347L328.515,234.068L329.541,236.506L332.236,241.125L333.39,243.177L333.775,245.487L335.058,246.257L335.058,248.181L334.417,249.721L333.005,255.366L332.621,256.906L334.545,259.087L337.881,259.472L341.473,260.883L344.553,262.551L346.862,262.551L349.171,264.989L351.224,268.838L352.122,270.634L355.202,272.302L359.051,272.944L360.205,274.611L360.719,277.177L359.564,277.691L359.821,278.46L362.387,279.102L364.568,279.23L366.877,282.951L369.956,286.287L370.598,288.083L372.651,291.419L372.907,293.985L372.907,301.427L373.292,302.838L381.247,303.993L396.9,306.174L407.938,306.947ZM338.138,267.49L339.164,268.708L339.036,269.735L336.47,269.671L336.021,268.708L335.508,267.554L338.138,267.49ZM339.677,267.49L340.64,266.976L343.462,268.644L345.9,269.607L345.194,270.12L341.602,269.927L340.319,268.644L339.677,267.49ZM356.1,283.207L357.511,285.067L358.153,285.837L359.372,286.286L359.821,285.131L359.051,283.72L356.934,282.116L356.1,282.244L356.1,283.207ZM354.945,290.071L356.357,292.573L357.319,294.112L356.164,294.305L355.138,293.343C355.138,293.343 354.56,292.188 354.56,291.867L354.56,290.135L354.945,290.071Z" style="fill-rule:nonzero;"/></g><g transform="matrix(1,0,0,1,78.6078,396.997)"><text x="0px" y="0px" style="font-family:'Inconsolata-Regular', 'Inconsolata', monospace;font-size:15.873px;fill:white;stroke:rgb(245,245,245);stroke-width:5px;">AK</text></g><g transform="matrix(1,0,0,1,78.6078,396.997)"><text x="0px" y="0px" style="font-family:'Inconsolata-Regular', 'Inconsolata', monospace;font-size:15.873px;">AK</text></g><g transform="matrix(1,0,0,1,209.95,445.362)"><text x="0px" y="0px" style="font-family:'Inconsolata-Regular', 'Inconsolata', monospace;font-size:15.873px;">HI</text></g><g transform="matrix(1,0,0,1,586.228,296.597)"><text x="0px" y="0px" style="font-family:'Inconsolata-Regular', 'Inconsolata', monospace;font-size:15.873px;fill:white;stroke:rgb(245,245,245);stroke-width:5px;">SC</text></g><g transform="matrix(1,0,0,1,586.228,296.597)"><text x="0px" y="0px" style="font-family:'Inconsolata-Regular', 'Inconsolata', monospace;font-size:15.873px;">SC</text></g><g transform="matrix(1,0,0,1,553.068,324.439)"><text x="0px" y="0px" style="font-family:'Inconsolata-Regular', 'Inconsolata', monospace;font-size:15.873px;fill:white;stroke:rgb(245,245,245);stroke-width:5px;">GA</text></g><g transform="matrix(1,0,0,1,553.068,324.439)"><text x="0px" y="0px" style="font-family:'Inconsolata-Regular', 'Inconsolata', monospace;font-size:15.873px;">GA</text></g><g transform="matrix(1,0,0,1,502.343,328.202)"><text x="0px" y="0px" style="font-family:'Inconsolata-Regular', 'Inconsolata', monospace;font-size:15.873px;fill:white;stroke:rgb(245,245,245);stroke-width:5px;">AL</text></g><g transform="matrix(1,0,0,1,502.343,328.202)"><text x="0px" y="0px" style="font-family:'Inconsolata-Regular', 'Inconsolata', monospace;font-size:15.873px;">AL</text></g><g transform="matrix(1,0,0,1,463.528,328.202)"><text x="0px" y="0px" style="font-family:'Inconsolata-Regular', 'Inconsolata', monospace;font-size:15.873px;fill:white;stroke:rgb(245,245,245);stroke-width:5px;">MS</text></g><g transform="matrix(1,0,0,1,463.528,328.202)"><text x="0px" y="0px" style="font-family:'Inconsolata-Regular', 'Inconsolata', monospace;font-size:15.873px;">MS</text></g><g transform="matrix(1,0,0,1,606.386,262.076)"><text x="0px" y="0px" style="font-family:'Inconsolata-Regular', 'Inconsolata', monospace;font-size:15.873px;fill:white;stroke:rgb(245,245,245);stroke-width:5px;">NC</text></g><g transform="matrix(1,0,0,1,606.386,262.076)"><g><text x="0px" y="0px" style="font-family:'Inconsolata-Regular', 'Inconsolata', monospace;font-size:15.873px;">NC</text></g></g><g transform="matrix(1,0,0,1,610.354,222.394)"><text x="0px" y="0px" style="font-family:'Inconsolata-Regular', 'Inconsolata', monospace;font-size:15.873px;fill:white;stroke:rgb(245,245,245);stroke-width:5px;">VA</text></g><g transform="matrix(1,0,0,1,610.354,222.394)"><text x="0px" y="0px" style="font-family:'Inconsolata-Regular', 'Inconsolata', monospace;font-size:15.873px;">VA</text></g><g transform="matrix(1,0,0,1,419.233,231.8)"><text x="0px" y="0px" style="font-family:'Inconsolata-Regular', 'Inconsolata', monospace;font-size:15.873px;fill:white;stroke:rgb(245,245,245);stroke-width:5px;">MO</text></g><g transform="matrix(1,0,0,1,419.233,231.8)"><text x="0px" y="0px" style="font-family:'Inconsolata-Regular', 'Inconsolata', monospace;font-size:15.873px;">MO</text></g><g transform="matrix(1,0,0,1,638.132,127.156)"><text x="0px" y="0px" style="font-family:'Inconsolata-Regular', 'Inconsolata', monospace;font-size:15.873px;fill:white;stroke:rgb(245,245,245);stroke-width:5px;">NY</text></g><g transform="matrix(1,0,0,1,638.132,127.156)"><text x="0px" y="0px" style="font-family:'Inconsolata-Regular', 'Inconsolata', monospace;font-size:15.873px;">NY</text></g><g transform="matrix(1,0,0,1,499.243,198.584)"><text x="0px" y="0px" style="font-family:'Inconsolata-Regular', 'Inconsolata', monospace;font-size:15.873px;fill:white;stroke:rgb(245,245,245);stroke-width:5px;">IN</text></g><g transform="matrix(1,0,0,1,499.243,198.584)"><text x="0px" y="0px" style="font-family:'Inconsolata-Regular', 'Inconsolata', monospace;font-size:15.873px;">IN</text></g><g transform="matrix(1,0,0,1,673.997,101.604)"><text x="0px" y="0px" style="font-family:'Inconsolata-Regular', 'Inconsolata', monospace;font-size:15.873px;fill:white;stroke:rgb(245,245,245);stroke-width:5px;">NH</text></g><g transform="matrix(1,0,0,1,673.997,101.604)"><text x="0px" y="0px" style="font-family:'Inconsolata-Regular', 'Inconsolata', monospace;font-size:15.873px;">NH</text></g><g transform="matrix(1,0,0,1,693.687,67.632)"><text x="0px" y="0px" style="font-family:'Inconsolata-Regular', 'Inconsolata', monospace;font-size:15.873px;fill:white;stroke:rgb(245,245,245);stroke-width:5px;">ME</text></g><g transform="matrix(1,0,0,1,693.687,67.632)"><text x="0px" y="0px" style="font-family:'Inconsolata-Regular', 'Inconsolata', monospace;font-size:15.873px;">ME</text></g><g transform="matrix(1,0,0,1,610.354,166.838)"><text x="0px" y="0px" style="font-family:'Inconsolata-Regular', 'Inconsolata', monospace;font-size:15.873px;fill:white;stroke:rgb(245,245,245);stroke-width:5px;">PA</text></g><g transform="matrix(1,0,0,1,610.354,166.838)"><text x="0px" y="0px" style="font-family:'Inconsolata-Regular', 'Inconsolata', monospace;font-size:15.873px;">PA</text></g><g transform="matrix(1,0,0,1,577.188,211.223)"><text x="0px" y="0px" style="font-family:'Inconsolata-Regular', 'Inconsolata', monospace;font-size:15.873px;fill:white;stroke:rgb(245,245,245);stroke-width:5px;">WV</text></g><g transform="matrix(1,0,0,1,577.188,211.223)"><text x="0px" y="0px" style="font-family:'Inconsolata-Regular', 'Inconsolata', monospace;font-size:15.873px;">WV</text></g><g transform="matrix(1,0,0,1,516.703,239.854)"><text x="0px" y="0px" style="font-family:'Inconsolata-Regular', 'Inconsolata', monospace;font-size:15.873px;fill:white;stroke:rgb(245,245,245);stroke-width:5px;">KY</text></g><g transform="matrix(1,0,0,1,516.703,239.854)"><text x="0px" y="0px" style="font-family:'Inconsolata-Regular', 'Inconsolata', monospace;font-size:15.873px;">KY</text></g><g transform="matrix(1,0,0,1,511.148,270.013)"><text x="0px" y="0px" style="font-family:'Inconsolata-Regular', 'Inconsolata', monospace;font-size:15.873px;fill:white;stroke:rgb(245,245,245);stroke-width:5px;">TN</text></g><g transform="matrix(1,0,0,1,511.148,270.013)"><text x="0px" y="0px" style="font-family:'Inconsolata-Regular', 'Inconsolata', monospace;font-size:15.873px;">TN</text></g><g transform="matrix(1,0,0,1,542.894,190.648)"><text x="0px" y="0px" style="font-family:'Inconsolata-Regular', 'Inconsolata', monospace;font-size:15.873px;fill:white;stroke:rgb(245,245,245);stroke-width:5px;">OH</text></g><g transform="matrix(1,0,0,1,542.894,190.648)"><text x="0px" y="0px" style="font-family:'Inconsolata-Regular', 'Inconsolata', monospace;font-size:15.873px;">OH</text></g><g transform="matrix(1,0,0,1,82.5761,39.8542)"><text x="0px" y="0px" style="font-family:'Inconsolata-Regular', 'Inconsolata', monospace;font-size:15.873px;fill:white;stroke:rgb(245,245,245);stroke-width:5px;">WA</text></g><g transform="matrix(1,0,0,1,82.5761,39.8542)"><text x="0px" y="0px" style="font-family:'Inconsolata-Regular', 'Inconsolata', monospace;font-size:15.873px;">WA</text></g><g transform="matrix(1,0,0,1,317.08,75.5685)"><text x="0px" y="0px" style="font-family:'Inconsolata-Regular', 'Inconsolata', monospace;font-size:15.873px;fill:white;stroke:rgb(245,245,245);stroke-width:5px;">ND</text></g><g transform="matrix(1,0,0,1,317.08,75.5685)"><text x="0px" y="0px" style="font-family:'Inconsolata-Regular', 'Inconsolata', monospace;font-size:15.873px;">ND</text></g><g transform="matrix(1,0,0,1,213.528,75.5685)"><text x="0px" y="0px" style="font-family:'Inconsolata-Regular', 'Inconsolata', monospace;font-size:15.873px;fill:white;stroke:rgb(245,245,245);stroke-width:5px;">MT</text></g><g transform="matrix(1,0,0,1,213.528,75.5685)"><text x="0px" y="0px" style="font-family:'Inconsolata-Regular', 'Inconsolata', monospace;font-size:15.873px;">MT</text></g><g transform="matrix(1,0,0,1,225.433,143.029)"><text x="0px" y="0px" style="font-family:'Inconsolata-Regular', 'Inconsolata', monospace;font-size:15.873px;fill:white;stroke:rgb(245,245,245);stroke-width:5px;">WY</text></g><g transform="matrix(1,0,0,1,225.433,143.029)"><text x="0px" y="0px" style="font-family:'Inconsolata-Regular', 'Inconsolata', monospace;font-size:15.873px;">WY</text></g><g transform="matrix(1,0,0,1,137.77,104.506)"><text x="0px" y="0px" style="font-family:'Inconsolata-Regular', 'Inconsolata', monospace;font-size:15.873px;fill:white;stroke:rgb(245,245,245);stroke-width:5px;">ID</text></g><g transform="matrix(1,0,0,1,137.77,104.506)"><text x="0px" y="0px" style="font-family:'Inconsolata-Regular', 'Inconsolata', monospace;font-size:15.873px;">ID</text></g><g transform="matrix(1,0,0,1,590.513,396.997)"><text x="0px" y="0px" style="font-family:'Inconsolata-Regular', 'Inconsolata', monospace;font-size:15.873px;fill:white;stroke:rgb(245,245,245);stroke-width:5px;">FL</text></g><g transform="matrix(1,0,0,1,590.513,396.997)"><text x="0px" y="0px" style="font-family:'Inconsolata-Regular', 'Inconsolata', monospace;font-size:15.873px;">FL</text></g><g transform="matrix(1,0,0,1,324.64,357.315)"><text x="0px" y="0px" style="font-family:'Inconsolata-Regular', 'Inconsolata', monospace;font-size:15.873px;fill:white;stroke:rgb(245,245,245);stroke-width:5px;">TX</text></g><g transform="matrix(1,0,0,1,324.64,357.315)"><text x="0px" y="0px" style="font-family:'Inconsolata-Regular', 'Inconsolata', monospace;font-size:15.873px;">TX</text></g><g transform="matrix(1,0,0,1,225.433,297.791)"><text x="0px" y="0px" style="font-family:'Inconsolata-Regular', 'Inconsolata', monospace;font-size:15.873px;fill:white;stroke:rgb(245,245,245);stroke-width:5px;">NM</text></g><g transform="matrix(1,0,0,1,225.433,297.791)"><text x="0px" y="0px" style="font-family:'Inconsolata-Regular', 'Inconsolata', monospace;font-size:15.873px;">NM</text></g><g transform="matrix(1,0,0,1,144.383,287.617)"><text x="0px" y="0px" style="font-family:'Inconsolata-Regular', 'Inconsolata', monospace;font-size:15.873px;fill:white;stroke:rgb(245,245,245);stroke-width:5px;">AZ</text></g><g transform="matrix(1,0,0,1,144.383,287.617)"><text x="0px" y="0px" style="font-family:'Inconsolata-Regular', 'Inconsolata', monospace;font-size:15.873px;">AZ</text></g><g transform="matrix(1,0,0,1,241.306,216.045)"><text x="0px" y="0px" style="font-family:'Inconsolata-Regular', 'Inconsolata', monospace;font-size:15.873px;fill:white;stroke:rgb(245,245,245);stroke-width:5px;">CO</text></g><g transform="matrix(1,0,0,1,241.306,216.045)"><text x="0px" y="0px" style="font-family:'Inconsolata-Regular', 'Inconsolata', monospace;font-size:15.873px;">CO</text></g><g transform="matrix(1,0,0,1,34.9571,198.584)"><text x="0px" y="0px" style="font-family:'Inconsolata-Regular', 'Inconsolata', monospace;font-size:15.873px;fill:white;stroke:rgb(245,245,245);stroke-width:5px;">CA</text></g><g transform="matrix(1,0,0,1,34.9571,198.584)"><text x="0px" y="0px" style="font-family:'Inconsolata-Regular', 'Inconsolata', monospace;font-size:15.873px;">CA</text></g><g transform="matrix(1,0,0,1,63.2114,102.417)"><text x="0px" y="0px" style="font-family:'Inconsolata-Regular', 'Inconsolata', monospace;font-size:15.873px;fill:white;stroke:rgb(245,245,245);stroke-width:5px;">OR</text></g><g transform="matrix(1,0,0,1,63.2114,102.417)"><text x="0px" y="0px" style="font-family:'Inconsolata-Regular', 'Inconsolata', monospace;font-size:15.873px;">OR</text></g><g transform="matrix(1,0,0,1,161.941,198.584)"><text x="0px" y="0px" style="font-family:'Inconsolata-Regular', 'Inconsolata', monospace;font-size:15.873px;fill:white;stroke:rgb(245,245,245);stroke-width:5px;">UT</text></g><g transform="matrix(1,0,0,1,161.941,198.584)"><text x="0px" y="0px" style="font-family:'Inconsolata-Regular', 'Inconsolata', monospace;font-size:15.873px;">UT</text></g><g transform="matrix(1,0,0,1,90.5126,182.711)"><text x="0px" y="0px" style="font-family:'Inconsolata-Regular', 'Inconsolata', monospace;font-size:15.873px;fill:white;stroke:rgb(245,245,245);stroke-width:5px;">NV</text></g><g transform="matrix(1,0,0,1,90.5126,182.711)"><text x="0px" y="0px" style="font-family:'Inconsolata-Regular', 'Inconsolata', monospace;font-size:15.873px;">NV</text></g><g transform="matrix(1,0,0,1,317.08,126.692)"><text x="0px" y="0px" style="font-family:'Inconsolata-Regular', 'Inconsolata', monospace;font-size:15.873px;fill:white;stroke:rgb(245,245,245);stroke-width:5px;">SD</text></g><g transform="matrix(1,0,0,1,317.08,126.692)"><text x="0px" y="0px" style="font-family:'Inconsolata-Regular', 'Inconsolata', monospace;font-size:15.873px;">SD</text></g><g transform="matrix(1,0,0,1,401.459,169.057)"><text x="0px" y="0px" style="font-family:'Inconsolata-Regular', 'Inconsolata', monospace;font-size:15.873px;fill:white;stroke:rgb(245,245,245);stroke-width:5px;">IA</text></g><g transform="matrix(1,0,0,1,401.459,169.057)"><text x="0px" y="0px" style="font-family:'Inconsolata-Regular', 'Inconsolata', monospace;font-size:15.873px;">IA</text></g><g transform="matrix(1,0,0,1,419.084,363.664)"><text x="0px" y="0px" style="font-family:'Inconsolata-Regular', 'Inconsolata', monospace;font-size:15.873px;fill:white;stroke:rgb(245,245,245);stroke-width:5px;">LA</text></g><g transform="matrix(1,0,0,1,419.084,363.664)"><text x="0px" y="0px" style="font-family:'Inconsolata-Regular', 'Inconsolata', monospace;font-size:15.873px;">LA</text></g><g transform="matrix(1,0,0,1,459.413,202.315)"><text x="0px" y="0px" style="font-family:'Inconsolata-Regular', 'Inconsolata', monospace;font-size:15.873px;fill:white;stroke:rgb(245,245,245);stroke-width:5px;">IL</text></g><g transform="matrix(1,0,0,1,459.413,202.315)"><text x="0px" y="0px" style="font-family:'Inconsolata-Regular', 'Inconsolata', monospace;font-size:15.873px;">IL</text></g><g transform="matrix(1,0,0,1,447.655,127.156)"><text x="0px" y="0px" style="font-family:'Inconsolata-Regular', 'Inconsolata', monospace;font-size:15.873px;fill:white;stroke:rgb(245,245,245);stroke-width:5px;">WI</text></g><g transform="matrix(1,0,0,1,447.655,127.156)"><text x="0px" y="0px" style="font-family:'Inconsolata-Regular', 'Inconsolata', monospace;font-size:15.873px;">WI</text></g><g transform="matrix(1,0,0,1,515.116,143.029)"><text x="0px" y="0px" style="font-family:'Inconsolata-Regular', 'Inconsolata', monospace;font-size:15.873px;fill:white;stroke:rgb(245,245,245);stroke-width:5px;">MI</text></g><g transform="matrix(1,0,0,1,515.116,143.029)"><text x="0px" y="0px" style="font-family:'Inconsolata-Regular', 'Inconsolata', monospace;font-size:15.873px;">MI</text></g><g transform="matrix(1,0,0,1,388.132,99.3781)"><text x="0px" y="0px" style="font-family:'Inconsolata-Regular', 'Inconsolata', monospace;font-size:15.873px;fill:white;stroke:rgb(245,245,245);stroke-width:5px;">MN</text></g><g transform="matrix(1,0,0,1,388.132,99.3781)"><text x="0px" y="0px" style="font-family:'Inconsolata-Regular', 'Inconsolata', monospace;font-size:15.873px;">MN</text></g><g transform="matrix(1,0,0,1,419.233,294.317)"><text x="0px" y="0px" style="font-family:'Inconsolata-Regular', 'Inconsolata', monospace;font-size:15.873px;fill:white;stroke:rgb(245,245,245);stroke-width:5px;">AR</text></g><g transform="matrix(1,0,0,1,419.233,294.317)"><text x="0px" y="0px" style="font-family:'Inconsolata-Regular', 'Inconsolata', monospace;font-size:15.873px;">AR</text></g><g transform="matrix(1,0,0,1,347.11,283.191)"><text x="0px" y="0px" style="font-family:'Inconsolata-Regular', 'Inconsolata', monospace;font-size:15.873px;fill:white;stroke:rgb(245,245,245);stroke-width:5px;">OK</text></g><g transform="matrix(1,0,0,1,347.11,283.191)"><text x="0px" y="0px" style="font-family:'Inconsolata-Regular', 'Inconsolata', monospace;font-size:15.873px;">OK</text></g><g transform="matrix(1,0,0,1,337.281,231.8)"><text x="0px" y="0px" style="font-family:'Inconsolata-Regular', 'Inconsolata', monospace;font-size:15.873px;fill:white;stroke:rgb(245,245,245);stroke-width:5px;">KS</text></g><g transform="matrix(1,0,0,1,337.281,231.8)"><text x="0px" y="0px" style="font-family:'Inconsolata-Regular', 'Inconsolata', monospace;font-size:15.873px;">KS</text></g><g transform="matrix(1,0,0,1,316.703,177.949)"><text x="0px" y="0px" style="font-family:'Inconsolata-Regular', 'Inconsolata', monospace;font-size:15.873px;fill:white;stroke:rgb(245,245,245);stroke-width:5px;">NE</text></g><g transform="matrix(1,0,0,1,316.703,177.949)"><text x="0px" y="0px" style="font-family:'Inconsolata-Regular', 'Inconsolata', monospace;font-size:15.873px;">NE</text></g><g id="MidAtlantic"></g></svg>