<?xml version="1.0" encoding="UTF-8" standalone="no"?>
<!DOCTYPE svg PUBLIC "-//W3C//DTD SVG 1.1//EN" "http://www.w3.org/Graphics/SVG/1.1/DTD/svg11.dtd">
<svg width="100%" viewBox="0 0 734 463" version="1.1" xmlns="http://www.w3.org/2000/svg" xmlns:xlink="http://www.w3.org/1999/xlink" xml:space="preserve" xmlns:serif="http://www.serif.com/" style="fill-rule:evenodd;clip-rule:evenodd;stroke-linejoin:round;stroke-miterlimit:2;">
    <g>
        <path id="HI" d="M180.265,407.101L181.804,404.279L183.601,404.022L183.857,404.664L182.189,407.101L180.265,407.101ZM188.348,404.15L193.223,406.203L194.891,405.947L196.174,402.867L195.661,400.173L192.325,399.788L189.118,401.199L188.348,404.15ZM212.725,412.105L215.676,416.467L217.601,416.211L218.499,415.826L219.654,416.852L222.605,416.724L223.374,415.569L221.065,414.158L219.525,411.207L217.857,408.384L213.239,410.694L212.725,412.105ZM228.763,419.162L229.79,417.622L233.51,418.392L234.024,418.007L238.899,418.52L238.642,419.547L236.59,420.701L233.125,420.445L228.763,419.162ZM232.997,423.268L234.537,426.347L236.975,425.449L237.231,424.166L235.948,422.498L232.997,422.241L232.997,423.268ZM238.514,422.369L240.31,420.06L244.031,421.984L247.495,422.883L250.959,425.064L250.959,426.603L248.137,428.015L244.288,428.785L242.363,427.63L238.514,422.369ZM251.729,434.686L253.012,433.66L255.707,434.943L261.737,437.766L264.431,439.434L265.714,441.358L267.254,444.822L270.461,446.875L270.205,447.902L267.126,450.468L263.79,451.622L262.635,451.109L260.197,452.52L258.273,455.087L256.476,457.396L255.065,457.268L252.243,455.215L251.986,451.622L252.499,449.698L251.216,445.207L249.548,443.796L249.42,441.743L251.216,440.973L252.884,438.536L253.269,437.766L251.986,436.354L251.729,434.686Z" style="fill-rule:nonzero;"/>
        <path id="AK" d="M120.732,355.011L120.476,422.754L121.759,423.524L124.197,423.652L125.351,422.754L127.404,422.754L127.532,425.064L133.049,430.452L133.434,432.505L136.129,430.966L136.642,430.837L136.899,428.4L138.053,427.117L138.951,426.988L140.491,425.834L142.929,427.501L143.442,429.811L144.982,430.709L145.88,432.634L148.959,434.045L151.653,438.792L153.834,441.871L155.631,444.053L156.785,447.003L160.763,448.415L164.868,450.083L165.638,453.547L166.023,455.985L165.253,458.679L163.842,460.475L162.559,459.834L161.404,457.396L159.223,456.241L157.812,455.343L157.17,455.985L158.325,458.166L158.453,461.117L157.555,461.502L156.016,459.962L154.348,458.936L154.733,460.219L155.759,461.63L155.117,462.271C155.117,462.271 154.476,462.015 154.091,461.502C153.706,460.988 152.423,458.807 152.423,458.807L151.653,457.011C151.653,457.011 151.397,458.037 150.883,457.781C150.37,457.524 149.857,456.626 149.857,456.626L151.268,455.087L150.114,453.932L150.114,449.954L149.472,449.954L148.831,452.649L147.933,453.034L147.163,450.083L146.65,447.132L146.008,446.747L146.265,451.237L146.265,452.136L145.11,451.109L142.287,446.362L140.619,445.977L140.106,443.026L138.823,440.717L137.54,439.819L137.54,438.022L139.208,436.996L138.823,436.739L136.77,437.252L134.076,435.328L132.023,433.018L128.174,430.966L124.966,428.913L125.993,426.347L125.993,425.064L124.581,426.347L122.272,427.245L119.321,426.347L114.83,424.422L110.468,424.422L109.955,424.807L104.823,421.728L103.155,421.471L100.974,416.852L98.151,417.109L95.328,418.264L95.713,421.856L96.612,419.547L97.381,419.803L96.227,423.268L98.793,421.086L99.306,422.369L96.227,425.834L95.2,425.577L94.815,424.037L93.789,423.396L92.762,424.294L90.581,422.883L88.144,424.551L86.732,426.218L84.038,427.886L80.317,427.758L79.932,426.09L82.883,425.577L82.883,424.551L81.087,424.037L81.857,422.113L83.653,419.034L83.653,417.622L83.781,416.981L87.245,415.184L88.015,416.211L90.196,416.211L89.17,414.158L86.219,413.901L82.242,416.083L80.317,418.777L78.906,420.83L78.008,422.626L74.672,423.781L72.234,425.834L71.977,427.117L73.774,427.886L74.415,429.554L72.234,432.12L67.102,435.456L60.943,438.792L59.275,439.69L55.041,440.588L50.808,442.385L52.219,443.411L51.064,444.566L50.679,445.464L48.498,444.694L45.932,444.822L45.29,446.619L44.521,446.619L44.777,444.694L41.955,445.72L39.645,446.49L36.951,445.464L34.641,447.003L32.075,447.003L30.407,448.03L29.124,448.671L27.456,448.415L25.404,447.517L23.607,448.03L22.838,448.8L21.555,447.902L21.555,446.362L23.992,445.336L28.996,445.849L32.46,444.566L34.128,442.898L36.438,442.385L37.849,441.743L40.03,441.871L41.313,442.898L42.083,442.641L43.879,440.46L46.317,439.69L49.011,439.177L50.038,438.92L50.551,439.305L51.192,439.305L52.219,436.354L55.426,435.2L56.966,432.249L58.762,428.656L60.045,427.501L60.302,425.449L59.019,426.475L56.325,426.988L55.811,425.064L54.785,424.807L54.015,425.577L53.887,427.886L52.732,427.758L51.577,423.139L50.551,424.166L49.653,423.781L49.396,422.241L46.189,422.369L44.521,423.268L42.468,423.011L43.623,421.856L44.007,419.803L43.494,418.264L44.649,417.494L45.675,417.366L45.162,415.954L45.162,412.49L44.392,411.72L43.751,412.875L38.875,412.875L37.721,411.849L37.207,408.769L35.54,405.947L35.54,405.177L37.207,404.535L37.336,402.867L38.234,401.969L37.592,401.584L36.566,401.969L35.668,399.788L36.438,395.811L40.03,393.245L42.083,391.962L43.623,389.011L45.804,387.984L47.857,388.882L48.113,390.807L50.038,390.55L52.604,388.626L53.887,389.139L54.657,389.652L55.94,389.652L57.736,388.626L58.377,385.162C58.377,385.162 58.634,382.852 59.147,382.467C59.66,382.082 59.917,381.697 59.917,381.697L59.019,380.158L56.966,380.799L54.4,381.441L52.86,381.056L50.038,379.645L46.06,379.516L43.238,376.565L43.623,373.486L44.136,371.562L42.468,370.15L40.928,367.199L41.313,366.558L46.702,366.173L48.37,366.173L49.14,366.943L49.653,366.943L49.524,365.66L52.604,365.146L54.657,365.403L55.811,366.301L54.657,367.969L54.272,369.124L56.453,370.407L60.43,371.818L61.842,371.048L60.045,367.584L59.275,365.018L60.045,364.377L57.351,362.837L56.966,361.939L57.351,360.656L56.709,357.577L54.4,353.856L52.475,350.52L54.785,348.98L57.351,348.98L58.762,349.494L62.098,349.365L65.049,346.543L65.947,344.105L68.898,342.18L70.181,342.95L72.362,342.437L75.313,340.769L76.211,340.641L76.981,341.282L80.574,341.154L82.755,338.716L83.653,338.716L86.476,340.641L88.015,342.309L87.63,343.207L88.144,344.105L89.427,342.822L92.506,343.078L92.762,346.029L94.302,347.184L99.947,347.697L104.951,351.033L106.106,350.263L110.212,352.316L111.88,351.803L113.419,351.161L117.268,352.701L120.732,355.011ZM29.381,377.977L31.049,382.211L30.921,382.981L28.611,382.724L27.2,379.516L25.789,378.362L23.864,378.362L23.736,376.309L25.147,374.384L26.045,376.309L27.2,377.463L29.381,377.977ZM27.328,404.535L30.279,405.177L33.23,405.947L33.872,406.716L32.589,409.667L30.151,409.539L27.456,406.716L27.328,404.535ZM10.905,393.373L11.804,395.426L12.702,396.709L11.804,397.35L10.136,394.913L10.136,393.373L10.905,393.373ZM0,451.366L2.694,449.57L5.388,448.8L7.441,449.056L7.826,450.339L9.366,450.724L10.905,449.185L10.649,447.902L12.83,447.388L15.139,449.441L14.241,450.853L10.777,451.751L8.596,451.366L5.645,450.468L2.181,451.622L0.898,451.879L0,451.366ZM38.875,447.773L40.158,449.313L41.826,448.03L40.672,447.003L38.875,447.773ZM41.185,450.211L42.083,448.415L43.751,448.671L43.109,450.211L41.185,450.211ZM59.917,448.671L61.072,450.083L61.842,449.185L61.2,447.645L59.917,448.671ZM66.845,438.792L67.743,443.411L70.053,444.053L74.03,441.743L77.494,439.69L76.211,437.766L76.596,435.841L74.928,436.868L72.619,436.226L73.902,435.328L75.442,435.969L78.521,434.558L78.906,433.403L76.981,432.762L77.623,431.222L75.442,432.762L71.721,435.585L67.872,437.894L66.845,438.792ZM100.461,423.011L102.385,421.856L101.615,420.445L100.204,421.215L100.461,423.011Z" style="fill:rgb(226,226,226);fill-rule:nonzero;"/>
        <path id="FL" d="M594.796,348.528L596.594,354.336L599.555,362.068L603.789,369.51L606.739,374.513L610.589,378.876L613.796,381.827L615.079,384.136L614.181,385.163L613.539,386.189L615.849,392.091L618.158,394.4L620.211,398.634L623.034,403.253L626.626,409.796L627.653,415.827L628.038,425.321L628.551,426.732L628.294,429.427L626.37,430.453L626.626,431.993L626.113,433.532L626.37,435.457L626.755,436.997L624.573,439.563L622.136,440.717L619.056,440.846L617.902,442.129L615.977,442.898L614.951,442.513L614.053,441.744L613.796,439.434L613.155,436.74L610.46,432.634L607.638,430.838L604.558,430.581L603.917,431.608L601.479,428.144L600.966,425.321L598.913,422.113L597.502,421.215L596.219,422.883L594.807,422.627L593.139,418.649L590.83,415.57L588.521,411.336L586.468,408.898L583.645,405.947L585.313,404.023L587.879,399.661L587.751,398.378L584.158,397.608L582.875,398.121L583.132,398.634L585.185,399.404L584.03,402.996L583.389,403.381L581.977,400.174L580.951,396.325L580.694,394.144L581.849,390.423L581.849,382.853L579.411,379.902L578.385,377.464L574.279,376.438L572.739,375.925L571.456,373.872L568.762,372.589L567.864,369.895L565.683,369.125L563.758,366.174L560.422,365.019L558.113,363.864L556.06,363.864L552.853,364.506L552.724,366.046L553.366,366.815L552.981,367.713L550.543,367.585L547.592,370.408L544.77,371.947L541.69,371.947L539.124,372.974L538.868,370.793L537.585,369.253L535.275,368.355L533.992,367.2L527.577,364.121L521.547,362.71L518.083,363.223L513.336,363.608L508.588,365.276L505.827,365.762L505.638,359.373L503.586,357.834L502.174,356.423L502.431,353.985L510.514,352.958L530.786,350.649L536.174,350.136L540.489,350.358L542.541,353.437L543.696,354.592L550.123,355.001L558.71,354.488L575.784,353.461L580.106,352.926L583.738,352.948L583.867,355.258L586.902,355.899L587.158,352.084L585.875,348.492L586.633,347.91L590.691,348.271L594.796,348.528ZM604.753,453.611L606.678,453.098L607.704,452.906L608.859,451.045L610.719,449.762L611.746,450.147L613.093,450.404L613.413,451.238L610.655,452.2L607.319,453.355L605.459,454.317L604.753,453.611ZM615.466,449.634L616.429,450.468L618.61,448.8L622.844,445.464L625.795,442.385L627.783,437.124L628.553,435.777L628.681,433.083L628.104,433.468L627.334,435.713L626.18,439.37L623.613,443.539L620.149,446.875L617.455,448.415L615.466,449.634Z" style="fill-rule:nonzero;"/>
        <path id="SC" d="M599.426,322.679L598.016,323.449L595.963,322.422L595.45,320.755L594.423,317.932L592.627,316.264L590.574,315.751L589.291,311.902L587.11,307.155L583.774,305.615L582.106,304.075L581.08,302.022L579.412,300.483L577.616,299.456L575.82,297.147L573.382,295.351L569.789,293.939L569.405,292.785L567.48,290.475L567.095,289.321L564.401,285.215L561.706,285.343L558.499,283.419L557.472,282.392L557.216,280.981L557.857,279.441L559.654,278.671L559.397,277.004L564.272,274.951L571.457,271.358L577.231,270.717L590.318,270.332L592.114,271.871L593.397,274.437L596.861,274.053L606.869,272.898L609.178,273.539L619.186,279.57L627.208,286.015L622.906,290.347L620.853,295.223L620.468,300.227L619.185,300.868L618.287,303.049L616.362,303.562L614.694,306.385L612.513,308.566L610.717,311.261L609.434,311.902L606.611,314.596L604.302,314.725L605.072,317.291L601.094,321.653L599.426,322.679Z" style="fill:rgb(226,226,226);fill-rule:nonzero;"/>
        <path id="GA" d="M542.589,279.056L538.74,279.698L532.069,280.596L525.269,281.302L525.269,283.034L525.397,284.702L525.91,287.396L528.604,293.683L530.529,301.509L531.684,306.385L532.967,310.234L534.121,315.751L535.789,320.755L537.842,323.449L538.227,326.143L539.767,326.785L539.895,328.453L538.484,332.302L538.099,334.868L537.97,336.407L539.254,339.872L539.51,344.106L538.869,346.03L539.382,346.672L540.537,347.313L541.05,350.007L543.103,353.087L544.257,354.241L550.544,354.37L559.131,353.856L576.205,352.83L580.527,352.295L584.159,352.317L584.288,354.626L586.34,355.268L586.597,351.804L585.314,348.211L586.212,346.928L590.831,347.57L594.781,347.822L594.166,342.823L595.962,334.868L597.117,331.532L596.732,329.479L599.378,324.524L598.973,323.451L597.455,324.01L595.402,322.984L594.889,321.316L593.862,318.493L592.066,316.825L590.013,316.312L588.73,312.463L586.409,307.435L583.073,305.895L581.405,304.356L580.379,302.303L578.711,300.763L576.914,299.737L575.118,297.428L572.68,295.631L569.088,294.22L568.703,293.065L566.778,290.756L566.394,289.601L563.699,285.706L561.005,285.834L557.727,283.419L556.701,282.392L556.444,280.981L557.086,279.441L558.952,278.461L558.052,277.491L558.114,277.26L553.495,278.03L547.978,278.671L542.589,279.056Z" style="fill:rgb(226,226,226);fill-rule:nonzero;"/>
        <path id="AL" d="M491.781,365.404L490.499,353.343L488.318,338.46L488.446,327.298L489.087,302.664L488.959,289.449L489.09,284.354L495.246,284.06L517.314,282.007L524.395,281.482L524.278,283.214L524.406,284.882L524.919,287.576L527.614,293.863L529.538,301.689L530.693,306.565L531.976,310.414L533.131,315.931L534.799,320.935L536.852,323.629L537.236,326.323L538.776,326.965L538.904,328.633L537.493,332.482L537.108,335.048L536.98,336.588L538.263,340.052L538.519,344.286L537.878,346.21L538.391,346.852L539.546,347.493L540.368,349.505L535.364,349.505L529.975,350.019L509.703,352.328L501.44,353.444L501.364,356.423L502.775,357.834L504.828,359.373L505.289,365.671L500.89,367.713L498.709,367.457L500.89,365.917L500.89,365.147L498.453,360.4L496.656,359.887L495.502,363.351L494.475,365.532L493.962,365.404L491.781,365.404Z" style="fill:rgb(226,226,226);fill-rule:nonzero;"/>
        <path id="NC" d="M655.677,231.833L657.034,235.562L659.856,240.695L661.781,242.619L662.294,244.415L660.37,244.544L661.011,245.057L660.755,248.393L658.702,249.419L658.189,251.087L657.162,253.396L654.211,254.679L652.287,254.423L651.132,254.295L649.849,253.268L650.106,254.295L650.106,255.064L651.645,255.064L652.287,256.091L650.747,261.095L654.083,261.095L654.596,262.378L656.392,260.581L657.419,260.196L655.879,263.019L653.441,266.868L652.415,266.868L651.517,266.483L649.336,266.996L645.23,268.921L640.098,273.155L637.404,276.876L635.864,282.008L635.479,283.932L631.758,284.317L627.43,285.378L619.536,278.868L609.529,272.838L607.219,272.196L597.212,273.351L593.818,273.946L592.535,271.38L590.177,269.7L577.091,270.085L571.317,270.727L564.132,274.319L559.257,276.372L557.974,276.629L553.355,277.399L547.838,278.04L542.449,278.425L542.846,275.207L544.257,274.053L546.438,273.539L546.952,270.588L550.288,268.407L553.367,267.253L556.703,264.43L560.167,262.762L560.68,260.324L563.759,257.245L564.272,257.117C564.272,257.117 564.272,258.015 564.914,258.015C565.555,258.015 566.454,258.271 566.454,258.271L568.25,255.449L569.918,254.936L571.714,255.192L572.997,252.37L575.306,250.317L575.691,248.649L575.691,245.505L579.284,246.083L584.947,245.056L597.503,243.517L611.103,241.464L626.914,238.289L642.575,234.983L651.594,232.764L655.677,231.833ZM658.768,258.014L660.821,256.025L663.323,253.973L664.542,253.459L664.67,251.856L664.157,246.98L663.002,245.12L662.489,243.644L663.066,243.452L665.248,247.814L665.568,251.342L665.44,254.037L662.746,255.256L660.5,257.18L659.602,258.142L658.768,258.014Z" style="fill:rgb(226,226,226);fill-rule:nonzero;"/>
        <path id="TN" d="M548.491,249.419L507.306,253.396L494.799,254.807L491.131,255.214L488.061,255.192L488.061,258.271L481.389,258.656L475.872,259.17L467.066,259.212L466.856,263.843L465.159,268.823L464.369,271.217L463.299,274.694L463.042,276.747L459.834,278.543L460.989,281.366L460.219,284.83L459.451,285.457L465.21,285.302L484.327,283.763L488.561,283.635L494.976,283.25L517.044,281.197L525.116,280.555L531.798,279.785L538.47,278.887L542.319,278.246L542.216,274.667L543.627,273.512L545.808,272.999L546.321,270.048L549.657,267.867L552.736,266.712L556.072,263.89L559.536,262.222L560.23,259.424L563.669,256.344L564.182,256.216C564.182,256.216 564.182,257.114 564.824,257.114C565.465,257.114 566.364,257.371 566.364,257.371L568.16,254.548L569.828,254.035L571.624,254.292L572.907,251.469L574.586,249.686L575.061,248.919L575.201,245.798L574.023,245.569L572.099,247.109L565.812,247.237L556.292,248.746L548.491,249.419Z" style="fill-rule:nonzero;"/>
        <path id="RI" d="M688.981,137.668L688.598,134.331L687.956,130.867L686.609,126.184L691.164,124.965L692.447,125.863L695.141,129.327L697.452,132.856L695.14,134.076L694.113,133.947L693.215,135.359L691.29,136.898L688.981,137.668Z" style="fill-rule:nonzero;"/>
        <path id="CT" d="M688.285,137.848L687.787,134.511L687.146,131.047L685.863,126.3L682.568,127.018L665.247,130.803L665.76,133.433L666.915,139.207L666.915,145.622L666.017,147.418L667.471,149.092L671.404,146.393L674.226,143.827L675.766,142.159L676.407,142.672L678.589,141.517L682.694,140.619L688.285,137.848Z" style="fill-rule:nonzero;"/>
        <path id="MA" d="M709.542,132.928L711.262,132.384L711.632,131.023L712.442,131.114L713.262,132.928L712.262,133.291L709.182,133.382L709.542,132.928ZM702.102,133.563L703.922,131.477L705.192,131.477L706.642,132.656L704.732,133.472L703.012,134.289L702.102,133.563ZM674.485,116.112L688.341,112.776L690.137,112.263L691.805,109.697L694.771,108.377L697.062,111.879L695.14,115.985L694.883,117.14L696.422,119.193L697.322,118.551L698.732,118.551L700.532,120.604L703.612,125.351L706.432,125.736L708.222,124.966L709.642,123.555L708.992,121.374L707.332,120.091L706.172,120.732L705.402,119.706L705.792,119.321L707.462,119.193L708.872,119.834L710.412,121.759L711.182,124.068L711.432,125.993L708.102,127.147L705.022,128.687L701.942,132.279L700.402,133.434L700.402,132.664L702.322,131.51L702.712,130.098L702.072,127.66L699.762,128.815L699.112,129.97L699.502,131.766L697.862,132.56L695.682,128.967L692.987,125.503L691.344,124.065L686.159,125.554L682.117,126.388L664.796,130.172L664.477,126.248L664.99,117.844L669.096,117.139L674.485,116.112Z" style="fill-rule:nonzero;"/>
        <path id="ME" d="M727.982,56.325L729.522,57.993L731.322,60.943L731.322,62.483L729.652,66.204L728.112,66.717L725.422,69.155L721.572,73.517L720.542,73.517C720.032,73.517 719.772,71.849 719.772,71.849L718.362,71.977L717.592,73.132L715.672,74.287L714.902,75.442L716.182,76.596L715.792,77.11L715.412,79.291L713.872,79.162L713.872,77.879L713.612,76.853L712.462,77.11L711.052,74.543L709.382,75.57L710.412,76.725L710.662,77.623L710.022,78.649L710.282,81.087L710.412,82.37L709.122,84.423L706.812,84.808L706.562,87.117L702.322,89.555L701.302,89.94L700.012,88.785L697.582,91.608L698.352,94.174L697.192,95.2L697.062,98.664L696.172,103.632L694.218,102.715L693.833,100.277L690.754,99.379L690.498,97.198L684.724,78.594L681.392,67.769L682.519,67.675L683.721,68L683.721,65.947L684.362,61.585L686.415,57.864L687.57,54.657L686.03,52.732L686.03,47.985L686.672,47.215L687.313,45.034L687.185,43.879L687.057,40.03L688.468,36.181L690.777,29.125L692.445,25.789L693.472,25.789L694.498,25.917L694.498,26.815L695.524,28.611L697.702,29.125L698.352,28.483L698.352,27.713L701.552,25.404L702.962,23.992L704.122,24.121L708.872,26.045L710.412,26.815L717.592,50.551L722.342,50.551L722.982,52.091L723.112,55.94L725.422,57.736L726.062,57.736L726.192,57.351L725.802,56.453L727.982,56.325ZM711.372,80.251L712.592,79.032L713.682,79.866L714.132,81.791L712.782,82.496L711.372,80.251ZM716.702,75.568L718.112,77.044C718.112,77.044 719.132,77.108 719.132,76.851C719.132,76.595 719.332,75.247 719.332,75.247L720.032,74.606L719.392,73.195L717.792,73.772L716.702,75.568Z" style="fill-rule:nonzero;"/>
        <path id="NH" d="M694.322,107.987L695.011,107.132L695.872,104.52L693.858,103.795L693.473,101.358L690.394,100.459L690.137,98.278L684.364,79.674L680.712,68.132L680,68.128L679.487,69.411L678.973,69.026L678.204,68.257L677.049,69.796L677.01,73.79L677.258,78.288L678.797,80.469L678.797,83.676L675.846,87.695L673.794,88.593L673.794,89.491L674.692,90.902L674.692,97.702L674.05,105.015L673.922,108.864L674.692,109.891L674.563,113.483L674.179,114.895L675.333,115.598L688.341,111.876L690.137,111.363L691.355,109.337L694.322,107.987Z" style="fill:rgb(226,226,226);fill-rule:nonzero;"/>
        <path id="VT" d="M665.389,116.956L664.747,112.466L662.85,104.552L662.337,104.295L660.027,103.268L660.669,100.959L660.027,99.291L657.884,95.609L658.654,92.529L658.012,88.424L656.088,83.292L655.449,79.385L676.28,74.03L676.537,78.648L678.077,80.829L678.077,84.037L675.126,87.244L673.073,88.142L673.073,89.04L673.971,90.452L673.971,97.252L673.33,104.565L673.201,108.414L673.971,109.441L673.843,113.033L673.458,114.444L673.982,115.688L668.465,116.778L665.389,116.956Z" style="fill-rule:nonzero;"/>
        <path id="NY" d="M652.905,145.286L652.007,144.516L649.954,144.388L648.158,142.848L646.864,137.984L644.119,138.056L642.179,135.907L626.794,139.384L592.666,146.313L586.69,147.287L586.104,142.154L587.238,141.26L588.264,140.362L589.034,139.079L590.445,138.181L591.985,136.77L592.37,135.487L594.038,133.306L594.936,132.536L594.807,131.766L593.781,129.328L592.37,129.2L590.83,124.325L593.139,122.913L596.604,121.759L599.811,120.732L602.377,120.347L607.381,120.219L608.921,121.245L610.204,121.374L611.872,120.347L613.924,119.449L618.03,119.064L619.698,117.653L621.109,115.087L622.392,113.547L624.06,113.547L625.6,112.649L625.728,110.853L624.573,109.185L624.317,108.03L625.215,106.362L625.215,105.208L623.804,105.208L622.392,104.566L621.751,103.668L621.623,101.615L626.241,97.253L626.755,96.611L627.909,94.302L630.219,90.71L632.4,87.759L634.068,85.834L635.985,84.385L638.43,83.396L642.792,82.37L645.358,82.498L648.951,81.343L654.955,79.7L655.367,83.652L657.292,88.784L657.934,92.89L657.164,95.969L659.217,99.561L659.858,101.229L659.217,103.539L661.526,104.565L662.039,104.822L664.477,113.546L664.051,117.562L663.666,126.158L664.308,130.52L664.949,133.343L666.104,139.117L666.104,145.532L665.206,147.328L666.666,148.91L667.298,150.242L665.758,151.653L666.015,152.679L667.041,152.423L668.196,151.396L669.992,149.344L670.89,148.83L672.173,149.344L673.97,149.472L680.256,146.393L682.566,144.211L683.592,143.057L686.928,144.34L684.234,147.162L681.155,149.472L675.509,153.706L673.456,154.476L668.838,156.015L665.63,156.913L664.698,156.49L664.504,153.563L664.889,151.382L664.761,149.714L662.528,148.365L658.935,147.596L655.856,146.698L652.905,145.286Z" style="fill-rule:nonzero;"/>
        <path id="NJ" d="M652.545,146.007L650.877,147.931L650.877,150.369L649.337,152.807L649.209,154.09L650.235,155.116L650.107,157.041L648.311,157.939L648.952,160.12L649.081,161.018L651.262,161.275L652.032,163.328L654.854,165.252L656.779,166.535L656.779,167.177L654.213,169.614L652.93,171.411L651.775,173.592L649.979,174.618L649.017,175.195L648.824,176.158L648.341,178.227L649.207,180.008L651.773,182.317L655.623,184.113L658.83,184.627L658.958,185.781L658.317,186.551L658.573,188.732L659.215,188.732L660.883,186.808L661.524,182.959L663.706,179.751L666.143,174.619L667.041,170.257L666.528,169.359L666.4,161.917L665.117,159.223L664.219,159.864L662.038,160.121L661.653,159.736L662.551,158.966L664.219,157.427L664.269,156.558L663.964,153.833L664.349,151.652L664.22,149.984L662.167,149.086L658.575,148.316L655.496,147.418L652.545,146.007Z" style="fill-rule:nonzero;"/>
        <path id="PA" d="M647.82,174.681L648.718,174.168L650.514,173.682L651.669,171.501L652.952,169.704L655.518,167.267L655.518,166.625L653.593,165.342L650.771,163.418L650.001,161.365L647.82,161.108L647.692,160.21L647.05,158.029L648.846,157.131L648.975,155.206L647.948,154.18L648.076,152.897L649.616,150.459L649.616,148.021L651.476,146.097L651.647,145.237L649.594,145.109L647.798,143.569L645.873,139.335L643.489,138.596L641.639,136.897L626.884,140.105L592.756,147.033L585.699,148.188L585.306,142.566L580.951,147.034L579.924,147.419L576.589,149.807L578.899,164.995L580.869,172.717L583.704,188.004L586.298,187.498L595.777,186.306L625.878,180.222L637.684,177.981L644.272,176.694L644.484,176.504L646.152,175.221L647.82,174.681Z" style="fill-rule:nonzero;"/>
        <path id="DE" d="M647.935,177.827L648.403,176.158L648.42,175.201L647.413,175.131L645.745,176.414L644.59,177.569L645.745,180.905L647.541,185.395L649.209,193.094L650.492,198.097L654.469,197.969L659.344,197.007L657.547,191.17L656.777,191.555L653.955,189.63L652.543,185.91L651.004,183.087L649.207,182.317L647.54,179.494L647.935,177.827Z" style="fill-rule:nonzero;"/>
        <path id="MD" d="M659.523,197.574L654.649,198.6L650.042,198.728L648.579,193.094L646.911,185.395L645.114,180.905L644.092,177.414L638.135,178.702L626.328,180.942L596.605,186.935L597.503,190.913L598.272,195.403L598.529,195.147L600.197,193.222L601.993,191.145L603.918,190.656L605.073,189.501L606.484,187.449L607.51,187.962L609.82,187.705L611.873,186.037L613.465,184.884L614.93,184.499L616.235,185.396L618.544,186.55L620.084,187.962L621.046,189.181L624.318,190.528L624.318,192.837L628.68,193.864L629.588,194.294L630.709,192.684L632.996,194.248L631.982,196.217L631.374,199.381L629.963,201.434L629.963,203.101L630.476,204.513L634.495,205.589L637.917,205.54L640.355,206.31L642.023,206.566L642.792,204.898L641.638,203.23L641.638,201.819L639.713,200.151L638.045,195.789L639.072,191.555L638.943,189.887L637.917,188.861C637.917,188.861 639.072,187.577 639.072,187.064C639.072,186.551 639.456,185.396 639.456,185.396L640.996,184.37L642.536,183.087L642.921,183.857L641.766,185.14L640.74,188.091L640.996,188.989L642.407,189.245L642.792,193.608L641.124,194.377L641.381,197.2L641.766,197.072L642.664,195.532L643.947,196.944L642.664,197.97L642.407,200.664L644.46,203.359L647.54,203.744L648.823,203.102L651.391,206.422L652.469,206.847L657.75,204.628L659.343,201.434L659.523,197.574ZM646.323,204.705L647.221,206.693L647.349,208.105L648.248,209.58C648.248,209.58 648.953,208.874 648.953,208.618C648.953,208.361 648.376,206.18 648.376,206.18L647.798,204.32L646.323,204.705Z" style="fill-rule:nonzero;"/>
        <path id="WV" d="M595.72,186.989L596.602,190.913L597.462,196.394L600.287,194.213L602.083,191.775L604.098,191.287L605.253,190.132L606.664,188.079L607.6,188.592L609.91,188.336L611.963,186.668L613.555,185.514L615.02,185.129L616.055,185.936L617.824,186.821L619.363,188.232L620.454,189.258L620.34,192.966L615.85,190.528L612.257,189.117L612.129,193.351L611.744,195.018L610.461,197.2L609.948,198.483L607.51,200.407L607.125,202.203L604.431,202.46L604.174,204.898L603.276,209.26L601.223,209.26L600.197,208.618L598.914,206.437L597.503,206.566L597.246,210.03L595.578,215.29L591.601,223.886L592.242,224.913L592.114,227.094L590.446,228.634L589.291,228.377L586.725,230.302L584.672,229.532L583.261,233.252C583.261,233.252 580.31,233.894 579.797,234.022C579.284,234.151 577.872,232.996 577.872,232.996L575.948,234.792L573.895,235.305L571.586,234.664L570.559,233.637L568.819,231.238L566.325,229.66L564.272,227.479L561.963,224.528L561.45,222.732L559.397,221.577L558.755,220.294L558.563,216.124L560.295,216.06L561.835,215.418L561.963,213.237L563.246,212.083L563.374,208.105L564.144,205.026L565.171,204.513L566.197,205.411L566.582,206.822L567.993,206.052L568.378,204.769L567.48,203.358L567.48,201.434L568.25,200.407L570.046,197.713L571.072,196.558L572.74,196.943L574.537,195.66L576.974,192.966L578.771,189.886L579.027,185.396L579.412,181.418L579.412,177.698L578.514,175.26L579.284,174.105L580.302,173.079L583.073,188.815L586.749,188.218L595.72,186.989Z" style="fill-rule:nonzero;"/>
        <path id="KY" d="M568.118,231.314L566.273,233.444L562.938,236.266L559.525,240.951L558.114,242.362L558.114,244.03L555.035,245.698L550.544,248.392L547.751,248.697L506.586,252.585L494.078,253.997L490.411,254.404L487.34,254.382L487.16,257.731L480.669,257.846L475.152,258.359L466.874,258.522L468.392,258.346L470.122,256.948L471.755,256.041L471.936,253.5L472.662,252.049L471.387,250.034L472.023,248.52L473.819,247.109L475.487,246.596L477.668,247.622L480.491,248.649L481.389,248.392L481.518,246.596L480.491,244.671L480.748,242.875L482.287,241.72L484.34,241.207L485.623,240.694L484.982,239.283L484.468,237.743L485.367,237.102L486.201,234.471L488.574,233.124L493.193,232.354L496.016,231.969L497.17,233.509L498.582,234.151L499.993,231.585L502.302,230.43L503.842,231.713L504.484,232.611L506.152,232.226L506.023,229.532L508.333,228.249L509.231,227.607L510.129,228.89L513.85,228.89L514.491,227.222L514.235,225.426L516.544,222.603L520.265,219.524L520.65,215.932L522.831,215.675L525.91,214.264L528.091,212.724L527.835,211.185L526.68,210.03L527.129,208.298L530.401,208.105L532.325,207.464L534.635,208.747L535.918,212.211L540.537,212.468L541.948,213.879L543.616,214.007L545.54,212.852L547.978,213.237L549.004,214.392L551.186,212.339L552.597,211.313L553.88,211.313L554.393,213.494L555.804,214.264L557.727,216.022L557.855,220.384L558.496,221.667L560.549,222.822L561.062,224.618L563.372,227.569L565.425,229.75L568.118,231.314Z" style="fill:rgb(226,226,226);fill-rule:nonzero;"/>
        <path id="OH" d="M575.779,149.719L570.943,152.936L567.864,154.732L565.17,157.683L561.962,160.762L559.396,161.404L557.087,161.789L552.724,163.842L551.056,163.97L548.362,161.532L544.256,162.045L542.204,160.891L540.314,159.819L536.431,160.377L528.348,161.66L522.189,162.622L523.216,174.233L524.627,185.139L526.68,203.743L527.129,207.577L530.401,207.475L532.325,206.833L534.995,208.026L536.638,211.49L540.717,211.477L542.218,213.158L543.616,213.107L545.63,212.042L547.618,212.337L549.185,213.491L550.555,211.799L552.417,210.772L554.06,210.232L554.573,212.413L555.985,213.183L558.743,215.043L560.475,214.979L561.384,214.068L561.333,212.967L562.616,211.812L562.744,207.835L563.514,204.756L564.72,203.612L565.927,204.33L566.582,205.291L567.543,205.152L567.207,203.238L566.76,202.728L566.76,200.803L567.529,199.777L569.326,197.082L570.352,195.928L572.02,196.313L573.816,195.03L576.254,192.335L578.05,189.256L578.217,184.945L578.602,180.968L578.602,177.247L577.703,174.81L578.473,173.655L579.204,172.897L578.089,165.086L575.779,149.719Z" style="fill-rule:nonzero;"/>
        <path id="MI" d="M456.877,60.077L458.329,58.444L460.053,57.809L464.317,54.725L466.131,54.271L466.494,54.634L462.411,58.716L459.78,60.259L458.147,60.984L456.877,60.077ZM525.27,85.576L525.783,87.564L528.349,87.693L529.375,86.73C529.375,86.73 529.311,85.576 529.055,85.447C528.798,85.319 527.772,83.972 527.772,83.972L526.04,84.164L524.756,84.293L524.5,85.191L525.27,85.576ZM549.132,135.615L546.566,129.072L544.77,121.887L542.845,119.321L540.792,117.91L539.509,118.808L536.43,120.219L534.89,124.196L532.709,127.147L531.811,127.66L530.656,127.147C530.656,127.147 528.604,125.993 528.732,125.479C528.86,124.966 529.117,121.502 529.117,121.502L531.811,120.476L532.453,117.781L532.966,115.728L534.89,114.445L534.634,106.491L533.351,104.694L532.324,104.053L531.683,102.385L532.324,101.743L533.607,102L533.736,100.717L531.811,98.921L530.785,96.868L528.732,96.868L525.139,95.713L520.777,93.019L518.596,93.019L518.083,93.532L517.313,93.147L514.875,91.351L512.566,92.762L510.256,94.559L510.513,97.381L511.283,97.638L512.951,98.023L513.336,98.664L511.283,99.306L509.23,99.562L508.075,100.974L507.819,102.642L508.075,103.925L508.332,108.287L505.509,109.955L504.996,109.827L504.996,106.491L506.022,104.566L506.536,102.642L505.894,102L504.355,102.642L503.585,105.977L501.404,106.876L499.992,108.415L499.864,109.185L500.377,109.827L499.864,111.879L498.068,112.264L498.068,113.162L498.709,115.087L497.811,119.962L496.528,123.17L497.041,126.891L497.426,127.789L496.785,129.713L496.528,130.355L496.271,132.536L499.094,137.283L501.404,142.415L502.558,146.264L501.917,149.985L501.147,154.732L499.222,158.838L498.966,161.019L496.379,163.468L499.878,163.339L516.877,161.543L522.653,160.759L522.73,162.082L528.168,161.12L536.341,159.927L539.4,159.561L539.509,159.094L539.638,157.94L541.305,154.989L542.893,153.61L542.717,149.6L543.984,148.333L544.85,148.06L545.026,145.238L546.245,142.832L547.079,143.313L547.207,143.827L547.849,143.955L549.388,143.185L549.132,135.615ZM445.665,83.215L446.234,82.755L448.415,82.113L451.238,80.317L451.238,79.547L451.751,79.034L456.498,78.264L458.422,76.725L461.887,75.057L462.015,74.03L463.554,71.721L464.966,71.079L465.992,69.668L467.788,67.872L471.253,65.947L474.973,65.562L475.871,66.46L475.615,67.23L472.664,68L471.509,70.438L469.713,71.079L469.328,73.004L467.404,75.57L467.147,77.623L467.788,78.008L468.558,77.11L471.381,74.8L472.407,75.826L474.204,75.826L476.77,76.596L477.924,77.494L479.079,79.932L481.26,82.113L484.339,81.985L485.494,81.215L486.777,82.242L488.06,82.626L489.087,81.985L489.985,81.985L491.268,81.215L494.475,78.393L497.17,77.494L502.43,77.238L506.022,75.698L508.075,74.672L509.23,74.8L509.23,79.291L509.615,79.547L511.924,80.189L513.464,79.804L518.339,78.521L519.238,77.623L520.392,78.008L520.392,83.525L522.958,85.962L523.985,86.476L525.011,87.245L523.985,87.502L523.343,87.245L520.392,86.86L518.724,87.374L516.928,87.245L514.362,88.4L512.951,88.4L508.332,87.374L504.226,87.502L502.687,89.555L497.17,90.068L495.245,90.71L494.347,93.147L493.321,94.045L492.936,93.917L491.781,92.634L488.188,94.559L487.675,94.559L486.777,93.276L486.136,93.404L484.596,96.868L483.826,100.076L481.301,105.632L480.368,104.811L479.279,103.992L477.739,95.827L474.926,94.74L473.296,92.925L463.677,90.748L461.411,89.931L454.879,88.207L448.617,87.299L445.665,83.215Z" style="fill-rule:nonzero;"/>
        <path id="WY" d="M276.427,109.059L268.054,108.418L242.588,105.803L229.705,104.17L207.206,100.904L191.42,98.545L190.294,107.415L187.247,126.669L183.073,150.802L181.858,159.148L180.533,168.583L185.711,169.32L206.25,171.304L222.575,173.135L251.768,176.401L270.674,178.671L274.249,143.598L275.391,123.457L276.427,109.059Z" style="fill-rule:nonzero;"/>
        <path id="WA" d="M69.539,-0L73.003,1.155L80.701,3.336L87.501,4.876L103.411,9.366L121.63,13.857L133.662,16.551L132.865,19.633L129.616,30.593L126.078,47.105L123.557,59.915L123.278,67.358L112.817,64.267L100.459,61.582L89.613,62.055L88.358,60.839L84.131,62.345L80.975,62.146L78.815,60.748L77.562,61.165L74.225,60.984L72.736,59.895L68.945,58.517L67.801,58.353L63.844,57.301L62.429,58.498L57.912,58.226L54.086,55.214L54.248,54.579L54.302,48.283L52.615,45.198L49.349,44.617L49.059,42.749L47.064,42.251L44.777,41.826L43.366,42.596L41.569,40.287L41.826,37.977L44.007,37.721L45.29,34.513L43.237,33.615L43.366,30.664L46.83,30.151L44.649,27.97L43.494,22.325L44.007,20.015L44.007,13.728L42.596,11.162L44.392,3.721L46.06,4.106L47.984,6.415L50.166,8.468L52.732,10.008L56.324,11.676L58.762,12.189L61.071,13.343L63.766,14.113L65.562,13.985L65.562,12.06L66.588,11.162L68.256,10.136L68.513,11.034L68.769,12.445L66.973,12.83L66.717,14.498L68.128,15.653L69.026,17.577L69.539,19.117L70.694,18.989L70.822,17.962L70.052,16.936L69.667,14.37L70.309,12.959L69.796,11.804L69.796,10.008L71.207,7.185L70.309,5.132L68.384,1.283L68.641,0.642L69.539,-0ZM62.034,4.745L63.638,4.617L64.023,5.708L65.241,4.424L67.102,4.424L67.743,5.643L66.524,6.991L67.038,7.632L66.46,9.236L65.37,9.557C65.37,9.557 64.664,9.621 64.664,9.364C64.664,9.108 65.819,7.311 65.819,7.311L64.472,6.862L64.215,8.017L63.638,8.53L62.419,6.734L62.034,4.745Z" style="fill-rule:nonzero;"/>
        <path id="TX" d="M278.65,259.533L296.659,260.395L321.336,261.303L319.483,279.918L319.247,294.326L319.301,295.978L322.749,299.009L324.127,299.661L325.563,299.862L326.107,298.865L326.814,299.553L328.192,299.935L329.466,299.356L330.37,299.68L330.134,302.383L333.527,303.201L335.651,303.854L338.789,304.27L340.531,305.722L343.109,304.471L345.321,304.761L346.935,306.973L347.788,307.228L347.661,308.787L350.112,309.714L352.309,308.282L353.506,308.571L355.374,308.698L355.718,310.185L359.401,311.764L361.509,311.602L363.088,308.336L363.358,308.336L364.265,309.841L367.786,310.64L370.434,311.602L373.048,312.2L374.754,311.602L375.426,309.606L378.364,309.606L379.87,310.204L382.302,308.953L382.827,308.953L383.116,309.841L386.51,309.841L388.417,308.845L389.741,309.081L390.865,310.567L393.15,311.891L395.945,312.744L398.122,313.87L400.064,315.157L402.678,314.451L404.218,315.231L404.624,323.278L404.89,330.978L405.434,338.545L405.851,341.757L407.975,345.405L408.828,348.632L411.893,353.624L412.329,355.909L412.746,356.709L412.202,362.658L410.098,366.14L410.859,368.41L410.569,370.406L409.897,376.212L408.809,378.37L409.288,381.852L404.792,383.11L396.966,386.702L396.196,388.242L394.143,389.781L392.475,390.936L391.449,391.578L386.958,395.812L384.777,397.479L380.543,400.046L376.053,401.97L371.049,404.664L369.637,405.819L365.019,408.642L362.324,409.155L359.245,413.517L356.037,413.774L355.268,415.313L357.064,416.853L355.909,421.215L354.883,424.808L353.985,427.887L353.343,431.48L353.985,433.404L355.396,438.921L356.166,443.797L357.577,445.978L356.807,447.132L354.37,448.672L349.879,445.593L345.517,444.695L344.49,445.08L341.924,444.566L338.588,442.129L334.483,441.23L328.453,438.536L326.785,435.457L325.758,430.325L323.192,428.785L322.679,426.989L323.192,426.476L323.449,423.781L322.422,423.268L321.909,422.498L322.936,419.034L321.653,417.238L319.086,416.212L316.392,412.747L313.57,407.487L310.234,405.434L310.362,403.895L306.128,394.144L305.486,390.808L304.075,389.268L303.947,388.113L299.2,383.879L297.147,381.442L297.147,380.544L295.094,378.876L289.705,377.978L283.803,377.464L281.366,375.668L277.773,377.079L274.951,378.234L273.154,380.8L272.385,383.751L268.92,388.627L266.996,390.551L264.943,389.781L263.532,388.883L261.992,388.37L258.913,386.574L258.913,386.061L257.502,384.521L253.396,382.853L247.494,376.695L245.698,372.974L245.698,366.559L243.132,361.427L242.747,359.246L241.464,358.476L240.566,356.808L236.588,355.14L235.562,353.857L229.917,347.57L228.89,345.004L225.169,343.208L224.015,339.744L221.962,337.434L220.422,337.049L219.907,333.337L226.258,333.881L249.301,336.059L272.345,337.329L274.16,318.458L277.244,274.367L278.514,259.488L279.603,259.511M358.156,445.207L357.707,439.562L355.526,433.853L355.077,428.271L356.295,421.728L358.926,416.275L361.684,411.977L364.186,409.154L364.699,409.347L360.914,414.607L357.45,419.804L355.846,425.064L355.59,429.17L356.295,434.045L358.348,439.755L358.733,443.86L358.861,445.015L358.156,445.207Z" style="fill-rule:nonzero;"/>
        <path id="AZ" d="M104.598,302.491L102.513,304.204L102.256,305.359L102.641,306.128L117.652,314.596L127.275,320.627L138.951,327.427L152.294,335.381L162.045,337.306L181.988,339.453L183.996,329.526L186.975,307.905L192.502,265.936L195.881,241.36L176.36,238.44L154.768,234.811L128.237,229.797L125.918,244.156L125.555,244.519L124.194,246.606L122.198,246.515L121.2,244.337L119.023,244.065L118.297,243.158L117.571,243.158L116.845,243.612L115.303,244.428L115.212,249.962L115.031,251.323L114.577,261.303L113.398,263.026L112.944,265.657L115.122,269.558L116.12,274.185L116.755,275.002L117.571,275.455L117.48,277.27L116.21,278.359L113.489,279.719L111.946,281.262L110.767,284.165L110.313,288.066L108.045,290.243L106.412,290.788L106.321,295.415L105.959,296.775L106.321,297.411L109.225,297.864L108.771,300.041L107.592,301.765L104.598,302.491Z" style="fill-rule:nonzero;"/>
        <path id="UT" d="M196.045,240.433L176.487,237.676L155.405,233.793L128.558,229.015L129.819,221.747L132.359,209.681L134.99,196.526L136.714,185.73L138.256,178.654L141.25,162.414L144.062,148.534L144.947,144.111L155.04,145.903L164.566,147.536L172.731,148.987L179.354,150.076L182.273,150.456L181.094,158.893L179.259,169.348L185.456,170.084L198.477,171.517L204.994,172.196L203.303,189.631L200.763,207.54L197.784,229.625L196.462,238.44L196.045,240.433Z" style="fill-rule:nonzero;"/>
        <path id="CO" d="M295.767,198.758L296.91,181.867L271.438,179.435L252.023,177.293L222.447,174.027L206.026,172.031L203.94,189.631L201.399,207.413L198.421,229.625L197.226,238.44L197.027,240.633L223.953,243.645L253.906,247.031L279.271,249.543L292.453,250.215L296.862,182.253" style="fill:rgb(226,226,226);fill-rule:nonzero;"/>
        <path id="NM" d="M219.659,337.05L219.143,332.191L226.003,332.608L249.429,335.04L271.963,336.182L273.523,318.458L276.48,274.112L277.368,258.724L278.966,259.001L278.955,250.212L253.396,248.304L224.08,244.791L196.727,241.525L193.394,265.936L187.866,308.16L184.888,329.526L183.261,340.089L195.532,341.668L196.558,333.713L209.773,335.766L219.659,337.05Z" style="fill-rule:nonzero;"/>
        <path id="OR" d="M106.629,135.178L110.039,120.971L113.742,106.782L114.575,103.425L116.444,98.962L115.956,98.039L113.96,98.003L112.942,96.677L113.305,95.515L113.705,92.938L117.243,88.583L118.695,87.711L119.602,86.803L120.781,83.974L123.993,79.474L126.823,76.409L127.005,73.67L124.41,71.71L123.451,68.131L112.944,65.159L100.969,62.347L88.721,62.437L88.358,61.349L84.004,62.982L80.465,62.528L78.56,61.258L77.562,61.802L73.843,61.621L72.482,60.532L68.308,58.899L67.673,58.99L64.226,57.81L62.684,59.262L57.785,58.99L53.067,55.724L53.611,55.089L53.793,48.92L51.978,45.835L48.712,45.381L48.168,43.385L46.3,43.015L41.698,44.649L39.901,49.781L37.335,57.736L34.769,62.868L30.792,74.03L25.66,84.808L19.245,94.815L17.705,97.125L17.064,103.925L16.037,108.672L18.187,111.471L23.528,113.258L32.727,115.872L38.97,117.887L48.822,120.771L59.4,123.62L69.851,126.449L106.629,135.178Z" style="fill:rgb(226,226,226);fill-rule:nonzero;"/>
        <path id="ND" d="M369.327,96.275L369.037,90.326L367.458,84.52L366.006,73.687L365.643,65.885L364.065,63.418L362.794,59.171L362.794,51.006L363.339,47.921L361.66,43.557L339.102,43.109L324.347,42.596L303.305,41.57L283.507,40.075L282.506,51.369L281.417,63.344L279.625,83.144L279.239,91.89L324.331,94.878L369.327,96.275Z" style="fill-rule:nonzero;"/>
        <path id="SD" d="M370.51,156.206L369.754,155.348L368.547,152.47L369.998,149.531L370.832,145.123L368.782,143.49L368.547,141.312L369.018,138.934L370.724,138.297L370.96,133.746L370.905,109.868L370.415,107.509L367.149,104.66L366.369,103.081L366.369,101.556L367.875,100.541L369.091,99.07L369.236,96.912L323.694,95.642L279.112,92.557L278.503,96.747L277.223,109.341L276.155,123.585L274.885,143.106L287.606,143.922L303.191,144.83L317.471,145.864L336.342,146.899L344.87,146.281L347.139,148.096L350.568,150.454L351.348,151.053L354.158,150.346L357.37,150.111L359.548,150.057L362.018,151.018L365.628,152.161L368.114,153.558L368.604,155.083L369.33,156.589L369.89,156.207L370.51,156.206Z" style="fill:rgb(226,226,226);fill-rule:nonzero;"/>
        <path id="NE" d="M379.596,190.975L380.684,193.098L380.758,194.785L382.626,197.742L384.784,200.244L380.777,200.244L346.267,199.499L313.896,198.792L297.078,198.03L297.929,181.103L271.438,178.926L274.885,143.997L287.224,144.814L303.191,145.721L317.344,146.628L336.214,147.536L344.742,147.173L346.375,148.987L350.186,151.346L351.093,152.072L354.54,150.983L357.625,150.62L359.802,150.439L361.254,151.527L365.246,152.798L367.605,154.068L367.967,155.338L368.693,156.971L370.145,156.971L370.778,157.007L371.558,161.144L373.735,167.514L374.716,171.197L376.403,174.227L376.82,178.146L377.963,181.539L378.399,186.674" style="fill-rule:nonzero;"/>
        <path id="IA" d="M444.952,154.974L445.088,156.515L446.902,157.42L447.808,158.417L448.081,159.418L451.165,161.96L451.71,163.684L451.075,165.956L449.894,168.769L449.259,170.945L447.535,172.216L446.174,172.671L441.82,173.849L441.276,175.661L440.641,177.474L441.096,178.563L442.457,179.923L442.456,182.829L440.734,184.099L440.37,185.279L440.37,187.276L439.189,187.639L437.828,188.727L437.467,189.905L437.828,191.268L436.738,192.224L434.917,190.088L433.74,188.003L427.12,188.638L419.048,189.091L399.178,189.636L388.832,189.818L381.393,189.999L380.349,190.096L379.036,186.547L378.854,181.285L377.584,178.019L377.04,173.845L375.225,170.942L374.499,167.132L372.322,161.144L371.415,156.88L370.326,155.156L369.056,152.979L370.508,149.531L371.596,144.995L369.419,143.362L369.056,141.185L369.782,139.189L380.306,139.189L419.68,138.645L435.455,138.1L436.924,140.28L438.378,142.361L438.74,142.999L437.287,145.181L437.648,148.532L439.644,151.616L442,153.064L443.909,153.246L444.952,154.974Z" style="fill:rgb(226,226,226);fill-rule:nonzero;"/>
        <path id="MS" d="M490.956,365.562L490.755,366.559L486.649,366.559L485.494,365.917L483.826,365.661L478.438,367.2L477.026,366.559L474.973,369.895L474.098,370.512L473.206,368.537L472.299,365.453L469.577,362.913L470.485,356.925L469.94,356.199L468.489,356.381L461.957,356.925L442.723,357.469L442.36,356.199L442.905,349.848L445.627,344.949L449.8,337.692L449.074,336.059L449.981,336.059L450.526,333.518L448.711,332.067L448.893,330.615L447.26,326.986L447.033,322.745L448.121,320.636L447.804,317.188L446.715,314.829L447.804,313.741L446.715,312.108L447.078,310.656L447.804,305.757L450.163,303.58L449.618,301.947L452.522,297.773L454.699,297.048L454.699,295.052L454.155,293.963L456.332,289.79L458.509,288.882L458.595,286.174L465.48,286.113L484.597,284.573L488.232,284.392L488.239,289.449L488.367,302.664L487.725,327.298L487.597,338.46L489.778,353.343L490.956,365.562Z" style="fill-rule:nonzero;"/>
        <path id="IN" d="M486.085,233.725L486.136,231.456L486.521,227.864L488.318,225.554L489.729,222.475L491.782,219.139L491.397,214.52L489.985,212.339L489.729,209.773L490.37,205.411L489.985,199.894L488.959,187.192L487.933,175.003L487.162,165.702L489.6,166.408L490.755,167.177L491.653,166.921L493.321,165.381L495.566,164.098L499.608,163.969L517.057,162.173L521.482,161.75L522.675,174.414L526.049,203.653L526.524,208.234L526.23,210.03L527.204,211.455L527.281,212.544L525.28,213.813L522.471,215.045L519.929,215.481L519.454,219.344L515.824,221.973L513.604,225.156L513.861,227.042L513.399,228.26L510.759,228.26L509.501,226.977L507.522,227.979L505.393,229.171L505.521,231.596L504.574,231.8L504.202,230.992L502.483,229.799L499.903,230.864L498.672,233.25L497.531,232.608L496.376,231.339L492.833,231.724L488.394,232.494L486.085,233.725Z" style="fill-rule:nonzero;"/>
        <path id="IL" d="M485.596,234.317L485.596,231.456L485.801,227.594L487.687,225.104L489.098,222.115L491.151,219.049L490.856,214.881L489.265,212.069L489.189,209.413L489.74,205.231L489.085,199.534L488.239,187.012L487.212,175.093L486.48,165.856L486.264,165.125L485.622,163.072L484.596,160.121L483.313,158.71L482.158,156.657L481.973,152.3L474.114,153.342L452.522,154.703L445.627,154.363L445.808,156.245L447.622,156.789L448.348,157.697L448.711,159.148L451.796,161.87L452.34,163.684L451.796,166.406L450.344,169.309L449.8,171.305L447.985,172.757L446.534,173.301L442.36,174.39L441.816,175.841L441.272,177.474L441.816,178.563L443.268,179.833L443.086,183.099L441.635,184.369L441.09,185.639L441.09,187.817L439.639,188.18L438.369,189.087L438.187,190.176L438.369,191.809L437.008,192.852L436.191,195.075L436.554,197.978L438.369,203.784L444.175,209.772L448.53,212.675L448.348,216.122L449.074,217.211L454.155,217.574L456.332,218.663L455.788,221.566L453.973,226.283L453.429,228.824L455.243,231.908L460.324,236.081L463.953,236.626L465.586,240.618L467.219,243.158L466.493,245.517L467.763,248.783L469.215,250.416L470.758,249.787L471.303,248.07L472.919,246.929L475.487,246.056L477.939,246.992L480.221,247.838L480.849,247.672L480.797,246.686L479.951,244.491L480.297,242.605L482.107,241.36L483.98,240.577L484.903,240.244L484.441,239.193L483.838,237.473L484.826,236.471L485.596,234.317Z" style="fill:rgb(226,226,226);fill-rule:nonzero;"/>
        <path id="MN" d="M369.782,96.912L369.419,90.198L367.967,84.392L366.516,73.687L366.153,65.885L364.701,63.163L363.431,59.171L363.431,51.006L363.976,47.921L362.53,43.595L386.445,43.623L386.702,37.079L387.215,36.951L389.011,37.336L390.551,37.977L391.192,42.34L392.347,47.215L393.63,48.498L397.479,48.498L397.736,49.653L402.739,49.909L402.739,51.577L406.588,51.577L406.845,50.551L407.743,49.653L409.539,49.14L410.566,49.909L412.875,49.909L415.954,51.962L420.188,53.887L422.113,54.272L422.498,53.502L423.653,53.117L424.037,55.426L426.09,56.453L426.475,56.068L427.502,56.196L427.502,57.864L429.554,58.634L431.992,58.634L433.275,57.993L435.841,55.426L437.894,55.042L438.536,56.453L438.921,57.479L439.69,57.479L440.46,56.838L447.517,56.581L448.928,59.019L449.441,59.019L450.008,58.158L453.531,57.864L453.046,59.673L449.92,61.131L442.582,64.354L438.792,65.947L436.354,68L434.43,70.823L432.634,73.902L431.222,74.543L427.63,78.521L426.604,78.649L423.555,80.978L421.319,83.486L421.138,85.844L421.318,92.017L420.051,93.287L415.877,96.552L414.423,101.089L416.422,103.984L416.786,105.984L415.875,108.344L415.694,111.249L416.057,116.871L418.776,120.131L421.138,120.131L423.13,121.95L425.671,123.034L428.576,127.029L434.201,131.016L435.654,132.653L435.839,137.02L419.5,137.564L371.683,137.928L371.415,109.613L371.052,107.254L367.786,104.533L366.879,103.081L366.879,101.811L368.512,100.541L369.6,99.452L369.782,96.912Z" style="fill-rule:nonzero;"/>
        <path id="WI" d="M481.736,151.444L482.03,149.087L480.747,145.494L480.234,140.619L479.336,138.694L480.105,136.257L480.747,133.947L481.902,131.894L481.388,129.2L480.875,126.377L481.26,124.966L482.8,123.042L482.928,120.86L482.287,119.834L482.8,117.781L483.185,115.215L485.366,110.725L487.675,105.336L487.804,103.54L487.547,102.77L486.905,103.155L483.57,108.159L481.388,111.366L479.849,112.777L479.207,114.574L478.053,115.215L477.154,116.755L476,116.498L475.871,115.087L476.898,113.162L478.566,109.442L479.977,108.159L480.851,106.34L479.557,105.621L478.468,104.533L477.198,96.368L474.295,95.46L473.206,93.646L463.227,91.469L461.231,90.561L454.699,88.747L448.167,87.84L444.858,83.55L444.437,84.551L443.539,84.423L443.026,83.525L440.845,82.883L439.947,83.011L438.536,83.781L437.766,83.268L438.279,81.728L439.819,79.291L440.717,78.393L439.177,77.238L437.509,77.879L435.2,79.419L429.298,81.985L426.988,82.498L424.679,82.113L423.9,81.416L422.22,83.666L422.038,85.844L422.038,92.557L421.131,93.827L416.958,96.912L415.144,101.63L415.506,101.811L417.502,103.444L418.047,105.984L416.595,108.525L416.595,111.609L416.958,116.871L419.317,119.23L422.038,119.23L423.49,121.77L426.212,122.133L429.296,126.669L434.921,129.935L436.554,132.113L437.28,138.01L437.824,140.641L439.639,141.911L439.82,142.999L438.187,145.721L438.369,148.261L440.365,151.346L442.36,152.253L444.719,152.616L445.785,153.711L453.065,153.711L473.753,152.531L481.736,151.444Z" style="fill-rule:nonzero;"/>
        <path id="MO" d="M436.377,192.989L434.377,190.538L433.47,188.724L427.3,189.268L419.498,189.631L399.358,190.357L388.652,190.538L382.392,190.629L380.578,190.72L381.576,192.716L381.394,194.53L383.39,197.615L385.84,200.881L388.289,203.058L390.104,203.24L391.193,203.965L391.193,206.324L389.741,207.594L389.378,209.409L391.011,212.131L393.007,214.489L395.003,215.941L396.092,225.195L395.547,253.228L395.729,256.948L396.092,261.22L414.689,261.128L433.107,260.583L449.618,259.948L458.868,259.765L460.59,262.484L460.047,265.109L457.597,267.016L457.142,268.474L461.411,268.837L464.502,268.293L465.865,263.933L466.382,259.285L468.223,257.678L469.581,256.498L471.214,255.68L471.306,253.41L471.761,252.049L470.943,250.661L468.764,250.776L467.043,248.693L465.953,245.337L466.588,243.338L465.045,240.618L463.592,236.986L459.783,236.352L454.253,231.908L452.888,228.644L453.523,226.103L455.157,221.296L455.521,219.023L453.974,218.204L448.534,217.571L447.718,216.212L447.629,212.855L443.274,210.132L437.738,203.964L435.924,198.158L435.741,194.804L436.377,192.989Z" style="fill-rule:nonzero;"/>
        <path id="AR" d="M464.284,268.723L461.231,269.468L456.332,269.105L456.876,266.746L459.416,264.569L459.779,262.754L458.328,260.395L449.618,260.758L433.107,261.484L414.599,262.028L396.092,262.391L397.362,267.835L397.362,274.367L398.45,283.076L398.632,313.106L400.446,314.648L402.805,313.559L404.983,314.466L405.324,322.659L423.487,322.547L438.459,321.911L446.492,321.754L447.401,320.095L447.173,317.278L445.725,314.919L446.993,313.741L445.725,311.747L446.268,309.755L447.354,305.307L449.352,303.67L448.808,301.857L451.711,297.593L453.888,296.507L453.798,295.322L453.524,293.873L455.792,289.429L457.699,288.432L458.004,285.712L459.409,284.726L460.089,281.366L459.024,278.183L462.232,276.297L462.668,274.694L463.649,271.307L464.284,268.723Z" style="fill:rgb(226,226,226);fill-rule:nonzero;"/>
        <path id="OK" d="M293.166,250.96L284.683,250.597L279.58,250.212L279.784,250.37L279.226,258.642L296.659,259.759L322.1,260.793L320.247,280.173L319.884,294.326L320.066,295.596L323.513,298.499L325.146,299.406L325.69,299.225L326.235,297.592L327.323,299.043L328.956,299.043L328.956,297.955L331.134,299.043L330.771,302.128L334.037,302.309L336.033,303.217L339.299,303.761L341.295,305.213L343.109,303.58L345.831,304.124L347.827,306.846L348.553,306.846L348.553,308.66L350.367,309.204L352.182,307.39L353.633,307.934L355.629,307.934L356.355,309.93L360.165,311.382L361.254,310.837L362.705,307.571L363.613,307.571L364.52,309.204L367.786,309.749L370.689,310.837L373.048,311.563L374.499,310.837L375.044,308.842L378.491,308.842L380.124,309.567L382.302,307.934L383.209,307.934L383.753,309.204L387.019,309.204L388.289,307.571L389.741,307.934L391.374,309.93L393.914,311.382L396.455,312.108L397.995,312.996L397.686,283.458L396.598,274.749L396.47,267.707L395.327,262.519L394.71,256.82L394.656,253.792L385.023,254.045L348.19,253.682L312.445,252.049L293.166,250.96Z" style="fill:rgb(226,226,226);fill-rule:nonzero;"/>
        <path id="KS" d="M394.783,252.991L384.769,253.153L348.19,252.79L312.827,251.157L293.279,250.159L296.568,198.794L313.896,199.429L346.012,200.518L381.032,200.881L385.076,200.881L387.653,203.44L389.849,203.622L390.556,204.475L390.556,206.07L389.104,207.34L388.741,209.409L390.502,212.258L392.498,214.744L394.494,216.323L395.327,225.195L394.783,252.991Z" style="fill:rgb(226,226,226);fill-rule:nonzero;"/>
        <path id="LA" d="M473.213,370.344L472.396,368.267L471.489,365.813L468.857,363.003L469.584,357.645L469.49,356.739L468.489,357.011L461.957,357.735L442.093,358.1L441.55,356.199L442.274,349.488L444.906,344.769L448.899,337.872L448.444,335.968L449.441,335.428L449.805,333.879L447.991,332.247L447.902,330.705L446.449,327.256L446.087,322.541L438.369,322.631L423.127,323.357L405.504,323.38L405.527,330.978L406.071,338.417L406.616,341.502L408.611,344.768L409.337,348.76L412.785,353.114L412.966,355.655L413.51,356.199L412.966,362.913L410.607,366.904L411.877,368.537L411.333,370.533L410.789,376.34L409.7,378.88L409.797,381.75L413.517,380.544L419.932,380.287L428.143,383.11L433.275,384.008L436.226,382.853L438.792,383.751L441.358,384.521L442,382.853L439.434,381.955L437.381,382.34L435.2,381.057C435.2,381.057 435.328,380.03 435.841,379.902C436.354,379.774 438.279,379.132 438.279,379.132L439.69,380.287L441.102,379.517L443.668,380.03L444.822,381.955L445.079,383.751L448.671,384.008L450.083,385.419L449.441,386.702L448.415,387.344L449.698,388.627L456.37,391.449L459.192,390.423L459.962,388.498L462.015,387.985L463.426,386.83L464.453,387.6L465.094,389.91L463.298,390.551L463.811,391.064L466.505,390.038L468.302,387.344L468.943,386.959L467.275,386.702L467.917,385.419L467.788,384.264L469.456,383.879L470.354,382.853L470.868,383.495C470.868,383.495 470.739,385.932 471.381,385.932C472.022,385.932 474.717,386.446 474.717,386.446L477.924,387.985L478.694,389.14L481.004,389.14L481.902,389.91L483.698,387.472L483.698,386.317L482.671,386.317L479.977,384.136L475.358,383.495L472.792,381.698L473.69,379.517L475.487,379.774L475.615,379.261L474.204,378.491L474.204,378.106L476.77,378.106L478.181,375.668L477.154,374.129L476.898,371.947L475.743,372.076L474.204,373.744L473.69,375.796L471.253,375.283L470.483,373.872L471.894,372.332L473.498,370.921L473.213,370.344Z" style="fill:rgb(226,226,226);fill-rule:nonzero;"/>
        <path id="VA" d="M653.137,208.638L653.023,207.093L658.145,205.069L657.533,207.623L655.216,210.622L654.884,214.262L655.25,216.953L653.8,220.904L652.082,222.424L650.915,218.741L651.269,214.416L652.528,211.096L653.137,208.638ZM654.946,231.099L608.776,241.08L579.072,245.27L573.772,244.972L571.72,246.501L565.896,246.676L559.243,247.452L552.159,248.207L558.889,244.28L558.879,242.633L560.085,240.93L568.461,231.802L571.594,235.355L574.596,236.12L576.615,235.215L578.39,234.175L580.404,235.241L583.51,234.108L585,230.492L587.064,230.92L589.33,229.229L590.758,229.621L593.002,226.703L593.278,225.05L592.513,224.037L593.309,222.556L597.495,212.812L597.984,208.26L598.96,207.845L600.689,209.784L603.812,209.545L605.344,203.534L607.561,203.089L608.394,200.913L610.442,199.051L611.448,197.192L612.642,194.531L612.709,190.509L620.504,193.543C621.044,193.813 621.024,189.746 621.024,189.746L624.239,190.839L623.872,192.925L630.345,195.258L631.372,196.683L630.683,199.605L629.68,200.657L629.279,202.043L629.671,203.95L631.225,204.964L634.335,206.111L636.675,206.88L640.53,207.627L642.238,209.285L644.77,209.604L645.459,210.557L645.11,214.279L646.201,215.154L645.821,216.686L646.797,217.313L646.621,218.412L644.483,218.336L644.553,219.619L646.363,220.843L646.46,221.964L647.867,223.381L648.257,225.384L646.231,226.48L647.479,227.666L652.083,226.328L654.946,231.099Z" style="fill-rule:nonzero;"/>
        <path id="DC" d="M631.59,196.414L630.735,195.115L629.93,194.447L630.803,193.164L632.575,194.363L631.59,196.414Z" style="fill:rgb(235,235,235);fill-rule:nonzero;"/>
        <path id="MT" d="M278.347,91.994L278.861,83.144L280.653,63.472C281.016,59.48 281.513,56.748 281.742,51.242L282.488,39.693L258.143,37.464L234.92,34.642L211.698,31.434L186.037,27.2L171.411,24.506L145.44,19.004L141.885,35.946L144.607,41.934L143.518,45.563L144.97,49.192L147.51,50.28L151.177,58.827L153.316,61.349L153.679,62.256L156.401,63.163L156.764,64.796L151.139,78.767L151.139,80.763L153.135,83.304L153.86,83.304L157.671,80.945L158.215,80.038L159.485,80.582L159.304,84.755L161.481,94.735L163.84,96.731L164.566,97.275L166.017,99.089L165.654,101.811L166.199,104.533L167.106,105.259L168.921,103.444L171.098,103.444L173.638,104.714L175.634,103.988L178.9,103.988L181.803,105.259L183.981,104.896L184.343,102.537L186.702,101.993L187.791,103.081L188.154,105.621L189.566,106.705L190.783,97.526L207.206,99.885L229.578,103.024L242.715,104.529L267.672,107.272L276.395,108.482L277.23,96.238L278.347,91.994Z" style="fill-rule:nonzero;"/>
        <path id="ID" d="M123.941,138.57C105.996,135.123 112.713,136.31 107.163,135.117L110.676,121.226L114.124,107.164L115.212,103.807L117.208,99.09L116.21,97.275L114.214,97.366L113.579,96.549L113.942,95.642L114.214,93.192L117.753,88.838L119.204,88.475L120.111,87.568L120.565,85.027L121.291,84.483L124.375,79.856L127.46,76.409L127.641,73.415L124.92,71.328L123.876,67.835L124.194,60.169L127.097,47.105L130.635,30.593L133.629,19.888L134.234,16.87L144.548,18.876L141.248,35.946L143.588,42.061L142.754,45.69L144.333,49.319L146.873,50.662L150.413,58.445L152.552,61.476L153.042,62.383L155.764,63.29L156.127,65.305L150.629,78.64L150.884,81.273L153.007,83.558L154.497,83.94L158.308,81.072L158.597,80.674L158.721,81.346L158.922,84.628L160.972,94.862L163.713,96.985L164.056,97.657L165.763,99.599L165.145,101.811L165.689,104.788L167.233,105.513L168.921,104.208L170.971,103.826L173.638,105.096L175.634,104.625L178.645,104.498L181.803,105.768L183.981,105.533L184.726,103.683L186.702,102.375L187.282,103.718L187.772,105.494L189.604,107.509L186.61,126.542L182.527,149.565L179.226,149.312L172.731,148.096L164.948,146.644L155.295,144.756L145.352,142.769L138.619,141.309L131.27,139.985L123.941,138.57Z" style="fill:rgb(226,226,226);fill-rule:nonzero;"/>
        <path id="NV" d="M106.908,135.881L123.559,139.461L131.27,141.004L138.619,142.455L143.869,143.752L143.425,148.406L140.613,162.16L137.364,178.017L135.822,185.73L134.098,196.272L131.595,209.299L128.8,221.747L127.238,229.827L125.281,243.137L124.918,244.009L124.067,245.969L122.58,245.878L121.71,243.701L119.532,243.301L118.424,242.521L116.807,242.776L116.081,243.357L115.048,244.428L114.703,249.962L114.267,251.323L113.94,260.921L112.891,262.281L111.402,260.486L99.88,242.432L84.457,219.389L66.403,192.534L56.577,177.787L57.875,172.575L63.409,151.981L69.669,127.102L96.342,133.564L107.229,135.923" style="fill-rule:nonzero;"/>
        <path id="CA" d="M103.8,301.898L106.827,301.511L108.007,299.914L108.588,298.374L106.067,298.302L105.194,296.903L105.812,295.542L105.775,290.66L107.536,289.607L109.676,287.557L110.003,283.655L111.309,280.88L112.852,279.21L115.446,277.849L116.461,277.27L117.062,276.092L116.373,275.384L115.61,274.185L114.867,269.941L112.562,265.785L112.639,263.573L110.892,260.996L98.989,242.56L83.566,219.771L65.766,193.553L55.685,178.042L57.111,172.321L62.518,151.726L68.959,126.778L59.145,124.129L48.44,121.407L38.46,118.141L32.473,116.508L23.4,114.15L17.805,112.236L16.55,115.985L16.422,121.887L12.316,131.253L9.879,133.306L9.622,134.204L8.211,134.845L7.056,138.181L6.415,140.747L8.596,144.083L9.879,147.419L10.777,150.242L10.52,155.374L9.109,157.811L8.596,162.43L7.826,165.381L9.237,168.461L11.418,172.053L13.215,175.902L14.241,179.11L13.984,181.676L13.728,182.061L13.728,183.728L18.218,188.732L17.833,190.657L17.32,192.453L16.807,193.993L16.935,200.536L18.603,203.487L20.143,205.54L22.324,205.925L23.094,208.106L22.196,210.928L20.528,212.211L19.63,212.211L18.988,215.291L19.373,217.6L21.939,221.064L23.222,225.298L24.377,229.019L25.403,231.457L28.098,236.076L29.252,238.128L29.637,240.438L30.92,241.208L30.92,243.132L30.279,244.672L28.867,250.317L28.483,251.857L30.407,254.038L33.743,254.423L37.335,255.834L40.415,257.502L42.724,257.502L45.033,259.94L47.086,263.789L47.984,265.585L51.064,267.253L54.913,267.895L56.067,269.562L56.581,272.128L55.426,272.642L55.683,273.411L58.249,274.053L60.43,274.181L62.739,277.902L65.818,281.238L66.46,283.034L68.513,286.37L68.769,288.936L68.769,296.378L69.154,297.789L77.109,298.944L92.762,301.125L103.8,301.898ZM34,262.441L35.026,263.659L34.898,264.686L32.332,264.622L31.883,263.659L31.37,262.505L34,262.441ZM35.539,262.441L36.502,261.927L39.324,263.595L41.762,264.558L41.056,265.071L37.464,264.878L36.181,263.595L35.539,262.441ZM51.962,278.158L53.373,280.018L54.015,280.788L55.234,281.237L55.683,280.082L54.913,278.671L52.796,277.067L51.962,277.195L51.962,278.158ZM50.807,285.022L52.219,287.524L53.181,289.063L52.026,289.256L51,288.294C51,288.294 50.422,287.139 50.422,286.818L50.422,285.086L50.807,285.022Z" style="fill-rule:nonzero;"/>
    </g>
    <g id="Layer1">
        <g id="AZ1" serif:id="AZ">
            <circle id="AZ" serif:id="AZ" cx="150.79" cy="300.968" r="6.153"/>
        </g>
        <g id="NM1" serif:id="NM">
            <circle id="NM" serif:id="NM" cx="234.16" cy="312.408" r="6.153"/>
        </g>
        <g id="HI1" serif:id="HI">
            <circle id="HI" serif:id="HI" cx="234.16" cy="440.588" r="6.153"/>
        </g>
        <g id="TX1" serif:id="TX">
            <circle id="TX" serif:id="TX" cx="333.727" cy="370.573" r="6.153"/>
        </g>
        <g id="CA1" serif:id="CA">
            <circle id="CA" serif:id="CA" cx="44.743" cy="213.22" r="6.153"/>
        </g>
        <g id="UT1" serif:id="UT">
            <circle id="UT" serif:id="UT" cx="169.841" cy="211.933" r="6.153"/>
        </g>
        <g id="NE1" serif:id="NE">
            <circle id="NE" serif:id="NE" cx="323.934" cy="182.738" r="6.153"/>
        </g>
        <g id="NE-" serif:id="NE*">
            <circle id="NE-S" cx="339.247" cy="182.738" r="6.153"/>
        </g>
        <g id="WY1" serif:id="WY">
            <circle id="WY" serif:id="WY" cx="231.65" cy="146.496" r="6.153"/>
        </g>
        <g id="ND1" serif:id="ND">
            <circle id="ND" serif:id="ND" cx="325.003" cy="75.79" r="6.153"/>
        </g>
        <g id="MN1" serif:id="MN">
            <circle id="MN" serif:id="MN" cx="396.045" cy="114.635" r="6.153"/>
        </g>
        <g id="WI1" serif:id="WI">
            <circle id="WI" serif:id="WI" cx="453.513" cy="128.941" r="6.153"/>
        </g>
        <g id="MO1" serif:id="MO">
            <circle id="MO" serif:id="MO" cx="427.407" cy="246.122" r="6.153"/>
        </g>
        <g id="TN1" serif:id="TN">
            <circle id="TN" serif:id="TN" cx="499.791" cy="266.513" r="6.153"/>
        </g>
        <g id="MS1" serif:id="MS">
            <circle id="MS" serif:id="MS" cx="471.761" cy="341.247" r="6.153"/>
        </g>
        <g id="FL1" serif:id="FL">
            <circle id="FL" serif:id="FL" cx="598.529" cy="397.602" r="6.153"/>
        </g>
        <g id="VA1" serif:id="VA">
            <circle id="VA" serif:id="VA" cx="619.136" cy="227.404" r="6.153"/>
        </g>
        <g id="WV1" serif:id="WV">
            <circle id="WV" serif:id="WV" cx="585.085" cy="218.976" r="6.153"/>
        </g>
        <g id="OH1" serif:id="OH">
            <circle id="OH" serif:id="OH" cx="552.41" cy="194.695" r="6.153"/>
        </g>
        <g id="MI1" serif:id="MI">
            <circle id="MI" serif:id="MI" cx="516.036" cy="146.279" r="6.153"/>
        </g>
        <g id="PA1" serif:id="PA">
            <circle id="PA" serif:id="PA" cx="615.226" cy="171.668" r="6.153"/>
        </g>
        <g id="MD1" serif:id="MD">
            <circle id="MD" serif:id="MD" cx="703.304" cy="216.672" r="6.153"/>
        </g>
        <g id="DE1" serif:id="DE">
            <circle id="DE" serif:id="DE" cx="703.304" cy="189.872" r="6.153"/>
        </g>
        <g id="NJ1" serif:id="NJ">
            <circle id="NJ" serif:id="NJ" cx="703.304" cy="176.517" r="6.153"/>
        </g>
        <g id="NJ3" serif:id="NJ">
            <circle id="CT" serif:id="CT" cx="703.304" cy="162.45" r="6.153"/>
        </g>
        <g id="RI1" serif:id="RI">
            <circle id="RI" serif:id="RI" cx="721.52" cy="161.75" r="6.153"/>
        </g>
        <g id="MA1" serif:id="MA">
            <circle id="MA" serif:id="MA" cx="721.87" cy="128.68" r="6.153"/>
        </g>
        <g id="ME1" serif:id="ME">
            <circle id="ME" serif:id="ME" cx="700.639" cy="78.242" r="6.153"/>
        </g>
        <g id="NY1" serif:id="NY">
            <circle id="NY" serif:id="NY" cx="644.635" cy="119.81" r="6.153"/>
        </g>
        <g id="VT1" serif:id="VT">
            <circle id="VT" serif:id="VT" cx="667.218" cy="90.094" r="6.153"/>
        </g>
        <g id="IN1" serif:id="IN">
            <circle id="IN" serif:id="IN" cx="505.892" cy="201.31" r="6.153"/>
        </g>
        <g id="MT1" serif:id="MT">
            <circle id="MT" serif:id="MT" cx="218.849" cy="76.236" r="6.153"/>
        </g>
        <g id="WA1" serif:id="WA">
            <circle id="WA" serif:id="WA" cx="92.094" cy="39.832" r="6.153"/>
        </g>
        <g id="NV1" serif:id="NV">
            <circle id="NV" serif:id="NV" cx="99.103" cy="194.691" r="6.153"/>
        </g>
        <g id="FL3" serif:id="FL">
            <circle id="FL" serif:id="FL" cx="656.704" cy="391.799" r="6.153" style="fill:rgb(215,215,215);stroke:black;stroke-width:2px;"/>
        </g>
    </g>
    <g>
        <text x="209.95px" y="445.362px" style="font-family:'Inconsolata-Regular', 'Inconsolata', monospace;font-size:15.873px;">HI</text>
        <g>
            <text x="679.2px" y="181.374px" style="font-family:'Inconsolata-Regular', 'Inconsolata', monospace;font-size:15.873px;">NJ</text>
        </g>
        <g>
            <text x="679.2px" y="181.374px" style="font-family:'Inconsolata-Regular', 'Inconsolata', monospace;font-size:15.873px;">NJ</text>
        </g>
        <g>
            <text x="679.2px" y="167.927px" style="font-family:'Inconsolata-Regular', 'Inconsolata', monospace;font-size:15.873px;">CT</text>
        </g>
        <g>
            <text x="713.34px" y="152.765px" style="font-family:'Inconsolata-Regular', 'Inconsolata', monospace;font-size:15.873px;">RI</text>
        </g>
        <g>
            <text x="713.735px" y="119.81px" style="font-family:'Inconsolata-Regular', 'Inconsolata', monospace;font-size:15.873px;">MA</text>
            <g>
                <text x="656.258px" y="67.052px" style="font-family:'Inconsolata-Regular', 'Inconsolata', monospace;font-size:15.873px;">VT</text>
            </g>
        </g>
        <g>
            <text x="679.2px" y="194.816px" style="font-family:'Inconsolata-Regular', 'Inconsolata', monospace;font-size:15.873px;">DE</text>
        </g>
        <g>
            <path d="M676.149,176.517L660.977,176.517" style="fill:none;stroke:black;stroke-width:1px;stroke-linecap:round;stroke-miterlimit:1.5;"/>
        </g>
        <g>
            <path d="M687.168,155.139L680.319,139.43" style="fill:none;stroke:black;stroke-width:1px;stroke-linecap:round;stroke-miterlimit:1.5;"/>
        </g>
        <g>
            <path d="M710.707,147.82L692.382,132.111" style="fill:none;stroke:black;stroke-width:1px;stroke-linecap:round;stroke-miterlimit:1.5;"/>
        </g>
        <g>
            <path d="M711.33,114.778L690.605,119.81" style="fill:none;stroke:black;stroke-width:1px;stroke-linecap:round;stroke-miterlimit:1.5;"/>
        </g>
        <g>
            <path d="M676.15,189.872L652.47,189.872" style="fill:none;stroke:black;stroke-width:1px;stroke-linecap:round;stroke-miterlimit:1.5;"/>
        </g>
        <g>
            <text x="679.2px" y="220.652px" style="font-family:'Inconsolata-Regular', 'Inconsolata', monospace;font-size:15.873px;">MD</text>
        </g>
        <g>
            <path d="M676.149,215.707L637.258,201.045" style="fill:none;stroke:black;stroke-width:1px;stroke-linecap:round;stroke-miterlimit:1.5;"/>
        </g>
    </g>
    <g>
        <text x="463.528px" y="328.202px" style="font-family:'Inconsolata-Regular', 'Inconsolata', monospace;font-size:15.873px;fill:white;stroke:rgb(245,245,245);stroke-width:5px;stroke-miterlimit:4;">MS</text>
    </g>
    <g>
        <text x="463.528px" y="328.202px" style="font-family:'Inconsolata-Regular', 'Inconsolata', monospace;font-size:15.873px;">MS</text>
    </g>
    <g>
        <text x="611.129px" y="214.954px" style="font-family:'Inconsolata-Regular', 'Inconsolata', monospace;font-size:15.873px;fill:white;stroke:rgb(245,245,245);stroke-width:5px;stroke-miterlimit:4;">VA</text>
    </g>
    <g>
        <text x="611.129px" y="214.954px" style="font-family:'Inconsolata-Regular', 'Inconsolata', monospace;font-size:15.873px;">VA</text>
    </g>
    <g>
        <text x="419.233px" y="231.8px" style="font-family:'Inconsolata-Regular', 'Inconsolata', monospace;font-size:15.873px;fill:white;stroke:rgb(245,245,245);stroke-width:5px;stroke-miterlimit:4;">MO</text>
    </g>
    <g>
        <text x="419.233px" y="231.8px" style="font-family:'Inconsolata-Regular', 'Inconsolata', monospace;font-size:15.873px;">MO</text>
    </g>
    <g>
        <text x="637.688px" y="107.774px" style="font-family:'Inconsolata-Regular', 'Inconsolata', monospace;font-size:15.873px;fill:white;stroke:rgb(245,245,245);stroke-width:5px;stroke-miterlimit:4;">NY</text>
    </g>
    <g>
        <text x="637.688px" y="107.774px" style="font-family:'Inconsolata-Regular', 'Inconsolata', monospace;font-size:15.873px;">NY</text>
    </g>
    <g>
        <text x="498.453px" y="188.542px" style="font-family:'Inconsolata-Regular', 'Inconsolata', monospace;font-size:15.873px;fill:white;stroke:rgb(245,245,245);stroke-width:5px;stroke-miterlimit:4;">IN</text>
    </g>
    <g>
        <text x="498.453px" y="188.542px" style="font-family:'Inconsolata-Regular', 'Inconsolata', monospace;font-size:15.873px;">IN</text>
    </g>
    <g>
        <text x="693.687px" y="67.632px" style="font-family:'Inconsolata-Regular', 'Inconsolata', monospace;font-size:15.873px;fill:white;stroke:rgb(245,245,245);stroke-width:5px;stroke-miterlimit:4;">ME</text>
    </g>
    <g>
        <text x="693.687px" y="67.632px" style="font-family:'Inconsolata-Regular', 'Inconsolata', monospace;font-size:15.873px;">ME</text>
    </g>
    <g>
        <text x="605.76px" y="159.782px" style="font-family:'Inconsolata-Regular', 'Inconsolata', monospace;font-size:15.873px;fill:white;stroke:rgb(245,245,245);stroke-width:5px;stroke-miterlimit:4;">PA</text>
    </g>
    <g>
        <text x="605.76px" y="159.782px" style="font-family:'Inconsolata-Regular', 'Inconsolata', monospace;font-size:15.873px;">PA</text>
    </g>
    <g>
        <text x="577.188px" y="209.113px" style="font-family:'Inconsolata-Regular', 'Inconsolata', monospace;font-size:15.873px;fill:white;stroke:rgb(245,245,245);stroke-width:5px;stroke-miterlimit:4;">WV</text>
    </g>
    <g>
        <text x="577.188px" y="209.113px" style="font-family:'Inconsolata-Regular', 'Inconsolata', monospace;font-size:15.873px;">WV</text>
    </g>
    <g>
        <text x="511.148px" y="270.013px" style="font-family:'Inconsolata-Regular', 'Inconsolata', monospace;font-size:15.873px;fill:white;stroke:rgb(245,245,245);stroke-width:5px;stroke-miterlimit:4;">TN</text>
    </g>
    <g>
        <text x="511.148px" y="270.013px" style="font-family:'Inconsolata-Regular', 'Inconsolata', monospace;font-size:15.873px;">TN</text>
    </g>
    <g>
        <text x="542.95px" y="183.031px" style="font-family:'Inconsolata-Regular', 'Inconsolata', monospace;font-size:15.873px;fill:white;stroke:rgb(245,245,245);stroke-width:5px;stroke-miterlimit:4;">OH</text>
    </g>
    <g>
        <text x="542.95px" y="183.031px" style="font-family:'Inconsolata-Regular', 'Inconsolata', monospace;font-size:15.873px;">OH</text>
    </g>
    <g>
        <text x="82.628px" y="27.526px" style="font-family:'Inconsolata-Regular', 'Inconsolata', monospace;font-size:15.873px;fill:white;stroke:rgb(245,245,245);stroke-width:5px;stroke-miterlimit:4;">WA</text>
    </g>
    <g>
        <text x="82.628px" y="27.526px" style="font-family:'Inconsolata-Regular', 'Inconsolata', monospace;font-size:15.873px;">WA</text>
    </g>
    <g>
        <text x="316.987px" y="64.296px" style="font-family:'Inconsolata-Regular', 'Inconsolata', monospace;font-size:15.873px;fill:white;stroke:rgb(245,245,245);stroke-width:5px;stroke-miterlimit:4;">ND</text>
    </g>
    <g>
        <text x="316.987px" y="64.296px" style="font-family:'Inconsolata-Regular', 'Inconsolata', monospace;font-size:15.873px;">ND</text>
    </g>
    <g>
        <text x="211.536px" y="62.231px" style="font-family:'Inconsolata-Regular', 'Inconsolata', monospace;font-size:15.873px;fill:white;stroke:rgb(245,245,245);stroke-width:5px;stroke-miterlimit:4;">MT</text>
    </g>
    <g>
        <text x="211.536px" y="62.231px" style="font-family:'Inconsolata-Regular', 'Inconsolata', monospace;font-size:15.873px;">MT</text>
    </g>
    <g>
        <text x="223.871px" y="133.132px" style="font-family:'Inconsolata-Regular', 'Inconsolata', monospace;font-size:15.873px;fill:white;stroke:rgb(245,245,245);stroke-width:5px;stroke-miterlimit:4;">WY</text>
    </g>
    <g>
        <text x="223.871px" y="133.132px" style="font-family:'Inconsolata-Regular', 'Inconsolata', monospace;font-size:15.873px;">WY</text>
    </g>
    <g>
        <text x="590.458px" y="386.886px" style="font-family:'Inconsolata-Regular', 'Inconsolata', monospace;font-size:15.873px;fill:white;stroke:rgb(245,245,245);stroke-width:5px;stroke-miterlimit:4;">FL</text>
    </g>
    <g>
        <text x="590.458px" y="386.886px" style="font-family:'Inconsolata-Regular', 'Inconsolata', monospace;font-size:15.873px;">FL</text>
    </g>
    <g>
        <text x="324.64px" y="357.315px" style="font-family:'Inconsolata-Regular', 'Inconsolata', monospace;font-size:15.873px;fill:white;stroke:rgb(245,245,245);stroke-width:5px;stroke-miterlimit:4;">TX</text>
    </g>
    <g>
        <text x="324.64px" y="357.315px" style="font-family:'Inconsolata-Regular', 'Inconsolata', monospace;font-size:15.873px;">TX</text>
        <g>
            <text x="667.914px" y="395.198px" style="font-family:'Inconsolata-Regular', 'Inconsolata', monospace;font-size:10.894px;">= 1 SEAT</text>
        </g>
        <g>
            <g transform="matrix(11.2991,0,0,11.2991,436.855,426.85)">
            </g>
            <text x="431.206px" y="426.85px" style="font-family:'Inconsolata-Regular', 'Inconsolata', monospace;font-size:11.299px;">R</text>
            <g transform="matrix(11.2991,0,0,11.2991,436.855,449.909)">
            </g>
            <text x="431.206px" y="449.909px" style="font-family:'Inconsolata-Regular', 'Inconsolata', monospace;font-size:11.299px;">D</text>
        </g>
        <g>
            <g>
                <rect x="536.746" y="412.097" width="21.764" height="21.764" style="fill:rgb(255,53,44);"/>
            </g>
            <g>
                <rect x="514.982" y="412.097" width="21.764" height="21.764" style="fill:rgb(255,106,84);"/>
            </g>
            <g>
                <rect x="493.218" y="412.097" width="21.764" height="21.764" style="fill:rgb(255,146,124);"/>
            </g>
            <g>
                <rect x="471.453" y="412.097" width="21.764" height="21.764" style="fill:rgb(255,184,166);"/>
            </g>
            <g>
                <rect x="449.689" y="412.097" width="21.764" height="21.764" style="fill:rgb(255,220,210);"/>
                <path d="M449.689,412.097L449.689,433.861L471.453,433.861L471.453,412.097L449.689,412.097ZM450.242,412.65L470.901,412.65L470.901,433.309L450.242,433.309L450.242,412.65Z"/>
            </g>
            <g>
                <rect x="536.799" y="434.804" width="21.764" height="21.764" style="fill:rgb(39,152,218);"/>
            </g>
            <g>
                <rect x="515.034" y="434.804" width="21.764" height="21.764" style="fill:rgb(104,172,226);"/>
            </g>
            <g>
                <rect x="493.271" y="434.804" width="21.764" height="21.764" style="fill:rgb(147,192,233);"/>
            </g>
            <g>
                <rect x="471.506" y="434.804" width="21.764" height="21.764" style="fill:rgb(185,212,241);"/>
            </g>
            <g>
                <rect x="449.741" y="434.804" width="21.764" height="21.764" style="fill:rgb(220,234,248);"/>
                <path d="M449.741,434.804L449.741,456.568L471.505,456.568L471.505,434.804L449.741,434.804ZM450.295,435.357L470.954,435.357L470.954,456.016L450.295,456.016L450.295,435.357Z"/>
            </g>
        </g>
        <g>
            <text x="539.109px" y="407.419px" style="font-family:'Inconsolata-Regular', 'Inconsolata', monospace;font-size:9.946px;">90%+</text>
        </g>
        <g>
            <text x="449.052px" y="407.419px" style="font-family:'Inconsolata-Regular', 'Inconsolata', monospace;font-size:9.946px;">50%+</text>
        </g>
        <g>
            <path d="M442.79,412.097L442.79,456.57" style="fill:none;stroke:black;stroke-width:0.55px;stroke-linejoin:miter;stroke-miterlimit:1.5;"/>
        </g>
    </g>
    <g>
        <text x="225.433px" y="297.791px" style="font-family:'Inconsolata-Regular', 'Inconsolata', monospace;font-size:15.873px;fill:white;stroke:rgb(245,245,245);stroke-width:5px;stroke-miterlimit:4;">NM</text>
    </g>
    <g>
        <text x="225.433px" y="297.791px" style="font-family:'Inconsolata-Regular', 'Inconsolata', monospace;font-size:15.873px;">NM</text>
    </g>
    <g>
        <text x="144.383px" y="287.617px" style="font-family:'Inconsolata-Regular', 'Inconsolata', monospace;font-size:15.873px;fill:white;stroke:rgb(245,245,245);stroke-width:5px;stroke-miterlimit:4;">AZ</text>
    </g>
    <g>
        <text x="144.383px" y="287.617px" style="font-family:'Inconsolata-Regular', 'Inconsolata', monospace;font-size:15.873px;">AZ</text>
    </g>
    <g>
        <text x="34.957px" y="198.584px" style="font-family:'Inconsolata-Regular', 'Inconsolata', monospace;font-size:15.873px;fill:white;stroke:rgb(245,245,245);stroke-width:5px;stroke-miterlimit:4;">CA</text>
    </g>
    <g>
        <text x="34.957px" y="198.584px" style="font-family:'Inconsolata-Regular', 'Inconsolata', monospace;font-size:15.873px;">CA</text>
    </g>
    <g>
        <text x="161.941px" y="198.584px" style="font-family:'Inconsolata-Regular', 'Inconsolata', monospace;font-size:15.873px;fill:white;stroke:rgb(245,245,245);stroke-width:5px;stroke-miterlimit:4;">UT</text>
    </g>
    <g>
        <text x="161.941px" y="198.584px" style="font-family:'Inconsolata-Regular', 'Inconsolata', monospace;font-size:15.873px;">UT</text>
    </g>
    <g>
        <text x="90.513px" y="182.711px" style="font-family:'Inconsolata-Regular', 'Inconsolata', monospace;font-size:15.873px;fill:white;stroke:rgb(245,245,245);stroke-width:5px;stroke-miterlimit:4;">NV</text>
    </g>
    <g>
        <text x="90.513px" y="182.711px" style="font-family:'Inconsolata-Regular', 'Inconsolata', monospace;font-size:15.873px;">NV</text>
    </g>
    <g>
        <text x="445.333px" y="115.937px" style="font-family:'Inconsolata-Regular', 'Inconsolata', monospace;font-size:15.873px;fill:white;stroke:rgb(245,245,245);stroke-width:5px;stroke-miterlimit:4;">WI</text>
    </g>
    <g>
        <text x="445.333px" y="115.937px" style="font-family:'Inconsolata-Regular', 'Inconsolata', monospace;font-size:15.873px;">WI</text>
    </g>
    <g>
        <text x="507.856px" y="133.248px" style="font-family:'Inconsolata-Regular', 'Inconsolata', monospace;font-size:15.873px;fill:white;stroke:rgb(245,245,245);stroke-width:5px;stroke-miterlimit:4;">MI</text>
    </g>
    <g>
        <text x="507.856px" y="133.248px" style="font-family:'Inconsolata-Regular', 'Inconsolata', monospace;font-size:15.873px;">MI</text>
    </g>
    <g>
        <text x="388.132px" y="99.378px" style="font-family:'Inconsolata-Regular', 'Inconsolata', monospace;font-size:15.873px;fill:white;stroke:rgb(245,245,245);stroke-width:5px;stroke-miterlimit:4;">MN</text>
    </g>
    <g>
        <text x="388.132px" y="99.378px" style="font-family:'Inconsolata-Regular', 'Inconsolata', monospace;font-size:15.873px;">MN</text>
    </g>
    <g>
        <text x="323.726px" y="171.458px" style="font-family:'Inconsolata-Regular', 'Inconsolata', monospace;font-size:15.873px;fill:white;stroke:rgb(245,245,245);stroke-width:5px;stroke-miterlimit:4;">NE</text>
    </g>
    <g>
        <text x="323.726px" y="171.458px" style="font-family:'Inconsolata-Regular', 'Inconsolata', monospace;font-size:15.873px;">NE</text>
    </g>
</svg>
